<?xml version="1.0" encoding="utf-8"?>
<!-- Generator: Adobe Illustrator 16.0.4, SVG Export Plug-In . SVG Version: 6.00 Build 0)  -->
<!DOCTYPE svg PUBLIC "-//W3C//DTD SVG 1.1//EN" "http://www.w3.org/Graphics/SVG/1.1/DTD/svg11.dtd">
<svg version="1.1" id="Layer_1" xmlns="http://www.w3.org/2000/svg" xmlns:xlink="http://www.w3.org/1999/xlink" x="0px" y="0px"
	 width="686.602px" height="98.58px" viewBox="0 0 686.602 98.58" enable-background="new 0 0 686.602 98.58" xml:space="preserve">
<g>
	<g>
		<defs>
			<rect id="SVGID_1_" x="1" width="685.602" height="92.58"/>
		</defs>
		<clipPath id="SVGID_2_">
			<use xlink:href="#SVGID_1_"  overflow="visible"/>
		</clipPath>
	</g>
</g>
<g>
	<path d="M114.169,66.995c0,5.007,0.91,6.373,8.194,7.282v1.821H98.691v-1.821c7.284-0.909,8.195-2.275,8.195-7.282V42.414
		c0-4.554-0.911-5.918-7.284-6.829v-1.82l13.656-4.097h0.911V66.995z"/>
	<path d="M126.003,74.278c7.283-0.91,8.194-2.276,8.194-7.283V42.414c0-4.553-0.911-5.918-7.284-6.829v-1.821l14.112-4.097h0.728
		l-0.273,9.56h0.182c5.281-5.28,10.925-9.56,17.572-9.56c6.099,0,11.38,3.642,11.38,13.657v23.671c0,5.007,0.91,6.373,8.194,7.283
		v1.82h-21.851v-1.82c6.373-1.365,6.373-2.276,6.373-7.283V43.324c0-5.007-2.185-8.194-6.828-8.194s-8.74,1.547-15.022,6.828v25.037
		c0,5.007,0.911,6.373,8.194,7.283v1.82h-23.671V74.278z"/>
	<path d="M189.476,45.043h22.487c2.276-9.559-3.534-13.656-9.451-13.656C194.682,31.387,190.841,36.85,189.476,45.043
		 M181.336,52.782c0-15.477,9.576-24.126,20.956-24.126c8.65,0,19.467,4.552,16.736,19.574h-30.591
		c-0.637,12.563,5.918,21.85,16.57,21.85c5.918,0,10.561-1.366,14.567-3.642v2.73c-2.731,2.276-8.194,6.829-16.843,6.829
		C189.165,75.998,181.336,65.072,181.336,52.782"/>
	<path d="M295.708,66.995c0,5.007,0.91,6.373,8.194,7.282v1.821h-23.671v-1.821c7.283-0.909,8.193-2.275,8.193-7.282V42.414
		c0-4.554-0.91-5.918-7.283-6.829v-1.82l13.656-4.097h0.911V66.995z"/>
	<path d="M375.824,23.75c2.913-3.643,4.552-8.649-3.277-9.561v-1.82h22.76v1.82c-6.281,0.911-10.379,3.278-13.564,7.284
		l-16.389,20.484l20.03,23.216c3.277,3.824,7.738,8.193,13.565,9.104v1.821h-26.402v-1.821c7.283-0.91,6.646-4.732,3.277-8.648
		l-14.112-16.388c-3.186-3.642-4.096-4.097-7.738-4.097v21.85c0,5.008,0.91,6.373,8.194,7.283v1.821h-23.671v-1.821
		c7.283-0.91,8.194-2.275,8.194-7.283V21.474c0-5.008-0.911-6.373-8.194-7.284v-1.82h23.671v1.82
		c-7.284,0.911-8.194,2.276-8.194,7.284v20.94c5.462,0,7.557-1.003,10.471-4.554L375.824,23.75z"/>
	<path d="M419.886,66.995c0,5.007,0.911,6.373,8.194,7.282v1.821H404.41v-1.821c7.282-0.909,8.193-2.275,8.193-7.282V42.414
		c0-4.554-0.911-5.918-7.283-6.829v-1.82l13.656-4.097h0.91V66.995z"/>
	<path d="M465.358,49.504c0,13.475,6.828,20.576,16.57,20.576c5.918,0,10.561-1.365,14.566-3.642v2.73
		c-2.731,2.276-8.193,6.829-16.843,6.829c-13.565,0-21.395-10.926-21.395-23.216c0-15.477,10.925-24.126,22.305-24.126
		c9.924,0,15.933,5.553,15.933,11.38c0,3.187-2.55,4.553-4.917,4.553c-2.003,0-3.914-1.003-3.823-2.914
		c0.456-6.646-0.638-10.287-7.647-10.287C471.003,31.388,465.358,38.943,465.358,49.504"/>
	<path d="M525.381,73.267c8.888,0,14.901-6.896,14.901-20.553c0-13.656-6.014-21.327-14.901-21.327s-14.997,6.997-14.997,20.653
		S516.494,73.267,525.381,73.267 M525.763,28.656c13.38,0,22.746,10.561,22.556,23.671c-0.286,13.109-10.035,23.671-23.416,23.671
		c-13.38,0-22.745-10.562-22.458-23.671C502.635,39.217,512.383,28.656,525.763,28.656"/>
	<path d="M620.963,66.995c0,5.007,0.91,6.373,8.193,7.282v1.821h-23.671v-1.821c7.283-0.909,8.194-2.275,8.194-7.282V42.414
		c0-4.554-0.911-5.918-7.284-6.829v-1.82l13.657-4.097h0.91V66.995z"/>
	<path d="M632.797,74.278c7.283-0.91,8.194-2.276,8.194-7.283V42.414c0-4.553-0.911-5.918-7.284-6.829v-1.821l14.112-4.097h0.728
		l-0.272,9.56h0.182c5.281-5.28,10.925-9.56,17.571-9.56c6.1,0,11.381,3.642,11.381,13.657v23.671c0,5.007,0.91,6.373,8.193,7.283
		v1.82h-21.851v-1.82c6.373-1.365,6.373-2.276,6.373-7.283V43.324c0-5.007-2.184-8.194-6.828-8.194
		c-4.643,0-8.74,1.547-15.021,6.828v25.037c0,5.007,0.911,6.373,8.193,7.283v1.82h-23.671V74.278z"/>
	<path d="M21.649,38.21C15.1,35.572,8.642,31.842,8.642,24.11c0-6.822,4.002-10.461,11.642-10.461
		c7.823,0,13.736,5.003,15.191,15.92h2.274l-1.792-16.348l-1.55-1.505c0,0-1.962,0.792-4.327,0.126
		c-3.266-0.917-6.668-1.377-9.886-1.377c-12.462,0-19.284,7.278-19.284,16.191c0,9.277,7.004,14.464,16.191,18.375
		c6.822,2.909,14.736,6.548,14.736,14.918c0,7.458-4.184,12.823-12.462,12.823c-6.822,0-15.736-2.272-17.101-17.282H0l0.798,16.781
		l1.646,1.488c0.808-0.211,2.411-0.51,3.781-0.041c4.075,1.397,8.697,2.238,13.15,2.238c12.189,0,20.193-7.277,20.193-18.192
		C39.568,47.761,30.745,41.848,21.649,38.21"/>
	<path d="M241.14,67.012c0,5.008,0.951,6.374,8.558,7.285v1.821h-24.723v-1.821c7.607-0.911,8.558-2.277,8.558-7.285V18.749
		c0-4.553-0.951-5.919-7.607-6.83v-1.821L240.189,6h0.951V67.012z"/>
	<path d="M268.453,67.012c0,5.008,0.951,6.374,8.558,7.285v1.821h-24.723v-1.821c7.607-0.911,8.558-2.277,8.558-7.285V18.749
		c0-4.553-0.951-5.919-7.607-6.83v-1.821L267.502,6h0.951V67.012z"/>
	<path d="M447.276,67.012c0,5.009,0.951,6.375,8.558,7.285v1.821h-24.723v-1.822c7.607-0.909,8.558-2.275,8.558-7.284V18.748
		c0-4.553-0.95-5.919-7.606-6.829v-1.821l14.263-4.099h0.951V67.012z"/>
	<path d="M566.417,67.012c0,5.008,0.951,6.374,8.558,7.285v1.821h-24.723v-1.821c7.607-0.911,8.558-2.277,8.558-7.285V18.749
		c0-4.553-0.95-5.919-7.606-6.83v-1.821L565.465,6h0.951V67.012z"/>
	<path d="M593.729,67.012c0,5.008,0.951,6.374,8.558,7.285v1.821h-24.723v-1.821c7.607-0.911,8.558-2.277,8.558-7.285V18.749
		c0-4.553-0.95-5.919-7.606-6.83v-1.821L592.778,6h0.951V67.012z"/>
	<path d="M109.954,10.211c-1.784,1.255-3.061,2.532-4.316,4.316v1.146c1.255,1.785,2.531,3.062,4.316,4.317h1.147
		c1.784-1.255,3.061-2.532,4.316-4.317v-1.146c-1.255-1.784-2.53-3.062-4.316-4.316H109.954z"/>
	<path d="M616.75,10.211c-1.784,1.255-3.061,2.532-4.315,4.316v1.146c1.255,1.785,2.53,3.062,4.315,4.317h1.147
		c1.784-1.255,3.061-2.532,4.315-4.317c0.001-0.458,0.001-0.687,0-1.146c-1.255-1.784-2.529-3.062-4.315-4.316H616.75z"/>
	<path d="M59.693,37.927V59.99c0,10.442,6.357,13.166,10.896,13.166c9.988,0,15.436-8.626,14.982-20.884
		c-0.453-11.804-6.901-18.614-14.528-18.614C66.412,33.658,62.417,35.565,59.693,37.927 M59.875,35.021
		c3.45-3.632,8.898-6.356,14.346-6.356c11.804,0,19.068,9.988,19.068,23.608c0,14.528-11.35,23.608-23.154,23.608
		c-3.359,0-7.718-0.908-10.442-2.725V89.5c0,4.994,0.908,6.355,8.172,7.265v1.815h-22.7v-1.815c6.356-0.909,7.264-2.271,7.264-7.265
		V41.376c0-4.54-0.908-5.901-7.264-6.81V32.75l14.074-4.086h0.727l-0.273,6.356H59.875z"/>
	<path d="M291.531,10.211c-1.784,1.255-3.061,2.532-4.316,4.316v1.146c1.255,1.785,2.531,3.062,4.316,4.317h1.146
		c1.785-1.255,3.062-2.532,4.317-4.317c0.001-0.458,0.001-0.688,0-1.146c-1.255-1.784-2.531-3.062-4.317-4.316H291.531z"/>
	<path d="M415.786,10.211c-1.784,1.255-3.062,2.532-4.316,4.316v1.146c1.255,1.785,2.531,3.062,4.316,4.317h1.146
		c1.785-1.255,3.062-2.532,4.316-4.317c0.001-0.458,0.001-0.687,0-1.146c-1.255-1.784-2.53-3.062-4.316-4.316H415.786z"/>
</g>
</svg>
