<?xml version="1.0" encoding="utf-8"?>
<!-- Generator: Adobe Illustrator 21.0.2, SVG Export Plug-In . SVG Version: 6.00 Build 0)  -->
<svg version="1.1" id="Layer_1" xmlns="http://www.w3.org/2000/svg" xmlns:xlink="http://www.w3.org/1999/xlink" x="0px" y="0px"
	 viewBox="0 0 64 64" style="enable-background:new 0 0 64 64;" xml:space="preserve">
<g id="Page-1_1_">
	<g id="zoom">
		<g id="Page-1">
			<path id="Shape" d="M61.2,57.3L39.7,34.6c2.7-3.5,4.4-7.8,4.4-12.6c0.1-11.4-9.2-20.7-20.7-20.7S2.7,10.6,2.7,21.9
				S12,42.5,23.4,42.5c3.8,0,7.4-1.1,10.5-2.9l21.7,23L61.2,57.3L61.2,57.3L61.2,57.3z M7.3,21.9c0-8.9,7.2-16,16.1-16
				s16.1,7.2,16.1,16s-7.2,16.1-16.1,16.1S7.3,30.9,7.3,21.9L7.3,21.9L7.3,21.9z"/>
		</g>
	</g>
</g>
</svg>
