<?xml version="1.0" standalone="no"?>
<!DOCTYPE svg PUBLIC "-//W3C//DTD SVG 1.1//EN" "http://www.w3.org/Graphics/SVG/1.1/DTD/svg11.dtd" >
<svg xmlns="http://www.w3.org/2000/svg" xmlns:xlink="http://www.w3.org/1999/xlink" version="1.1">
<metadata>
Created by FontForge 20161013 at Mon Jul 20 23:20:15 2015
 By ,,,
Copyright (c) 2015 Swiss Typefaces Sarl. All rights reserved.
</metadata>
<defs>
<font id="SangBleuSerif-Light" horiz-adv-x="500" >
  <font-face 
    font-family="SangBleu Serif Light"
    font-weight="300"
    font-stretch="normal"
    units-per-em="1000"
    panose-1="2 0 3 4 0 0 0 0 0 0"
    ascent="724"
    descent="-276"
    x-height="481"
    cap-height="787"
    bbox="-19 -315 1204 987"
    underline-thickness="41"
    underline-position="-217"
    unicode-range="U+000D-FB02"
  />
<missing-glyph horiz-adv-x="697" 
d="M100 0v787h497v-787h-497zM112 777v-767h473v767h-473z" />
    <glyph glyph-name="fi" unicode="fi" horiz-adv-x="553" 
d="M266 12v-12h-226v12q43 0 57.5 8t14.5 26v415h-79v20h79v21q0 125 30 190q51 108 181 108q48 0 87.5 -16.5t39.5 -40.5q0 -14 -8.5 -22t-20.5 -8q-16 0 -27.5 10.5t-19 23t-25 23t-42.5 10.5q-100 0 -131 -111q-12 -42 -12 -140v-48h346v-12q-43 0 -57.5 -8t-14.5 -29
v-383q0 -21 14.5 -29t57.5 -8v-12h-196v12q43 0 57.5 8t14.5 29v412h-222v-407q0 -28 15 -33.5t87 -8.5z" />
    <glyph glyph-name="fl" unicode="fl" horiz-adv-x="552" 
d="M266 12v-12h-226v12q43 0 57.5 8t14.5 26v415h-79v20h79v32q0 129 29 190q47 97 152 97q42 0 79 -13h147v-12q-43 0 -57.5 -8t-14.5 -29v-689q0 -21 14.5 -29t57.5 -8v-12h-196v12q43 0 57.5 8t14.5 29v664q-16 0 -28.5 11t-20.5 23.5t-26 23.5t-43 11q-55 0 -84 -50
t-29 -166v-85h124v-20h-124v-407q0 -28 15 -33.5t87 -8.5z" />
    <glyph glyph-name="f_b" unicode="fb" horiz-adv-x="881" 
d="M33 461v20h79v32q0 129 29 190q47 97 152 97q42 0 79 -13h147v-12q-43 0 -57.5 -8t-14.5 -29v-738h-124v12q44 0 58 9t14 34v658q-16 0 -28.5 11t-20.5 23.5t-26 23.5t-43 11q-55 0 -84 -50t-29 -166v-85h124v-20h-124v-407q0 -28 15 -33.5t87 -8.5v-12h-226v12
q43 0 57.5 8t14.5 26v415h-79zM586 471q-81 0 -138 -49q26 36 69 59t90 23q106 0 168.5 -73t62.5 -184q0 -113 -61.5 -187t-166.5 -74q-94 0 -162 77q61 -44 137 -44q95 0 145.5 64t50.5 164t-51 162t-144 62z" />
    <glyph glyph-name="f_f" unicode="ff" horiz-adv-x="626" 
d="M33 461v20h79v10q0 129 29 190q47 97 149 97q48 0 87.5 -16.5t39.5 -40.5q0 -14 -8.5 -22t-20.5 -8q-16 0 -28 11t-19 23.5t-24.5 23.5t-42.5 11q-54 0 -82 -49.5t-28 -166.5v-63h228v32q0 129 29 190q47 97 152 97q48 0 87.5 -16.5t39.5 -40.5q0 -14 -8.5 -22t-20.5 -8
q-16 0 -27.5 11t-19 23.5t-25 23.5t-42.5 11q-55 0 -84 -50t-29 -166v-85h165v-20h-165v-407q0 -28 29 -35q16 -4 93 -7v-12h-246v12q43 0 57.5 8t14.5 26v415h-228v-407q0 -28 29 -35q16 -4 93 -7v-12h-246v12q43 0 57.5 8t14.5 26v415h-79z" />
    <glyph glyph-name="f_f_i" unicode="ffi" horiz-adv-x="832" 
d="M33 461v20h79v10q0 129 29 190q47 97 149 97q48 0 87.5 -16.5t39.5 -40.5q0 -14 -8.5 -22t-20.5 -8q-16 0 -28 11t-19 23.5t-24.5 23.5t-42.5 11q-54 0 -82 -49.5t-28 -166.5v-63h227v21q0 125 30 190q51 108 181 108q48 0 87.5 -16.5t39.5 -40.5q0 -14 -8.5 -22
t-20.5 -8q-16 0 -28 10.5t-19 23t-24.5 23t-42.5 10.5q-100 0 -131 -111q-12 -42 -12 -140v-48h346v-12q-43 0 -57.5 -8t-14.5 -29v-383q0 -21 14.5 -29t57.5 -8v-12h-196v12q43 0 57.5 8t14.5 29v412h-222v-407q0 -28 15 -33.5t87 -8.5v-12h-226v12q43 0 57.5 8t14.5 26
v415h-227v-407q0 -28 29 -35q16 -4 93 -7v-12h-246v12q43 0 57.5 8t14.5 26v415h-79z" />
    <glyph glyph-name="f_f_l" unicode="ffl" horiz-adv-x="831" 
d="M286 12v-12h-246v12q43 0 57.5 8t14.5 26v415h-79v20h79v10q0 129 29 190q47 97 149 97q48 0 87.5 -16.5t39.5 -40.5q0 -14 -8.5 -22t-20.5 -8q-16 0 -28 11t-19 23.5t-24.5 23.5t-42.5 11q-54 0 -82 -49.5t-28 -166.5v-63h227v32q0 129 29 190q47 97 152 97q42 0 79 -13
h147v-12q-43 0 -57.5 -8t-14.5 -29v-689q0 -21 14.5 -29t57.5 -8v-12h-196v12q43 0 57.5 8t14.5 29v664q-16 0 -28.5 11t-20.5 23.5t-26 23.5t-43 11q-55 0 -84 -50t-29 -166v-85h124v-20h-124v-407q0 -28 15 -33.5t87 -8.5v-12h-226v12q43 0 57.5 8t14.5 26v415h-227v-407
q0 -28 29 -35q16 -4 93 -7z" />
    <glyph glyph-name="f_h" unicode="fh" horiz-adv-x="866" 
d="M395 53v660q-16 0 -28.5 11t-20.5 23.5t-26 23.5t-43 11q-55 0 -84 -50t-29 -166v-85h124v-20h-124v-407q0 -28 15 -33.5t87 -8.5v-12h-226v12q43 0 57.5 8t14.5 26v415h-79v20h79v32q0 129 29 190q47 97 152 97q42 0 79 -13h147v-12q-43 0 -57.5 -8t-14.5 -29v-689
q0 -21 14.5 -29t57.5 -8v-12h-196v12q44 0 58 9t14 32zM781 313v-258q0 -25 14 -34t58 -9v-12h-196v12q43 0 57.5 8t14.5 26v268q0 82 -32 117q-33 35 -92 35q-53 0 -95.5 -31t-62.5 -78q19 71 67 109t110 38q75 0 115 -43q42 -45 42 -148z" />
    <glyph glyph-name="f_k" unicode="fk" horiz-adv-x="819" 
d="M449 257l171 137q42 32 38 53.5t-66 21.5v12h213v-12q-36 0 -63 -15t-84 -60l-154 -121l210 -201q33 -32 59.5 -46t57.5 -14v-12h-206v12q41 0 50.5 10t-15.5 35zM266 12v-12h-226v12q43 0 57.5 8t14.5 26v415h-79v20h79v32q0 129 29 190q47 97 152 97q42 0 79 -13h147
v-12q-43 0 -57.5 -8t-14.5 -29v-689q0 -21 14.5 -29t57.5 -8v-12h-196v12q43 0 57.5 8t14.5 29v664q-16 0 -28.5 11t-20.5 23.5t-26 23.5t-43 11q-55 0 -84 -50t-29 -166v-85h124v-20h-124v-407q0 -28 15 -33.5t87 -8.5z" />
    <glyph glyph-name=".notdef" horiz-adv-x="697" 
d="M100 0v787h497v-787h-497zM112 777v-767h473v767h-473z" />
    <glyph glyph-name=".null" horiz-adv-x="0" 
 />
    <glyph glyph-name="nonmarkingreturn" horiz-adv-x="333" 
 />
    <glyph glyph-name="CR" unicode="&#xd;" horiz-adv-x="220" 
 />
    <glyph glyph-name="space" unicode=" " horiz-adv-x="220" 
 />
    <glyph glyph-name="exclam" unicode="!" horiz-adv-x="217" 
d="M62 791q20 10 43 10q24 0 43 -10q-12 -121 -25.5 -352.5t-15.5 -266.5h-5q-4 66 -11 194t-13.5 231t-15.5 194zM58 36q0 21 14.5 35.5t35.5 14.5t35.5 -14.5t14.5 -35.5t-14.5 -35.5t-35.5 -14.5t-35.5 14.5t-14.5 35.5z" />
    <glyph glyph-name="quotedbl" unicode="&#x22;" horiz-adv-x="305" 
d="M87 567l-34 220h73l-35 -220h-4zM213 567l-34 220h73l-35 -220h-4z" />
    <glyph glyph-name="numbersign" unicode="#" horiz-adv-x="852" 
d="M485 275l95 240h-221l-95 -240h221zM376 0l94 238h-221l-94 -238h-41l94 238h-173l20 37h168l95 240h-191l20 37h185l93 235h41l-93 -235h221l93 235h41l-93 -235h186l-20 -37h-180l-95 -240h203l-20 -37h-198l-94 -238h-41z" />
    <glyph glyph-name="dollar" unicode="$" horiz-adv-x="580" 
d="M131 574q0 -108 136 -151v291q-136 -9 -136 -140zM304 355l-3 1v-344q83 3 128 48.5t45 115.5q0 72 -37.5 110t-132.5 69zM267 -96v82q-117 4 -204 64v146h9q18 -100 66.5 -140t128.5 -43v354l-23 7q-166 53 -166 199q0 74 50.5 117.5t138.5 48.5v91h34v-91
q98 -4 184 -52v-143h-9q-24 161 -175 170v-302l30 -10q41 -14 69.5 -27.5t61 -37t49 -59t16.5 -82.5q0 -90 -59 -148t-167 -62v-82h-34z" />
    <glyph glyph-name="percent" unicode="%" horiz-adv-x="869" 
d="M721 787l-522 -787h-44l520 787h46zM53 599q0 81 46 131t118 50t118 -50t46 -131t-46 -131t-118 -50t-118 50t-46 131zM98 599q0 -67 34 -105.5t85 -38.5t85 38.5t34 105.5t-34 105.5t-85 38.5t-85 -38.5t-34 -105.5zM488 167q0 81 46 131t118 50t118 -50t46 -131
t-46 -131t-118 -50t-118 50t-46 131zM533 167q0 -67 34 -105.5t85 -38.5t85 38.5t34 105.5t-34 105.5t-85 38.5t-85 -38.5t-34 -105.5z" />
    <glyph glyph-name="ampersand" unicode="&#x26;" horiz-adv-x="841" 
d="M283 22q161 0 263 169l-223 243q-3 3 -8 8.5t-7 8.5q-205 -71 -205 -247q0 -82 48.5 -132t131.5 -50zM662 66l-103 112q-67 -108 -137 -150t-152 -42q-102 0 -162.5 58t-60.5 146q0 197 261 261q-104 117 -104 203q0 70 48 109t119 39q72 0 115.5 -37t43.5 -104
q0 -61 -47.5 -115t-124.5 -76q60 23 94.5 73t34.5 116q0 55 -31 89.5t-87 34.5q-54 0 -84.5 -31t-30.5 -83q0 -86 84 -178l235 -253l56 100q44 74 41.5 102.5t-60.5 28.5h-13v12h212v-12h-11q-41 0 -68 -21t-57 -73l-87 -152l136 -146q35 -38 60.5 -51.5t58.5 -13.5h6v-12
h-238v12q57 0 68.5 11t-15.5 43z" />
    <glyph glyph-name="quotesingle" unicode="'" horiz-adv-x="180" 
d="M88 567l-34 220h73l-35 -220h-4z" />
    <glyph glyph-name="parenleft" unicode="(" horiz-adv-x="297" 
d="M270 -263q-95 93 -145.5 234t-50.5 291t50.5 291t145.5 234h44q-101 -97 -151.5 -237.5t-50.5 -287.5t50.5 -287.5t151.5 -237.5h-44z" />
    <glyph glyph-name="parenright" unicode=")" horiz-adv-x="301" 
d="M27 787q95 -93 145.5 -234t50.5 -291t-50.5 -291t-145.5 -234h-44q101 97 151.5 237.5t50.5 287.5t-50.5 287.5t-151.5 237.5h44z" />
    <glyph glyph-name="asterisk" unicode="*" horiz-adv-x="353" 
d="M193 787v-124l103 64l19 -31l-101 -63l106 -54l-18 -33l-109 58v-121h-35v121l-100 -62l-18 33l102 58l-103 59l19 31l100 -60v124h35z" />
    <glyph glyph-name="plus" unicode="+" horiz-adv-x="560" 
d="M255 488h46v-212h216v-37h-216v-222h-46v222h-212v37h212v212z" />
    <glyph glyph-name="comma" unicode="," horiz-adv-x="182" 
d="M62 35q0 22 14 36.5t37 14.5q24 0 36.5 -16t12.5 -42q0 -48 -44.5 -114t-108.5 -109l-2 3q49 45 75.5 96.5t26.5 80.5q-20 1 -33.5 15.5t-13.5 34.5z" />
    <glyph glyph-name="hyphen" unicode="-" horiz-adv-x="400" 
d="M53 235v41h294v-41h-294z" />
    <glyph glyph-name="period" unicode="." horiz-adv-x="172" 
d="M52 36q0 21 14.5 35.5t35.5 14.5t35.5 -14.5t14.5 -35.5t-14.5 -35.5t-35.5 -14.5t-35.5 14.5t-14.5 35.5z" />
    <glyph glyph-name="slash" unicode="/" horiz-adv-x="395" 
d="M387 787l-325 -820h-41l325 820h41z" />
    <glyph glyph-name="zero" unicode="0" horiz-adv-x="638" 
d="M319 -14q-129 0 -197.5 99t-68.5 280t68 278.5t198 97.5t198 -97.5t68 -278.5t-68.5 -280t-197.5 -99zM319 719q-96 0 -152.5 -84t-56.5 -270t56.5 -271.5t152.5 -85.5t152.5 85.5t56.5 271.5t-56.5 270t-152.5 84z" />
    <glyph glyph-name="one" unicode="1" horiz-adv-x="354" 
d="M229 741v-692q0 -20 15.5 -28.5t61.5 -8.5h5v-12h-248v12h44q42 0 56 8.5t14 28.5v609q-94 -5 -154 3v3q157 10 198 77h8z" />
    <glyph glyph-name="two" unicode="2" horiz-adv-x="562" 
d="M52 40h268q49 0 73 2t47 8t33 21.5t17 38.5t12 63h11v-173h-513l-3 6q156 136 232 217q88 94 131.5 167t43.5 157q0 70 -38.5 114t-108.5 44q-83 0 -132 -51.5t-45 -147.5h-4q-11 105 44.5 169.5t151.5 64.5q84 0 137.5 -51.5t53.5 -136.5q0 -135 -167 -304
q-74 -76 -244 -208z" />
    <glyph glyph-name="three" unicode="3" horiz-adv-x="532" 
d="M215 -14q-81 0 -141.5 37.5t-60.5 71.5q0 29 31 29q8 0 14.5 -2.5t11.5 -9t8 -11t7.5 -14.5t6.5 -13q36 -68 128 -68q86 0 138 48.5t52 141.5q0 81 -57.5 127t-149.5 46q-44 0 -80 -10v7q126 57 182 106t56 118q0 53 -35 84t-93 31q-64 0 -112 -34t-67 -96l-4 1
q16 76 70 120t131 44t122 -39t45 -98q0 -64 -51 -114.5t-141 -82.5q63 1 116 -18t89.5 -65t36.5 -113q0 -99 -69 -161.5t-184 -62.5z" />
    <glyph glyph-name="four" unicode="4" horiz-adv-x="624" 
d="M596 220h-183v-171q0 -21 14.5 -29t57.5 -8v-12h-214v12h20q42 0 56 8.5t14 28.5v171h-345l-3 7l393 533h7v-500h15q42 0 62.5 2t40.5 7.5t28.5 20.5t15 37t10.5 60h11v-167zM70 260h291v393z" />
    <glyph glyph-name="five" unicode="5" horiz-adv-x="571" 
d="M122 92q39 -85 144 -85q86 0 141 54.5t55 162.5q0 93 -54.5 141.5t-136.5 48.5q-123 0 -184 -97l-4 2l74 401h244q47 0 69.5 9t32.5 40h7l-16 -96h-316l-50 -264q63 54 167 54q102 0 162.5 -61.5t60.5 -159.5q0 -116 -67 -186t-183 -70q-94 0 -159.5 45t-65.5 82
q0 29 32 29q6 0 10.5 -1.5t8.5 -5t7 -6t6.5 -8.5t5 -9t5 -10.5t4.5 -9.5z" />
    <glyph glyph-name="six" unicode="6" horiz-adv-x="577" 
d="M489 764l1 -4q-184 -55 -278 -170.5t-101 -273.5q19 76 69.5 123t130.5 47q38 0 73.5 -12.5t68 -39.5t52 -77t19.5 -117q0 -112 -64 -183t-171 -71q-81 0 -136 44t-77.5 109t-22.5 147q0 192 114.5 316t321.5 162zM300 455q-87 0 -137.5 -66t-50.5 -158q0 -94 47.5 -158
t130.5 -64q85 0 131 65t46 162q0 93 -41 156t-126 63z" />
    <glyph glyph-name="seven" unicode="7" 
d="M9 -22l467 695h-335q-52 0 -73.5 -14t-28.5 -55h-7v116h482l3 -4l-458 -768z" />
    <glyph glyph-name="eight" unicode="8" horiz-adv-x="589" 
d="M293 -14q-104 0 -171.5 50.5t-67.5 142.5q0 146 196 202l-9 5q-140 71 -140 198q0 66 54 113t143 47q95 0 145 -40.5t50 -105.5q0 -130 -172 -189l44 -22q79 -40 124 -89t45 -122q0 -74 -62 -132t-179 -58zM286 427l35 -18q61 29 93.5 77.5t32.5 108.5q0 62 -41.5 94.5
t-109.5 32.5q-70 0 -106.5 -35.5t-36.5 -93.5q0 -57 36 -96t97 -70zM294 9q86 0 135.5 41.5t49.5 113.5q0 59 -34.5 98.5t-109.5 76.5l-84 42q-79 -29 -113.5 -79t-34.5 -123q0 -82 52 -126t139 -44z" />
    <glyph glyph-name="nine" unicode="9" horiz-adv-x="577" 
d="M78 -39l-1 4q185 56 283.5 171.5t105.5 271.5q-19 -76 -69.5 -122.5t-128.5 -46.5q-37 0 -72.5 12.5t-68.5 39.5t-53.5 77t-20.5 117q0 112 65 183t172 71q119 0 176.5 -85.5t57.5 -214.5q0 -192 -118 -317t-328 -161zM277 270q87 0 137.5 66t50.5 158q0 94 -47.5 158
t-130.5 64q-85 0 -131 -65t-46 -162q0 -93 41 -156t126 -63z" />
    <glyph glyph-name="colon" unicode=":" horiz-adv-x="182" 
d="M52 456q0 21 14.5 35.5t35.5 14.5t35.5 -14.5t14.5 -35.5t-14.5 -35.5t-35.5 -14.5t-35.5 14.5t-14.5 35.5zM52 36q0 21 14.5 35.5t35.5 14.5t35.5 -14.5t14.5 -35.5t-14.5 -35.5t-35.5 -14.5t-35.5 14.5t-14.5 35.5z" />
    <glyph glyph-name="semicolon" unicode=";" horiz-adv-x="192" 
d="M61 456q0 21 14.5 35.5t35.5 14.5t35.5 -14.5t14.5 -35.5t-14.5 -35.5t-35.5 -14.5t-35.5 14.5t-14.5 35.5zM62 35q0 22 14 36.5t37 14.5q24 0 36.5 -16t12.5 -42q0 -48 -44.5 -114t-108.5 -109l-2 3q49 45 75.5 96.5t26.5 80.5q-20 1 -33.5 15.5t-13.5 34.5z" />
    <glyph glyph-name="less" unicode="&#x3c;" horiz-adv-x="561" 
d="M100 254l458 -204v-46l-505 228v43l505 228v-46z" />
    <glyph glyph-name="equal" unicode="=" horiz-adv-x="560" 
d="M53 328v37h454v-37h-454zM53 148v37h454v-37h-454z" />
    <glyph glyph-name="greater" unicode="&#x3e;" horiz-adv-x="561" 
d="M2 50l458 204l-458 203v46l505 -228v-43l-505 -228v46z" />
    <glyph glyph-name="question" unicode="?" horiz-adv-x="377" 
d="M167 182l-2 -2q-45 42 -45 113q0 45 17.5 86.5t43 75l51 67t43 76.5t17.5 90q0 49 -32 74.5t-75 25.5q-29 0 -49.5 -12t-29.5 -26t-22.5 -26t-29.5 -12q-12 0 -21.5 7t-9.5 19q0 29 48 48t107 19q71 0 119 -34t48 -100q0 -52 -30.5 -107t-66.5 -96t-66.5 -100t-30.5 -118
q0 -47 16 -68zM119 36q0 21 14.5 35.5t35.5 14.5t35.5 -14.5t14.5 -35.5t-14.5 -35.5t-35.5 -14.5t-35.5 14.5t-14.5 35.5z" />
    <glyph glyph-name="at" unicode="@" horiz-adv-x="893" 
d="M649 132q-74 0 -102.5 47.5t-17.5 122.5q-37 -80 -84.5 -114t-94.5 -34q-61 0 -94 43t-33 108q0 120 77.5 212.5t180.5 92.5q77 0 119 -38l36 36h7l-50 -257q-9 -52 -11 -94.5t16.5 -69.5t57.5 -27q74 0 122 70t48 185q0 162 -89 246t-257 84q-163 0 -273.5 -108
t-110.5 -282q0 -166 107 -266.5t279 -100.5q60 0 110 13l7 -23q-53 -14 -127 -14q-180 0 -294.5 106.5t-114.5 283.5q0 181 119.5 299t304.5 118q79 0 145 -20t118 -61.5t81 -111t29 -162.5q0 -127 -58.5 -205.5t-152.5 -78.5zM529 302q0 2 4 21q13 62 30 151
q12 63 -13.5 90.5t-65.5 27.5q-71 0 -136.5 -83.5t-65.5 -198.5q0 -54 24.5 -83t67.5 -29q82 0 155 104z" />
    <glyph glyph-name="A" unicode="A" horiz-adv-x="795" 
d="M398 711l-149 -381h287zM238 16v-16h-235v16q51 0 77 24.5t59 104.5l268 665h9l273 -730q11 -32 34.5 -48t68.5 -16v-16h-235v16q50 0 67 13t4 49l-74 204h-324l-48 -123q-35 -91 -24 -117t80 -26z" />
    <glyph glyph-name="B" unicode="B" horiz-adv-x="694" 
d="M43 787h277q140 0 212 -38t72 -139q0 -78 -56.5 -128.5t-143.5 -63.5q114 -3 181 -55.5t67 -143.5q0 -219 -294 -219h-315v16q59 0 79 13t20 47v635q0 34 -20 47t-79 13v16zM202 760v-338h92q242 0 242 176q0 89 -52.5 125.5t-162.5 36.5h-119zM278 27h71
q123 0 179.5 45.5t56.5 139.5q0 95 -60 142t-204 47h-119v-307q0 -44 14 -55.5t62 -11.5z" />
    <glyph glyph-name="C" unicode="C" horiz-adv-x="838" 
d="M785 221l-3 -146q-118 -89 -309 -89q-106 0 -190.5 34t-136 92.5t-78 130.5t-26.5 152q0 186 119 298t307 112q172 0 305 -82l2 -146h-11q-21 103 -102 151t-196 48q-65 0 -126.5 -23t-114 -67.5t-84.5 -120.5t-32 -173q0 -91 32 -165t84.5 -119t115 -69t126.5 -24
q270 0 307 206h11z" />
    <glyph glyph-name="D" unicode="D" horiz-adv-x="847" 
d="M43 787h264q254 0 376 -96.5t122 -287.5q0 -187 -116 -295t-330 -108h-316v16q61 0 80 10.5t19 44.5v640q0 36 -19.5 47.5t-79.5 11.5v17zM202 760v-666q0 -44 14 -55.5t62 -11.5h76q82 0 148.5 19t121 60.5t84.5 116.5t30 178q0 86 -23.5 150.5t-62 104t-96 63.5
t-117.5 32.5t-134 8.5h-103z" />
    <glyph glyph-name="E" unicode="E" horiz-adv-x="676" 
d="M633 186v-186h-590v16q60 0 79.5 11t19.5 44v645q0 33 -19.5 44t-79.5 11v16h554v-170h-10q-10 93 -45.5 118t-145.5 25h-194v-323h170q55 0 75.5 17t31.5 85h10v-233h-10q-11 69 -32 86.5t-75 17.5h-170v-316q0 -44 14 -55.5t62 -11.5h170q98 0 131 29.5t44 129.5h10z
" />
    <glyph glyph-name="F" unicode="F" horiz-adv-x="605" 
d="M331 16v-16h-288v16q60 0 79.5 11t19.5 44v645q0 33 -19.5 44t-79.5 11v16h575v-170h-10q-10 93 -45.5 118t-145.5 25h-215v-323h181q55 0 75.5 17t31.5 85h10v-233h-10q-11 69 -32 86.5t-75 17.5h-181v-339q0 -33 24.5 -44t104.5 -11z" />
    <glyph glyph-name="G" unicode="G" horiz-adv-x="893" 
d="M719 99v171q0 24 -16.5 32t-63.5 8v16h218v-16q-47 0 -63 -7.5t-16 -33.5v-172q-89 -111 -302 -111q-111 0 -196.5 34t-136 92.5t-76 130t-25.5 151.5q0 186 117.5 298.5t304.5 112.5q177 0 307 -81v-147h-11q-44 199 -298 199q-65 0 -125.5 -22.5t-112.5 -67t-83.5 -121
t-31.5 -174.5q0 -74 21 -137t56.5 -106t82.5 -73.5t97.5 -45t101.5 -14.5q175 0 251 84z" />
    <glyph glyph-name="H" unicode="H" horiz-adv-x="876" 
d="M301 16v-16h-258v16q59 0 79 13t20 47v640q0 33 -19.5 44t-79.5 11v16h258v-16q-60 0 -79.5 -11t-19.5 -44v-276h472v276q0 33 -19.5 44t-79.5 11v16h258v-16q-60 0 -79.5 -11t-19.5 -44v-640q0 -34 20 -47t79 -13v-16h-258v16q59 0 79 13t20 47v333h-472v-333
q0 -34 20 -47t79 -13z" />
    <glyph glyph-name="I" unicode="I" horiz-adv-x="344" 
d="M142 76v640q0 33 -19.5 44t-79.5 11v16h258v-16q-60 0 -79.5 -11t-19.5 -44v-640q0 -34 20 -47t79 -13v-16h-258v16q59 0 79 13t20 47z" />
    <glyph glyph-name="J" unicode="J" horiz-adv-x="425" 
d="M243 282v434q0 35 -21.5 45t-87.5 10v16h268v-16q-62 0 -80.5 -10t-18.5 -45v-434q0 -47 -1 -76t-5 -67.5t-13.5 -62t-24.5 -46.5t-40 -33.5t-58 -10.5q-66 0 -106 23t-40 51q0 17 9.5 27t26.5 10q32 0 47 -46q16 -49 65 -49q51 0 65.5 57t14.5 223z" />
    <glyph glyph-name="K" unicode="K" horiz-adv-x="760" 
d="M142 76v640q0 33 -19.5 44t-79.5 11v16h258v-16q-60 0 -79.5 -11t-19.5 -44v-640q0 -34 20 -47t79 -13v-16h-258v16q59 0 79 13t20 47zM203 402l264 254q74 71 78 91q3 15 -20 20q-17 4 -51 4v16h250v-16q-52 0 -98.5 -27.5t-119.5 -96.5l-240 -226l383 -368
q39 -37 114 -37v-16h-255v16q70 0 72 18q0 8 -13 21z" />
    <glyph glyph-name="L" unicode="L" horiz-adv-x="636" 
d="M301 787v-16q-60 0 -79.5 -11t-19.5 -44v-636q0 -31 16 -42t48 -11h172q98 0 131 29.5t44 129.5h10v-186h-580v16q60 0 79.5 11t19.5 44v645q0 33 -19.5 44t-79.5 11v16h258z" />
    <glyph glyph-name="M" unicode="M" horiz-adv-x="1000" 
d="M855 687l27 -616q2 -33 20.5 -44t78.5 -11v-16h-257v16q60 0 80.5 11.5t18.5 43.5l-26 629l-297 -700h-3l-303 698l-26 -580q-2 -61 17.5 -81.5t90.5 -20.5v-16h-257v16q65 0 86 20.5t24 82.5l28 568q2 46 -21 64.5t-75 18.5v17h164l285 -675l281 675h160v-17
q-52 0 -75 -18.5t-21 -64.5z" />
    <glyph glyph-name="N" unicode="N" horiz-adv-x="898" 
d="M736 111v555q0 58 -20.5 81.5t-89.5 23.5v16h258v-16q-63 0 -86 -24.5t-23 -80.5v-691h-3l-581 720v-574q0 -58 20.5 -81.5t89.5 -23.5v-16h-258v16q63 0 86 24.5t23 80.5v561q0 88 -108 88v17h149z" />
    <glyph glyph-name="O" unicode="O" horiz-adv-x="925" 
d="M463 805q182 0 300.5 -114t118.5 -299q0 -184 -118 -295t-301 -111t-301.5 113.5t-118.5 298.5t118 296t302 111zM463 15q63 0 123 22t112.5 65.5t84.5 119.5t32 173q0 79 -21.5 144.5t-56.5 108.5t-81.5 72.5t-95 42.5t-97.5 13q-63 0 -123 -22t-112.5 -65t-85 -119.5
t-32.5 -174.5q0 -97 32.5 -173t85 -119.5t112.5 -65.5t123 -22z" />
    <glyph glyph-name="P" unicode="P" horiz-adv-x="622" 
d="M202 760v-387q57 -13 124 -13q46 0 84.5 10t72.5 32t53 63.5t19 98.5q0 50 -15.5 86.5t-39.5 57t-60.5 33t-71.5 16t-81 3.5h-85zM43 787h256q71 0 127.5 -11.5t101.5 -36t69.5 -68t24.5 -103.5q0 -114 -70.5 -174t-177.5 -60q-100 0 -172 39v-289q0 -42 24 -55t96 -13
v-16h-279v16q60 0 79.5 12t19.5 48v640q0 35 -18.5 45t-80.5 10v16z" />
    <glyph glyph-name="Q" unicode="Q" horiz-adv-x="925" 
d="M797 -181l-264 172q-38 -5 -70 -5q-183 0 -301.5 113.5t-118.5 298.5t118 296t302 111q182 0 300.5 -114t118.5 -299q0 -138 -68.5 -237t-186.5 -142l175 -189zM463 15q63 0 123 22t112.5 65.5t84.5 119.5t32 173q0 79 -21.5 144.5t-56.5 108.5t-81.5 72.5t-95 42.5
t-97.5 13q-63 0 -123 -22t-112.5 -65t-85 -119.5t-32.5 -174.5q0 -97 32.5 -173t85 -119.5t112.5 -65.5t123 -22z" />
    <glyph glyph-name="R" unicode="R" horiz-adv-x="763" 
d="M43 787h231q72 0 125.5 -8t102.5 -28t75 -60.5t26 -100.5q0 -83 -63 -142t-170 -64q102 -4 150 -45t70 -137q13 -56 26.5 -91.5t35 -64t52.5 -38.5t75 -5l1 -2q-35 -15 -72 -15q-79 0 -116 49t-68 170q-10 39 -20.5 66t-28 45t-32.5 27.5t-45 14.5t-53.5 6t-69.5 1h-73
v-282q0 -42 24.5 -54.5t95.5 -12.5v-16h-279v16q60 0 79.5 12.5t19.5 47.5v641q0 34 -19 44.5t-80 10.5v15zM202 760v-373h44q289 0 289 196q0 95 -63.5 136t-194.5 41h-75z" />
    <glyph glyph-name="S" unicode="S" horiz-adv-x="613" 
d="M63 214q20 -115 82 -157t161 -42q96 0 151.5 50t55.5 128q0 76 -44 118t-147 76l-65 21q-97 31 -143 84t-46 132q0 85 67 133t170 48q126 0 225 -57v-155h-9q-27 184 -217 184q-76 0 -127 -36.5t-51 -114.5q0 -114 157 -166l66 -22q39 -13 61 -21.5t57 -28t54 -40.5
t34 -56t15 -78q0 -103 -71 -165.5t-195 -62.5q-153 0 -251 70v158h10z" />
    <glyph glyph-name="T" unicode="T" horiz-adv-x="680" 
d="M310 760h-128q-104 0 -137 -45.5t-35 -173.5h-10v246h680v-246h-10q-2 128 -35 173.5t-137 45.5h-128v-674q0 -44 22 -57t97 -13v-16h-298v16q75 0 97 13t22 56v675z" />
    <glyph glyph-name="U" unicode="U" horiz-adv-x="868" 
d="M736 671v-356q0 -153 -81 -241t-227 -88q-147 0 -226.5 81.5t-79.5 241.5v407q0 33 -19.5 44t-79.5 11v16h258v-16q-60 0 -79.5 -11t-19.5 -44v-412q0 -131 64.5 -200t183.5 -69q131 0 197.5 74t66.5 208v354q0 57 -20.5 78.5t-89.5 21.5v16h261v-16q-63 0 -86 -22.5
t-23 -77.5z" />
    <glyph glyph-name="V" unicode="V" horiz-adv-x="775" 
d="M646 642l-265 -665h-9l-276 730q-12 32 -35 48t-68 16v16h235v-16q-50 0 -67.5 -13t-3.5 -49l229 -621l215 540q35 92 24 117.5t-80 25.5v16h237v-16q-51 0 -77.5 -24.5t-58.5 -104.5z" />
    <glyph glyph-name="W" unicode="W" horiz-adv-x="1078" 
d="M755 98l151 530q10 35 15 54.5t6.5 38t-2 26.5t-13.5 14.5t-24 8t-38 1.5v16h235v-16q-54 0 -83.5 -25t-52.5 -104l-194 -680l-229 591l-215 -591h-6l-209 745q-18 64 -103 64v16h235v-16q-49 0 -65 -12t-6 -50l166 -612l210 591h2z" />
    <glyph glyph-name="X" unicode="X" horiz-adv-x="878" 
d="M274 16v-16h-241v16q48 0 80 23.5t88 93.5l222 276l-238 292q-19 24 -32 36t-37 23t-54 11v16h241v-16q-51 0 -65 -11.5t8 -40.5l213 -265l164 203q49 65 40.5 89.5t-68.5 24.5v16h242v-16q-49 0 -83.5 -24.5t-89.5 -93.5l-183 -227l279 -346q52 -64 125 -64v-16h-257v16
q87 0 84 31q-2 10 -11 21l-256 314l-204 -254q-50 -65 -42 -86t75 -26z" />
    <glyph glyph-name="Y" unicode="Y" horiz-adv-x="715" 
d="M492 0h-288v16q72 0 93 11.5t21 52.5v242l-222 390q-17 31 -38 45t-65 14v16h244v-16q-105 0 -78 -49l201 -366l202 341q23 40 5 57t-83 17v16h238v-16q-49 0 -69.5 -14.5t-49.5 -61.5l-225 -364v-250q0 -43 20.5 -54t93.5 -11v-16z" />
    <glyph glyph-name="Z" unicode="Z" horiz-adv-x="721" 
d="M26 0l569 760h-261q-68 0 -104.5 -4.5t-63.5 -22t-37.5 -48t-15.5 -86.5h-12v188h577l-564 -760h353q96 0 141 32t51 133h11v-192h-644z" />
    <glyph glyph-name="bracketleft" unicode="[" horiz-adv-x="299" 
d="M94 -262v1049h192v-32h-153v-985h153v-32h-192z" />
    <glyph glyph-name="backslash" unicode="\" horiz-adv-x="392" 
d="M346 -33l-325 820h40l325 -820h-40z" />
    <glyph glyph-name="bracketright" unicode="]" horiz-adv-x="299" 
d="M205 787v-1049h-192v32h153v985h-153v32h192z" />
    <glyph glyph-name="asciicircum" unicode="^" horiz-adv-x="542" 
d="M239 818h47l203 -415h-53l-174 360l-158 -360h-51z" />
    <glyph glyph-name="underscore" unicode="_" horiz-adv-x="787" 
d="M63 -41v41h661v-41h-661z" />
    <glyph glyph-name="grave" unicode="`" horiz-adv-x="215" 
d="M219 593l-191 194h80l116 -194h-5z" />
    <glyph glyph-name="a" unicode="a" horiz-adv-x="474" 
d="M330 78q-52 -92 -157 -92q-65 0 -102.5 34.5t-37.5 86.5q0 76 80.5 113t221.5 39l1 52q2 85 -24 127t-89 42q-48 0 -78 -23t-22 -68q3 -19 -4.5 -32t-22.5 -13q-31 0 -31 38q0 49 49 84.5t112 35.5q87 0 124.5 -43.5t35.5 -136.5l-5 -250q-2 -48 39 -48q37 0 54 35l2 -1
q-17 -65 -74 -65q-36 0 -54 20.5t-17 66.5l4 165q-119 -2 -181.5 -36t-62.5 -93q0 -47 30.5 -72t73.5 -25q38 0 74.5 16t60.5 43z" />
    <glyph glyph-name="b" unicode="b" horiz-adv-x="591" 
d="M105 55v683q0 21 -14.5 29t-57.5 8v12h196v-12q-43 0 -57.5 -8t-14.5 -29v-738h-124v12q44 0 58 9t14 34zM296 471q-81 0 -138 -49q26 36 69 59t90 23q106 0 168.5 -73t62.5 -184q0 -113 -61.5 -187t-166.5 -74q-94 0 -162 77q61 -44 137 -44q95 0 145.5 64t50.5 164
t-51 162t-144 62z" />
    <glyph glyph-name="c" unicode="c" horiz-adv-x="466" 
d="M99 255q0 -109 54.5 -171t137.5 -62q106 0 168 56l2 -2q-68 -90 -184 -90q-103 0 -168.5 72t-65.5 191q0 113 69 182.5t172 69.5q57 0 109.5 -21.5t52.5 -50.5q0 -30 -28 -30q-16 0 -26.5 12.5t-17 27.5t-30 27.5t-62.5 12.5q-82 0 -132.5 -60.5t-50.5 -163.5z" />
    <glyph glyph-name="d" unicode="d" horiz-adv-x="578" 
d="M485 738v-683q0 -25 14 -34t58 -9v-12h-124v738q0 20 -17 28.5t-61 8.5v12h202v-12q-43 0 -57.5 -8t-14.5 -29zM276 504q47 0 89 -22.5t68 -59.5q-57 49 -136 49q-93 0 -145 -63t-52 -163t51.5 -163t146.5 -63q74 0 135 44q-68 -77 -160 -77q-106 0 -168 73.5t-62 185.5
q0 111 63 185t170 74z" />
    <glyph glyph-name="e" unicode="e" horiz-adv-x="505" 
d="M284 482q-71 0 -115.5 -41t-60.5 -110h319q-1 74 -42 112.5t-101 38.5zM477 83q-67 -97 -194 -97q-106 0 -173 72.5t-67 195.5q0 110 68.5 180t170.5 70q86 0 140.5 -52.5t61.5 -140.5h-380q-4 -24 -4 -55q0 -102 54 -168t151 -66q48 0 95.5 15.5t74.5 47.5z" />
    <glyph glyph-name="f" unicode="f" horiz-adv-x="346" 
d="M286 12v-12h-246v12q43 0 57.5 8t14.5 26v415h-79v20h79v32q0 129 29 190q47 97 152 97q48 0 87.5 -16.5t39.5 -40.5q0 -14 -8.5 -22t-20.5 -8q-16 0 -27.5 11t-19 23.5t-25 23.5t-42.5 11q-55 0 -84 -50t-29 -166v-85h165v-20h-165v-407q0 -28 29 -35q16 -4 93 -7z" />
    <glyph glyph-name="g" unicode="g" horiz-adv-x="521" 
d="M380 331q0 65 -38.5 109t-102.5 44q-63 0 -100.5 -42t-37.5 -111q0 -70 40 -111.5t98 -41.5q59 0 100 41t41 112zM239 503q41 0 74 -15h215v-42l-184 25q43 -21 67.5 -58.5t24.5 -81.5q0 -78 -55.5 -125t-141.5 -47q-17 0 -49 5q-85 -16 -85 -68q0 -50 93 -50h85
q104 0 161.5 -29t57.5 -98q0 -92 -73.5 -138.5t-182.5 -46.5t-172 40t-63 99q0 46 43.5 78.5t120.5 44.5q-60 0 -91.5 22.5t-31.5 56.5q0 75 137 89q-68 14 -106.5 58.5t-38.5 108.5q0 83 54 127.5t141 44.5zM65 -127q0 -55 47.5 -88.5t130.5 -33.5q52 0 97.5 12t80 44.5
t34.5 80.5q0 54 -39 81t-135 27h-106q-58 -21 -84 -50t-26 -73z" />
    <glyph glyph-name="h" unicode="h" horiz-adv-x="576" 
d="M105 53v685q0 21 -14.5 29t-57.5 8v12h196v-12q-43 0 -57.5 -8t-14.5 -29v-689q0 -21 14.5 -29t57.5 -8v-12h-196v12q44 0 58 9t14 32zM491 313v-258q0 -25 14 -34t58 -9v-12h-196v12q43 0 57.5 8t14.5 26v268q0 82 -32 117q-33 35 -92 35q-53 0 -95.5 -31t-62.5 -78
q19 71 67 109t110 38q75 0 115 -43q42 -45 42 -148z" />
    <glyph glyph-name="i" unicode="i" horiz-adv-x="282" 
d="M97 715q0 19 13 32t30 13q19 0 32 -13t13 -32q0 -18 -13 -30.5t-32 -12.5q-17 0 -30 12.5t-13 30.5zM167 432v-383q0 -21 14.5 -29t57.5 -8v-12h-196v12q43 0 57.5 8t14.5 29v383q0 21 -14.5 29t-57.5 8v12h196v-12q-43 0 -57.5 -8t-14.5 -29z" />
    <glyph glyph-name="j" unicode="j" horiz-adv-x="256" 
d="M91 715q0 19 13 32t30 13q19 0 32 -13t13 -32q0 -18 -13 -30.5t-32 -12.5q-17 0 -30 12.5t-13 30.5zM109 78v354q0 21 -14.5 29t-57.5 8v12h196v-12q-43 0 -57.5 -8t-14.5 -29v-354q0 -241 -136 -352l-2 3q29 30 47.5 73t26 94.5t10 90.5t2.5 91z" />
    <glyph glyph-name="k" unicode="k" horiz-adv-x="529" 
d="M105 49v689q0 21 -14.5 29t-57.5 8v12h196v-12q-43 0 -57.5 -8t-14.5 -29v-689q0 -21 14.5 -29t57.5 -8v-12h-196v12q43 0 57.5 8t14.5 29zM159 257l171 137q42 32 38 53.5t-66 21.5v12h213v-12q-36 0 -63 -15t-84 -60l-154 -121l210 -201q33 -32 59.5 -46t57.5 -14v-12
h-206v12q41 0 50.5 10t-15.5 35z" />
    <glyph glyph-name="l" unicode="l" horiz-adv-x="272" 
d="M115 49v432h-72v12q43 0 57.5 12.5t14.5 57.5v175q0 21 -14.5 29t-57.5 8v12h196v-12q-43 0 -57.5 -8t-14.5 -29v-689q0 -21 14.5 -29t57.5 -8v-12h-196v12q43 0 57.5 8t14.5 29z" />
    <glyph glyph-name="m" unicode="m" horiz-adv-x="911" 
d="M826 331v-276q0 -25 14 -34t58 -9v-12h-196v12q43 0 57.5 8t14.5 26v284q0 63 -31 99.5t-96 36.5q-51 0 -92 -30.5t-59 -76.5q20 71 64.5 108t105.5 37q160 0 160 -173zM497 331v-276q0 -25 14 -34t58 -9v-12h-196v12q43 0 57.5 8t14.5 26v284q0 63 -31 99.5t-96 36.5
q-51 0 -92 -30.5t-59 -76.5q20 71 64.5 108t105.5 37q160 0 160 -173zM43 481h124v-432q0 -21 14.5 -29t57.5 -8v-12h-196v12q43 0 57.5 8t14.5 29v379q0 23 -14 32t-58 9v12z" />
    <glyph glyph-name="n" unicode="n" horiz-adv-x="582" 
d="M497 313v-258q0 -25 14 -34t58 -9v-12h-196v12q43 0 57.5 8t14.5 26v268q0 82 -32 117q-33 35 -92 35q-52 0 -93 -31t-61 -78q19 71 66 109t109 38q75 0 115 -43t40 -148zM43 481h124v-432q0 -21 14.5 -29t57.5 -8v-12h-196v12q43 0 57.5 8t14.5 29v379q0 23 -14 32
t-58 9v12z" />
    <glyph glyph-name="o" unicode="o" horiz-adv-x="580" 
d="M43 245q0 117 69 188t178 71t178 -71t69 -188t-69 -188t-178 -71t-178 70.5t-69 188.5zM290 9q89 0 139.5 71t50.5 165q0 95 -50.5 165.5t-139.5 70.5q-88 0 -139 -70t-51 -166q0 -95 50.5 -165.5t139.5 -70.5z" />
    <glyph glyph-name="p" unicode="p" horiz-adv-x="591" 
d="M157 481v-697q0 -18 19.5 -26t72.5 -8v-12h-216v12q43 0 57.5 8t14.5 26v648q0 21 -14.5 29t-57.5 8v12h124zM296 471q-81 0 -138 -49q26 36 69 59t90 23q106 0 168.5 -73t62.5 -184q0 -113 -61.5 -187t-166.5 -74q-94 0 -162 77q61 -44 137 -44q95 0 145.5 64t50.5 164
t-51 162t-144 62z" />
    <glyph glyph-name="q" unicode="q" horiz-adv-x="580" 
d="M485 432v-648q0 -18 14.5 -26t57.5 -8v-12h-216v12q53 0 72.5 8t19.5 26v697h124v-12q-43 0 -57.5 -8t-14.5 -29zM276 504q47 0 89 -22.5t68 -59.5q-57 49 -136 49q-93 0 -145 -63t-52 -163t51.5 -163t146.5 -63q74 0 135 44q-68 -77 -160 -77q-106 0 -168 73.5
t-62 185.5q0 111 63 185t170 74z" />
    <glyph glyph-name="r" unicode="r" horiz-adv-x="407" 
d="M167 481v-435q0 -18 19.5 -26t72.5 -8v-12h-216v12q43 0 57.5 8t14.5 26v382q0 23 -14 32t-58 9v12h124zM167 344q35 149 148 149q37 0 58 -16.5t21 -35.5q0 -26 -25 -26q-17 0 -32.5 19.5t-46.5 19.5q-83 0 -123 -110z" />
    <glyph glyph-name="s" unicode="s" horiz-adv-x="421" 
d="M74 99q9 0 16.5 -5.5t11.5 -11.5t9.5 -17t8.5 -16q27 -42 91 -42q58 0 92.5 27.5t34.5 75.5q0 47 -30.5 72t-93.5 46l-33 11q-127 43 -127 136q0 54 43 90.5t118 36.5q64 0 109.5 -22.5t45.5 -52.5q0 -26 -25 -26q-10 0 -17 5.5t-15 20.5t-10 18q-23 36 -92 36
q-51 0 -81 -25.5t-30 -66.5q0 -40 27.5 -64t79.5 -42l30 -10q83 -28 116.5 -61t33.5 -85q0 -63 -49.5 -102t-127.5 -39q-72 0 -119.5 25.5t-47.5 56.5t31 31z" />
    <glyph glyph-name="t" unicode="t" horiz-adv-x="327" 
d="M209 -14q-48 0 -76.5 26.5t-28.5 81.5v367h-81v20h81l44 152h7v-152h156v-20h-156v-356q0 -46 18.5 -66.5t57.5 -20.5q50 0 92 29l2 -3q-51 -58 -116 -58z" />
    <glyph glyph-name="u" unicode="u" horiz-adv-x="572" 
d="M549 0h-124v432q0 21 -14.5 29t-57.5 8v12h124v-428q0 -23 14 -32t58 -9v-12zM95 159v267q0 25 -14 34t-58 9v12h124v-321q0 -63 31 -99.5t96 -36.5q51 0 92 30.5t59 76.5q-20 -71 -64.5 -108t-105.5 -37q-160 0 -160 173z" />
    <glyph glyph-name="v" unicode="v" horiz-adv-x="515" 
d="M268 63l119 304q22 57 14 79.5t-50 22.5v12h169v-12q-37 0 -56.5 -20t-40.5 -71l-161 -405h-9l-179 448q-8 18 -13 26t-21.5 15t-44.5 7v12h197v-12q-40 0 -56.5 -9t-6.5 -34z" />
    <glyph glyph-name="w" unicode="w" horiz-adv-x="738" 
d="M494 -27l-125 361l-131 -361h-5l-159 448q-6 17 -12 26t-22.5 15.5t-44.5 6.5v12h193v-12q-40 0 -54 -10t-3 -41l114 -342l104 291q2 5 4 13l-14 41q-6 17 -12 26t-22.5 15.5t-44.5 6.5v12h203v-12q-42 0 -59 -12t-5 -50l107 -331l104 291q20 53 12.5 77.5t-48.5 24.5v12
h169v-12q-38 0 -58 -20t-39 -71l-147 -405h-5z" />
    <glyph glyph-name="x" unicode="x" horiz-adv-x="546" 
d="M191 12v-12h-198v12q35 0 58 13.5t51 47.5l144 169l-136 166q-16 20 -26.5 30.5t-31 20.5t-45.5 10v12h207v-12q-39 0 -55 -11.5t0 -31.5l119 -146l108 127q21 23 6 42.5t-59 19.5v12h198v-12q-27 0 -48 -9.5t-31.5 -19.5t-29.5 -32l-126 -149l152 -186q20 -25 49 -43
t56 -18v-12h-199v12q37 0 46.5 15t-11.5 41l-126 153l-125 -147q-25 -26 -12.5 -44t65.5 -18z" />
    <glyph glyph-name="y" unicode="y" horiz-adv-x="518" 
d="M426 378l-214 -528q-31 -76 -64 -98.5t-74 -22.5q-35 0 -64 15.5t-29 40.5q0 14 9.5 23t22.5 9q20 0 41.5 -27t39.5 -27q25 0 46 19.5t46 80.5l57 141l-167 417q-8 18 -13 26t-21.5 15t-44.5 7v12h198v-12q-40 0 -56.5 -9t-6.5 -34l139 -363l119 304q22 57 14 79.5
t-50 22.5v12h169v-12q-37 0 -56.5 -20t-40.5 -71z" />
    <glyph glyph-name="z" unicode="z" horiz-adv-x="475" 
d="M66 340v141h369l-345 -467h165q86 0 120.5 32.5t46.5 112.5h6v-159h-408l343 464h-171q-50 0 -78.5 -26.5t-41.5 -97.5h-6z" />
    <glyph glyph-name="braceleft" unicode="{" horiz-adv-x="277" 
d="M3 263v4q117 21 117 155q0 36 -19 104.5t-19 106.5q0 154 173 154h19v-32h-27q-67 0 -96.5 -34t-29.5 -87q0 -36 19 -106t19 -109q0 -109 -84 -154q84 -46 84 -160q0 -38 -19 -108t-19 -107q0 -53 29.5 -87t96.5 -34h27v-32h-19q-93 0 -133 39.5t-40 114.5q0 35 19 103.5
t19 107.5q0 65 -28.5 108t-88.5 53z" />
    <glyph glyph-name="bar" unicode="|" horiz-adv-x="142" 
d="M53 0v787h39v-787h-39z" />
    <glyph glyph-name="braceright" unicode="}" horiz-adv-x="277" 
d="M274 267v-4q-60 -10 -88.5 -53t-28.5 -108q0 -39 19 -107.5t19 -103.5q0 -75 -39.5 -114.5t-133.5 -39.5h-19v32h27q67 0 96.5 34t29.5 87q0 37 -19 107t-19 108q0 114 84 160q-84 45 -84 154q0 39 19 109t19 106q0 53 -29.5 87t-96.5 34h-27v32h19q173 0 173 -154
q0 -38 -19 -106.5t-19 -104.5q0 -134 117 -155z" />
    <glyph glyph-name="asciitilde" unicode="~" horiz-adv-x="665" 
d="M186 319q51 0 150 -52t142 -52q65 0 101 84l37 -15q-36 -108 -137 -108q-44 0 -98.5 26t-106 51.5t-87.5 25.5q-66 0 -101 -88l-37 17q19 56 55 83.5t82 27.5z" />
    <glyph glyph-name="uni00A0" unicode="&#xa0;" horiz-adv-x="220" 
 />
    <glyph glyph-name="exclamdown" unicode="&#xa1;" horiz-adv-x="217" 
d="M58 454q0 21 14.5 35.5t35.5 14.5t35.5 -14.5t14.5 -35.5t-14.5 -35.5t-35.5 -14.5t-35.5 14.5t-14.5 35.5zM154 -301q-20 -10 -43 -10q-24 0 -43 10q12 121 25.5 352.5t15.5 266.5h5q4 -66 11 -194t13.5 -231t15.5 -194z" />
    <glyph glyph-name="cent" unicode="&#xa2;" horiz-adv-x="513" 
d="M461 76q-63 -83 -168 -90v-89h-35v90q-96 7 -155.5 78t-59.5 184q0 105 60.5 173.5t154.5 77.5v99h35v-98q56 -2 104.5 -23.5t48.5 -48.5q0 -30 -28 -30q-15 0 -25.5 12t-16.5 26.5t-27 27t-56 14.5v-457q104 0 166 56zM99 255q0 -97 44 -157.5t115 -72.5v453
q-73 -9 -116 -68.5t-43 -154.5z" />
    <glyph glyph-name="sterling" unicode="&#xa3;" horiz-adv-x="634" 
d="M564 81q-48 -95 -118 -95q-26 0 -78.5 26t-104.5 26q-53 0 -119 -25t-121 -20v13h28q50 0 82.5 77.5t32.5 204.5q0 26 -4 76h-118v24h115q-10 88 -10 136q0 65 19 110t51.5 66.5t65 30t70.5 8.5q63 0 117.5 -20.5t54.5 -46.5q0 -13 -7.5 -20.5t-19.5 -7.5q-21 0 -35.5 12
t-23.5 26t-34 26t-65 12q-139 0 -139 -165q0 -31 7.5 -88.5t8.5 -78.5h214v-24h-212v-18q0 -125 -37 -212t-87 -125q110 81 186 81q45 0 104 -30.5t81 -30.5q52 0 94 53z" />
    <glyph glyph-name="yen" unicode="&#xa5;" horiz-adv-x="725" 
d="M486 15v-15h-264v15q66 0 85 10.5t19 47.5v86h-142v34h142v89h-142v34h129l-190 335q-15 28 -34.5 41t-59.5 13v15h223v-15q-47 0 -65.5 -10.5t-5.5 -33.5l184 -336l185 313q21 36 4.5 51.5t-75.5 15.5v15h217v-15q-45 0 -64 -13.5t-45 -55.5l-198 -320h135v-34h-142v-89
h142v-34h-142v-85q0 -39 18.5 -49t85.5 -10z" />
    <glyph glyph-name="brokenbar" unicode="&#xa6;" horiz-adv-x="273" 
d="M113 369v418h39v-418h-39zM113 -262v418h39v-418h-39z" />
    <glyph glyph-name="section" unicode="&#xa7;" horiz-adv-x="442" 
d="M224 293l35 -10q41 2 71.5 32.5t30.5 77.5q0 49 -32.5 77.5t-97.5 45.5l-6 2q-58 -4 -89.5 -33.5t-31.5 -76.5q0 -81 120 -115zM227 -14q-74 0 -129 27.5t-55 57.5t28 30q11 0 19.5 -5.5t12.5 -11t10.5 -17.5t8.5 -16q30 -46 106 -46q65 0 102 30.5t37 80.5
q0 48 -34.5 75.5t-101.5 47.5l-44 13q-129 38 -129 140q0 64 49 95.5t117 30.5l-37 10q-129 33 -129 141q0 57 44.5 94t124.5 37q69 0 113.5 -26.5t44.5 -54.5q0 -13 -7.5 -21.5t-18.5 -8.5q-12 0 -18.5 5.5t-14.5 21t-11 19.5q-30 46 -92 46q-56 0 -87.5 -27t-31.5 -74
q0 -44 31 -69t89 -41l34 -10q81 -22 116 -58.5t35 -87.5q0 -61 -40 -95t-110 -36l7 -2q149 -42 149 -148q0 -65 -53.5 -106t-134.5 -41z" />
    <glyph glyph-name="dieresis" unicode="&#xa8;" horiz-adv-x="442" 
d="M289 691q0 19 13 32t30 13q19 0 32 -13t13 -32q0 -18 -13 -30.5t-32 -12.5q-17 0 -30 12.5t-13 30.5zM75 691q0 19 13 32t30 13q19 0 32 -13t13 -32q0 -18 -13 -30.5t-32 -12.5q-17 0 -30 12.5t-13 30.5z" />
    <glyph glyph-name="copyright" unicode="&#xa9;" horiz-adv-x="901" 
d="M53 383q0 165 116.5 281.5t280.5 116.5q165 0 281.5 -116.5t116.5 -281.5q0 -164 -116.5 -280.5t-281.5 -116.5q-164 0 -280.5 116.5t-116.5 280.5zM89 383q0 -151 105.5 -258.5t255.5 -107.5q151 0 256 107.5t105 258.5q0 152 -105 259.5t-256 107.5
q-150 0 -255.5 -107.5t-105.5 -259.5zM644 281v-86q-70 -53 -186 -53q-127 0 -192.5 72t-65.5 177q0 115 71.5 183.5t186.5 68.5q101 0 182 -46v-87h-7q-25 58 -73.5 85.5t-102.5 27.5q-82 0 -141 -59t-59 -175q0 -109 59 -168t140 -59q135 0 181 119h7z" />
    <glyph glyph-name="ordfeminine" unicode="&#xaa;" horiz-adv-x="412" 
d="M186 497q43 0 72 27v106q-59 0 -95.5 -20.5t-36.5 -60.5q0 -52 60 -52zM129 698q-20 0 -20 24q0 29 28 47t61 18q51 0 73.5 -19t22.5 -58v-172q0 -21 4.5 -30.5t17.5 -9.5q21 0 31 20l2 -1q-4 -23 -20 -32.5t-30 -9.5q-41 0 -41 48q-37 -50 -90 -50q-38 0 -59.5 21
t-21.5 52q0 91 171 91v85q0 28 -16.5 41.5t-42.5 13.5q-24 0 -39.5 -11.5t-13.5 -34.5q3 -33 -17 -33z" />
    <glyph glyph-name="guillemotleft" unicode="&#xab;" horiz-adv-x="428" 
d="M226 34l-213 209v4l212 208h12l-150 -210l150 -211h-11zM384 34l-213 209v4l212 208h12l-150 -210l150 -211h-11z" />
    <glyph glyph-name="logicalnot" unicode="&#xac;" horiz-adv-x="590" 
d="M42 224v37h475v-261h-46v224h-429z" />
    <glyph glyph-name="uni00AD" unicode="&#xad;" horiz-adv-x="400" 
d="M53 235v41h294v-41h-294z" />
    <glyph glyph-name="registered" unicode="&#xae;" horiz-adv-x="901" 
d="M53 383q0 165 116.5 281.5t280.5 116.5q165 0 281.5 -116.5t116.5 -281.5q0 -164 -116.5 -280.5t-281.5 -116.5q-164 0 -280.5 116.5t-116.5 280.5zM89 383q0 -151 105.5 -258.5t255.5 -107.5q151 0 256 107.5t105 258.5q0 152 -105 259.5t-256 107.5
q-150 0 -255.5 -107.5t-105.5 -259.5zM256 633h149q33 0 57.5 -2t50.5 -9t42 -19.5t26.5 -33.5t10.5 -51q0 -45 -33 -77.5t-89 -40.5q93 -19 119 -108q20 -72 38 -95t67 -21l1 -8q-22 -6 -50 -6q-49 0 -72 29.5t-40 94.5q-27 104 -145 104h-27v-173q0 -21 9 -28.5t33 -7.5
h20v-11h-167v11h20q20 0 28 7t8 25v377q0 18 -8 24.5t-28 6.5h-20v12zM361 615v-210h31q69 0 108 23t39 86q0 109 -145 102z" />
    <glyph glyph-name="macron" unicode="&#xaf;" horiz-adv-x="440" 
d="M62 658v32h314v-32h-314z" />
    <glyph glyph-name="degree" unicode="&#xb0;" 
d="M107 663q0 59 42 100.5t101 41.5t101 -41.5t42 -100.5t-42 -100.5t-101 -41.5t-101 41.5t-42 100.5zM151 663q0 -41 27.5 -72.5t71.5 -31.5q45 0 72 30.5t27 73.5t-28 73.5t-71 30.5q-40 0 -69.5 -30t-29.5 -74z" />
    <glyph glyph-name="plusminus" unicode="&#xb1;" horiz-adv-x="560" 
d="M518 267h-215v-180h-46v180h-214v37h214v185h46v-185h215v-37zM43 0v37h475v-37h-475z" />
    <glyph glyph-name="acute" unicode="&#xb4;" horiz-adv-x="215" 
d="M224 787l-191 -194h-5l116 194h80z" />
    <glyph glyph-name="mu" unicode="&#xb5;" horiz-adv-x="574" 
d="M108 481h46v-271q0 -101 31 -137q36 -41 98 -41q43 0 80 28t57 76v345h46v-481h-44v78q-48 -92 -142 -92q-87 0 -126 64v-312h-46v743z" />
    <glyph glyph-name="paragraph" unicode="&#xb6;" horiz-adv-x="566" 
d="M493 755h-85v-872h-40v872h-78v-872h-40v507q-91 0 -154 54.5t-63 143.5q0 38 12 70.5t38.5 63t77.5 48t121 17.5h211v-32z" />
    <glyph glyph-name="periodcentered" unicode="&#xb7;" horiz-adv-x="234" 
d="M67 257q0 21 14.5 35.5t35.5 14.5t35.5 -14.5t14.5 -35.5t-14.5 -35.5t-35.5 -14.5t-35.5 14.5t-14.5 35.5z" />
    <glyph glyph-name="cedilla" unicode="&#xb8;" horiz-adv-x="286" 
d="M119 -4h30l-53 -84q27 20 61 20q33 0 54.5 -18t21.5 -53q0 -51 -53 -80t-125 -36l-3 6q67 8 100 37.5t33 66.5q0 50 -48 50q-27 0 -46 -14l-24 19z" />
    <glyph glyph-name="ordmasculine" unicode="&#xba;" horiz-adv-x="428" 
d="M63 630q0 68 42.5 112.5t108.5 44.5q65 0 108 -44.5t43 -112.5t-43 -112.5t-108 -44.5q-66 0 -108.5 44t-42.5 113zM214 484q51 0 80 39.5t29 106.5t-29 106.5t-80 39.5t-80.5 -39t-29.5 -107q0 -67 29.5 -106.5t80.5 -39.5z" />
    <glyph glyph-name="guillemotright" unicode="&#xbb;" horiz-adv-x="428" 
d="M257 243l-213 -209h-11l150 211l-150 210h12l212 -208v-4zM415 243l-213 -209h-11l150 211l-150 210h12l212 -208v-4z" />
    <glyph glyph-name="questiondown" unicode="&#xbf;" horiz-adv-x="377" 
d="M149 454q0 21 14.5 35.5t35.5 14.5t35.5 -14.5t14.5 -35.5t-14.5 -35.5t-35.5 -14.5t-35.5 14.5t-14.5 35.5zM201 308l2 2q45 -42 45 -113q0 -45 -17.5 -86.5t-43 -75l-51 -67t-43 -76.5t-17.5 -90q0 -49 32 -74.5t75 -25.5q29 0 49.5 12t29.5 26t22.5 26t29.5 12
q12 0 21.5 -7t9.5 -19q0 -29 -48 -48t-107 -19q-71 0 -119 34t-48 100q0 52 30.5 107t66.5 96t66.5 100t30.5 118q0 47 -16 68z" />
    <glyph glyph-name="Agrave" unicode="&#xc0;" horiz-adv-x="795" 
d="M480 836l-169 109h93l81 -109h-5zM398 711l-149 -381h287zM238 16v-16h-235v16q51 0 77 24.5t59 104.5l268 665h9l273 -730q11 -32 34.5 -48t68.5 -16v-16h-235v16q50 0 67 13t4 49l-74 204h-324l-48 -123q-35 -91 -24 -117t80 -26z" />
    <glyph glyph-name="Aacute" unicode="&#xc1;" horiz-adv-x="795" 
d="M511 945l-169 -109h-5l81 109h93zM398 711l-149 -381h287zM238 16v-16h-235v16q51 0 77 24.5t59 104.5l268 665h9l273 -730q11 -32 34.5 -48t68.5 -16v-16h-235v16q50 0 67 13t4 49l-74 204h-324l-48 -123q-35 -91 -24 -117t80 -26z" />
    <glyph glyph-name="Acircumflex" unicode="&#xc2;" horiz-adv-x="795" 
d="M415 949l147 -112h-6l-143 57l-142 -57h-5l146 112h3zM398 711l-149 -381h287zM238 16v-16h-235v16q51 0 77 24.5t59 104.5l268 665h9l273 -730q11 -32 34.5 -48t68.5 -16v-16h-235v16q50 0 67 13t4 49l-74 204h-324l-48 -123q-35 -91 -24 -117t80 -26z" />
    <glyph glyph-name="Atilde" unicode="&#xc3;" horiz-adv-x="795" 
d="M552 906l35 47l5 -3l-35 -88h-248l-37 -46l-5 3l37 87h248zM398 711l-149 -381h287zM238 16v-16h-235v16q51 0 77 24.5t59 104.5l268 665h9l273 -730q11 -32 34.5 -48t68.5 -16v-16h-235v16q50 0 67 13t4 49l-74 204h-324l-48 -123q-35 -91 -24 -117t80 -26z" />
    <glyph glyph-name="Adieresis" unicode="&#xc4;" horiz-adv-x="795" 
d="M493 897q0 19 13 32t30 13q19 0 32 -13t13 -32q0 -18 -13 -30.5t-32 -12.5q-17 0 -30 12.5t-13 30.5zM239 897q0 19 13 32t30 13q19 0 32 -13t13 -32q0 -18 -13 -30.5t-32 -12.5q-17 0 -30 12.5t-13 30.5zM398 711l-149 -381h287zM238 16v-16h-235v16q51 0 77 24.5
t59 104.5l268 665h9l273 -730q11 -32 34.5 -48t68.5 -16v-16h-235v16q50 0 67 13t4 49l-74 204h-324l-48 -123q-35 -91 -24 -117t80 -26z" />
    <glyph glyph-name="Aring" unicode="&#xc5;" horiz-adv-x="795" 
d="M481 889q0 31 -21 51.5t-50 20.5q-30 0 -50 -21t-20 -51t20 -51t50 -21q32 0 51.5 21t19.5 51zM398 711l-149 -381h287zM238 16v-16h-235v16q51 0 77 24.5t59 104.5l261 647q-39 3 -65.5 30.5t-26.5 66.5q0 41 30 69.5t72 28.5t72 -28.5t30 -69.5q0 -38 -25.5 -65
t-63.5 -32l266 -712q11 -32 34.5 -48t68.5 -16v-16h-235v16q50 0 67 13t4 49l-74 204h-324l-48 -123q-35 -91 -24 -117t80 -26z" />
    <glyph glyph-name="AE" unicode="&#xc6;" horiz-adv-x="1143" 
d="M609 741l-201 -304h201v304zM251 16v-16h-248v16q47 0 83 24t72 77l451 670h455v-170h-10q-10 93 -45.5 118t-145.5 25h-194v-323h170q55 0 75.5 17t31.5 85h10v-233h-10q-11 69 -32 86.5t-75 17.5h-170v-316q0 -41 17.5 -54t59.5 -13h169q98 0 131 29.5t44 129.5h10
v-186h-590v16q60 0 79.5 11t19.5 44v339h-218l-166 -251q-58 -83 -56 -113t82 -30z" />
    <glyph glyph-name="Ccedilla" unicode="&#xc7;" horiz-adv-x="838" 
d="M564 -139q0 -51 -53 -80t-125 -36l-3 6q67 8 100 37.5t33 66.5q0 50 -48 50q-27 0 -46 -14l-24 19l46 77q-194 9 -298 126.5t-104 281.5q0 186 119 298t307 112q172 0 305 -82l2 -146h-11q-21 103 -102 151t-196 48q-65 0 -126.5 -23t-114 -67.5t-84.5 -120.5t-32 -173
q0 -91 32 -165t84.5 -119t115 -69t126.5 -24q270 0 307 206h11l-3 -146q-118 -89 -308 -89l-47 -74q27 20 61 20q33 0 54.5 -18t21.5 -53z" />
    <glyph glyph-name="Egrave" unicode="&#xc8;" horiz-adv-x="676" 
d="M399 836l-169 109h93l81 -109h-5zM633 186v-186h-590v16q60 0 79.5 11t19.5 44v645q0 33 -19.5 44t-79.5 11v16h554v-170h-10q-10 93 -45.5 118t-145.5 25h-194v-323h170q55 0 75.5 17t31.5 85h10v-233h-10q-11 69 -32 86.5t-75 17.5h-170v-316q0 -44 14 -55.5t62 -11.5
h170q98 0 131 29.5t44 129.5h10z" />
    <glyph glyph-name="Eacute" unicode="&#xc9;" horiz-adv-x="676" 
d="M485 945l-169 -109h-5l81 109h93zM633 186v-186h-590v16q60 0 79.5 11t19.5 44v645q0 33 -19.5 44t-79.5 11v16h554v-170h-10q-10 93 -45.5 118t-145.5 25h-194v-323h170q55 0 75.5 17t31.5 85h10v-233h-10q-11 69 -32 86.5t-75 17.5h-170v-316q0 -44 14 -55.5t62 -11.5
h170q98 0 131 29.5t44 129.5h10z" />
    <glyph glyph-name="Ecircumflex" unicode="&#xca;" horiz-adv-x="676" 
d="M360 949l147 -112h-6l-143 57l-142 -57h-5l146 112h3zM633 186v-186h-590v16q60 0 79.5 11t19.5 44v645q0 33 -19.5 44t-79.5 11v16h554v-170h-10q-10 93 -45.5 118t-145.5 25h-194v-323h170q55 0 75.5 17t31.5 85h10v-233h-10q-11 69 -32 86.5t-75 17.5h-170v-316
q0 -44 14 -55.5t62 -11.5h170q98 0 131 29.5t44 129.5h10z" />
    <glyph glyph-name="Edieresis" unicode="&#xcb;" horiz-adv-x="676" 
d="M433 897q0 19 13 32t30 13q19 0 32 -13t13 -32q0 -18 -13 -30.5t-32 -12.5q-17 0 -30 12.5t-13 30.5zM179 897q0 19 13 32t30 13q19 0 32 -13t13 -32q0 -18 -13 -30.5t-32 -12.5q-17 0 -30 12.5t-13 30.5zM633 186v-186h-590v16q60 0 79.5 11t19.5 44v645q0 33 -19.5 44
t-79.5 11v16h554v-170h-10q-10 93 -45.5 118t-145.5 25h-194v-323h170q55 0 75.5 17t31.5 85h10v-233h-10q-11 69 -32 86.5t-75 17.5h-170v-316q0 -44 14 -55.5t62 -11.5h170q98 0 131 29.5t44 129.5h10z" />
    <glyph glyph-name="Igrave" unicode="&#xcc;" horiz-adv-x="344" 
d="M239 836l-169 109h93l81 -109h-5zM142 76v640q0 33 -19.5 44t-79.5 11v16h258v-16q-60 0 -79.5 -11t-19.5 -44v-640q0 -34 20 -47t79 -13v-16h-258v16q59 0 79 13t20 47z" />
    <glyph glyph-name="Iacute" unicode="&#xcd;" horiz-adv-x="344" 
d="M268 945l-169 -109h-5l81 109h93zM142 76v640q0 33 -19.5 44t-79.5 11v16h258v-16q-60 0 -79.5 -11t-19.5 -44v-640q0 -34 20 -47t79 -13v-16h-258v16q59 0 79 13t20 47z" />
    <glyph glyph-name="Icircumflex" unicode="&#xce;" horiz-adv-x="344" 
d="M173 949l137 -112h-6l-133 57l-132 -57h-5l136 112h3zM142 76v640q0 33 -19.5 44t-79.5 11v16h258v-16q-60 0 -79.5 -11t-19.5 -44v-640q0 -34 20 -47t79 -13v-16h-258v16q59 0 79 13t20 47z" />
    <glyph glyph-name="Idieresis" unicode="&#xcf;" horiz-adv-x="344" 
d="M224 897q0 19 13 32t30 13q19 0 32 -13t13 -32q0 -18 -13 -30.5t-32 -12.5q-17 0 -30 12.5t-13 30.5zM32 897q0 19 13 32t30 13q19 0 32 -13t13 -32q0 -18 -13 -30.5t-32 -12.5q-17 0 -30 12.5t-13 30.5zM142 76v640q0 33 -19.5 44t-79.5 11v16h258v-16q-60 0 -79.5 -11
t-19.5 -44v-640q0 -34 20 -47t79 -13v-16h-258v16q59 0 79 13t20 47z" />
    <glyph glyph-name="Eth" unicode="&#xd0;" horiz-adv-x="847" 
d="M359 0h-316v16q61 0 80 10.5t19 44.5v324h-139v31h139v285q0 36 -19.5 47.5t-79.5 11.5v17h264q254 0 376 -96.5t122 -287.5q0 -187 -116 -295t-330 -108zM278 27h76q82 0 148.5 19t121 60.5t84.5 116.5t30 178q0 86 -23.5 150.5t-62 104t-96 63.5t-117.5 32.5t-134 8.5
h-103v-334h240v-31h-240v-301q0 -44 14 -55.5t62 -11.5z" />
    <glyph glyph-name="Ntilde" unicode="&#xd1;" horiz-adv-x="898" 
d="M600 906l35 47l5 -3l-35 -88h-248l-37 -46l-5 3l37 87h248zM736 111v555q0 58 -20.5 81.5t-89.5 23.5v16h258v-16q-63 0 -86 -24.5t-23 -80.5v-691h-3l-581 720v-574q0 -58 20.5 -81.5t89.5 -23.5v-16h-258v16q63 0 86 24.5t23 80.5v561q0 88 -108 88v17h149z" />
    <glyph glyph-name="Ograve" unicode="&#xd2;" horiz-adv-x="925" 
d="M509 836l-169 109h93l81 -109h-5zM463 805q182 0 300.5 -114t118.5 -299q0 -184 -118 -295t-301 -111t-301.5 113.5t-118.5 298.5t118 296t302 111zM463 15q63 0 123 22t112.5 65.5t84.5 119.5t32 173q0 79 -21.5 144.5t-56.5 108.5t-81.5 72.5t-95 42.5t-97.5 13
q-63 0 -123 -22t-112.5 -65t-85 -119.5t-32.5 -174.5q0 -97 32.5 -173t85 -119.5t112.5 -65.5t123 -22z" />
    <glyph glyph-name="Oacute" unicode="&#xd3;" horiz-adv-x="925" 
d="M575 945l-169 -109h-5l81 109h93zM463 805q182 0 300.5 -114t118.5 -299q0 -184 -118 -295t-301 -111t-301.5 113.5t-118.5 298.5t118 296t302 111zM463 15q63 0 123 22t112.5 65.5t84.5 119.5t32 173q0 79 -21.5 144.5t-56.5 108.5t-81.5 72.5t-95 42.5t-97.5 13
q-63 0 -123 -22t-112.5 -65t-85 -119.5t-32.5 -174.5q0 -97 32.5 -173t85 -119.5t112.5 -65.5t123 -22z" />
    <glyph glyph-name="Ocircumflex" unicode="&#xd4;" horiz-adv-x="925" 
d="M470 949l147 -112h-6l-143 57l-142 -57h-5l146 112h3zM463 805q182 0 300.5 -114t118.5 -299q0 -184 -118 -295t-301 -111t-301.5 113.5t-118.5 298.5t118 296t302 111zM463 15q63 0 123 22t112.5 65.5t84.5 119.5t32 173q0 79 -21.5 144.5t-56.5 108.5t-81.5 72.5
t-95 42.5t-97.5 13q-63 0 -123 -22t-112.5 -65t-85 -119.5t-32.5 -174.5q0 -97 32.5 -173t85 -119.5t112.5 -65.5t123 -22z" />
    <glyph glyph-name="Otilde" unicode="&#xd5;" horiz-adv-x="925" 
d="M578 906l35 47l5 -3l-35 -88h-248l-37 -46l-5 3l37 87h248zM463 805q182 0 300.5 -114t118.5 -299q0 -184 -118 -295t-301 -111t-301.5 113.5t-118.5 298.5t118 296t302 111zM463 15q63 0 123 22t112.5 65.5t84.5 119.5t32 173q0 79 -21.5 144.5t-56.5 108.5t-81.5 72.5
t-95 42.5t-97.5 13q-63 0 -123 -22t-112.5 -65t-85 -119.5t-32.5 -174.5q0 -97 32.5 -173t85 -119.5t112.5 -65.5t123 -22z" />
    <glyph glyph-name="Odieresis" unicode="&#xd6;" horiz-adv-x="925" 
d="M543 897q0 19 13 32t30 13q19 0 32 -13t13 -32q0 -18 -13 -30.5t-32 -12.5q-17 0 -30 12.5t-13 30.5zM289 897q0 19 13 32t30 13q19 0 32 -13t13 -32q0 -18 -13 -30.5t-32 -12.5q-17 0 -30 12.5t-13 30.5zM463 805q182 0 300.5 -114t118.5 -299q0 -184 -118 -295
t-301 -111t-301.5 113.5t-118.5 298.5t118 296t302 111zM463 15q63 0 123 22t112.5 65.5t84.5 119.5t32 173q0 79 -21.5 144.5t-56.5 108.5t-81.5 72.5t-95 42.5t-97.5 13q-63 0 -123 -22t-112.5 -65t-85 -119.5t-32.5 -174.5q0 -97 32.5 -173t85 -119.5t112.5 -65.5
t123 -22z" />
    <glyph glyph-name="multiply" unicode="&#xd7;" horiz-adv-x="518" 
d="M433 56l-173 173l-173 -173l-28 30l172 172l-178 178l30 31l178 -178l175 175l29 -29l-175 -176l173 -173z" />
    <glyph glyph-name="Oslash" unicode="&#xd8;" horiz-adv-x="925" 
d="M110 395q0 -174 102 -278l472 583q-95 76 -221 76q-63 0 -123 -22t-112.5 -65t-85 -119.5t-32.5 -174.5zM463 15q63 0 123 22t112.5 65.5t84.5 119.5t32 173q0 174 -100 277l-473 -582q95 -75 221 -75zM463 -14q-141 0 -248 71l-66 -82l-32 25l65 81q-139 116 -139 317
q0 185 118 296t302 111q143 0 248 -71l65 80l32 -27l-64 -79q138 -116 138 -316q0 -184 -118 -295t-301 -111z" />
    <glyph glyph-name="Ugrave" unicode="&#xd9;" horiz-adv-x="868" 
d="M495 836l-169 109h93l81 -109h-5zM736 671v-356q0 -153 -81 -241t-227 -88q-147 0 -226.5 81.5t-79.5 241.5v407q0 33 -19.5 44t-79.5 11v16h258v-16q-60 0 -79.5 -11t-19.5 -44v-412q0 -131 64.5 -200t183.5 -69q131 0 197.5 74t66.5 208v354q0 57 -20.5 78.5
t-89.5 21.5v16h261v-16q-63 0 -86 -22.5t-23 -77.5z" />
    <glyph glyph-name="Uacute" unicode="&#xda;" horiz-adv-x="868" 
d="M569 945l-169 -109h-5l81 109h93zM736 671v-356q0 -153 -81 -241t-227 -88q-147 0 -226.5 81.5t-79.5 241.5v407q0 33 -19.5 44t-79.5 11v16h258v-16q-60 0 -79.5 -11t-19.5 -44v-412q0 -131 64.5 -200t183.5 -69q131 0 197.5 74t66.5 208v354q0 57 -20.5 78.5
t-89.5 21.5v16h261v-16q-63 0 -86 -22.5t-23 -77.5z" />
    <glyph glyph-name="Ucircumflex" unicode="&#xdb;" horiz-adv-x="868" 
d="M446 949l147 -112h-6l-143 57l-142 -57h-5l146 112h3zM736 671v-356q0 -153 -81 -241t-227 -88q-147 0 -226.5 81.5t-79.5 241.5v407q0 33 -19.5 44t-79.5 11v16h258v-16q-60 0 -79.5 -11t-19.5 -44v-412q0 -131 64.5 -200t183.5 -69q131 0 197.5 74t66.5 208v354
q0 57 -20.5 78.5t-89.5 21.5v16h261v-16q-63 0 -86 -22.5t-23 -77.5z" />
    <glyph glyph-name="Udieresis" unicode="&#xdc;" horiz-adv-x="868" 
d="M523 897q0 19 13 32t30 13q19 0 32 -13t13 -32q0 -18 -13 -30.5t-32 -12.5q-17 0 -30 12.5t-13 30.5zM269 897q0 19 13 32t30 13q19 0 32 -13t13 -32q0 -18 -13 -30.5t-32 -12.5q-17 0 -30 12.5t-13 30.5zM736 671v-356q0 -153 -81 -241t-227 -88q-147 0 -226.5 81.5
t-79.5 241.5v407q0 33 -19.5 44t-79.5 11v16h258v-16q-60 0 -79.5 -11t-19.5 -44v-412q0 -131 64.5 -200t183.5 -69q131 0 197.5 74t66.5 208v354q0 57 -20.5 78.5t-89.5 21.5v16h261v-16q-63 0 -86 -22.5t-23 -77.5z" />
    <glyph glyph-name="Yacute" unicode="&#xdd;" horiz-adv-x="715" 
d="M502 945l-169 -109h-5l81 109h93zM492 0h-288v16q72 0 93 11.5t21 52.5v242l-222 390q-17 31 -38 45t-65 14v16h244v-16q-105 0 -78 -49l201 -366l202 341q23 40 5 57t-83 17v16h238v-16q-49 0 -69.5 -14.5t-49.5 -61.5l-225 -364v-250q0 -43 20.5 -54t93.5 -11v-16z" />
    <glyph glyph-name="Thorn" unicode="&#xde;" horiz-adv-x="616" 
d="M202 630q50 2 76 2q335 0 335 -219q0 -114 -69.5 -174t-175.5 -60q-94 0 -166 39q57 -13 111 -13q104 0 170 47t66 157q0 50 -15.5 86.5t-39.5 58t-60.5 34t-72 16.5t-80.5 4q-53 0 -79 -2v-530q0 -34 20 -47t79 -13v-16h-258v16q59 0 79 13t20 47v640q0 33 -19.5 44
t-79.5 11v16h258v-16q-60 0 -79.5 -11t-19.5 -44v-86z" />
    <glyph glyph-name="germandbls" unicode="&#xdf;" horiz-adv-x="605" 
d="M390 5q64 0 97 35t33 92q0 88 -97 147l-56 34q-124 74 -124 145q0 29 17.5 55t65.5 54q42 24 61.5 49t19.5 70q0 47 -34 73.5t-85 26.5q-73 0 -102 -44.5t-29 -153.5v-588h-124v12q43 0 57.5 8t14.5 29v392l-72 18v10h72v104q0 53 8.5 92.5t28.5 72.5t57.5 50t92.5 17
q71 0 120.5 -31t49.5 -85q0 -32 -18 -56t-44 -39t-52.5 -29t-44.5 -34t-18 -46q0 -55 114 -127l40 -26q70 -44 101.5 -84.5t31.5 -94.5q0 -80 -54.5 -123.5t-128.5 -43.5t-126 27.5t-52 57.5t28 30q11 0 19.5 -5.5t12.5 -11t10.5 -17.5t8.5 -16q30 -46 100 -46z" />
    <glyph glyph-name="agrave" unicode="&#xe0;" horiz-adv-x="474" 
d="M317 593l-191 194h80l116 -194h-5zM330 78q-52 -92 -157 -92q-65 0 -102.5 34.5t-37.5 86.5q0 76 80.5 113t221.5 39l1 52q2 85 -24 127t-89 42q-48 0 -78 -23t-22 -68q3 -19 -4.5 -32t-22.5 -13q-31 0 -31 38q0 49 49 84.5t112 35.5q87 0 124.5 -43.5t35.5 -136.5
l-5 -250q-2 -48 39 -48q37 0 54 35l2 -1q-17 -65 -74 -65q-36 0 -54 20.5t-17 66.5l4 165q-119 -2 -181.5 -36t-62.5 -93q0 -47 30.5 -72t73.5 -25q38 0 74.5 16t60.5 43z" />
    <glyph glyph-name="aacute" unicode="&#xe1;" horiz-adv-x="474" 
d="M357 787l-191 -194h-5l116 194h80zM330 78q-52 -92 -157 -92q-65 0 -102.5 34.5t-37.5 86.5q0 76 80.5 113t221.5 39l1 52q2 85 -24 127t-89 42q-48 0 -78 -23t-22 -68q3 -19 -4.5 -32t-22.5 -13q-31 0 -31 38q0 49 49 84.5t112 35.5q87 0 124.5 -43.5t35.5 -136.5
l-5 -250q-2 -48 39 -48q37 0 54 35l2 -1q-17 -65 -74 -65q-36 0 -54 20.5t-17 66.5l4 165q-119 -2 -181.5 -36t-62.5 -93q0 -47 30.5 -72t73.5 -25q38 0 74.5 16t60.5 43z" />
    <glyph glyph-name="acircumflex" unicode="&#xe2;" horiz-adv-x="474" 
d="M231 800l157 -204h-6l-153 131l-162 -131h-5l166 204h3zM330 78q-52 -92 -157 -92q-65 0 -102.5 34.5t-37.5 86.5q0 76 80.5 113t221.5 39l1 52q2 85 -24 127t-89 42q-48 0 -78 -23t-22 -68q3 -19 -4.5 -32t-22.5 -13q-31 0 -31 38q0 49 49 84.5t112 35.5
q87 0 124.5 -43.5t35.5 -136.5l-5 -250q-2 -48 39 -48q37 0 54 35l2 -1q-17 -65 -74 -65q-36 0 -54 20.5t-17 66.5l4 165q-119 -2 -181.5 -36t-62.5 -93q0 -47 30.5 -72t73.5 -25q38 0 74.5 16t60.5 43z" />
    <glyph glyph-name="atilde" unicode="&#xe3;" horiz-adv-x="474" 
d="M360 708l35 47l5 -3l-35 -88h-248l-37 -46l-5 3l37 87h248zM330 78q-52 -92 -157 -92q-65 0 -102.5 34.5t-37.5 86.5q0 76 80.5 113t221.5 39l1 52q2 85 -24 127t-89 42q-48 0 -78 -23t-22 -68q3 -19 -4.5 -32t-22.5 -13q-31 0 -31 38q0 49 49 84.5t112 35.5
q87 0 124.5 -43.5t35.5 -136.5l-5 -250q-2 -48 39 -48q37 0 54 35l2 -1q-17 -65 -74 -65q-36 0 -54 20.5t-17 66.5l4 165q-119 -2 -181.5 -36t-62.5 -93q0 -47 30.5 -72t73.5 -25q38 0 74.5 16t60.5 43z" />
    <glyph glyph-name="adieresis" unicode="&#xe4;" horiz-adv-x="474" 
d="M297 691q0 19 13 32t30 13q19 0 32 -13t13 -32q0 -18 -13 -30.5t-32 -12.5q-17 0 -30 12.5t-13 30.5zM83 691q0 19 13 32t30 13q19 0 32 -13t13 -32q0 -18 -13 -30.5t-32 -12.5q-17 0 -30 12.5t-13 30.5zM330 78q-52 -92 -157 -92q-65 0 -102.5 34.5t-37.5 86.5
q0 76 80.5 113t221.5 39l1 52q2 85 -24 127t-89 42q-48 0 -78 -23t-22 -68q3 -19 -4.5 -32t-22.5 -13q-31 0 -31 38q0 49 49 84.5t112 35.5q87 0 124.5 -43.5t35.5 -136.5l-5 -250q-2 -48 39 -48q37 0 54 35l2 -1q-17 -65 -74 -65q-36 0 -54 20.5t-17 66.5l4 165
q-119 -2 -181.5 -36t-62.5 -93q0 -47 30.5 -72t73.5 -25q38 0 74.5 16t60.5 43z" />
    <glyph glyph-name="aring" unicode="&#xe5;" horiz-adv-x="474" 
d="M332 673q0 -41 -30 -69.5t-72 -28.5t-72 28.5t-30 69.5t30 69.5t72 28.5t72 -28.5t30 -69.5zM301 673q0 31 -21 51.5t-50 20.5q-30 0 -50 -21t-20 -51t20 -51t50 -21q32 0 51.5 21t19.5 51zM330 78q-52 -92 -157 -92q-65 0 -102.5 34.5t-37.5 86.5q0 76 80.5 113
t221.5 39l1 52q2 85 -24 127t-89 42q-48 0 -78 -23t-22 -68q3 -19 -4.5 -32t-22.5 -13q-31 0 -31 38q0 49 49 84.5t112 35.5q87 0 124.5 -43.5t35.5 -136.5l-5 -250q-2 -48 39 -48q37 0 54 35l2 -1q-17 -65 -74 -65q-36 0 -54 20.5t-17 66.5l4 165q-119 -2 -181.5 -36
t-62.5 -93q0 -47 30.5 -72t73.5 -25q38 0 74.5 16t60.5 43z" />
    <glyph glyph-name="ae" unicode="&#xe6;" horiz-adv-x="770" 
d="M563 -14q-147 0 -206 119q-62 -119 -178 -119q-69 0 -107.5 35.5t-38.5 85.5q0 149 292 152l1 69q0 92 -21 121q-24 35 -84 35q-45 0 -74.5 -19.5t-22.5 -63.5q3 -19 -4.5 -32t-22.5 -13q-31 0 -31 38q0 47 47 79t108 32q66 0 100 -24t45 -75q62 99 183 99
q85 0 138.5 -53.5t61.5 -140.5h-371q-4 -24 -4 -55q0 -103 54 -168.5t151 -65.5q108 0 163 63l2 -2q-67 -97 -181 -97zM551 483q-69 0 -112 -41t-58 -111h311q-4 74 -43 113t-98 39zM197 21q49 0 92 24.5t68 59.5q-31 58 -32 140q-116 -2 -175.5 -36t-59.5 -93
q0 -48 30 -71.5t77 -23.5z" />
    <glyph glyph-name="ccedilla" unicode="&#xe7;" horiz-adv-x="466" 
d="M367 -139q0 -51 -53 -80t-125 -36l-3 6q67 8 100 37.5t33 66.5q0 50 -48 50q-27 0 -46 -14l-24 19l47 78q-92 10 -148.5 80.5t-56.5 180.5q0 113 69 182.5t172 69.5q57 0 109.5 -21.5t52.5 -50.5q0 -30 -28 -30q-16 0 -26.5 12.5t-17 27.5t-30 27.5t-62.5 12.5
q-82 0 -132.5 -60.5t-50.5 -163.5q0 -109 54.5 -171t137.5 -62q106 0 168 56l2 -2q-68 -90 -184 -90l-47 -74q27 20 61 20q33 0 54.5 -18t21.5 -53z" />
    <glyph glyph-name="egrave" unicode="&#xe8;" horiz-adv-x="505" 
d="M326 593l-191 194h80l116 -194h-5zM284 482q-71 0 -115.5 -41t-60.5 -110h319q-1 74 -42 112.5t-101 38.5zM477 83q-67 -97 -194 -97q-106 0 -173 72.5t-67 195.5q0 110 68.5 180t170.5 70q86 0 140.5 -52.5t61.5 -140.5h-380q-4 -24 -4 -55q0 -102 54 -168t151 -66
q48 0 95.5 15.5t74.5 47.5z" />
    <glyph glyph-name="eacute" unicode="&#xe9;" horiz-adv-x="505" 
d="M418 787l-191 -194h-5l116 194h80zM284 482q-71 0 -115.5 -41t-60.5 -110h319q-1 74 -42 112.5t-101 38.5zM477 83q-67 -97 -194 -97q-106 0 -173 72.5t-67 195.5q0 110 68.5 180t170.5 70q86 0 140.5 -52.5t61.5 -140.5h-380q-4 -24 -4 -55q0 -102 54 -168t151 -66
q48 0 95.5 15.5t74.5 47.5z" />
    <glyph glyph-name="ecircumflex" unicode="&#xea;" horiz-adv-x="505" 
d="M269 800l157 -204h-6l-153 131l-162 -131h-5l166 204h3zM284 482q-71 0 -115.5 -41t-60.5 -110h319q-1 74 -42 112.5t-101 38.5zM477 83q-67 -97 -194 -97q-106 0 -173 72.5t-67 195.5q0 110 68.5 180t170.5 70q86 0 140.5 -52.5t61.5 -140.5h-380q-4 -24 -4 -55
q0 -102 54 -168t151 -66q48 0 95.5 15.5t74.5 47.5z" />
    <glyph glyph-name="edieresis" unicode="&#xeb;" horiz-adv-x="505" 
d="M336 691q0 19 13 32t30 13q19 0 32 -13t13 -32q0 -18 -13 -30.5t-32 -12.5q-17 0 -30 12.5t-13 30.5zM122 691q0 19 13 32t30 13q19 0 32 -13t13 -32q0 -18 -13 -30.5t-32 -12.5q-17 0 -30 12.5t-13 30.5zM284 482q-71 0 -115.5 -41t-60.5 -110h319q-1 74 -42 112.5
t-101 38.5zM477 83q-67 -97 -194 -97q-106 0 -173 72.5t-67 195.5q0 110 68.5 180t170.5 70q86 0 140.5 -52.5t61.5 -140.5h-380q-4 -24 -4 -55q0 -102 54 -168t151 -66q48 0 95.5 15.5t74.5 47.5z" />
    <glyph glyph-name="igrave" unicode="&#xec;" horiz-adv-x="282" 
d="M233 553l-191 234h80l116 -234h-5zM167 432v-383q0 -21 14.5 -29t57.5 -8v-12h-196v12q43 0 57.5 8t14.5 29v383q0 21 -14.5 29t-57.5 8v12h196v-12q-43 0 -57.5 -8t-14.5 -29z" />
    <glyph glyph-name="iacute" unicode="&#xed;" horiz-adv-x="282" 
d="M246 787l-191 -234h-5l116 234h80zM167 432v-383q0 -21 14.5 -29t57.5 -8v-12h-196v12q43 0 57.5 8t14.5 29v383q0 21 -14.5 29t-57.5 8v12h196v-12q-43 0 -57.5 -8t-14.5 -29z" />
    <glyph glyph-name="icircumflex" unicode="&#xee;" horiz-adv-x="282" 
d="M147 800l127 -244h-6l-123 161l-132 -161h-5l136 244h3zM167 432v-383q0 -21 14.5 -29t57.5 -8v-12h-196v12q43 0 57.5 8t14.5 29v383q0 21 -14.5 29t-57.5 8v12h196v-12q-43 0 -57.5 -8t-14.5 -29z" />
    <glyph glyph-name="idieresis" unicode="&#xef;" horiz-adv-x="282" 
d="M173 691q0 19 13 32t30 13q19 0 32 -13t13 -32q0 -18 -13 -30.5t-32 -12.5q-17 0 -30 12.5t-13 30.5zM20 691q0 19 13 32t30 13q19 0 32 -13t13 -32q0 -18 -13 -30.5t-32 -12.5q-17 0 -30 12.5t-13 30.5zM167 432v-383q0 -21 14.5 -29t57.5 -8v-12h-196v12q43 0 57.5 8
t14.5 29v383q0 21 -14.5 29t-57.5 8v12h196v-12q-43 0 -57.5 -8t-14.5 -29z" />
    <glyph glyph-name="eth" unicode="&#xf0;" horiz-adv-x="571" 
d="M370 808l23 -20l-86 -103q105 -64 161 -165.5t56 -233.5q0 -82 -22 -147t-76.5 -109t-135.5 -44q-107 0 -172 71t-65 183q0 67 19.5 117t52 77t68 39.5t73.5 12.5q80 0 130.5 -47t69.5 -123q-10 220 -179 346l-101 -120l-23 21l99 117q-71 48 -175 80l1 4
q103 -19 191 -64zM277 455q-85 0 -126 -63t-41 -156q0 -97 46 -162t131 -65q83 0 130.5 64t47.5 158q0 92 -50.5 158t-137.5 66z" />
    <glyph glyph-name="ntilde" unicode="&#xf1;" horiz-adv-x="582" 
d="M424 708l35 47l5 -3l-35 -88h-248l-37 -46l-5 3l37 87h248zM497 313v-258q0 -25 14 -34t58 -9v-12h-196v12q43 0 57.5 8t14.5 26v268q0 82 -32 117q-33 35 -92 35q-52 0 -93 -31t-61 -78q19 71 66 109t109 38q75 0 115 -43t40 -148zM43 481h124v-432q0 -21 14.5 -29
t57.5 -8v-12h-196v12q43 0 57.5 8t14.5 29v379q0 23 -14 32t-58 9v12z" />
    <glyph glyph-name="ograve" unicode="&#xf2;" horiz-adv-x="580" 
d="M375 593l-191 194h80l116 -194h-5zM43 245q0 117 69 188t178 71t178 -71t69 -188t-69 -188t-178 -71t-178 70.5t-69 188.5zM290 9q89 0 139.5 71t50.5 165q0 95 -50.5 165.5t-139.5 70.5q-88 0 -139 -70t-51 -166q0 -95 50.5 -165.5t139.5 -70.5z" />
    <glyph glyph-name="oacute" unicode="&#xf3;" horiz-adv-x="580" 
d="M433 787l-191 -194h-5l116 194h80zM43 245q0 117 69 188t178 71t178 -71t69 -188t-69 -188t-178 -71t-178 70.5t-69 188.5zM290 9q89 0 139.5 71t50.5 165q0 95 -50.5 165.5t-139.5 70.5q-88 0 -139 -70t-51 -166q0 -95 50.5 -165.5t139.5 -70.5z" />
    <glyph glyph-name="ocircumflex" unicode="&#xf4;" horiz-adv-x="580" 
d="M296 800l157 -204h-6l-153 131l-162 -131h-5l166 204h3zM43 245q0 117 69 188t178 71t178 -71t69 -188t-69 -188t-178 -71t-178 70.5t-69 188.5zM290 9q89 0 139.5 71t50.5 165q0 95 -50.5 165.5t-139.5 70.5q-88 0 -139 -70t-51 -166q0 -95 50.5 -165.5t139.5 -70.5z
" />
    <glyph glyph-name="otilde" unicode="&#xf5;" horiz-adv-x="580" 
d="M413 708l35 47l5 -3l-35 -88h-248l-37 -46l-5 3l37 87h248zM43 245q0 117 69 188t178 71t178 -71t69 -188t-69 -188t-178 -71t-178 70.5t-69 188.5zM290 9q89 0 139.5 71t50.5 165q0 95 -50.5 165.5t-139.5 70.5q-88 0 -139 -70t-51 -166q0 -95 50.5 -165.5t139.5 -70.5z
" />
    <glyph glyph-name="odieresis" unicode="&#xf6;" horiz-adv-x="580" 
d="M357 691q0 19 13 32t30 13q19 0 32 -13t13 -32q0 -18 -13 -30.5t-32 -12.5q-17 0 -30 12.5t-13 30.5zM143 691q0 19 13 32t30 13q19 0 32 -13t13 -32q0 -18 -13 -30.5t-32 -12.5q-17 0 -30 12.5t-13 30.5zM43 245q0 117 69 188t178 71t178 -71t69 -188t-69 -188t-178 -71
t-178 70.5t-69 188.5zM290 9q89 0 139.5 71t50.5 165q0 95 -50.5 165.5t-139.5 70.5q-88 0 -139 -70t-51 -166q0 -95 50.5 -165.5t139.5 -70.5z" />
    <glyph glyph-name="divide" unicode="&#xf7;" horiz-adv-x="560" 
d="M226 412q0 21 14.5 35.5t35.5 14.5t35.5 -14.5t14.5 -35.5t-14.5 -35.5t-35.5 -14.5t-35.5 14.5t-14.5 35.5zM53 233v43h454v-43h-454zM226 100q0 21 14.5 35.5t35.5 14.5t35.5 -14.5t14.5 -35.5t-14.5 -35.5t-35.5 -14.5t-35.5 14.5t-14.5 35.5z" />
    <glyph glyph-name="oslash" unicode="&#xf8;" horiz-adv-x="580" 
d="M100 245q0 -106 58 -175l234 378q-44 33 -102 33q-88 0 -139 -70t-51 -166zM290 9q89 0 139.5 71t50.5 165q0 112 -62 180l-234 -380q46 -36 106 -36zM290 -14q-70 0 -124 30l-47 -76l-29 19l47 76q-94 71 -94 210q0 117 69 188t178 71q63 0 119 -27l49 79l29 -18
l-49 -79q99 -71 99 -214q0 -117 -69 -188t-178 -71z" />
    <glyph glyph-name="ugrave" unicode="&#xf9;" horiz-adv-x="572" 
d="M354 593l-191 194h80l116 -194h-5zM549 0h-124v432q0 21 -14.5 29t-57.5 8v12h124v-428q0 -23 14 -32t58 -9v-12zM95 159v267q0 25 -14 34t-58 9v12h124v-321q0 -63 31 -99.5t96 -36.5q51 0 92 30.5t59 76.5q-20 -71 -64.5 -108t-105.5 -37q-160 0 -160 173z" />
    <glyph glyph-name="uacute" unicode="&#xfa;" horiz-adv-x="572" 
d="M407 787l-191 -194h-5l116 194h80zM549 0h-124v432q0 21 -14.5 29t-57.5 8v12h124v-428q0 -23 14 -32t58 -9v-12zM95 159v267q0 25 -14 34t-58 9v12h124v-321q0 -63 31 -99.5t96 -36.5q51 0 92 30.5t59 76.5q-20 -71 -64.5 -108t-105.5 -37q-160 0 -160 173z" />
    <glyph glyph-name="ucircumflex" unicode="&#xfb;" horiz-adv-x="572" 
d="M285 800l157 -204h-6l-153 131l-162 -131h-5l166 204h3zM549 0h-124v432q0 21 -14.5 29t-57.5 8v12h124v-428q0 -23 14 -32t58 -9v-12zM95 159v267q0 25 -14 34t-58 9v12h124v-321q0 -63 31 -99.5t96 -36.5q51 0 92 30.5t59 76.5q-20 -71 -64.5 -108t-105.5 -37
q-160 0 -160 173z" />
    <glyph glyph-name="udieresis" unicode="&#xfc;" horiz-adv-x="572" 
d="M340 691q0 19 13 32t30 13q19 0 32 -13t13 -32q0 -18 -13 -30.5t-32 -12.5q-17 0 -30 12.5t-13 30.5zM126 691q0 19 13 32t30 13q19 0 32 -13t13 -32q0 -18 -13 -30.5t-32 -12.5q-17 0 -30 12.5t-13 30.5zM549 0h-124v432q0 21 -14.5 29t-57.5 8v12h124v-428
q0 -23 14 -32t58 -9v-12zM95 159v267q0 25 -14 34t-58 9v12h124v-321q0 -63 31 -99.5t96 -36.5q51 0 92 30.5t59 76.5q-20 -71 -64.5 -108t-105.5 -37q-160 0 -160 173z" />
    <glyph glyph-name="yacute" unicode="&#xfd;" horiz-adv-x="518" 
d="M428 787l-191 -194h-5l116 194h80zM426 378l-214 -528q-31 -76 -64 -98.5t-74 -22.5q-35 0 -64 15.5t-29 40.5q0 14 9.5 23t22.5 9q20 0 41.5 -27t39.5 -27q25 0 46 19.5t46 80.5l57 141l-167 417q-8 18 -13 26t-21.5 15t-44.5 7v12h198v-12q-40 0 -56.5 -9t-6.5 -34
l139 -363l119 304q22 57 14 79.5t-50 22.5v12h169v-12q-37 0 -56.5 -20t-40.5 -71z" />
    <glyph glyph-name="thorn" unicode="&#xfe;" horiz-adv-x="673" 
d="M105 -216v954q0 20 -17 28.5t-61 8.5v12h202v-12q-43 0 -57.5 -8t-14.5 -29v-954q0 -18 19.5 -26t72.5 -8v-12h-216v12q43 0 57.5 8t14.5 26zM296 471q-84 0 -138 -47q26 36 69 59t90 23q106 0 168.5 -73.5t62.5 -184.5q0 -113 -61.5 -187.5t-166.5 -74.5q-94 0 -162 77
q58 -42 137 -42q95 0 145.5 63.5t50.5 163.5t-51 161.5t-144 61.5z" />
    <glyph glyph-name="ydieresis" unicode="&#xff;" horiz-adv-x="518" 
d="M333 691q0 19 13 32t30 13q19 0 32 -13t13 -32q0 -18 -13 -30.5t-32 -12.5q-17 0 -30 12.5t-13 30.5zM119 691q0 19 13 32t30 13q19 0 32 -13t13 -32q0 -18 -13 -30.5t-32 -12.5q-17 0 -30 12.5t-13 30.5zM426 378l-214 -528q-31 -76 -64 -98.5t-74 -22.5q-35 0 -64 15.5
t-29 40.5q0 14 9.5 23t22.5 9q20 0 41.5 -27t39.5 -27q25 0 46 19.5t46 80.5l57 141l-167 417q-8 18 -13 26t-21.5 15t-44.5 7v12h198v-12q-40 0 -56.5 -9t-6.5 -34l139 -363l119 304q22 57 14 79.5t-50 22.5v12h169v-12q-37 0 -56.5 -20t-40.5 -71z" />
    <glyph glyph-name="Amacron" unicode="&#x100;" horiz-adv-x="795" 
d="M249 853v32h314v-32h-314zM398 711l-149 -381h287zM238 16v-16h-235v16q51 0 77 24.5t59 104.5l268 665h9l273 -730q11 -32 34.5 -48t68.5 -16v-16h-235v16q50 0 67 13t4 49l-74 204h-324l-48 -123q-35 -91 -24 -117t80 -26z" />
    <glyph glyph-name="amacron" unicode="&#x101;" horiz-adv-x="474" 
d="M77 658v32h314v-32h-314zM330 78q-52 -92 -157 -92q-65 0 -102.5 34.5t-37.5 86.5q0 76 80.5 113t221.5 39l1 52q2 85 -24 127t-89 42q-48 0 -78 -23t-22 -68q3 -19 -4.5 -32t-22.5 -13q-31 0 -31 38q0 49 49 84.5t112 35.5q87 0 124.5 -43.5t35.5 -136.5l-5 -250
q-2 -48 39 -48q37 0 54 35l2 -1q-17 -65 -74 -65q-36 0 -54 20.5t-17 66.5l4 165q-119 -2 -181.5 -36t-62.5 -93q0 -47 30.5 -72t73.5 -25q38 0 74.5 16t60.5 43z" />
    <glyph glyph-name="Abreve" unicode="&#x102;" horiz-adv-x="795" 
d="M411 813q-52 0 -92.5 28.5t-44.5 93.5h31q4 -95 106 -95t106 95h31q-4 -65 -44.5 -93.5t-92.5 -28.5zM398 711l-149 -381h287zM238 16v-16h-235v16q51 0 77 24.5t59 104.5l268 665h9l273 -730q11 -32 34.5 -48t68.5 -16v-16h-235v16q50 0 67 13t4 49l-74 204h-324
l-48 -123q-35 -91 -24 -117t80 -26z" />
    <glyph glyph-name="abreve" unicode="&#x103;" horiz-adv-x="474" 
d="M404 749q-2 -48 -18.5 -81.5t-41.5 -49.5t-48.5 -22.5t-48.5 -6.5t-48.5 6.5t-48.5 22.5t-41.5 49.5t-18.5 81.5h31q2 -59 34.5 -95.5t91.5 -36.5t91.5 36.5t34.5 95.5h31zM330 78q-52 -92 -157 -92q-65 0 -102.5 34.5t-37.5 86.5q0 76 80.5 113t221.5 39l1 52
q2 85 -24 127t-89 42q-48 0 -78 -23t-22 -68q3 -19 -4.5 -32t-22.5 -13q-31 0 -31 38q0 49 49 84.5t112 35.5q87 0 124.5 -43.5t35.5 -136.5l-5 -250q-2 -48 39 -48q37 0 54 35l2 -1q-17 -65 -74 -65q-36 0 -54 20.5t-17 66.5l4 165q-119 -2 -181.5 -36t-62.5 -93
q0 -47 30.5 -72t73.5 -25q38 0 74.5 16t60.5 43z" />
    <glyph glyph-name="Aogonek" unicode="&#x104;" horiz-adv-x="795" 
d="M398 711l-149 -381h287zM683 0h-126v16q50 0 67 13t4 49l-74 204h-324l-48 -123q-35 -91 -24 -117t80 -26v-16h-235v16q51 0 77 24.5t59 104.5l268 665h9l273 -730q11 -32 34.5 -48t68.5 -16v-16h-99q-98 -65 -98 -141q0 -35 24.5 -54.5t60.5 -19.5q25 0 49 9l1 -2
q-37 -30 -89 -30q-40 0 -67.5 22.5t-27.5 61.5q0 44 35.5 79.5t101.5 74.5z" />
    <glyph glyph-name="aogonek" unicode="&#x105;" horiz-adv-x="474" 
d="M365 -238q-40 0 -67.5 22.5t-27.5 61.5q0 42 32.5 76.5t93.5 70.5q-66 3 -65 87l4 165q-119 -2 -181.5 -36t-62.5 -93q0 -47 30.5 -72t73.5 -25q38 0 74.5 16t60.5 43q-52 -92 -157 -92q-65 0 -102.5 34.5t-37.5 86.5q0 76 80.5 113t221.5 39l1 52q2 85 -24 127t-89 42
q-48 0 -78 -23t-22 -68q3 -19 -4.5 -32t-22.5 -13q-31 0 -31 38q0 49 49 84.5t112 35.5q87 0 124.5 -43.5t35.5 -136.5l-5 -250q-2 -48 39 -48q37 0 54 35l2 -1q-17 -62 -69 -65q-88 -62 -88 -134q0 -35 24.5 -54.5t60.5 -19.5q25 0 49 9l1 -2q-37 -30 -89 -30z" />
    <glyph glyph-name="Cacute" unicode="&#x106;" horiz-adv-x="838" 
d="M578 945l-169 -109h-5l81 109h93zM785 221l-3 -146q-118 -89 -309 -89q-106 0 -190.5 34t-136 92.5t-78 130.5t-26.5 152q0 186 119 298t307 112q172 0 305 -82l2 -146h-11q-21 103 -102 151t-196 48q-65 0 -126.5 -23t-114 -67.5t-84.5 -120.5t-32 -173q0 -91 32 -165
t84.5 -119t115 -69t126.5 -24q270 0 307 206h11z" />
    <glyph glyph-name="cacute" unicode="&#x107;" horiz-adv-x="466" 
d="M421 787l-191 -194h-5l116 194h80zM99 255q0 -109 54.5 -171t137.5 -62q106 0 168 56l2 -2q-68 -90 -184 -90q-103 0 -168.5 72t-65.5 191q0 113 69 182.5t172 69.5q57 0 109.5 -21.5t52.5 -50.5q0 -30 -28 -30q-16 0 -26.5 12.5t-17 27.5t-30 27.5t-62.5 12.5
q-82 0 -132.5 -60.5t-50.5 -163.5z" />
    <glyph glyph-name="Ccircumflex" unicode="&#x108;" horiz-adv-x="838" 
d="M472 949l147 -112h-6l-143 57l-142 -57h-5l146 112h3zM785 221l-3 -146q-118 -89 -309 -89q-106 0 -190.5 34t-136 92.5t-78 130.5t-26.5 152q0 186 119 298t307 112q172 0 305 -82l2 -146h-11q-21 103 -102 151t-196 48q-65 0 -126.5 -23t-114 -67.5t-84.5 -120.5
t-32 -173q0 -91 32 -165t84.5 -119t115 -69t126.5 -24q270 0 307 206h11z" />
    <glyph glyph-name="ccircumflex" unicode="&#x109;" horiz-adv-x="466" 
d="M279 800l157 -204h-6l-153 131l-162 -131h-5l166 204h3zM99 255q0 -109 54.5 -171t137.5 -62q106 0 168 56l2 -2q-68 -90 -184 -90q-103 0 -168.5 72t-65.5 191q0 113 69 182.5t172 69.5q57 0 109.5 -21.5t52.5 -50.5q0 -30 -28 -30q-16 0 -26.5 12.5t-17 27.5t-30 27.5
t-62.5 12.5q-82 0 -132.5 -60.5t-50.5 -163.5z" />
    <glyph glyph-name="Cdotaccent" unicode="&#x10a;" horiz-adv-x="838" 
d="M424 881q0 19 13 32t30 13q19 0 32 -13t13 -32q0 -18 -13 -30.5t-32 -12.5q-17 0 -30 12.5t-13 30.5zM785 221l-3 -146q-118 -89 -309 -89q-106 0 -190.5 34t-136 92.5t-78 130.5t-26.5 152q0 186 119 298t307 112q172 0 305 -82l2 -146h-11q-21 103 -102 151t-196 48
q-65 0 -126.5 -23t-114 -67.5t-84.5 -120.5t-32 -173q0 -91 32 -165t84.5 -119t115 -69t126.5 -24q270 0 307 206h11z" />
    <glyph glyph-name="cdotaccent" unicode="&#x10b;" horiz-adv-x="466" 
d="M231 715q0 19 13 32t30 13q19 0 32 -13t13 -32q0 -18 -13 -30.5t-32 -12.5q-17 0 -30 12.5t-13 30.5zM99 255q0 -109 54.5 -171t137.5 -62q106 0 168 56l2 -2q-68 -90 -184 -90q-103 0 -168.5 72t-65.5 191q0 113 69 182.5t172 69.5q57 0 109.5 -21.5t52.5 -50.5
q0 -30 -28 -30q-16 0 -26.5 12.5t-17 27.5t-30 27.5t-62.5 12.5q-82 0 -132.5 -60.5t-50.5 -163.5z" />
    <glyph glyph-name="Ccaron" unicode="&#x10c;" horiz-adv-x="838" 
d="M463 837l-137 112h6l133 -57l132 57h5l-136 -112h-3zM785 221l-3 -146q-118 -89 -309 -89q-106 0 -190.5 34t-136 92.5t-78 130.5t-26.5 152q0 186 119 298t307 112q172 0 305 -82l2 -146h-11q-21 103 -102 151t-196 48q-65 0 -126.5 -23t-114 -67.5t-84.5 -120.5
t-32 -173q0 -91 32 -165t84.5 -119t115 -69t126.5 -24q270 0 307 206h11z" />
    <glyph glyph-name="ccaron" unicode="&#x10d;" horiz-adv-x="466" 
d="M275 556l-157 244h6l153 -161l162 161h5l-166 -244h-3zM99 255q0 -109 54.5 -171t137.5 -62q106 0 168 56l2 -2q-68 -90 -184 -90q-103 0 -168.5 72t-65.5 191q0 113 69 182.5t172 69.5q57 0 109.5 -21.5t52.5 -50.5q0 -30 -28 -30q-16 0 -26.5 12.5t-17 27.5t-30 27.5
t-62.5 12.5q-82 0 -132.5 -60.5t-50.5 -163.5z" />
    <glyph glyph-name="Dcaron" unicode="&#x10e;" horiz-adv-x="847" 
d="M379 837l-137 112h6l133 -57l132 57h5l-136 -112h-3zM43 787h264q254 0 376 -96.5t122 -287.5q0 -187 -116 -295t-330 -108h-316v16q61 0 80 10.5t19 44.5v640q0 36 -19.5 47.5t-79.5 11.5v17zM202 760v-666q0 -44 14 -55.5t62 -11.5h76q82 0 148.5 19t121 60.5
t84.5 116.5t30 178q0 86 -23.5 150.5t-62 104t-96 63.5t-117.5 32.5t-134 8.5h-103z" />
    <glyph glyph-name="dcaron" unicode="&#x10f;" horiz-adv-x="628" 
d="M558 744q0 22 13.5 36.5t36.5 14.5q24 0 37 -16.5t13 -41.5q0 -44 -32.5 -80t-74.5 -54l-3 6q22 12 43 38t21 47q-25 1 -39.5 15.5t-14.5 34.5zM485 738v-683q0 -25 14 -34t58 -9v-12h-124v738q0 20 -17 28.5t-61 8.5v12h202v-12q-43 0 -57.5 -8t-14.5 -29zM276 504
q47 0 89 -22.5t68 -59.5q-57 49 -136 49q-93 0 -145 -63t-52 -163t51.5 -163t146.5 -63q74 0 135 44q-68 -77 -160 -77q-106 0 -168 73.5t-62 185.5q0 111 63 185t170 74z" />
    <glyph glyph-name="Dcroat" unicode="&#x110;" horiz-adv-x="847" 
d="M359 0h-316v16q61 0 80 10.5t19 44.5v324h-139v31h139v285q0 36 -19.5 47.5t-79.5 11.5v17h264q254 0 376 -96.5t122 -287.5q0 -187 -116 -295t-330 -108zM278 27h76q82 0 148.5 19t121 60.5t84.5 116.5t30 178q0 86 -23.5 150.5t-62 104t-96 63.5t-117.5 32.5t-134 8.5
h-103v-334h240v-31h-240v-301q0 -44 14 -55.5t62 -11.5z" />
    <glyph glyph-name="dcroat" unicode="&#x111;" horiz-adv-x="578" 
d="M433 0v615h-164v20h164v103q0 20 -17 28.5t-61 8.5v12h202v-12q-43 0 -57.5 -8t-14.5 -29v-103h72v-20h-72v-560q0 -25 14 -34t58 -9v-12h-124zM276 504q47 0 89 -22.5t68 -59.5q-57 49 -136 49q-93 0 -145 -63t-52 -163t51.5 -163t146.5 -63q74 0 135 44
q-68 -77 -160 -77q-106 0 -168 73.5t-62 185.5q0 111 63 185t170 74z" />
    <glyph glyph-name="Emacron" unicode="&#x112;" horiz-adv-x="676" 
d="M199 853v32h314v-32h-314zM633 186v-186h-590v16q60 0 79.5 11t19.5 44v645q0 33 -19.5 44t-79.5 11v16h554v-170h-10q-10 93 -45.5 118t-145.5 25h-194v-323h170q55 0 75.5 17t31.5 85h10v-233h-10q-11 69 -32 86.5t-75 17.5h-170v-316q0 -44 14 -55.5t62 -11.5h170
q98 0 131 29.5t44 129.5h10z" />
    <glyph glyph-name="emacron" unicode="&#x113;" horiz-adv-x="505" 
d="M124 658v32h314v-32h-314zM284 482q-71 0 -115.5 -41t-60.5 -110h319q-1 74 -42 112.5t-101 38.5zM477 83q-67 -97 -194 -97q-106 0 -173 72.5t-67 195.5q0 110 68.5 180t170.5 70q86 0 140.5 -52.5t61.5 -140.5h-380q-4 -24 -4 -55q0 -102 54 -168t151 -66
q48 0 95.5 15.5t74.5 47.5z" />
    <glyph glyph-name="Ebreve" unicode="&#x114;" horiz-adv-x="676" 
d="M361 813q-52 0 -92.5 28.5t-44.5 93.5h31q4 -95 106 -95t106 95h31q-4 -65 -44.5 -93.5t-92.5 -28.5zM633 186v-186h-590v16q60 0 79.5 11t19.5 44v645q0 33 -19.5 44t-79.5 11v16h554v-170h-10q-10 93 -45.5 118t-145.5 25h-194v-323h170q55 0 75.5 17t31.5 85h10v-233
h-10q-11 69 -32 86.5t-75 17.5h-170v-316q0 -44 14 -55.5t62 -11.5h170q98 0 131 29.5t44 129.5h10z" />
    <glyph glyph-name="ebreve" unicode="&#x115;" horiz-adv-x="505" 
d="M434 749q-2 -48 -18.5 -81.5t-41.5 -49.5t-48.5 -22.5t-48.5 -6.5t-48.5 6.5t-48.5 22.5t-41.5 49.5t-18.5 81.5h31q2 -59 34.5 -95.5t91.5 -36.5t91.5 36.5t34.5 95.5h31zM284 482q-71 0 -115.5 -41t-60.5 -110h319q-1 74 -42 112.5t-101 38.5zM477 83q-67 -97 -194 -97
q-106 0 -173 72.5t-67 195.5q0 110 68.5 180t170.5 70q86 0 140.5 -52.5t61.5 -140.5h-380q-4 -24 -4 -55q0 -102 54 -168t151 -66q48 0 95.5 15.5t74.5 47.5z" />
    <glyph glyph-name="Edotaccent" unicode="&#x116;" horiz-adv-x="676" 
d="M314 881q0 19 13 32t30 13q19 0 32 -13t13 -32q0 -18 -13 -30.5t-32 -12.5q-17 0 -30 12.5t-13 30.5zM633 186v-186h-590v16q60 0 79.5 11t19.5 44v645q0 33 -19.5 44t-79.5 11v16h554v-170h-10q-10 93 -45.5 118t-145.5 25h-194v-323h170q55 0 75.5 17t31.5 85h10v-233
h-10q-11 69 -32 86.5t-75 17.5h-170v-316q0 -44 14 -55.5t62 -11.5h170q98 0 131 29.5t44 129.5h10z" />
    <glyph glyph-name="edotaccent" unicode="&#x117;" horiz-adv-x="505" 
d="M228 715q0 19 13 32t30 13q19 0 32 -13t13 -32q0 -18 -13 -30.5t-32 -12.5q-17 0 -30 12.5t-13 30.5zM284 482q-71 0 -115.5 -41t-60.5 -110h319q-1 74 -42 112.5t-101 38.5zM477 83q-67 -97 -194 -97q-106 0 -173 72.5t-67 195.5q0 110 68.5 180t170.5 70
q86 0 140.5 -52.5t61.5 -140.5h-380q-4 -24 -4 -55q0 -102 54 -168t151 -66q48 0 95.5 15.5t74.5 47.5z" />
    <glyph glyph-name="Eogonek" unicode="&#x118;" horiz-adv-x="676" 
d="M621 0h-578v16q60 0 79.5 11t19.5 44v645q0 33 -19.5 44t-79.5 11v16h554v-170h-10q-10 93 -45.5 118t-145.5 25h-194v-323h170q55 0 75.5 17t31.5 85h10v-233h-10q-11 69 -32 86.5t-75 17.5h-170v-316q0 -44 14 -55.5t62 -11.5h170q98 0 131 29.5t44 129.5h10v-186h-2
q-98 -65 -98 -141q0 -35 24.5 -54.5t60.5 -19.5q25 0 49 9l1 -2q-37 -30 -89 -30q-40 0 -67.5 22.5t-27.5 61.5q0 44 35.5 79.5t101.5 74.5z" />
    <glyph glyph-name="eogonek" unicode="&#x119;" horiz-adv-x="505" 
d="M405 -206l1 -2q-37 -30 -89 -30q-40 0 -67.5 22.5t-27.5 61.5q0 79 131 148q-32 -8 -70 -8q-106 0 -173 72.5t-67 195.5q0 110 68.5 180t170.5 70q86 0 140.5 -52.5t61.5 -140.5h-380q-4 -24 -4 -55q0 -102 54 -168t151 -66q48 0 95.5 15.5t74.5 47.5l2 -2
q-36 -52 -86 -75q-43 -20 -65 -42q-55 -53 -55 -107q0 -48 43.5 -66.5t90.5 1.5zM284 482q-71 0 -116 -41t-61 -110h320q-1 74 -42 112.5t-101 38.5z" />
    <glyph glyph-name="Ecaron" unicode="&#x11a;" horiz-adv-x="676" 
d="M359 837l-137 112h6l133 -57l132 57h5l-136 -112h-3zM633 186v-186h-590v16q60 0 79.5 11t19.5 44v645q0 33 -19.5 44t-79.5 11v16h554v-170h-10q-10 93 -45.5 118t-145.5 25h-194v-323h170q55 0 75.5 17t31.5 85h10v-233h-10q-11 69 -32 86.5t-75 17.5h-170v-316
q0 -44 14 -55.5t62 -11.5h170q98 0 131 29.5t44 129.5h10z" />
    <glyph glyph-name="ecaron" unicode="&#x11b;" horiz-adv-x="505" 
d="M286 556l-157 244h6l153 -161l162 161h5l-166 -244h-3zM284 482q-71 0 -115.5 -41t-60.5 -110h319q-1 74 -42 112.5t-101 38.5zM477 83q-67 -97 -194 -97q-106 0 -173 72.5t-67 195.5q0 110 68.5 180t170.5 70q86 0 140.5 -52.5t61.5 -140.5h-380q-4 -24 -4 -55
q0 -102 54 -168t151 -66q48 0 95.5 15.5t74.5 47.5z" />
    <glyph glyph-name="Gcircumflex" unicode="&#x11c;" horiz-adv-x="893" 
d="M474 949l147 -112h-6l-143 57l-142 -57h-5l146 112h3zM719 99v171q0 24 -16.5 32t-63.5 8v16h218v-16q-47 0 -63 -7.5t-16 -33.5v-172q-89 -111 -302 -111q-111 0 -196.5 34t-136 92.5t-76 130t-25.5 151.5q0 186 117.5 298.5t304.5 112.5q177 0 307 -81v-147h-11
q-44 199 -298 199q-65 0 -125.5 -22.5t-112.5 -67t-83.5 -121t-31.5 -174.5q0 -74 21 -137t56.5 -106t82.5 -73.5t97.5 -45t101.5 -14.5q175 0 251 84z" />
    <glyph glyph-name="gcircumflex" unicode="&#x11d;" horiz-adv-x="521" 
d="M247 800l157 -204h-6l-153 131l-162 -131h-5l166 204h3zM380 331q0 65 -38.5 109t-102.5 44q-63 0 -100.5 -42t-37.5 -111q0 -70 40 -111.5t98 -41.5q59 0 100 41t41 112zM239 503q41 0 74 -15h215v-42l-184 25q43 -21 67.5 -58.5t24.5 -81.5q0 -78 -55.5 -125
t-141.5 -47q-17 0 -49 5q-85 -16 -85 -68q0 -50 93 -50h85q104 0 161.5 -29t57.5 -98q0 -92 -73.5 -138.5t-182.5 -46.5t-172 40t-63 99q0 46 43.5 78.5t120.5 44.5q-60 0 -91.5 22.5t-31.5 56.5q0 75 137 89q-68 14 -106.5 58.5t-38.5 108.5q0 83 54 127.5t141 44.5z
M65 -127q0 -55 47.5 -88.5t130.5 -33.5q52 0 97.5 12t80 44.5t34.5 80.5q0 54 -39 81t-135 27h-106q-58 -21 -84 -50t-26 -73z" />
    <glyph glyph-name="Gbreve" unicode="&#x11e;" horiz-adv-x="893" 
d="M449 813q-52 0 -92.5 28.5t-44.5 93.5h31q4 -95 106 -95t106 95h31q-4 -65 -44.5 -93.5t-92.5 -28.5zM719 99v171q0 24 -16.5 32t-63.5 8v16h218v-16q-47 0 -63 -7.5t-16 -33.5v-172q-89 -111 -302 -111q-111 0 -196.5 34t-136 92.5t-76 130t-25.5 151.5
q0 186 117.5 298.5t304.5 112.5q177 0 307 -81v-147h-11q-44 199 -298 199q-65 0 -125.5 -22.5t-112.5 -67t-83.5 -121t-31.5 -174.5q0 -74 21 -137t56.5 -106t82.5 -73.5t97.5 -45t101.5 -14.5q175 0 251 84z" />
    <glyph glyph-name="gbreve" unicode="&#x11f;" horiz-adv-x="521" 
d="M400 749q-2 -48 -18.5 -81.5t-41.5 -49.5t-48.5 -22.5t-48.5 -6.5t-48.5 6.5t-48.5 22.5t-41.5 49.5t-18.5 81.5h31q2 -59 34.5 -95.5t91.5 -36.5t91.5 36.5t34.5 95.5h31zM380 331q0 65 -38.5 109t-102.5 44q-63 0 -100.5 -42t-37.5 -111q0 -70 40 -111.5t98 -41.5
q59 0 100 41t41 112zM239 503q41 0 74 -15h215v-42l-184 25q43 -21 67.5 -58.5t24.5 -81.5q0 -78 -55.5 -125t-141.5 -47q-17 0 -49 5q-85 -16 -85 -68q0 -50 93 -50h85q104 0 161.5 -29t57.5 -98q0 -92 -73.5 -138.5t-182.5 -46.5t-172 40t-63 99q0 46 43.5 78.5
t120.5 44.5q-60 0 -91.5 22.5t-31.5 56.5q0 75 137 89q-68 14 -106.5 58.5t-38.5 108.5q0 83 54 127.5t141 44.5zM65 -127q0 -55 47.5 -88.5t130.5 -33.5q52 0 97.5 12t80 44.5t34.5 80.5q0 54 -39 81t-135 27h-106q-58 -21 -84 -50t-26 -73z" />
    <glyph glyph-name="Gdotaccent" unicode="&#x120;" horiz-adv-x="893" 
d="M424 881q0 19 13 32t30 13q19 0 32 -13t13 -32q0 -18 -13 -30.5t-32 -12.5q-17 0 -30 12.5t-13 30.5zM719 99v171q0 24 -16.5 32t-63.5 8v16h218v-16q-47 0 -63 -7.5t-16 -33.5v-172q-89 -111 -302 -111q-111 0 -196.5 34t-136 92.5t-76 130t-25.5 151.5
q0 186 117.5 298.5t304.5 112.5q177 0 307 -81v-147h-11q-44 199 -298 199q-65 0 -125.5 -22.5t-112.5 -67t-83.5 -121t-31.5 -174.5q0 -74 21 -137t56.5 -106t82.5 -73.5t97.5 -45t101.5 -14.5q175 0 251 84z" />
    <glyph glyph-name="gdotaccent" unicode="&#x121;" horiz-adv-x="521" 
d="M187 715q0 19 13 32t30 13q19 0 32 -13t13 -32q0 -18 -13 -30.5t-32 -12.5q-17 0 -30 12.5t-13 30.5zM380 331q0 65 -38.5 109t-102.5 44q-63 0 -100.5 -42t-37.5 -111q0 -70 40 -111.5t98 -41.5q59 0 100 41t41 112zM239 503q41 0 74 -15h215v-42l-184 25
q43 -21 67.5 -58.5t24.5 -81.5q0 -78 -55.5 -125t-141.5 -47q-17 0 -49 5q-85 -16 -85 -68q0 -50 93 -50h85q104 0 161.5 -29t57.5 -98q0 -92 -73.5 -138.5t-182.5 -46.5t-172 40t-63 99q0 46 43.5 78.5t120.5 44.5q-60 0 -91.5 22.5t-31.5 56.5q0 75 137 89
q-68 14 -106.5 58.5t-38.5 108.5q0 83 54 127.5t141 44.5zM65 -127q0 -55 47.5 -88.5t130.5 -33.5q52 0 97.5 12t80 44.5t34.5 80.5q0 54 -39 81t-135 27h-106q-58 -21 -84 -50t-26 -73z" />
    <glyph glyph-name="Gcommaaccent" unicode="&#x122;" horiz-adv-x="893" 
d="M719 99v171q0 24 -16.5 32t-63.5 8v16h218v-16q-47 0 -63 -7.5t-16 -33.5v-172q-89 -111 -302 -111q-111 0 -196.5 34t-136 92.5t-76 130t-25.5 151.5q0 186 117.5 298.5t304.5 112.5q177 0 307 -81v-147h-11q-44 199 -298 199q-65 0 -125.5 -22.5t-112.5 -67t-83.5 -121
t-31.5 -174.5q0 -74 21 -137t56.5 -106t82.5 -73.5t97.5 -45t101.5 -14.5q175 0 251 84zM410 -84q0 19 12.5 32t32.5 13q21 0 32.5 -14.5t11.5 -37.5q0 -42 -35 -94.5t-86 -86.5l-2 2q39 36 57.5 75.5t18.5 65.5q-18 1 -30 14t-12 31z" />
    <glyph glyph-name="gcommaaccent" unicode="&#x123;" horiz-adv-x="521" 
d="M294 654q0 -22 -13.5 -36.5t-36.5 -14.5q-24 0 -37 16.5t-13 41.5q0 44 32.5 80t74.5 54l3 -6q-22 -12 -43 -38t-21 -47q25 -1 39.5 -15.5t14.5 -34.5zM380 331q0 65 -38.5 109t-102.5 44q-63 0 -100.5 -42t-37.5 -111q0 -70 40 -111.5t98 -41.5q59 0 100 41t41 112z
M239 503q41 0 74 -15h215v-42l-184 25q43 -21 67.5 -58.5t24.5 -81.5q0 -78 -55.5 -125t-141.5 -47q-17 0 -49 5q-85 -16 -85 -68q0 -50 93 -50h85q104 0 161.5 -29t57.5 -98q0 -92 -73.5 -138.5t-182.5 -46.5t-172 40t-63 99q0 46 43.5 78.5t120.5 44.5q-60 0 -91.5 22.5
t-31.5 56.5q0 75 137 89q-68 14 -106.5 58.5t-38.5 108.5q0 83 54 127.5t141 44.5zM65 -127q0 -55 47.5 -88.5t130.5 -33.5q52 0 97.5 12t80 44.5t34.5 80.5q0 54 -39 81t-135 27h-106q-58 -21 -84 -50t-26 -73z" />
    <glyph glyph-name="Hcircumflex" unicode="&#x124;" horiz-adv-x="876" 
d="M442 949l147 -112h-6l-143 57l-142 -57h-5l146 112h3zM301 16v-16h-258v16q59 0 79 13t20 47v640q0 33 -19.5 44t-79.5 11v16h258v-16q-60 0 -79.5 -11t-19.5 -44v-276h472v276q0 33 -19.5 44t-79.5 11v16h258v-16q-60 0 -79.5 -11t-19.5 -44v-640q0 -34 20 -47t79 -13
v-16h-258v16q59 0 79 13t20 47v333h-472v-333q0 -34 20 -47t79 -13z" />
    <glyph glyph-name="hcircumflex" unicode="&#x125;" horiz-adv-x="576" 
d="M105 53v685q0 21 -14.5 29t-57.5 8v12h196v-12q-43 0 -57.5 -8t-14.5 -29v-689q0 -21 14.5 -29t57.5 -8v-12h-196v12q44 0 58 9t14 32zM344 800l137 -204h-6l-133 131l-142 -131h-5l146 204h3zM491 313v-258q0 -25 14 -34t58 -9v-12h-196v12q43 0 57.5 8t14.5 26v268
q0 82 -32 117q-33 35 -92 35q-53 0 -95.5 -31t-62.5 -78q19 71 67 109t110 38q75 0 115 -43q42 -45 42 -148z" />
    <glyph glyph-name="Hbar" unicode="&#x126;" horiz-adv-x="876" 
d="M674 440v131h-472v-131h472zM301 16v-16h-258v16q59 0 79 13t20 47v640q0 33 -19.5 44t-79.5 11v16h258v-16q-60 0 -79.5 -11t-19.5 -44v-114h472v114q0 33 -19.5 44t-79.5 11v16h258v-16q-60 0 -79.5 -11t-19.5 -44v-640q0 -34 20 -47t79 -13v-16h-258v16q59 0 79 13
t20 47v333h-472v-333q0 -34 20 -47t79 -13z" />
    <glyph glyph-name="hbar" unicode="&#x127;" horiz-adv-x="576" 
d="M229 12v-12h-196v12q44 0 58 9t14 32v562h-72v20h72v103q0 21 -14.5 29t-57.5 8v12h196v-12q-43 0 -57.5 -8t-14.5 -29v-103h164v-20h-164v-566q0 -21 14.5 -29t57.5 -8zM491 313v-258q0 -25 14 -34t58 -9v-12h-196v12q43 0 57.5 8t14.5 26v268q0 82 -32 117
q-33 35 -92 35q-53 0 -95.5 -31t-62.5 -78q19 71 67 109t110 38q75 0 115 -43q42 -45 42 -148z" />
    <glyph glyph-name="Itilde" unicode="&#x128;" horiz-adv-x="344" 
d="M296 906l35 47l5 -3l-35 -88h-248l-37 -46l-5 3l37 87h248zM142 76v640q0 33 -19.5 44t-79.5 11v16h258v-16q-60 0 -79.5 -11t-19.5 -44v-640q0 -34 20 -47t79 -13v-16h-258v16q59 0 79 13t20 47z" />
    <glyph glyph-name="itilde" unicode="&#x129;" horiz-adv-x="282" 
d="M240 708l35 47l5 -3l-35 -88h-198l-37 -46l-5 3l37 87h198zM167 432v-383q0 -21 14.5 -29t57.5 -8v-12h-196v12q43 0 57.5 8t14.5 29v383q0 21 -14.5 29t-57.5 8v12h196v-12q-43 0 -57.5 -8t-14.5 -29z" />
    <glyph glyph-name="Imacron" unicode="&#x12a;" horiz-adv-x="344" 
d="M43 853v32h258v-32h-258zM142 76v640q0 33 -19.5 44t-79.5 11v16h258v-16q-60 0 -79.5 -11t-19.5 -44v-640q0 -34 20 -47t79 -13v-16h-258v16q59 0 79 13t20 47z" />
    <glyph glyph-name="imacron" unicode="&#x12b;" horiz-adv-x="282" 
d="M23 658v32h234v-32h-234zM167 432v-383q0 -21 14.5 -29t57.5 -8v-12h-196v12q43 0 57.5 8t14.5 29v383q0 21 -14.5 29t-57.5 8v12h196v-12q-43 0 -57.5 -8t-14.5 -29z" />
    <glyph glyph-name="Ibreve" unicode="&#x12c;" horiz-adv-x="344" 
d="M172 813q-52 0 -92.5 28.5t-44.5 93.5h31q4 -95 106 -95t106 95h31q-4 -65 -44.5 -93.5t-92.5 -28.5zM142 76v640q0 33 -19.5 44t-79.5 11v16h258v-16q-60 0 -79.5 -11t-19.5 -44v-640q0 -34 20 -47t79 -13v-16h-258v16q59 0 79 13t20 47z" />
    <glyph glyph-name="ibreve" unicode="&#x12d;" horiz-adv-x="282" 
d="M58 749q-2 -61 19.5 -96.5t66.5 -35.5t66.5 35.5t19.5 96.5h31q1 -73 -27.5 -116.5t-89.5 -43.5t-89.5 43.5t-27.5 116.5h31zM167 432v-383q0 -21 14.5 -29t57.5 -8v-12h-196v12q43 0 57.5 8t14.5 29v383q0 21 -14.5 29t-57.5 8v12h196v-12q-43 0 -57.5 -8t-14.5 -29z
" />
    <glyph glyph-name="Iogonek" unicode="&#x12e;" horiz-adv-x="344" 
d="M183 0h-140v16q59 0 79 13t20 47v640q0 33 -19.5 44t-79.5 11v16h258v-16q-60 0 -79.5 -11t-19.5 -44v-640q0 -34 20 -47t79 -13v-16h-108q-98 -65 -98 -141q0 -35 24.5 -54.5t60.5 -19.5q25 0 49 9l1 -2q-37 -30 -89 -30q-40 0 -67.5 22.5t-27.5 61.5q0 44 35.5 79.5
t101.5 74.5z" />
    <glyph glyph-name="iogonek" unicode="&#x12f;" horiz-adv-x="282" 
d="M97 715q0 19 13 32t30 13q19 0 32 -13t13 -32q0 -18 -13 -30.5t-32 -12.5q-17 0 -30 12.5t-13 30.5zM156 0h-113v12q43 0 57.5 8t14.5 29v383q0 21 -14.5 29t-57.5 8v12h196v-12q-43 0 -57.5 -8t-14.5 -29v-383q0 -21 14.5 -29t57.5 -8v-12h-73q-98 -65 -98 -141
q0 -35 24.5 -54.5t60.5 -19.5q25 0 49 9l1 -2q-37 -30 -89 -30q-40 0 -67.5 22.5t-27.5 61.5q0 44 35.5 79.5t101.5 74.5z" />
    <glyph glyph-name="Idotaccent" unicode="&#x130;" horiz-adv-x="344" 
d="M131 881q0 19 13 32t30 13q19 0 32 -13t13 -32q0 -18 -13 -30.5t-32 -12.5q-17 0 -30 12.5t-13 30.5zM142 76v640q0 33 -19.5 44t-79.5 11v16h258v-16q-60 0 -79.5 -11t-19.5 -44v-640q0 -34 20 -47t79 -13v-16h-258v16q59 0 79 13t20 47z" />
    <glyph glyph-name="dotlessi" unicode="&#x131;" horiz-adv-x="282" 
d="M167 432v-383q0 -21 14.5 -29t57.5 -8v-12h-196v12q43 0 57.5 8t14.5 29v383q0 21 -14.5 29t-57.5 8v12h196v-12q-43 0 -57.5 -8t-14.5 -29z" />
    <glyph glyph-name="Jcircumflex" unicode="&#x134;" horiz-adv-x="425" 
d="M272 949l147 -112h-6l-143 57l-142 -57h-5l146 112h3zM243 282v434q0 35 -21.5 45t-87.5 10v16h268v-16q-62 0 -80.5 -10t-18.5 -45v-434q0 -47 -1 -76t-5 -67.5t-13.5 -62t-24.5 -46.5t-40 -33.5t-58 -10.5q-66 0 -106 23t-40 51q0 17 9.5 27t26.5 10q32 0 47 -46
q16 -49 65 -49q51 0 65.5 57t14.5 223z" />
    <glyph glyph-name="jcircumflex" unicode="&#x135;" horiz-adv-x="256" 
d="M145 800l127 -244h-6l-123 161l-132 -161h-5l136 244h3zM109 78v354q0 21 -14.5 29t-57.5 8v12h196v-12q-43 0 -57.5 -8t-14.5 -29v-354q0 -241 -136 -352l-2 3q29 30 47.5 73t26 94.5t10 90.5t2.5 91z" />
    <glyph glyph-name="Kcommaaccent" unicode="&#x136;" horiz-adv-x="760" 
d="M142 76v640q0 33 -19.5 44t-79.5 11v16h258v-16q-60 0 -79.5 -11t-19.5 -44v-640q0 -34 20 -47t79 -13v-16h-258v16q59 0 79 13t20 47zM203 402l264 254q74 71 78 91q3 15 -20 20q-17 4 -51 4v16h250v-16q-52 0 -98.5 -27.5t-119.5 -96.5l-240 -226l383 -368
q39 -37 114 -37v-16h-255v16q70 0 72 18q0 8 -13 21zM350 -84q0 19 12.5 32t32.5 13q21 0 32.5 -14.5t11.5 -37.5q0 -42 -35 -94.5t-86 -86.5l-2 2q39 36 57.5 75.5t18.5 65.5q-18 1 -30 14t-12 31z" />
    <glyph glyph-name="kcommaaccent" unicode="&#x137;" horiz-adv-x="529" 
d="M105 49v689q0 21 -14.5 29t-57.5 8v12h196v-12q-43 0 -57.5 -8t-14.5 -29v-689q0 -21 14.5 -29t57.5 -8v-12h-196v12q43 0 57.5 8t14.5 29zM159 257l171 137q42 32 38 53.5t-66 21.5v12h213v-12q-36 0 -63 -15t-84 -60l-154 -121l210 -201q33 -32 59.5 -46t57.5 -14v-12
h-206v12q41 0 50.5 10t-15.5 35zM227 -84q0 19 12.5 32t32.5 13q21 0 32.5 -14.5t11.5 -37.5q0 -42 -35 -94.5t-86 -86.5l-2 2q39 36 57.5 75.5t18.5 65.5q-18 1 -30 14t-12 31z" />
    <glyph glyph-name="Lacute" unicode="&#x139;" horiz-adv-x="636" 
d="M308 945l-169 -109h-5l81 109h93zM301 787v-16q-60 0 -79.5 -11t-19.5 -44v-636q0 -31 16 -42t48 -11h172q98 0 131 29.5t44 129.5h10v-186h-580v16q60 0 79.5 11t19.5 44v645q0 33 -19.5 44t-79.5 11v16h258z" />
    <glyph glyph-name="lacute" unicode="&#x13a;" horiz-adv-x="272" 
d="M234 945l-169 -109h-5l81 109h93zM115 49v432h-72v12q43 0 57.5 12.5t14.5 57.5v175q0 21 -14.5 29t-57.5 8v12h196v-12q-43 0 -57.5 -8t-14.5 -29v-689q0 -21 14.5 -29t57.5 -8v-12h-196v12q43 0 57.5 8t14.5 29z" />
    <glyph glyph-name="Lcommaaccent" unicode="&#x13b;" horiz-adv-x="636" 
d="M301 787v-16q-60 0 -79.5 -11t-19.5 -44v-636q0 -31 16 -42t48 -11h172q98 0 131 29.5t44 129.5h10v-186h-580v16q60 0 79.5 11t19.5 44v645q0 33 -19.5 44t-79.5 11v16h258zM310 -84q0 19 12.5 32t32.5 13q21 0 32.5 -14.5t11.5 -37.5q0 -42 -35 -94.5t-86 -86.5l-2 2
q39 36 57.5 75.5t18.5 65.5q-18 1 -30 14t-12 31z" />
    <glyph glyph-name="lcommaaccent" unicode="&#x13c;" horiz-adv-x="272" 
d="M115 49v432h-72v12q43 0 57.5 12.5t14.5 57.5v175q0 21 -14.5 29t-57.5 8v12h196v-12q-43 0 -57.5 -8t-14.5 -29v-689q0 -21 14.5 -29t57.5 -8v-12h-196v12q43 0 57.5 8t14.5 29zM89 -84q0 19 12.5 32t32.5 13q21 0 32.5 -14.5t11.5 -37.5q0 -42 -35 -94.5t-86 -86.5
l-2 2q39 36 57.5 75.5t18.5 65.5q-18 1 -30 14t-12 31z" />
    <glyph glyph-name="Lcaron" unicode="&#x13d;" horiz-adv-x="636" 
d="M342 744q0 22 13.5 36.5t36.5 14.5q24 0 37 -16.5t13 -41.5q0 -44 -32.5 -80t-74.5 -54l-3 6q22 12 43 38t21 47q-25 1 -39.5 15.5t-14.5 34.5zM301 787v-16q-60 0 -79.5 -11t-19.5 -44v-636q0 -31 16 -42t48 -11h172q98 0 131 29.5t44 129.5h10v-186h-580v16
q60 0 79.5 11t19.5 44v645q0 33 -19.5 44t-79.5 11v16h258z" />
    <glyph glyph-name="lcaron" unicode="&#x13e;" horiz-adv-x="311" 
d="M241 744q0 22 13.5 36.5t36.5 14.5q24 0 37 -16.5t13 -41.5q0 -44 -32.5 -80t-74.5 -54l-3 6q22 12 43 38t21 47q-25 1 -39.5 15.5t-14.5 34.5zM115 49v432h-72v12q43 0 57.5 12.5t14.5 57.5v175q0 21 -14.5 29t-57.5 8v12h196v-12q-43 0 -57.5 -8t-14.5 -29v-689
q0 -21 14.5 -29t57.5 -8v-12h-196v12q43 0 57.5 8t14.5 29z" />
    <glyph glyph-name="Ldot" unicode="&#x13f;" horiz-adv-x="636" 
d="M301 787v-16q-60 0 -79.5 -11t-19.5 -44v-636q0 -31 16 -42t48 -11h172q98 0 131 29.5t44 129.5h10v-186h-580v16q60 0 79.5 11t19.5 44v645q0 33 -19.5 44t-79.5 11v16h258zM444 415q0 19 13 32t30 13q19 0 32 -13t13 -32q0 -18 -13 -30.5t-32 -12.5q-17 0 -30 12.5
t-13 30.5z" />
    <glyph glyph-name="ldot" unicode="&#x140;" horiz-adv-x="272" 
d="M115 49v432h-72v12q43 0 57.5 12.5t14.5 57.5v175q0 21 -14.5 29t-57.5 8v12h196v-12q-43 0 -57.5 -8t-14.5 -29v-689q0 -21 14.5 -29t57.5 -8v-12h-196v12q43 0 57.5 8t14.5 29zM234 375q0 19 13 32t30 13q19 0 32 -13t13 -32q0 -18 -13 -30.5t-32 -12.5q-17 0 -30 12.5
t-13 30.5z" />
    <glyph glyph-name="Lslash" unicode="&#x141;" horiz-adv-x="636" 
d="M623 0h-580v16q60 0 79.5 11t19.5 44v273l-100 -60l-16 27l116 70v335q0 33 -19.5 44t-79.5 11v16h258v-16q-60 0 -79.5 -11t-19.5 -44v-299l176 105l16 -26l-192 -116v-300q0 -31 16 -42t48 -11h172q98 0 131 29.5t44 129.5h10v-186z" />
    <glyph glyph-name="lslash" unicode="&#x142;" horiz-adv-x="305" 
d="M43 0v12q43 0 57.5 8t14.5 29v324l-67 -41l-16 27l83 50v329q0 21 -14.5 29t-57.5 8v12h196v-12q-43 0 -57.5 -8t-14.5 -29v-297l80 48l16 -26l-96 -58v-356q0 -21 14.5 -29t57.5 -8v-12h-196z" />
    <glyph glyph-name="Nacute" unicode="&#x143;" horiz-adv-x="898" 
d="M588 945l-169 -109h-5l81 109h93zM736 111v555q0 58 -20.5 81.5t-89.5 23.5v16h258v-16q-63 0 -86 -24.5t-23 -80.5v-691h-3l-581 720v-574q0 -58 20.5 -81.5t89.5 -23.5v-16h-258v16q63 0 86 24.5t23 80.5v561q0 88 -108 88v17h149z" />
    <glyph glyph-name="nacute" unicode="&#x144;" horiz-adv-x="582" 
d="M449 787l-191 -194h-5l116 194h80zM497 313v-258q0 -25 14 -34t58 -9v-12h-196v12q43 0 57.5 8t14.5 26v268q0 82 -32 117q-33 35 -92 35q-52 0 -93 -31t-61 -78q19 71 66 109t109 38q75 0 115 -43t40 -148zM43 481h124v-432q0 -21 14.5 -29t57.5 -8v-12h-196v12
q43 0 57.5 8t14.5 29v379q0 23 -14 32t-58 9v12z" />
    <glyph glyph-name="Ncommaaccent" unicode="&#x145;" horiz-adv-x="898" 
d="M736 111v555q0 58 -20.5 81.5t-89.5 23.5v16h258v-16q-63 0 -86 -24.5t-23 -80.5v-691h-3l-581 720v-574q0 -58 20.5 -81.5t89.5 -23.5v-16h-258v16q63 0 86 24.5t23 80.5v561q0 88 -108 88v17h149zM420 -84q0 19 12.5 32t32.5 13q21 0 32.5 -14.5t11.5 -37.5
q0 -42 -35 -94.5t-86 -86.5l-2 2q39 36 57.5 75.5t18.5 65.5q-18 1 -30 14t-12 31z" />
    <glyph glyph-name="ncommaaccent" unicode="&#x146;" horiz-adv-x="582" 
d="M497 313v-258q0 -25 14 -34t58 -9v-12h-196v12q43 0 57.5 8t14.5 26v268q0 82 -32 117q-33 35 -92 35q-52 0 -93 -31t-61 -78q19 71 66 109t109 38q75 0 115 -43t40 -148zM43 481h124v-432q0 -21 14.5 -29t57.5 -8v-12h-196v12q43 0 57.5 8t14.5 29v379q0 23 -14 32
t-58 9v12zM258 -84q0 19 12.5 32t32.5 13q21 0 32.5 -14.5t11.5 -37.5q0 -42 -35 -94.5t-86 -86.5l-2 2q39 36 57.5 75.5t18.5 65.5q-18 1 -30 14t-12 31z" />
    <glyph glyph-name="Ncaron" unicode="&#x147;" horiz-adv-x="898" 
d="M459 837l-137 112h6l133 -57l132 57h5l-136 -112h-3zM736 111v555q0 58 -20.5 81.5t-89.5 23.5v16h258v-16q-63 0 -86 -24.5t-23 -80.5v-691h-3l-581 720v-574q0 -58 20.5 -81.5t89.5 -23.5v-16h-258v16q63 0 86 24.5t23 80.5v561q0 88 -108 88v17h149z" />
    <glyph glyph-name="ncaron" unicode="&#x148;" horiz-adv-x="582" 
d="M315 556l-157 244h6l153 -161l162 161h5l-166 -244h-3zM497 313v-258q0 -25 14 -34t58 -9v-12h-196v12q43 0 57.5 8t14.5 26v268q0 82 -32 117q-33 35 -92 35q-52 0 -93 -31t-61 -78q19 71 66 109t109 38q75 0 115 -43t40 -148zM43 481h124v-432q0 -21 14.5 -29t57.5 -8
v-12h-196v12q43 0 57.5 8t14.5 29v379q0 23 -14 32t-58 9v12z" />
    <glyph glyph-name="Eng" unicode="&#x14a;" horiz-adv-x="898" 
d="M736 111v555q0 58 -20.5 81.5t-89.5 23.5v16h258v-16q-63 0 -86 -24.5t-23 -80.5v-588q0 -55 -3.5 -96t-15 -90.5t-38 -91t-66.5 -74.5l-2 3q79 82 85 292l-544 674v-574q0 -58 20.5 -81.5t89.5 -23.5v-16h-258v16q63 0 86 24.5t23 80.5v561q0 88 -108 88v17h149z" />
    <glyph glyph-name="eng" unicode="&#x14b;" horiz-adv-x="582" 
d="M445 314q0 82 -32 117q-33 35 -92 35q-52 0 -93 -31t-61 -78q19 71 66 109t109 38q75 0 115 -43t40 -148v-235q0 -241 -136 -352l-2 3q29 30 47.5 73t26 94.5t10 90.5t2.5 91v236zM43 481h124v-432q0 -21 14.5 -29t57.5 -8v-12h-196v12q43 0 57.5 8t14.5 29v379
q0 23 -14 32t-58 9v12z" />
    <glyph glyph-name="Omacron" unicode="&#x14c;" horiz-adv-x="925" 
d="M310 853v32h314v-32h-314zM463 805q182 0 300.5 -114t118.5 -299q0 -184 -118 -295t-301 -111t-301.5 113.5t-118.5 298.5t118 296t302 111zM463 15q63 0 123 22t112.5 65.5t84.5 119.5t32 173q0 79 -21.5 144.5t-56.5 108.5t-81.5 72.5t-95 42.5t-97.5 13
q-63 0 -123 -22t-112.5 -65t-85 -119.5t-32.5 -174.5q0 -97 32.5 -173t85 -119.5t112.5 -65.5t123 -22z" />
    <glyph glyph-name="omacron" unicode="&#x14d;" horiz-adv-x="580" 
d="M133 658v32h314v-32h-314zM43 245q0 117 69 188t178 71t178 -71t69 -188t-69 -188t-178 -71t-178 70.5t-69 188.5zM290 9q89 0 139.5 71t50.5 165q0 95 -50.5 165.5t-139.5 70.5q-88 0 -139 -70t-51 -166q0 -95 50.5 -165.5t139.5 -70.5z" />
    <glyph glyph-name="Obreve" unicode="&#x14e;" horiz-adv-x="925" 
d="M461 813q-52 0 -92.5 28.5t-44.5 93.5h31q4 -95 106 -95t106 95h31q-4 -65 -44.5 -93.5t-92.5 -28.5zM463 805q182 0 300.5 -114t118.5 -299q0 -184 -118 -295t-301 -111t-301.5 113.5t-118.5 298.5t118 296t302 111zM463 15q63 0 123 22t112.5 65.5t84.5 119.5t32 173
q0 79 -21.5 144.5t-56.5 108.5t-81.5 72.5t-95 42.5t-97.5 13q-63 0 -123 -22t-112.5 -65t-85 -119.5t-32.5 -174.5q0 -97 32.5 -173t85 -119.5t112.5 -65.5t123 -22z" />
    <glyph glyph-name="obreve" unicode="&#x14f;" horiz-adv-x="580" 
d="M457 749q-2 -48 -18.5 -81.5t-41.5 -49.5t-48.5 -22.5t-48.5 -6.5t-48.5 6.5t-48.5 22.5t-41.5 49.5t-18.5 81.5h31q2 -59 34.5 -95.5t91.5 -36.5t91.5 36.5t34.5 95.5h31zM43 245q0 117 69 188t178 71t178 -71t69 -188t-69 -188t-178 -71t-178 70.5t-69 188.5zM290 9
q89 0 139.5 71t50.5 165q0 95 -50.5 165.5t-139.5 70.5q-88 0 -139 -70t-51 -166q0 -95 50.5 -165.5t139.5 -70.5z" />
    <glyph glyph-name="Ohungarumlaut" unicode="&#x150;" horiz-adv-x="925" 
d="M658 945l-169 -109h-5l81 109h93zM498 945l-169 -109h-5l81 109h93zM463 805q182 0 300.5 -114t118.5 -299q0 -184 -118 -295t-301 -111t-301.5 113.5t-118.5 298.5t118 296t302 111zM463 15q63 0 123 22t112.5 65.5t84.5 119.5t32 173q0 79 -21.5 144.5t-56.5 108.5
t-81.5 72.5t-95 42.5t-97.5 13q-63 0 -123 -22t-112.5 -65t-85 -119.5t-32.5 -174.5q0 -97 32.5 -173t85 -119.5t112.5 -65.5t123 -22z" />
    <glyph glyph-name="ohungarumlaut" unicode="&#x151;" horiz-adv-x="580" 
d="M528 787l-191 -194h-5l116 194h80zM367 787l-191 -194h-5l116 194h80zM43 245q0 117 69 188t178 71t178 -71t69 -188t-69 -188t-178 -71t-178 70.5t-69 188.5zM290 9q89 0 139.5 71t50.5 165q0 95 -50.5 165.5t-139.5 70.5q-88 0 -139 -70t-51 -166q0 -95 50.5 -165.5
t139.5 -70.5z" />
    <glyph glyph-name="OE" unicode="&#x152;" horiz-adv-x="1106" 
d="M456 29h1v729h-1q-50 0 -97 -11t-93 -38t-80 -67.5t-55 -104t-21 -142.5t21 -142.5t55 -104.5t79.5 -68.5t93 -39t97.5 -11.5zM517 437h282q-5 75 -31 134t-66.5 96t-86 58t-98.5 29v-317zM517 410v-376q56 9 104.5 33t90 66t65.5 109t24 153v15h-284zM1063 0h-606h-1
q-184 0 -298.5 107t-114.5 291q0 183 114 286t299 103h1h605v-170h-10q-10 93 -45.5 118t-145.5 25h-239q105 -38 169.5 -121t74.5 -202h69q55 0 75.5 17t31.5 85h10v-233h-10q-11 69 -32 86.5t-75 17.5h-67v-18q0 -137 -65 -231t-179 -134h254q98 0 131 29.5t44 129.5h10
v-186z" />
    <glyph glyph-name="oe" unicode="&#x153;" horiz-adv-x="937" 
d="M714 483q-72 0 -116 -41t-59 -111h320q-4 74 -44.5 113t-100.5 39zM290 9q89 0 139.5 71t50.5 165q0 95 -50.5 165.5t-139.5 70.5q-88 0 -139 -70t-51 -166q0 -95 50.5 -165.5t139.5 -70.5zM911 89q-73 -103 -193 -103q-75 0 -130 36t-82 101q-28 -65 -84.5 -101
t-131.5 -36q-109 0 -178 70.5t-69 188.5q0 117 69 188t178 71q75 0 131 -35.5t84 -98.5q27 63 81.5 99t125.5 36q86 0 141 -53.5t63 -140.5h-381q-4 -24 -4 -55q0 -102 55.5 -168t155.5 -66q47 0 93 18t74 51z" />
    <glyph glyph-name="Racute" unicode="&#x154;" horiz-adv-x="763" 
d="M439 945l-169 -109h-5l81 109h93zM43 787h231q72 0 125.5 -8t102.5 -28t75 -60.5t26 -100.5q0 -83 -63 -142t-170 -64q102 -4 150 -45t70 -137q13 -56 26.5 -91.5t35 -64t52.5 -38.5t75 -5l1 -2q-35 -15 -72 -15q-79 0 -116 49t-68 170q-10 39 -20.5 66t-28 45
t-32.5 27.5t-45 14.5t-53.5 6t-69.5 1h-73v-282q0 -42 24.5 -54.5t95.5 -12.5v-16h-279v16q60 0 79.5 12.5t19.5 47.5v641q0 34 -19 44.5t-80 10.5v15zM202 760v-373h44q289 0 289 196q0 95 -63.5 136t-194.5 41h-75z" />
    <glyph glyph-name="racute" unicode="&#x155;" horiz-adv-x="407" 
d="M301 787l-191 -194h-5l116 194h80zM167 481v-435q0 -18 19.5 -26t72.5 -8v-12h-216v12q43 0 57.5 8t14.5 26v382q0 23 -14 32t-58 9v12h124zM167 344q35 149 148 149q37 0 58 -16.5t21 -35.5q0 -26 -25 -26q-17 0 -32.5 19.5t-46.5 19.5q-83 0 -123 -110z" />
    <glyph glyph-name="Rcommaaccent" unicode="&#x156;" horiz-adv-x="763" 
d="M43 787h231q72 0 125.5 -8t102.5 -28t75 -60.5t26 -100.5q0 -83 -63 -142t-170 -64q102 -4 150 -45t70 -137q13 -56 26.5 -91.5t35 -64t52.5 -38.5t75 -5l1 -2q-35 -15 -72 -15q-79 0 -116 49t-68 170q-10 39 -20.5 66t-28 45t-32.5 27.5t-45 14.5t-53.5 6t-69.5 1h-73
v-282q0 -42 24.5 -54.5t95.5 -12.5v-16h-279v16q60 0 79.5 12.5t19.5 47.5v641q0 34 -19 44.5t-80 10.5v15zM202 760v-373h44q289 0 289 196q0 95 -63.5 136t-194.5 41h-75zM350 -84q0 19 12.5 32t32.5 13q21 0 32.5 -14.5t11.5 -37.5q0 -42 -35 -94.5t-86 -86.5l-2 2
q39 36 57.5 75.5t18.5 65.5q-18 1 -30 14t-12 31z" />
    <glyph glyph-name="rcommaaccent" unicode="&#x157;" horiz-adv-x="407" 
d="M167 481v-435q0 -18 19.5 -26t72.5 -8v-12h-216v12q43 0 57.5 8t14.5 26v382q0 23 -14 32t-58 9v12h124zM167 344q35 149 148 149q37 0 58 -16.5t21 -35.5q0 -26 -25 -26q-17 0 -32.5 19.5t-46.5 19.5q-83 0 -123 -110zM94 -84q0 19 12.5 32t32.5 13q21 0 32.5 -14.5
t11.5 -37.5q0 -42 -35 -94.5t-86 -86.5l-2 2q39 36 57.5 75.5t18.5 65.5q-18 1 -30 14t-12 31z" />
    <glyph glyph-name="Rcaron" unicode="&#x158;" horiz-adv-x="763" 
d="M319 837l-137 112h6l133 -57l132 57h5l-136 -112h-3zM43 787h231q72 0 125.5 -8t102.5 -28t75 -60.5t26 -100.5q0 -83 -63 -142t-170 -64q102 -4 150 -45t70 -137q13 -56 26.5 -91.5t35 -64t52.5 -38.5t75 -5l1 -2q-35 -15 -72 -15q-79 0 -116 49t-68 170
q-10 39 -20.5 66t-28 45t-32.5 27.5t-45 14.5t-53.5 6t-69.5 1h-73v-282q0 -42 24.5 -54.5t95.5 -12.5v-16h-279v16q60 0 79.5 12.5t19.5 47.5v641q0 34 -19 44.5t-80 10.5v15zM202 760v-373h44q289 0 289 196q0 95 -63.5 136t-194.5 41h-75z" />
    <glyph glyph-name="rcaron" unicode="&#x159;" horiz-adv-x="407" 
d="M201 556l-157 244h6l153 -161l162 161h5l-166 -244h-3zM167 481v-435q0 -18 19.5 -26t72.5 -8v-12h-216v12q43 0 57.5 8t14.5 26v382q0 23 -14 32t-58 9v12h124zM167 344q35 149 148 149q37 0 58 -16.5t21 -35.5q0 -26 -25 -26q-17 0 -32.5 19.5t-46.5 19.5
q-83 0 -123 -110z" />
    <glyph glyph-name="Sacute" unicode="&#x15a;" horiz-adv-x="613" 
d="M448 945l-169 -109h-5l81 109h93zM63 214q20 -115 82 -157t161 -42q96 0 151.5 50t55.5 128q0 76 -44 118t-147 76l-65 21q-97 31 -143 84t-46 132q0 85 67 133t170 48q126 0 225 -57v-155h-9q-27 184 -217 184q-76 0 -127 -36.5t-51 -114.5q0 -114 157 -166l66 -22
q39 -13 61 -21.5t57 -28t54 -40.5t34 -56t15 -78q0 -103 -71 -165.5t-195 -62.5q-153 0 -251 70v158h10z" />
    <glyph glyph-name="sacute" unicode="&#x15b;" horiz-adv-x="421" 
d="M349 787l-191 -194h-5l116 194h80zM74 99q9 0 16.5 -5.5t11.5 -11.5t9.5 -17t8.5 -16q27 -42 91 -42q58 0 92.5 27.5t34.5 75.5q0 47 -30.5 72t-93.5 46l-33 11q-127 43 -127 136q0 54 43 90.5t118 36.5q64 0 109.5 -22.5t45.5 -52.5q0 -26 -25 -26q-10 0 -17 5.5
t-15 20.5t-10 18q-23 36 -92 36q-51 0 -81 -25.5t-30 -66.5q0 -40 27.5 -64t79.5 -42l30 -10q83 -28 116.5 -61t33.5 -85q0 -63 -49.5 -102t-127.5 -39q-72 0 -119.5 25.5t-47.5 56.5t31 31z" />
    <glyph glyph-name="Scircumflex" unicode="&#x15c;" horiz-adv-x="613" 
d="M327 949l147 -112h-6l-143 57l-142 -57h-5l146 112h3zM63 214q20 -115 82 -157t161 -42q96 0 151.5 50t55.5 128q0 76 -44 118t-147 76l-65 21q-97 31 -143 84t-46 132q0 85 67 133t170 48q126 0 225 -57v-155h-9q-27 184 -217 184q-76 0 -127 -36.5t-51 -114.5
q0 -114 157 -166l66 -22q39 -13 61 -21.5t57 -28t54 -40.5t34 -56t15 -78q0 -103 -71 -165.5t-195 -62.5q-153 0 -251 70v158h10z" />
    <glyph glyph-name="scircumflex" unicode="&#x15d;" horiz-adv-x="421" 
d="M226 800l157 -204h-6l-153 131l-162 -131h-5l166 204h3zM74 99q9 0 16.5 -5.5t11.5 -11.5t9.5 -17t8.5 -16q27 -42 91 -42q58 0 92.5 27.5t34.5 75.5q0 47 -30.5 72t-93.5 46l-33 11q-127 43 -127 136q0 54 43 90.5t118 36.5q64 0 109.5 -22.5t45.5 -52.5q0 -26 -25 -26
q-10 0 -17 5.5t-15 20.5t-10 18q-23 36 -92 36q-51 0 -81 -25.5t-30 -66.5q0 -40 27.5 -64t79.5 -42l30 -10q83 -28 116.5 -61t33.5 -85q0 -63 -49.5 -102t-127.5 -39q-72 0 -119.5 25.5t-47.5 56.5t31 31z" />
    <glyph glyph-name="Scedilla" unicode="&#x15e;" horiz-adv-x="613" 
d="M219 -255l-3 6q67 8 100 37.5t33 66.5q0 50 -48 50q-27 0 -46 -14l-24 19l46 77q-134 5 -224 69v158h10q20 -115 82 -157t161 -42q96 0 151.5 50t55.5 128q0 76 -44 118t-147 76l-65 21q-97 31 -143 84t-46 132q0 85 67 133t170 48q126 0 225 -57v-155h-9
q-27 184 -217 184q-76 0 -127 -36.5t-51 -114.5q0 -114 157 -166l66 -22q39 -13 61 -21.5t57 -28t54 -40.5t34 -56t15 -78q0 -103 -70.5 -165.5t-192.5 -62.5l-47 -74q27 20 61 20q33 0 54.5 -18t21.5 -53q0 -51 -53 -80t-125 -36zM304 -14h3l6 10h-30l-6 -9q9 -1 27 -1z
" />
    <glyph glyph-name="scedilla" unicode="&#x15f;" horiz-adv-x="421" 
d="M133 -255l-3 6q67 8 100 37.5t33 66.5q0 50 -48 50q-27 0 -46 -14l-24 19l46 77q-64 3 -106 27.5t-42 53.5q0 31 31 31q9 0 16.5 -5.5t11.5 -11.5t9.5 -17t8.5 -16q27 -42 91 -42q58 0 92.5 27.5t34.5 75.5q0 47 -30.5 72t-93.5 46l-33 11q-127 43 -127 136q0 54 43 90.5
t118 36.5q64 0 109.5 -22.5t45.5 -52.5q0 -26 -25 -26q-10 0 -17 5.5t-15 20.5t-10 18q-23 36 -92 36q-51 0 -81 -25.5t-30 -66.5q0 -40 27.5 -64t79.5 -42l30 -10q83 -28 116.5 -61t33.5 -85q0 -60 -46.5 -99t-119.5 -42l-47 -74q27 20 61 20q33 0 54.5 -18t21.5 -53
q0 -51 -53 -80t-125 -36z" />
    <glyph glyph-name="Scaron" unicode="&#x160;" horiz-adv-x="613" 
d="M316 837l-137 112h6l133 -57l132 57h5l-136 -112h-3zM63 214q20 -115 82 -157t161 -42q96 0 151.5 50t55.5 128q0 76 -44 118t-147 76l-65 21q-97 31 -143 84t-46 132q0 85 67 133t170 48q126 0 225 -57v-155h-9q-27 184 -217 184q-76 0 -127 -36.5t-51 -114.5
q0 -114 157 -166l66 -22q39 -13 61 -21.5t57 -28t54 -40.5t34 -56t15 -78q0 -103 -71 -165.5t-195 -62.5q-153 0 -251 70v158h10z" />
    <glyph glyph-name="scaron" unicode="&#x161;" horiz-adv-x="421" 
d="M211 556l-157 244h6l153 -161l162 161h5l-166 -244h-3zM74 99q9 0 16.5 -5.5t11.5 -11.5t9.5 -17t8.5 -16q27 -42 91 -42q58 0 92.5 27.5t34.5 75.5q0 47 -30.5 72t-93.5 46l-33 11q-127 43 -127 136q0 54 43 90.5t118 36.5q64 0 109.5 -22.5t45.5 -52.5q0 -26 -25 -26
q-10 0 -17 5.5t-15 20.5t-10 18q-23 36 -92 36q-51 0 -81 -25.5t-30 -66.5q0 -40 27.5 -64t79.5 -42l30 -10q83 -28 116.5 -61t33.5 -85q0 -63 -49.5 -102t-127.5 -39q-72 0 -119.5 25.5t-47.5 56.5t31 31z" />
    <glyph glyph-name="Tcommaaccent" unicode="&#x162;" horiz-adv-x="680" 
d="M310 760h-128q-104 0 -137 -45.5t-35 -173.5h-10v246h680v-246h-10q-2 128 -35 173.5t-137 45.5h-128v-674q0 -44 22 -57t97 -13v-16h-298v16q75 0 97 13t22 56v675zM287 -84q0 19 12.5 32t32.5 13q21 0 32.5 -14.5t11.5 -37.5q0 -42 -35 -94.5t-86 -86.5l-2 2
q39 36 57.5 75.5t18.5 65.5q-18 1 -30 14t-12 31z" />
    <glyph glyph-name="tcommaaccent" unicode="&#x163;" horiz-adv-x="327" 
d="M209 -14q-48 0 -76.5 26.5t-28.5 81.5v367h-81v20h81l44 152h7v-152h156v-20h-156v-356q0 -46 18.5 -66.5t57.5 -20.5q50 0 92 29l2 -3q-51 -58 -116 -58zM154 -84q0 19 12.5 32t32.5 13q21 0 32.5 -14.5t11.5 -37.5q0 -42 -35 -94.5t-86 -86.5l-2 2q39 36 57.5 75.5
t18.5 65.5q-18 1 -30 14t-12 31z" />
    <glyph glyph-name="Tcaron" unicode="&#x164;" horiz-adv-x="680" 
d="M339 837l-137 112h6l133 -57l132 57h5l-136 -112h-3zM310 760h-128q-104 0 -137 -45.5t-35 -173.5h-10v246h680v-246h-10q-2 128 -35 173.5t-137 45.5h-128v-674q0 -44 22 -57t97 -13v-16h-298v16q75 0 97 13t22 56v675z" />
    <glyph glyph-name="tcaron" unicode="&#x165;" horiz-adv-x="327" 
d="M221 744q0 22 13.5 36.5t36.5 14.5q24 0 37 -16.5t13 -41.5q0 -44 -32.5 -80t-74.5 -54l-3 6q22 12 43 38t21 47q-25 1 -39.5 15.5t-14.5 34.5zM209 -14q-48 0 -76.5 26.5t-28.5 81.5v367h-81v20h81l44 152h7v-152h156v-20h-156v-356q0 -46 18.5 -66.5t57.5 -20.5
q50 0 92 29l2 -3q-51 -58 -116 -58z" />
    <glyph glyph-name="Tbar" unicode="&#x166;" horiz-adv-x="680" 
d="M191 0v16q75 0 97 13t22 56v324h-150v31h150v320h-128q-104 0 -137 -45.5t-35 -173.5h-10v246h680v-246h-10q-2 128 -35 173.5t-137 45.5h-128v-320h150v-31h-150v-323q0 -44 22 -57t97 -13v-16h-298z" />
    <glyph glyph-name="tbar" unicode="&#x167;" horiz-adv-x="327" 
d="M209 -14q-48 0 -76.5 26.5t-28.5 81.5v233h-81v20h81v114h-81v20h81l44 152h7v-152h156v-20h-156v-114h156v-20h-156v-222q0 -46 18.5 -66.5t57.5 -20.5q50 0 92 29l2 -3q-51 -58 -116 -58z" />
    <glyph glyph-name="Utilde" unicode="&#x168;" horiz-adv-x="868" 
d="M579 906l35 47l5 -3l-35 -88h-248l-37 -46l-5 3l37 87h248zM736 671v-356q0 -153 -81 -241t-227 -88q-147 0 -226.5 81.5t-79.5 241.5v407q0 33 -19.5 44t-79.5 11v16h258v-16q-60 0 -79.5 -11t-19.5 -44v-412q0 -131 64.5 -200t183.5 -69q131 0 197.5 74t66.5 208v354
q0 57 -20.5 78.5t-89.5 21.5v16h261v-16q-63 0 -86 -22.5t-23 -77.5z" />
    <glyph glyph-name="utilde" unicode="&#x169;" horiz-adv-x="572" 
d="M408 708l35 47l5 -3l-35 -88h-248l-37 -46l-5 3l37 87h248zM549 0h-124v432q0 21 -14.5 29t-57.5 8v12h124v-428q0 -23 14 -32t58 -9v-12zM95 159v267q0 25 -14 34t-58 9v12h124v-321q0 -63 31 -99.5t96 -36.5q51 0 92 30.5t59 76.5q-20 -71 -64.5 -108t-105.5 -37
q-160 0 -160 173z" />
    <glyph glyph-name="Umacron" unicode="&#x16a;" horiz-adv-x="868" 
d="M289 853v32h314v-32h-314zM736 671v-356q0 -153 -81 -241t-227 -88q-147 0 -226.5 81.5t-79.5 241.5v407q0 33 -19.5 44t-79.5 11v16h258v-16q-60 0 -79.5 -11t-19.5 -44v-412q0 -131 64.5 -200t183.5 -69q131 0 197.5 74t66.5 208v354q0 57 -20.5 78.5t-89.5 21.5v16
h261v-16q-63 0 -86 -22.5t-23 -77.5z" />
    <glyph glyph-name="umacron" unicode="&#x16b;" horiz-adv-x="572" 
d="M131 658v32h314v-32h-314zM549 0h-124v432q0 21 -14.5 29t-57.5 8v12h124v-428q0 -23 14 -32t58 -9v-12zM95 159v267q0 25 -14 34t-58 9v12h124v-321q0 -63 31 -99.5t96 -36.5q51 0 92 30.5t59 76.5q-20 -71 -64.5 -108t-105.5 -37q-160 0 -160 173z" />
    <glyph glyph-name="Ubreve" unicode="&#x16c;" horiz-adv-x="868" 
d="M441 813q-52 0 -92.5 28.5t-44.5 93.5h31q4 -95 106 -95t106 95h31q-4 -65 -44.5 -93.5t-92.5 -28.5zM736 671v-356q0 -153 -81 -241t-227 -88q-147 0 -226.5 81.5t-79.5 241.5v407q0 33 -19.5 44t-79.5 11v16h258v-16q-60 0 -79.5 -11t-19.5 -44v-412q0 -131 64.5 -200
t183.5 -69q131 0 197.5 74t66.5 208v354q0 57 -20.5 78.5t-89.5 21.5v16h261v-16q-63 0 -86 -22.5t-23 -77.5z" />
    <glyph glyph-name="ubreve" unicode="&#x16d;" horiz-adv-x="572" 
d="M435 749q-2 -48 -18.5 -81.5t-41.5 -49.5t-48.5 -22.5t-48.5 -6.5t-48.5 6.5t-48.5 22.5t-41.5 49.5t-18.5 81.5h31q2 -59 34.5 -95.5t91.5 -36.5t91.5 36.5t34.5 95.5h31zM549 0h-124v432q0 21 -14.5 29t-57.5 8v12h124v-428q0 -23 14 -32t58 -9v-12zM95 159v267
q0 25 -14 34t-58 9v12h124v-321q0 -63 31 -99.5t96 -36.5q51 0 92 30.5t59 76.5q-20 -71 -64.5 -108t-105.5 -37q-160 0 -160 173z" />
    <glyph glyph-name="Uring" unicode="&#x16e;" horiz-adv-x="868" 
d="M533 889q0 -41 -30 -69.5t-72 -28.5t-72 28.5t-30 69.5t30 69.5t72 28.5t72 -28.5t30 -69.5zM502 889q0 31 -21 51.5t-50 20.5q-30 0 -50 -21t-20 -51t20 -51t50 -21q32 0 51.5 21t19.5 51zM736 671v-356q0 -153 -81 -241t-227 -88q-147 0 -226.5 81.5t-79.5 241.5v407
q0 33 -19.5 44t-79.5 11v16h258v-16q-60 0 -79.5 -11t-19.5 -44v-412q0 -131 64.5 -200t183.5 -69q131 0 197.5 74t66.5 208v354q0 57 -20.5 78.5t-89.5 21.5v16h261v-16q-63 0 -86 -22.5t-23 -77.5z" />
    <glyph glyph-name="uring" unicode="&#x16f;" horiz-adv-x="572" 
d="M380 673q0 -41 -30 -69.5t-72 -28.5t-72 28.5t-30 69.5t30 69.5t72 28.5t72 -28.5t30 -69.5zM349 673q0 31 -21 51.5t-50 20.5q-30 0 -50 -21t-20 -51t20 -51t50 -21q32 0 51.5 21t19.5 51zM549 0h-124v432q0 21 -14.5 29t-57.5 8v12h124v-428q0 -23 14 -32t58 -9v-12z
M95 159v267q0 25 -14 34t-58 9v12h124v-321q0 -63 31 -99.5t96 -36.5q51 0 92 30.5t59 76.5q-20 -71 -64.5 -108t-105.5 -37q-160 0 -160 173z" />
    <glyph glyph-name="Uhungarumlaut" unicode="&#x170;" horiz-adv-x="868" 
d="M648 945l-169 -109h-5l81 109h93zM488 945l-169 -109h-5l81 109h93zM736 671v-356q0 -153 -81 -241t-227 -88q-147 0 -226.5 81.5t-79.5 241.5v407q0 33 -19.5 44t-79.5 11v16h258v-16q-60 0 -79.5 -11t-19.5 -44v-412q0 -131 64.5 -200t183.5 -69q131 0 197.5 74
t66.5 208v354q0 57 -20.5 78.5t-89.5 21.5v16h261v-16q-63 0 -86 -22.5t-23 -77.5z" />
    <glyph glyph-name="uhungarumlaut" unicode="&#x171;" horiz-adv-x="572" 
d="M504 787l-191 -194h-5l116 194h80zM343 787l-191 -194h-5l116 194h80zM549 0h-124v432q0 21 -14.5 29t-57.5 8v12h124v-428q0 -23 14 -32t58 -9v-12zM95 159v267q0 25 -14 34t-58 9v12h124v-321q0 -63 31 -99.5t96 -36.5q51 0 92 30.5t59 76.5q-20 -71 -64.5 -108
t-105.5 -37q-160 0 -160 173z" />
    <glyph glyph-name="Uogonek" unicode="&#x172;" horiz-adv-x="868" 
d="M429 -238q-40 0 -67.5 22.5t-27.5 61.5q0 40 30 73t85 67h-21q-147 0 -226.5 81.5t-79.5 241.5v407q0 33 -19.5 44t-79.5 11v16h258v-16q-60 0 -79.5 -11t-19.5 -44v-412q0 -131 64.5 -200t183.5 -69q131 0 197.5 74t66.5 208v354q0 57 -20.5 78.5t-89.5 21.5v16h261v-16
q-63 0 -86 -22.5t-23 -77.5v-356q0 -143 -71.5 -230t-201.5 -98q-80 -60 -80 -128q0 -35 24.5 -54.5t60.5 -19.5q25 0 49 9l1 -2q-37 -30 -89 -30z" />
    <glyph glyph-name="uogonek" unicode="&#x173;" horiz-adv-x="572" 
d="M472 0h-47v432q0 21 -14.5 29t-57.5 8v12h124v-428q0 -23 14 -32t58 -9v-12h-67q-98 -65 -98 -141q0 -35 24.5 -54.5t60.5 -19.5q25 0 49 9l1 -2q-37 -30 -89 -30q-40 0 -67.5 22.5t-27.5 61.5q0 44 35.5 79.5t101.5 74.5zM95 159v267q0 25 -14 34t-58 9v12h124v-321
q0 -63 31 -99.5t96 -36.5q51 0 92 30.5t59 76.5q-20 -71 -64.5 -108t-105.5 -37q-160 0 -160 173z" />
    <glyph glyph-name="Wcircumflex" unicode="&#x174;" horiz-adv-x="1078" 
d="M533 949l147 -112h-6l-143 57l-142 -57h-5l146 112h3zM755 98l151 530q10 35 15 54.5t6.5 38t-2 26.5t-13.5 14.5t-24 8t-38 1.5v16h235v-16q-54 0 -83.5 -25t-52.5 -104l-194 -680l-229 591l-215 -591h-6l-209 745q-18 64 -103 64v16h235v-16q-49 0 -65 -12t-6 -50
l166 -612l210 591h2z" />
    <glyph glyph-name="wcircumflex" unicode="&#x175;" horiz-adv-x="738" 
d="M375 800l157 -204h-6l-153 131l-162 -131h-5l166 204h3zM494 -27l-125 361l-131 -361h-5l-159 448q-6 17 -12 26t-22.5 15.5t-44.5 6.5v12h193v-12q-40 0 -54 -10t-3 -41l114 -342l104 291q2 5 4 13l-14 41q-6 17 -12 26t-22.5 15.5t-44.5 6.5v12h203v-12q-42 0 -59 -12
t-5 -50l107 -331l104 291q20 53 12.5 77.5t-48.5 24.5v12h169v-12q-38 0 -58 -20t-39 -71l-147 -405h-5z" />
    <glyph glyph-name="Ycircumflex" unicode="&#x176;" horiz-adv-x="715" 
d="M365 949l147 -112h-6l-143 57l-142 -57h-5l146 112h3zM492 0h-288v16q72 0 93 11.5t21 52.5v242l-222 390q-17 31 -38 45t-65 14v16h244v-16q-105 0 -78 -49l201 -366l202 341q23 40 5 57t-83 17v16h238v-16q-49 0 -69.5 -14.5t-49.5 -61.5l-225 -364v-250
q0 -43 20.5 -54t93.5 -11v-16z" />
    <glyph glyph-name="ycircumflex" unicode="&#x177;" horiz-adv-x="518" 
d="M275 800l157 -204h-6l-153 131l-162 -131h-5l166 204h3zM426 378l-214 -528q-31 -76 -64 -98.5t-74 -22.5q-35 0 -64 15.5t-29 40.5q0 14 9.5 23t22.5 9q20 0 41.5 -27t39.5 -27q25 0 46 19.5t46 80.5l57 141l-167 417q-8 18 -13 26t-21.5 15t-44.5 7v12h198v-12
q-40 0 -56.5 -9t-6.5 -34l139 -363l119 304q22 57 14 79.5t-50 22.5v12h169v-12q-37 0 -56.5 -20t-40.5 -71z" />
    <glyph glyph-name="Ydieresis" unicode="&#x178;" horiz-adv-x="715" 
d="M449 897q0 19 13 32t30 13q19 0 32 -13t13 -32q0 -18 -13 -30.5t-32 -12.5q-17 0 -30 12.5t-13 30.5zM195 897q0 19 13 32t30 13q19 0 32 -13t13 -32q0 -18 -13 -30.5t-32 -12.5q-17 0 -30 12.5t-13 30.5zM492 0h-288v16q72 0 93 11.5t21 52.5v242l-222 390
q-17 31 -38 45t-65 14v16h244v-16q-105 0 -78 -49l201 -366l202 341q23 40 5 57t-83 17v16h238v-16q-49 0 -69.5 -14.5t-49.5 -61.5l-225 -364v-250q0 -43 20.5 -54t93.5 -11v-16z" />
    <glyph glyph-name="Zacute" unicode="&#x179;" horiz-adv-x="721" 
d="M509 945l-169 -109h-5l81 109h93zM26 0l569 760h-261q-68 0 -104.5 -4.5t-63.5 -22t-37.5 -48t-15.5 -86.5h-12v188h577l-564 -760h353q96 0 141 32t51 133h11v-192h-644z" />
    <glyph glyph-name="zacute" unicode="&#x17a;" horiz-adv-x="475" 
d="M385 787l-191 -194h-5l116 194h80zM66 340v141h369l-345 -467h165q86 0 120.5 32.5t46.5 112.5h6v-159h-408l343 464h-171q-50 0 -78.5 -26.5t-41.5 -97.5h-6z" />
    <glyph glyph-name="Zdotaccent" unicode="&#x17b;" horiz-adv-x="721" 
d="M338 881q0 19 13 32t30 13q19 0 32 -13t13 -32q0 -18 -13 -30.5t-32 -12.5q-17 0 -30 12.5t-13 30.5zM26 0l569 760h-261q-68 0 -104.5 -4.5t-63.5 -22t-37.5 -48t-15.5 -86.5h-12v188h577l-564 -760h353q96 0 141 32t51 133h11v-192h-644z" />
    <glyph glyph-name="zdotaccent" unicode="&#x17c;" horiz-adv-x="475" 
d="M208 715q0 19 13 32t30 13q19 0 32 -13t13 -32q0 -18 -13 -30.5t-32 -12.5q-17 0 -30 12.5t-13 30.5zM66 340v141h369l-345 -467h165q86 0 120.5 32.5t46.5 112.5h6v-159h-408l343 464h-171q-50 0 -78.5 -26.5t-41.5 -97.5h-6z" />
    <glyph glyph-name="Zcaron" unicode="&#x17d;" horiz-adv-x="721" 
d="M389 837l-137 112h6l133 -57l132 57h5l-136 -112h-3zM26 0l569 760h-261q-68 0 -104.5 -4.5t-63.5 -22t-37.5 -48t-15.5 -86.5h-12v188h577l-564 -760h353q96 0 141 32t51 133h11v-192h-644z" />
    <glyph glyph-name="zcaron" unicode="&#x17e;" horiz-adv-x="475" 
d="M247 556l-157 244h6l153 -161l162 161h5l-166 -244h-3zM66 340v141h369l-345 -467h165q86 0 120.5 32.5t46.5 112.5h6v-159h-408l343 464h-171q-50 0 -78.5 -26.5t-41.5 -97.5h-6z" />
    <glyph glyph-name="uni018F" unicode="&#x18f;" horiz-adv-x="753" 
d="M344 -14q-137 0 -223 81.5t-96 220.5h626q9 44 9 89q0 108 -36 195t-113 141.5t-184 54.5q-85 0 -164 -31t-133 -87l-3 3q106 152 316 152q168 0 274 -115t106 -307q0 -174 -108.5 -285.5t-270.5 -111.5zM341 15q113 0 193 66.5t110 175.5h-549q2 -116 75.5 -179
t170.5 -63z" />
    <glyph glyph-name="Scommaaccent" unicode="&#x218;" horiz-adv-x="613" 
d="M63 214q20 -115 82 -157t161 -42q96 0 151.5 50t55.5 128q0 76 -44 118t-147 76l-65 21q-97 31 -143 84t-46 132q0 85 67 133t170 48q126 0 225 -57v-155h-9q-27 184 -217 184q-76 0 -127 -36.5t-51 -114.5q0 -114 157 -166l66 -22q39 -13 61 -21.5t57 -28t54 -40.5
t34 -56t15 -78q0 -103 -71 -165.5t-195 -62.5q-153 0 -251 70v158h10zM270 -84q0 19 12.5 32t32.5 13q21 0 32.5 -14.5t11.5 -37.5q0 -42 -35 -94.5t-86 -86.5l-2 2q39 36 57.5 75.5t18.5 65.5q-18 1 -30 14t-12 31z" />
    <glyph glyph-name="scommaaccent" unicode="&#x219;" horiz-adv-x="421" 
d="M74 99q9 0 16.5 -5.5t11.5 -11.5t9.5 -17t8.5 -16q27 -42 91 -42q58 0 92.5 27.5t34.5 75.5q0 47 -30.5 72t-93.5 46l-33 11q-127 43 -127 136q0 54 43 90.5t118 36.5q64 0 109.5 -22.5t45.5 -52.5q0 -26 -25 -26q-10 0 -17 5.5t-15 20.5t-10 18q-23 36 -92 36
q-51 0 -81 -25.5t-30 -66.5q0 -40 27.5 -64t79.5 -42l30 -10q83 -28 116.5 -61t33.5 -85q0 -63 -49.5 -102t-127.5 -39q-72 0 -119.5 25.5t-47.5 56.5t31 31zM170 -84q0 19 12.5 32t32.5 13q21 0 32.5 -14.5t11.5 -37.5q0 -42 -35 -94.5t-86 -86.5l-2 2q39 36 57.5 75.5
t18.5 65.5q-18 1 -30 14t-12 31z" />
    <glyph glyph-name="uni021A" unicode="&#x21a;" horiz-adv-x="680" 
d="M310 760h-128q-104 0 -137 -45.5t-35 -173.5h-10v246h680v-246h-10q-2 128 -35 173.5t-137 45.5h-128v-674q0 -44 22 -57t97 -13v-16h-298v16q75 0 97 13t22 56v675zM287 -84q0 19 12.5 32t32.5 13q21 0 32.5 -14.5t11.5 -37.5q0 -42 -35 -94.5t-86 -86.5l-2 2
q39 36 57.5 75.5t18.5 65.5q-18 1 -30 14t-12 31z" />
    <glyph glyph-name="uni021B" unicode="&#x21b;" horiz-adv-x="327" 
d="M209 -14q-48 0 -76.5 26.5t-28.5 81.5v367h-81v20h81l44 152h7v-152h156v-20h-156v-356q0 -46 18.5 -66.5t57.5 -20.5q50 0 92 29l2 -3q-51 -58 -116 -58zM154 -84q0 19 12.5 32t32.5 13q21 0 32.5 -14.5t11.5 -37.5q0 -42 -35 -94.5t-86 -86.5l-2 2q39 36 57.5 75.5
t18.5 65.5q-18 1 -30 14t-12 31z" />
    <glyph glyph-name="uni0232" unicode="&#x232;" horiz-adv-x="715" 
d="M203 853v32h314v-32h-314zM492 0h-288v16q72 0 93 11.5t21 52.5v242l-222 390q-17 31 -38 45t-65 14v16h244v-16q-105 0 -78 -49l201 -366l202 341q23 40 5 57t-83 17v16h238v-16q-49 0 -69.5 -14.5t-49.5 -61.5l-225 -364v-250q0 -43 20.5 -54t93.5 -11v-16z" />
    <glyph glyph-name="uni0233" unicode="&#x233;" horiz-adv-x="518" 
d="M112 658v32h314v-32h-314zM426 378l-214 -528q-31 -76 -64 -98.5t-74 -22.5q-35 0 -64 15.5t-29 40.5q0 14 9.5 23t22.5 9q20 0 41.5 -27t39.5 -27q25 0 46 19.5t46 80.5l57 141l-167 417q-8 18 -13 26t-21.5 15t-44.5 7v12h198v-12q-40 0 -56.5 -9t-6.5 -34l139 -363
l119 304q22 57 14 79.5t-50 22.5v12h169v-12q-37 0 -56.5 -20t-40.5 -71z" />
    <glyph glyph-name="dotlessj" unicode="&#x237;" horiz-adv-x="256" 
d="M109 78v354q0 21 -14.5 29t-57.5 8v12h196v-12q-43 0 -57.5 -8t-14.5 -29v-354q0 -241 -136 -352l-2 3q29 30 47.5 73t26 94.5t10 90.5t2.5 91z" />
    <glyph glyph-name="uni0259" unicode="&#x259;" horiz-adv-x="519" 
d="M249 -14q-86 0 -140.5 52.5t-61.5 140.5h380q4 24 4 56q0 102 -54 168t-151 66q-111 0 -171 -63l-2 2q67 97 195 97q106 0 173 -72.5t67 -195.5q0 -110 -68.5 -180.5t-170.5 -70.5zM247 8q71 0 115.5 41t60.5 110h-319q1 -74 42 -112.5t101 -38.5z" />
    <glyph glyph-name="circumflex" unicode="&#x2c6;" horiz-adv-x="392" 
d="M202 800l157 -204h-6l-153 131l-162 -131h-5l166 204h3z" />
    <glyph glyph-name="caron" unicode="&#x2c7;" horiz-adv-x="348" 
d="M165 556l-157 244h6l153 -161l162 161h5l-166 -244h-3z" />
    <glyph glyph-name="breve" unicode="&#x2d8;" horiz-adv-x="396" 
d="M365 749q-2 -48 -18.5 -81.5t-41.5 -49.5t-48.5 -22.5t-48.5 -6.5t-48.5 6.5t-48.5 22.5t-41.5 49.5t-18.5 81.5h31q2 -59 34.5 -95.5t91.5 -36.5t91.5 36.5t34.5 95.5h31z" />
    <glyph glyph-name="dotaccent" unicode="&#x2d9;" horiz-adv-x="195" 
d="M55 715q0 19 13 32t30 13q19 0 32 -13t13 -32q0 -18 -13 -30.5t-32 -12.5q-17 0 -30 12.5t-13 30.5z" />
    <glyph glyph-name="ring" unicode="&#x2da;" horiz-adv-x="270" 
d="M237 673q0 -41 -30 -69.5t-72 -28.5t-72 28.5t-30 69.5t30 69.5t72 28.5t72 -28.5t30 -69.5zM206 673q0 31 -21 51.5t-50 20.5q-30 0 -50 -21t-20 -51t20 -51t50 -21q32 0 51.5 21t19.5 51z" />
    <glyph glyph-name="ogonek" unicode="&#x2db;" horiz-adv-x="284" 
d="M233 -206l1 -2q-37 -30 -89 -30q-40 0 -67.5 22.5t-27.5 61.5q0 44 35.5 79.5t101.5 74.5h10q-98 -65 -98 -141q0 -35 24.5 -54.5t60.5 -19.5q25 0 49 9z" />
    <glyph glyph-name="tilde" unicode="&#x2dc;" horiz-adv-x="423" 
d="M328 708l35 47l5 -3l-35 -88h-248l-37 -46l-5 3l37 87h248z" />
    <glyph glyph-name="hungarumlaut" unicode="&#x2dd;" horiz-adv-x="403" 
d="M385 787l-191 -194h-5l116 194h80zM224 787l-191 -194h-5l116 194h80z" />
    <glyph glyph-name="pi" unicode="&#x3c0;" horiz-adv-x="724" 
d="M76 444v37h574v-37h-92v-444h-43v444h-305v-444h-47v444h-87z" />
    <glyph glyph-name="Wgrave" unicode="&#x1e80;" horiz-adv-x="1078" 
d="M573 836l-169 109h93l81 -109h-5zM755 98l151 530q10 35 15 54.5t6.5 38t-2 26.5t-13.5 14.5t-24 8t-38 1.5v16h235v-16q-54 0 -83.5 -25t-52.5 -104l-194 -680l-229 591l-215 -591h-6l-209 745q-18 64 -103 64v16h235v-16q-49 0 -65 -12t-6 -50l166 -612l210 591h2z" />
    <glyph glyph-name="wgrave" unicode="&#x1e81;" horiz-adv-x="738" 
d="M462 593l-191 194h80l116 -194h-5zM494 -27l-125 361l-131 -361h-5l-159 448q-6 17 -12 26t-22.5 15.5t-44.5 6.5v12h193v-12q-40 0 -54 -10t-3 -41l114 -342l104 291q2 5 4 13l-14 41q-6 17 -12 26t-22.5 15.5t-44.5 6.5v12h203v-12q-42 0 -59 -12t-5 -50l107 -331
l104 291q20 53 12.5 77.5t-48.5 24.5v12h169v-12q-38 0 -58 -20t-39 -71l-147 -405h-5z" />
    <glyph glyph-name="Wacute" unicode="&#x1e82;" horiz-adv-x="1078" 
d="M663 945l-169 -109h-5l81 109h93zM755 98l151 530q10 35 15 54.5t6.5 38t-2 26.5t-13.5 14.5t-24 8t-38 1.5v16h235v-16q-54 0 -83.5 -25t-52.5 -104l-194 -680l-229 591l-215 -591h-6l-209 745q-18 64 -103 64v16h235v-16q-49 0 -65 -12t-6 -50l166 -612l210 591h2z" />
    <glyph glyph-name="wacute" unicode="&#x1e83;" horiz-adv-x="738" 
d="M493 787l-191 -194h-5l116 194h80zM494 -27l-125 361l-131 -361h-5l-159 448q-6 17 -12 26t-22.5 15.5t-44.5 6.5v12h193v-12q-40 0 -54 -10t-3 -41l114 -342l104 291q2 5 4 13l-14 41q-6 17 -12 26t-22.5 15.5t-44.5 6.5v12h203v-12q-42 0 -59 -12t-5 -50l107 -331
l104 291q20 53 12.5 77.5t-48.5 24.5v12h169v-12q-38 0 -58 -20t-39 -71l-147 -405h-5z" />
    <glyph glyph-name="Wdieresis" unicode="&#x1e84;" horiz-adv-x="1078" 
d="M617 897q0 19 13 32t30 13q19 0 32 -13t13 -32q0 -18 -13 -30.5t-32 -12.5q-17 0 -30 12.5t-13 30.5zM363 897q0 19 13 32t30 13q19 0 32 -13t13 -32q0 -18 -13 -30.5t-32 -12.5q-17 0 -30 12.5t-13 30.5zM755 98l151 530q10 35 15 54.5t6.5 38t-2 26.5t-13.5 14.5t-24 8
t-38 1.5v16h235v-16q-54 0 -83.5 -25t-52.5 -104l-194 -680l-229 591l-215 -591h-6l-209 745q-18 64 -103 64v16h235v-16q-49 0 -65 -12t-6 -50l166 -612l210 591h2z" />
    <glyph glyph-name="wdieresis" unicode="&#x1e85;" horiz-adv-x="738" 
d="M432 691q0 19 13 32t30 13q19 0 32 -13t13 -32q0 -18 -13 -30.5t-32 -12.5q-17 0 -30 12.5t-13 30.5zM218 691q0 19 13 32t30 13q19 0 32 -13t13 -32q0 -18 -13 -30.5t-32 -12.5q-17 0 -30 12.5t-13 30.5zM494 -27l-125 361l-131 -361h-5l-159 448q-6 17 -12 26
t-22.5 15.5t-44.5 6.5v12h193v-12q-40 0 -54 -10t-3 -41l114 -342l104 291q2 5 4 13l-14 41q-6 17 -12 26t-22.5 15.5t-44.5 6.5v12h203v-12q-42 0 -59 -12t-5 -50l107 -331l104 291q20 53 12.5 77.5t-48.5 24.5v12h169v-12q-38 0 -58 -20t-39 -71l-147 -405h-5z" />
    <glyph glyph-name="uni1ECA" unicode="&#x1eca;" horiz-adv-x="344" 
d="M142 76v640q0 33 -19.5 44t-79.5 11v16h258v-16q-60 0 -79.5 -11t-19.5 -44v-640q0 -34 20 -47t79 -13v-16h-258v16q59 0 79 13t20 47zM121 -154q0 19 13 32t30 13q19 0 32 -13t13 -32q0 -18 -13 -30.5t-32 -12.5q-17 0 -30 12.5t-13 30.5z" />
    <glyph glyph-name="uni1ECB" unicode="&#x1ecb;" horiz-adv-x="282" 
d="M97 715q0 19 13 32t30 13q19 0 32 -13t13 -32q0 -18 -13 -30.5t-32 -12.5q-17 0 -30 12.5t-13 30.5zM167 432v-383q0 -21 14.5 -29t57.5 -8v-12h-196v12q43 0 57.5 8t14.5 29v383q0 21 -14.5 29t-57.5 8v12h196v-12q-43 0 -57.5 -8t-14.5 -29zM97 -154q0 19 13 32t30 13
q19 0 32 -13t13 -32q0 -18 -13 -30.5t-32 -12.5q-17 0 -30 12.5t-13 30.5z" />
    <glyph glyph-name="uni1ECC" unicode="&#x1ecc;" horiz-adv-x="925" 
d="M463 805q182 0 300.5 -114t118.5 -299q0 -184 -118 -295t-301 -111t-301.5 113.5t-118.5 298.5t118 296t302 111zM463 15q63 0 123 22t112.5 65.5t84.5 119.5t32 173q0 79 -21.5 144.5t-56.5 108.5t-81.5 72.5t-95 42.5t-97.5 13q-63 0 -123 -22t-112.5 -65t-85 -119.5
t-32.5 -174.5q0 -97 32.5 -173t85 -119.5t112.5 -65.5t123 -22zM419 -154q0 19 13 32t30 13q19 0 32 -13t13 -32q0 -18 -13 -30.5t-32 -12.5q-17 0 -30 12.5t-13 30.5z" />
    <glyph glyph-name="uni1ECD" unicode="&#x1ecd;" horiz-adv-x="580" 
d="M43 245q0 117 69 188t178 71t178 -71t69 -188t-69 -188t-178 -71t-178 70.5t-69 188.5zM290 9q89 0 139.5 71t50.5 165q0 95 -50.5 165.5t-139.5 70.5q-88 0 -139 -70t-51 -166q0 -95 50.5 -165.5t139.5 -70.5zM246 -154q0 19 13 32t30 13q19 0 32 -13t13 -32
q0 -18 -13 -30.5t-32 -12.5q-17 0 -30 12.5t-13 30.5z" />
    <glyph glyph-name="uni1EE4" unicode="&#x1ee4;" horiz-adv-x="868" 
d="M736 671v-356q0 -153 -81 -241t-227 -88q-147 0 -226.5 81.5t-79.5 241.5v407q0 33 -19.5 44t-79.5 11v16h258v-16q-60 0 -79.5 -11t-19.5 -44v-412q0 -131 64.5 -200t183.5 -69q131 0 197.5 74t66.5 208v354q0 57 -20.5 78.5t-89.5 21.5v16h261v-16q-63 0 -86 -22.5
t-23 -77.5zM383 -154q0 19 13 32t30 13q19 0 32 -13t13 -32q0 -18 -13 -30.5t-32 -12.5q-17 0 -30 12.5t-13 30.5z" />
    <glyph glyph-name="uni1EE5" unicode="&#x1ee5;" horiz-adv-x="572" 
d="M549 0h-124v432q0 21 -14.5 29t-57.5 8v12h124v-428q0 -23 14 -32t58 -9v-12zM95 159v267q0 25 -14 34t-58 9v12h124v-321q0 -63 31 -99.5t96 -36.5q51 0 92 30.5t59 76.5q-20 -71 -64.5 -108t-105.5 -37q-160 0 -160 173zM228 -154q0 19 13 32t30 13q19 0 32 -13t13 -32
q0 -18 -13 -30.5t-32 -12.5q-17 0 -30 12.5t-13 30.5z" />
    <glyph glyph-name="Ygrave" unicode="&#x1ef2;" horiz-adv-x="715" 
d="M395 836l-169 109h93l81 -109h-5zM492 0h-288v16q72 0 93 11.5t21 52.5v242l-222 390q-17 31 -38 45t-65 14v16h244v-16q-105 0 -78 -49l201 -366l202 341q23 40 5 57t-83 17v16h238v-16q-49 0 -69.5 -14.5t-49.5 -61.5l-225 -364v-250q0 -43 20.5 -54t93.5 -11v-16z" />
    <glyph glyph-name="ygrave" unicode="&#x1ef3;" horiz-adv-x="518" 
d="M322 593l-191 194h80l116 -194h-5zM426 378l-214 -528q-31 -76 -64 -98.5t-74 -22.5q-35 0 -64 15.5t-29 40.5q0 14 9.5 23t22.5 9q20 0 41.5 -27t39.5 -27q25 0 46 19.5t46 80.5l57 141l-167 417q-8 18 -13 26t-21.5 15t-44.5 7v12h198v-12q-40 0 -56.5 -9t-6.5 -34
l139 -363l119 304q22 57 14 79.5t-50 22.5v12h169v-12q-37 0 -56.5 -20t-40.5 -71z" />
    <glyph glyph-name="endash" unicode="&#x2013;" horiz-adv-x="520" 
d="M53 239v37h414v-37h-414z" />
    <glyph glyph-name="emdash" unicode="&#x2014;" horiz-adv-x="767" 
d="M53 239v37h661v-37h-661z" />
    <glyph glyph-name="quoteleft" unicode="&#x2018;" horiz-adv-x="160" 
d="M110 654q0 -22 -13.5 -36.5t-36.5 -14.5q-24 0 -37 16.5t-13 41.5q0 44 32.5 80t74.5 54l3 -6q-22 -12 -43 -38t-21 -47q25 -1 39.5 -15.5t14.5 -34.5z" />
    <glyph glyph-name="quoteright" unicode="&#x2019;" horiz-adv-x="160" 
d="M50 744q0 22 13.5 36.5t36.5 14.5q24 0 37 -16.5t13 -41.5q0 -44 -32.5 -80t-74.5 -54l-3 6q22 12 43 38t21 47q-25 1 -39.5 15.5t-14.5 34.5z" />
    <glyph glyph-name="quotesinglbase" unicode="&#x201a;" horiz-adv-x="182" 
d="M62 35q0 22 14 36.5t37 14.5q24 0 36.5 -16t12.5 -42q0 -48 -44.5 -114t-108.5 -109l-2 3q49 45 75.5 96.5t26.5 80.5q-20 1 -33.5 15.5t-13.5 34.5z" />
    <glyph glyph-name="quotedblleft" unicode="&#x201c;" horiz-adv-x="313" 
d="M110 654q0 -22 -13.5 -36.5t-36.5 -14.5q-24 0 -37 16.5t-13 41.5q0 44 32.5 80t74.5 54l3 -6q-22 -12 -43 -38t-21 -47q25 -1 39.5 -15.5t14.5 -34.5zM263 654q0 -22 -13.5 -36.5t-36.5 -14.5q-24 0 -37 16.5t-13 41.5q0 44 32.5 80t74.5 54l3 -6q-22 -12 -43 -38
t-21 -47q25 -1 39.5 -15.5t14.5 -34.5z" />
    <glyph glyph-name="quotedblright" unicode="&#x201d;" horiz-adv-x="313" 
d="M50 744q0 22 13.5 36.5t36.5 14.5q24 0 37 -16.5t13 -41.5q0 -44 -32.5 -80t-74.5 -54l-3 6q22 12 43 38t21 47q-25 1 -39.5 15.5t-14.5 34.5zM203 744q0 22 13.5 36.5t36.5 14.5q24 0 37 -16.5t13 -41.5q0 -44 -32.5 -80t-74.5 -54l-3 6q22 12 43 38t21 47
q-25 1 -39.5 15.5t-14.5 34.5z" />
    <glyph glyph-name="quotedblbase" unicode="&#x201e;" horiz-adv-x="320" 
d="M62 35q0 22 14 36.5t37 14.5q24 0 36.5 -16t12.5 -42q0 -48 -44.5 -114t-108.5 -109l-2 3q49 45 75.5 96.5t26.5 80.5q-20 1 -33.5 15.5t-13.5 34.5zM200 35q0 22 14 36.5t37 14.5q24 0 36.5 -16t12.5 -42q0 -48 -44.5 -114t-108.5 -109l-2 3q49 45 75.5 96.5t26.5 80.5
q-20 1 -33.5 15.5t-13.5 34.5z" />
    <glyph glyph-name="dagger" unicode="&#x2020;" horiz-adv-x="669" 
d="M312 819h44v-320h278v-37h-278v-635h-44v635h-276v37h276v320z" />
    <glyph glyph-name="daggerdbl" unicode="&#x2021;" horiz-adv-x="669" 
d="M633 114h-277v-286h-46v286h-274v37h274v331h-274v37h274v299h46v-299h277v-37h-277v-331h277v-37z" />
    <glyph glyph-name="bullet" unicode="&#x2022;" horiz-adv-x="432" 
d="M53 259q0 66 47 113t113 47q70 0 118 -47t48 -113q0 -71 -47.5 -118.5t-118.5 -47.5q-66 0 -113 48t-47 118z" />
    <glyph glyph-name="ellipsis" unicode="&#x2026;" horiz-adv-x="604" 
d="M52 36q0 21 14.5 35.5t35.5 14.5t35.5 -14.5t14.5 -35.5t-14.5 -35.5t-35.5 -14.5t-35.5 14.5t-14.5 35.5zM252 36q0 21 14.5 35.5t35.5 14.5t35.5 -14.5t14.5 -35.5t-14.5 -35.5t-35.5 -14.5t-35.5 14.5t-14.5 35.5zM452 36q0 21 14.5 35.5t35.5 14.5t35.5 -14.5
t14.5 -35.5t-14.5 -35.5t-35.5 -14.5t-35.5 14.5t-14.5 35.5z" />
    <glyph glyph-name="perthousand" unicode="&#x2030;" horiz-adv-x="1257" 
d="M721 787l-522 -787h-44l520 787h46zM53 599q0 81 46 131t118 50t118 -50t46 -131t-46 -131t-118 -50t-118 50t-46 131zM98 599q0 -67 34 -105.5t85 -38.5t85 38.5t34 105.5t-34 105.5t-85 38.5t-85 -38.5t-34 -105.5zM488 167q0 81 46 131t118 50t118 -50t46 -131
t-46 -131t-118 -50t-118 50t-46 131zM876 167q0 81 46 131t118 50t118 -50t46 -131t-46 -131t-118 -50t-118 50t-46 131zM533 167q0 -67 34 -105.5t85 -38.5t85 38.5t34 105.5t-34 105.5t-85 38.5t-85 -38.5t-34 -105.5zM921 167q0 -67 34 -105.5t85 -38.5t85 38.5t34 105.5
t-34 105.5t-85 38.5t-85 -38.5t-34 -105.5z" />
    <glyph glyph-name="guilsinglleft" unicode="&#x2039;" horiz-adv-x="281" 
d="M232 34l-213 209v4l212 208h12l-150 -210l150 -211h-11z" />
    <glyph glyph-name="guilsinglright" unicode="&#x203a;" horiz-adv-x="281" 
d="M243 243l-213 -209h-11l150 211l-150 210h12l212 -208v-4z" />
    <glyph glyph-name="fraction" unicode="&#x2044;" horiz-adv-x="597" 
d="M570 787l-522 -787h-44l520 787h46z" />
    <glyph glyph-name="Euro" unicode="&#x20ac;" horiz-adv-x="722" 
d="M686 58q-96 -72 -247 -72q-147 0 -231.5 82t-105.5 211h-89v34h84q-2 32 -2 50q0 31 3 59h-85v34h90q24 132 113 208t218 76q137 0 244 -65l2 -135h-10q-19 96 -77 135t-161 39q-99 0 -173.5 -65t-95.5 -193h243v-34h-247q-3 -30 -3 -62q0 -17 2 -47h248v-34h-244
q20 -129 97 -197.5t183 -68.5q34 0 59 2.5t56.5 13.5t53 29t40.5 52.5t28 81.5h10z" />
    <glyph glyph-name="trademark" unicode="&#x2122;" horiz-adv-x="957" 
d="M234 767v-377q0 -21 8 -28.5t31 -7.5h26v-11h-176v11h23q24 0 33 7t9 28v378h-74q-77 0 -90 -75h-5v95h383v-95h-5q-6 39 -27 57t-62 18h-74zM877 732l12 -348q1 -17 8.5 -23.5t26.5 -6.5h20v-11h-155v11h19q19 0 27.5 6.5t7.5 23.5l-12 354l-154 -395h-6l-157 377
l-12 -310q-2 -31 6 -43.5t32 -12.5h21v-11h-141v11h20q20 0 28.5 13t10.5 44l13 321q1 24 -14.5 33.5t-36.5 9.5v12h96l150 -365l138 365h104v-12q-22 0 -37.5 -9.5t-14.5 -33.5z" />
    <glyph glyph-name="Omega" unicode="&#x2126;" horiz-adv-x="910" 
d="M546 0v36q48 16 92 44.5t83 71.5t62.5 105t23.5 134q0 92 -32.5 166.5t-84.5 119t-113 68t-123 23.5q-64 0 -126 -23.5t-114 -68t-84 -117t-32 -161.5q0 -74 23.5 -137t62.5 -106.5t84 -72.5t94 -45v-37h-329v37h239q-94 45 -156.5 144t-62.5 213q0 180 115 295.5
t286 115.5q170 0 285 -118.5t115 -299.5q0 -112 -61.5 -208.5t-154.5 -141.5h239v-37h-331z" />
    <glyph glyph-name="partialdiff" unicode="&#x2202;" horiz-adv-x="571" 
d="M275 503q77 0 134 -44t83 -139q-25 221 -191 336q-63 44 -156 75q2 6 7 19.5t7 19.5q104 -33 183.5 -93t123.5 -137q63 -110 63 -252q0 -80 -25 -146.5t-82 -111t-138 -44.5q-109 0 -174.5 76.5t-65.5 181.5q0 116 69 187.5t162 71.5zM281 465q-79 0 -134 -60.5
t-55 -158.5q0 -99 54.5 -161t135.5 -62q92 0 142 63.5t50 148.5q0 89 -51.5 159.5t-141.5 70.5z" />
    <glyph glyph-name="Delta" unicode="&#x2206;" horiz-adv-x="610" 
d="M304 588l303 -588h-604zM304 502l-239 -465h476z" />
    <glyph glyph-name="product" unicode="&#x220f;" horiz-adv-x="854" 
d="M73 750v37h709v-37h-92v-844h92v-37h-224v37h88v844h-436v-844h87v-37h-224v37h93v844h-93z" />
    <glyph glyph-name="summation" unicode="&#x2211;" horiz-adv-x="710" 
d="M305 393l-274 394h592v-229h-44v192h-469l245 -357l-261 -356h495v192h44v-229h-619z" />
    <glyph glyph-name="minus" unicode="&#x2212;" horiz-adv-x="560" 
d="M53 239v37h454v-37h-454z" />
    <glyph glyph-name="radical" unicode="&#x221a;" horiz-adv-x="697" 
d="M23 355v37h155l122 -335l252 822h242v-37h-210l-282 -898l-155 411h-124z" />
    <glyph glyph-name="infinity" unicode="&#x221e;" horiz-adv-x="793" 
d="M53 232q0 63 44.5 103.5t116.5 40.5q50 0 92 -25t92 -82q83 107 181 107q71 0 116 -40.5t45 -103.5q0 -64 -43.5 -104.5t-115.5 -40.5q-96 0 -183 113q-91 -112 -186 -112q-71 0 -115 40t-44 104zM429 235q39 -52 74.5 -78.5t77.5 -26.5q46 0 78 29.5t32 72.5
q0 42 -32.5 72t-86.5 30q-38 0 -70.5 -23.5t-72.5 -75.5zM102 232q0 -42 32 -72t82 -30q75 0 151 102q-40 50 -73.5 76t-74.5 26q-52 0 -84.5 -28t-32.5 -74z" />
    <glyph glyph-name="integral" unicode="&#x222b;" horiz-adv-x="273" 
d="M115 -174v837q0 62 25 93t101 31h9v-41q-49 -1 -70 -17.5t-21 -60.5v-842q0 -58 -25 -88.5t-101 -30.5h-9v40q48 1 69.5 18t21.5 61z" />
    <glyph glyph-name="approxequal" unicode="&#x2248;" horiz-adv-x="665" 
d="M186 409q52 0 151 -49.5t141 -49.5q64 0 99 82l37 -13q-36 -107 -135 -107q-54 0 -153 49t-139 49q-64 0 -99 -87l-37 14q38 112 135 112zM186 229q52 0 151 -49.5t141 -49.5q64 0 99 83l37 -14q-36 -107 -135 -107q-54 0 -153 49t-139 49q-64 0 -99 -87l-37 14
q38 112 135 112z" />
    <glyph glyph-name="notequal" unicode="&#x2260;" horiz-adv-x="560" 
d="M507 148h-248l-59 -148h-42l59 148h-164v37h179l57 143h-236v37h251l50 125h42l-50 -125h161v-37h-176l-57 -143h233v-37z" />
    <glyph glyph-name="lessequal" unicode="&#x2264;" horiz-adv-x="611" 
d="M53 282v43l505 178v-49l-454 -150l454 -166v-51zM64 0v37h494v-37h-494z" />
    <glyph glyph-name="greaterequal" unicode="&#x2265;" horiz-adv-x="612" 
d="M559 325v-43l-505 -195v51l454 166l-454 150v49zM548 37v-37h-494v37h494z" />
    <glyph glyph-name="lozenge" unicode="&#x25ca;" horiz-adv-x="569" 
d="M281 -50l-248 425l248 434l255 -434zM483 375l-202 345l-196 -345l197 -339z" />
    <glyph glyph-name="commaaccent" unicode="&#xf6c3;" 
d="M222 -84q0 19 12.5 32t32.5 13q21 0 32.5 -14.5t11.5 -37.5q0 -42 -35 -94.5t-86 -86.5l-2 2q39 36 57.5 75.5t18.5 65.5q-18 1 -30 14t-12 31z" />
    <glyph glyph-name="dotaccent.low" 
d="M206 -154q0 19 13 32t30 13q19 0 32 -13t13 -32q0 -18 -13 -30.5t-32 -12.5q-17 0 -30 12.5t-13 30.5z" />
    <glyph glyph-name="one.case" horiz-adv-x="378" 
d="M246 804v-751q0 -22 16.5 -31t67.5 -9h5v-13h-269v13h48q45 0 60.5 9t15.5 31v661q-102 -5 -167 3v3q170 12 215 84h8z" />
    <glyph glyph-name="two.case" horiz-adv-x="605" 
d="M56 43h291q44 0 67.5 1t48 6t35.5 13.5t22 26t16 40t9 58.5h11v-188h-556l-3 7q169 147 251 235q95 101 142.5 180.5t47.5 170.5q0 76 -41.5 124t-117.5 48q-90 0 -143.5 -56t-48.5 -160h-5q-12 114 48.5 184t164.5 70q91 0 149 -56t58 -148q0 -147 -181 -330
q-75 -77 -265 -226z" />
    <glyph glyph-name="three.case" horiz-adv-x="571" 
d="M232 -15q-88 0 -153.5 40.5t-65.5 77.5q0 32 34 32q9 0 15.5 -3t12 -10t9 -12t8.5 -15.5t7 -14.5q37 -73 139 -73q94 0 150 52.5t56 153.5q0 88 -62.5 137.5t-162.5 49.5q-49 0 -87 -11v8q137 62 198 115t61 128q0 57 -38 91t-101 34q-70 0 -121.5 -37t-72.5 -104l-5 1
q17 82 76 130t142 48t132 -42t49 -107q0 -70 -55 -124.5t-153 -89.5q107 2 185 -51.5t78 -160.5q0 -108 -75 -175.5t-200 -67.5z" />
    <glyph glyph-name="four.case" horiz-adv-x="674" 
d="M646 239h-199v-186q0 -22 15.5 -31t62.5 -9v-13h-232v13h22q45 0 60.5 9t15.5 31v186h-375l-3 7l426 578h8v-542h16q39 0 58.5 1t41 5.5t30.5 12.5t18.5 24.5t14 38t8.5 56.5h12v-181zM75 282h316v426z" />
    <glyph glyph-name="five.case" horiz-adv-x="611" 
d="M128 100q42 -92 157 -92q93 0 152.5 59t59.5 176q0 101 -59 153.5t-148 52.5q-133 0 -200 -105l-4 2l80 435h265q51 0 75 9.5t36 43.5h7l-17 -104h-343l-54 -286q68 58 181 58q110 0 176 -66.5t66 -172.5q0 -125 -72.5 -201.5t-198.5 -76.5q-102 0 -173 49t-71 89
q0 31 34 31q6 0 11.5 -1.5t10 -5t7.5 -6.5t6.5 -9.5t5.5 -10t5.5 -11t4.5 -10.5z" />
    <glyph glyph-name="six.case" horiz-adv-x="617" 
d="M526 829l2 -5q-200 -60 -302 -184.5t-110 -296.5q21 82 76 133t141 51q41 0 79.5 -14t73.5 -43t56.5 -83.5t21.5 -126.5q0 -121 -69.5 -198t-185.5 -77q-88 0 -147.5 47.5t-84 118.5t-24.5 159q0 208 124 343t349 176zM321 494q-94 0 -149 -72t-55 -171
q0 -102 51.5 -171.5t142.5 -69.5q92 0 142 70.5t50 175.5q0 64 -17 115.5t-59.5 87t-105.5 35.5z" />
    <glyph glyph-name="seven.case" horiz-adv-x="543" 
d="M9 -24l506 754h-363q-57 0 -80 -15t-31 -60h-7v126h523l3 -4l-497 -833z" />
    <glyph glyph-name="eight.case" horiz-adv-x="628" 
d="M313 -15q-112 0 -185.5 54.5t-73.5 154.5q0 158 212 220l-10 5q-151 76 -151 215q0 72 58 121.5t155 49.5q103 0 157.5 -43t54.5 -113q0 -142 -187 -205l48 -24q86 -44 134.5 -97t48.5 -132q0 -80 -67 -143t-194 -63zM305 463l38 -19q66 31 101.5 83.5t35.5 117.5
q0 67 -44.5 101.5t-119.5 34.5q-76 0 -115.5 -37.5t-39.5 -100.5q0 -62 38.5 -104t105.5 -76zM314 10q93 0 147 44.5t54 123.5q0 64 -38 106.5t-119 83.5l-91 46q-85 -33 -122.5 -87t-37.5 -133q0 -88 56 -136t151 -48z" />
    <glyph glyph-name="nine.case" horiz-adv-x="617" 
d="M81 -42l-1 4q201 60 307.5 185.5t114.5 295.5q-22 -82 -76 -133t-139 -51q-40 0 -78.5 14t-74.5 43t-58.5 83.5t-22.5 126.5q0 121 71 198.5t187 77.5q67 0 117 -26.5t79 -73.5t43 -103.5t14 -122.5q0 -208 -127.5 -343.5t-355.5 -174.5zM296 293q94 0 149 71.5t55 171.5
q0 102 -51 171.5t-142 69.5q-92 0 -142 -70.5t-50 -176.5q0 -100 44.5 -168.5t136.5 -68.5z" />
    <glyph glyph-name="zero.case" horiz-adv-x="683" 
d="M342 -14q-141 0 -215 107t-74 304q0 196 74 302t215 106q140 0 214 -106t74 -302q0 -197 -74 -304t-214 -107zM342 781q-105 0 -166 -91t-61 -293t61 -294.5t166 -92.5q104 0 165 92.5t61 294.5t-61 293t-165 91z" />
    <glyph glyph-name="acute.case" 
d="M337 945l-169 -109h-5l81 109h93z" />
    <glyph glyph-name="breve.case" 
d="M250 813q-52 0 -92.5 28.5t-44.5 93.5h31q4 -95 106 -95t106 95h31q-4 -65 -44.5 -93.5t-92.5 -28.5z" />
    <glyph glyph-name="caron.case" 
d="M249 837l-137 112h6l133 -57l132 57h5l-136 -112h-3z" />
    <glyph glyph-name="cedilla.case" 
d="M226 -4h30l-53 -84q27 20 61 20q33 0 54.5 -18t21.5 -53q0 -51 -53 -80t-125 -36l-3 6q67 8 100 37.5t33 66.5q0 50 -48 50q-27 0 -46 -14l-24 19z" />
    <glyph glyph-name="circumflex.case" 
d="M251 949l147 -112h-6l-143 57l-142 -57h-5l146 112h3z" />
    <glyph glyph-name="dieresis.case" 
d="M333 897q0 19 13 32t30 13q19 0 32 -13t13 -32q0 -18 -13 -30.5t-32 -12.5q-17 0 -30 12.5t-13 30.5zM79 897q0 19 13 32t30 13q19 0 32 -13t13 -32q0 -18 -13 -30.5t-32 -12.5q-17 0 -30 12.5t-13 30.5z" />
    <glyph glyph-name="dotaccent.case" 
d="M206 881q0 19 13 32t30 13q19 0 32 -13t13 -32q0 -18 -13 -30.5t-32 -12.5q-17 0 -30 12.5t-13 30.5z" />
    <glyph glyph-name="grave.case" 
d="M332 836l-169 109h93l81 -109h-5z" />
    <glyph glyph-name="hungarumlaut.case" 
d="M417 945l-169 -109h-5l81 109h93zM257 945l-169 -109h-5l81 109h93z" />
    <glyph glyph-name="macron.case" 
d="M93 853v32h314v-32h-314z" />
    <glyph glyph-name="ogonek.case" 
d="M341 -206l1 -2q-37 -30 -89 -30q-40 0 -67.5 22.5t-27.5 61.5q0 44 35.5 79.5t101.5 74.5h10q-98 -65 -98 -141q0 -35 24.5 -54.5t60.5 -19.5q25 0 49 9z" />
    <glyph glyph-name="ring.case" 
d="M352 889q0 -41 -30 -69.5t-72 -28.5t-72 28.5t-30 69.5t30 69.5t72 28.5t72 -28.5t30 -69.5zM321 889q0 31 -21 51.5t-50 20.5q-30 0 -50 -21t-20 -51t20 -51t50 -21q32 0 51.5 21t19.5 51z" />
    <glyph glyph-name="tilde.case" 
d="M373 906l35 47l5 -3l-35 -88h-248l-37 -46l-5 3l37 87h248z" />
    <glyph glyph-name="b.alt" horiz-adv-x="591" 
d="M33 787h124v-787h-124v12q44 0 58 9t14 34v683q0 21 -14.5 29t-57.5 8v12zM296 471q-81 0 -138 -49q26 36 69 59t90 23q106 0 168.5 -73t62.5 -184q0 -113 -61.5 -187t-166.5 -74q-94 0 -162 77q61 -44 137 -44q95 0 145.5 64t50.5 164t-51 162t-144 62z" />
    <glyph glyph-name="d.alt" horiz-adv-x="578" 
d="M355 787h130v-732q0 -25 14 -34t58 -9v-12h-124v738q0 20 -17 28.5t-61 8.5v12zM276 504q47 0 89 -22.5t68 -59.5q-57 49 -136 49q-93 0 -145 -63t-52 -163t51.5 -163t146.5 -63q74 0 135 44q-68 -77 -160 -77q-106 0 -168 73.5t-62 185.5q0 111 63 185t170 74z" />
    <glyph glyph-name="dcaron.alt" horiz-adv-x="628" 
d="M558 744q0 22 13.5 36.5t36.5 14.5q24 0 37 -16.5t13 -41.5q0 -44 -32.5 -80t-74.5 -54l-3 6q22 12 43 38t21 47q-25 1 -39.5 15.5t-14.5 34.5zM355 787h130v-732q0 -25 14 -34t58 -9v-12h-124v738q0 20 -17 28.5t-61 8.5v12zM276 504q47 0 89 -22.5t68 -59.5
q-57 49 -136 49q-93 0 -145 -63t-52 -163t51.5 -163t146.5 -63q74 0 135 44q-68 -77 -160 -77q-106 0 -168 73.5t-62 185.5q0 111 63 185t170 74z" />
    <glyph glyph-name="dcroat.alt" horiz-adv-x="578" 
d="M433 0v615h-164v20h164v103q0 20 -17 28.5t-61 8.5v12h130v-152h72v-20h-72v-560q0 -25 14 -34t58 -9v-12h-124zM276 504q47 0 89 -22.5t68 -59.5q-57 49 -136 49q-93 0 -145 -63t-52 -163t51.5 -163t146.5 -63q74 0 135 44q-68 -77 -160 -77q-106 0 -168 73.5t-62 185.5
q0 111 63 185t170 74z" />
    <glyph glyph-name="dot" horiz-adv-x="282" 
d="M97 715q0 19 13 32t30 13q19 0 32 -13t13 -32q0 -18 -13 -30.5t-32 -12.5q-17 0 -30 12.5t-13 30.5z" />
    <glyph glyph-name="dotlessi.alt" horiz-adv-x="259" 
d="M167 481v-432q0 -21 14.5 -29t57.5 -8v-12h-196v12q43 0 57.5 8t14.5 29v383q0 21 -14.5 29t-57.5 8v12h124z" />
    <glyph glyph-name="dotlessj.alt" horiz-adv-x="236" 
d="M161 481v-403q0 -241 -136 -352l-2 3q29 30 47.5 73t26 94.5t10 90.5t2.5 91v354q0 21 -14.5 29t-57.5 8v12h124z" />
    <glyph glyph-name="f_b.alt" horiz-adv-x="881" 
d="M372 787h75v-787h-124v12q44 0 58 9t14 34v658q-16 0 -28.5 11t-20.5 23.5t-26 23.5t-43 11q-55 0 -84 -50t-29 -166v-85h124v-20h-124v-407q0 -28 15 -33.5t87 -8.5v-12h-226v12q43 0 57.5 8t14.5 26v415h-79v20h79v32q0 129 29 190q47 97 152 97q42 0 79 -13zM586 471
q-81 0 -138 -49q26 36 69 59t90 23q106 0 168.5 -73t62.5 -184q0 -113 -61.5 -187t-166.5 -74q-94 0 -162 77q61 -44 137 -44q95 0 145.5 64t50.5 164t-51 162t-144 62z" />
    <glyph glyph-name="f_f_i.alt" horiz-adv-x="809" 
d="M717 481v-432q0 -21 14.5 -29t57.5 -8v-12h-196v12q43 0 57.5 8t14.5 29v412h-222v-407q0 -28 15 -33.5t87 -8.5v-12h-226v12q43 0 57.5 8t14.5 26v415h-227v-407q0 -28 29 -35q16 -4 93 -7v-12h-246v12q43 0 57.5 8t14.5 26v415h-79v20h79v10q0 129 29 190q47 97 149 97
q48 0 87.5 -16.5t39.5 -40.5q0 -14 -8.5 -22t-20.5 -8q-16 0 -28 11t-19 23.5t-24.5 23.5t-42.5 11q-54 0 -82 -49.5t-28 -166.5v-63h227v21q0 125 30 190q51 108 181 108q48 0 87.5 -16.5t39.5 -40.5q0 -14 -8.5 -22t-20.5 -8q-16 0 -28 10.5t-19 23t-24.5 23t-42.5 10.5
q-100 0 -131 -111q-12 -42 -12 -140v-48h274z" />
    <glyph glyph-name="f_f_l.alt" horiz-adv-x="831" 
d="M286 12v-12h-246v12q43 0 57.5 8t14.5 26v415h-79v20h79v10q0 129 29 190q47 97 149 97q48 0 87.5 -16.5t39.5 -40.5q0 -14 -8.5 -22t-20.5 -8q-16 0 -28 11t-19 23.5t-24.5 23.5t-42.5 11q-54 0 -82 -49.5t-28 -166.5v-63h227v32q0 129 29 190q47 97 152 97q42 0 79 -13
h75v-738q0 -21 14.5 -29t57.5 -8v-12h-196v12q43 0 57.5 8t14.5 29v664q-16 0 -28.5 11t-20.5 23.5t-26 23.5t-43 11q-55 0 -84 -50t-29 -166v-85h124v-20h-124v-407q0 -28 15 -33.5t87 -8.5v-12h-226v12q43 0 57.5 8t14.5 26v415h-227v-407q0 -28 29 -35q16 -4 93 -7z" />
    <glyph glyph-name="f_h.alt" horiz-adv-x="866" 
d="M447 787v-738q0 -21 14.5 -29t57.5 -8v-12h-196v12q44 0 58 9t14 32v660q-16 0 -28.5 11t-20.5 23.5t-26 23.5t-43 11q-55 0 -84 -50t-29 -166v-85h124v-20h-124v-407q0 -28 15 -33.5t87 -8.5v-12h-226v12q43 0 57.5 8t14.5 26v415h-79v20h79v32q0 129 29 190
q47 97 152 97q42 0 79 -13h75zM781 313v-258q0 -25 14 -34t58 -9v-12h-196v12q43 0 57.5 8t14.5 26v268q0 82 -32 117q-33 35 -92 35q-53 0 -95.5 -31t-62.5 -78q19 71 67 109t110 38q75 0 115 -43q42 -45 42 -148z" />
    <glyph glyph-name="f_k.alt" horiz-adv-x="819" 
d="M449 257l171 137q42 32 38 53.5t-66 21.5v12h213v-12q-36 0 -63 -15t-84 -60l-154 -121l210 -201q33 -32 59.5 -46t57.5 -14v-12h-206v12q41 0 50.5 10t-15.5 35zM266 12v-12h-226v12q43 0 57.5 8t14.5 26v415h-79v20h79v32q0 129 29 190q47 97 152 97q42 0 79 -13h75
v-738q0 -21 14.5 -29t57.5 -8v-12h-196v12q43 0 57.5 8t14.5 29v664q-16 0 -28.5 11t-20.5 23.5t-26 23.5t-43 11q-55 0 -84 -50t-29 -166v-85h124v-20h-124v-407q0 -28 15 -33.5t87 -8.5z" />
    <glyph glyph-name="fi.alt" horiz-adv-x="530" 
d="M266 12v-12h-226v12q43 0 57.5 8t14.5 26v415h-79v20h79v21q0 125 30 190q51 108 181 108q48 0 87.5 -16.5t39.5 -40.5q0 -14 -8.5 -22t-20.5 -8q-16 0 -27.5 10.5t-19 23t-25 23t-42.5 10.5q-100 0 -131 -111q-12 -42 -12 -140v-48h274v-432q0 -21 14.5 -29t57.5 -8v-12
h-196v12q43 0 57.5 8t14.5 29v412h-222v-407q0 -28 15 -33.5t87 -8.5z" />
    <glyph glyph-name="fl.alt" horiz-adv-x="552" 
d="M266 12v-12h-226v12q43 0 57.5 8t14.5 26v415h-79v20h79v32q0 129 29 190q47 97 152 97q42 0 79 -13h75v-738q0 -21 14.5 -29t57.5 -8v-12h-196v12q43 0 57.5 8t14.5 29v664q-16 0 -28.5 11t-20.5 23.5t-26 23.5t-43 11q-55 0 -84 -50t-29 -166v-85h124v-20h-124v-407
q0 -28 15 -33.5t87 -8.5z" />
    <glyph glyph-name="h.alt" horiz-adv-x="576" 
d="M157 787v-738q0 -21 14.5 -29t57.5 -8v-12h-196v12q44 0 58 9t14 32v685q0 21 -14.5 29t-57.5 8v12h124zM491 313v-258q0 -25 14 -34t58 -9v-12h-196v12q43 0 57.5 8t14.5 26v268q0 82 -32 117q-33 35 -92 35q-53 0 -95.5 -31t-62.5 -78q19 71 67 109t110 38
q75 0 115 -43q42 -45 42 -148z" />
    <glyph glyph-name="hbar.alt" horiz-adv-x="576" 
d="M229 12v-12h-196v12q44 0 58 9t14 32v562h-73v20h73v103q0 21 -14.5 29t-57.5 8v12h124v-152h163v-20h-163v-566q0 -21 14.5 -29t57.5 -8zM491 313v-258q0 -25 14 -34t58 -9v-12h-196v12q43 0 57.5 8t14.5 26v268q0 82 -32 117q-33 35 -92 35q-53 0 -95.5 -31t-62.5 -78
q19 71 67 109t110 38q75 0 115 -43q42 -45 42 -148z" />
    <glyph glyph-name="hcircumflex.alt" horiz-adv-x="576" 
d="M157 787v-738q0 -21 14.5 -29t57.5 -8v-12h-196v12q44 0 58 9t14 32v685q0 21 -14.5 29t-57.5 8v12h124zM344 800l137 -204h-6l-133 131l-142 -131h-5l146 204h3zM491 313v-258q0 -25 14 -34t58 -9v-12h-196v12q43 0 57.5 8t14.5 26v268q0 82 -32 117q-33 35 -92 35
q-53 0 -95.5 -31t-62.5 -78q19 71 67 109t110 38q75 0 115 -43q42 -45 42 -148z" />
    <glyph glyph-name="i.alt" horiz-adv-x="259" 
d="M97 715q0 19 13 32t30 13q19 0 32 -13t13 -32q0 -18 -13 -30.5t-32 -12.5q-17 0 -30 12.5t-13 30.5zM167 481v-432q0 -21 14.5 -29t57.5 -8v-12h-196v12q43 0 57.5 8t14.5 29v383q0 21 -14.5 29t-57.5 8v12h124z" />
    <glyph glyph-name="iacute.alt" horiz-adv-x="259" 
d="M254 787l-191 -234h-5l116 234h80zM167 481v-432q0 -21 14.5 -29t57.5 -8v-12h-196v12q43 0 57.5 8t14.5 29v383q0 21 -14.5 29t-57.5 8v12h124z" />
    <glyph glyph-name="ibreve.alt" horiz-adv-x="262" 
d="M58 749q-2 -61 19.5 -96.5t66.5 -35.5t66.5 35.5t19.5 96.5h31q1 -73 -27.5 -116.5t-89.5 -43.5t-89.5 43.5t-27.5 116.5h31zM167 481v-432q0 -21 14.5 -29t57.5 -8v-12h-196v12q43 0 57.5 8t14.5 29v383q0 21 -14.5 29t-57.5 8v12h124z" />
    <glyph glyph-name="icircumflex.alt" horiz-adv-x="259" 
d="M133 800l127 -244h-6l-123 161l-132 -161h-5l136 244h3zM167 481v-432q0 -21 14.5 -29t57.5 -8v-12h-196v12q43 0 57.5 8t14.5 29v383q0 21 -14.5 29t-57.5 8v12h124z" />
    <glyph glyph-name="idieresis.alt" horiz-adv-x="259" 
d="M156 685q0 21 14 36t34 15q22 0 36.5 -15t14.5 -36q0 -20 -14.5 -34t-36.5 -14q-20 0 -34 14t-14 34zM3 685q0 21 14 36t34 15q22 0 36.5 -15t14.5 -36q0 -20 -14.5 -34t-36.5 -14q-20 0 -34 14t-14 34zM167 481v-432q0 -21 14.5 -29t57.5 -8v-12h-196v12q43 0 57.5 8
t14.5 29v383q0 21 -14.5 29t-57.5 8v12h124z" />
    <glyph glyph-name="igrave.alt" horiz-adv-x="259" 
d="M233 553l-191 234h80l116 -234h-5zM167 481v-432q0 -21 14.5 -29t57.5 -8v-12h-196v12q43 0 57.5 8t14.5 29v383q0 21 -14.5 29t-57.5 8v12h124z" />
    <glyph glyph-name="imacron.alt" horiz-adv-x="262" 
d="M23 658v32h234v-32h-234zM167 481v-432q0 -21 14.5 -29t57.5 -8v-12h-196v12q43 0 57.5 8t14.5 29v383q0 21 -14.5 29t-57.5 8v12h124z" />
    <glyph glyph-name="iogonek.alt" horiz-adv-x="259" 
d="M97 715q0 19 13 32t30 13q19 0 32 -13t13 -32q0 -18 -13 -30.5t-32 -12.5q-17 0 -30 12.5t-13 30.5zM156 0h-113v12q43 0 57.5 8t14.5 29v383q0 21 -14.5 29t-57.5 8v12h124v-432q0 -21 14.5 -29t57.5 -8v-12h-73q-98 -65 -98 -141q0 -35 24.5 -54.5t60.5 -19.5
q25 0 49 9l1 -2q-37 -30 -89 -30q-40 0 -67.5 22.5t-27.5 61.5q0 44 35.5 79.5t101.5 74.5z" />
    <glyph glyph-name="itilde.alt" horiz-adv-x="260" 
d="M240 708l35 47l5 -3l-35 -88h-198l-37 -46l-5 3l37 87h198zM167 481v-432q0 -21 14.5 -29t57.5 -8v-12h-196v12q43 0 57.5 8t14.5 29v383q0 21 -14.5 29t-57.5 8v12h124z" />
    <glyph glyph-name="j.alt" horiz-adv-x="239" 
d="M91 715q0 19 13 32t30 13q19 0 32 -13t13 -32q0 -18 -13 -30.5t-32 -12.5q-17 0 -30 12.5t-13 30.5zM161 481v-403q0 -241 -136 -352l-2 3q29 30 47.5 73t26 94.5t10 90.5t2.5 91v354q0 21 -14.5 29t-57.5 8v12h124z" />
    <glyph glyph-name="jcircumflex.alt" horiz-adv-x="235" 
d="M123 800l127 -244h-6l-123 161l-132 -161h-5l136 244h3zM161 481v-403q0 -241 -136 -352l-2 3q29 30 47.5 73t26 94.5t10 90.5t2.5 91v354q0 21 -14.5 29t-57.5 8v12h124z" />
    <glyph glyph-name="k.alt" horiz-adv-x="529" 
d="M33 787h124v-738q0 -21 14.5 -29t57.5 -8v-12h-196v12q43 0 57.5 8t14.5 29v689q0 21 -14.5 29t-57.5 8v12zM159 257l171 137q42 32 38 53.5t-66 21.5v12h213v-12q-36 0 -63 -15t-84 -60l-154 -121l210 -201q33 -32 59.5 -46t57.5 -14v-12h-206v12q41 0 50.5 10t-15.5 35
z" />
    <glyph glyph-name="kcommaaccent.alt" horiz-adv-x="529" 
d="M33 787h124v-738q0 -21 14.5 -29t57.5 -8v-12h-196v12q43 0 57.5 8t14.5 29v689q0 21 -14.5 29t-57.5 8v12zM159 257l171 137q42 32 38 53.5t-66 21.5v12h213v-12q-36 0 -63 -15t-84 -60l-154 -121l210 -201q33 -32 59.5 -46t57.5 -14v-12h-206v12q41 0 50.5 10t-15.5 35
zM227 -84q0 19 12.5 32t32.5 13q21 0 32.5 -14.5t11.5 -37.5q0 -42 -35 -94.5t-86 -86.5l-2 2q39 36 57.5 75.5t18.5 65.5q-18 1 -30 14t-12 31z" />
    <glyph glyph-name="l.alt" horiz-adv-x="262" 
d="M105 49v689q0 21 -14.5 29t-57.5 8v12h124v-738q0 -21 14.5 -29t57.5 -8v-12h-196v12q43 0 57.5 8t14.5 29z" />
    <glyph glyph-name="lacute.alt" horiz-adv-x="272" 
d="M234 945l-169 -109h-5l81 109h93zM115 49v689q0 21 -14.5 29t-57.5 8v12h124v-738q0 -21 14.5 -29t57.5 -8v-12h-196v12q43 0 57.5 8t14.5 29z" />
    <glyph glyph-name="lcaron.alt" horiz-adv-x="311" 
d="M241 744q0 22 13.5 36.5t36.5 14.5q24 0 37 -16.5t13 -41.5q0 -44 -32.5 -80t-74.5 -54l-3 6q22 12 43 38t21 47q-25 1 -39.5 15.5t-14.5 34.5zM115 49v689q0 21 -14.5 29t-57.5 8v12h124v-738q0 -21 14.5 -29t57.5 -8v-12h-196v12q43 0 57.5 8t14.5 29z" />
    <glyph glyph-name="lcommaaccent.alt" horiz-adv-x="272" 
d="M115 49v689q0 21 -14.5 29t-57.5 8v12h124v-738q0 -21 14.5 -29t57.5 -8v-12h-196v12q43 0 57.5 8t14.5 29zM89 -84q0 19 12.5 32t32.5 13q21 0 32.5 -14.5t11.5 -37.5q0 -42 -35 -94.5t-86 -86.5l-2 2q39 36 57.5 75.5t18.5 65.5q-18 1 -30 14t-12 31z" />
    <glyph glyph-name="ldot.alt" horiz-adv-x="272" 
d="M115 49v689q0 21 -14.5 29t-57.5 8v12h124v-738q0 -21 14.5 -29t57.5 -8v-12h-196v12q43 0 57.5 8t14.5 29zM234 375q0 19 13 32t30 13q19 0 32 -13t13 -32q0 -18 -13 -30.5t-32 -12.5q-17 0 -30 12.5t-13 30.5z" />
    </font>
</defs>
</svg>
