<?xml version="1.0" standalone="no"?>
<!DOCTYPE svg PUBLIC "-//W3C//DTD SVG 1.1//EN" "http://www.w3.org/Graphics/SVG/1.1/DTD/svg11.dtd" >
<svg xmlns="http://www.w3.org/2000/svg" xmlns:xlink="http://www.w3.org/1999/xlink" version="1.1">
<metadata>
Created by FontForge 20161013 at Mon Jul 20 23:20:19 2015
 By ,,,
Copyright (c) 2015 Swiss Typefaces Sarl. All rights reserved.
</metadata>
<defs>
<font id="SangBleuSerif-LightItalic" horiz-adv-x="674" >
  <font-face 
    font-family="SangBleu Serif Light Italic"
    font-weight="300"
    font-style="italic"
    font-stretch="normal"
    units-per-em="1000"
    panose-1="2 0 3 4 0 0 0 0 0 0"
    ascent="724"
    descent="-276"
    x-height="479"
    cap-height="787"
    bbox="-239 -309 1360 992"
    underline-thickness="41"
    underline-position="-217"
    slope="-9"
    unicode-range="U+0020-FB02"
  />
<missing-glyph horiz-adv-x="697" 
d="M100 0v787h497v-787h-497zM112 777v-767h473v767h-473z" />
    <glyph glyph-name="fi" unicode="fi" horiz-adv-x="573" 
d="M-92 -271q-45 0 -76 14.5t-31 36.5q0 32 29 32q16 0 26 -10t14.5 -22t18 -22t34.5 -10q62 0 107 57.5t68 201.5l72 452h-97l3 20h97l8 48q12 76 39 132t62 85t70 42t71 13q45 0 76 -14.5t31 -36.5q0 -32 -29 -32q-16 0 -26 10t-14.5 22t-18 22t-34.5 10q-62 0 -107 -57.5
t-68 -201.5l-7 -42h261l-74 -411q-10 -52 6 -52q20 0 85 83l9 -6q-5 -6 -20 -27.5t-22.5 -31t-20.5 -23.5t-25.5 -19.5t-25.5 -5.5q-28 0 -37 18.5t-2 60.5l70 394h-207l-73 -458q-12 -76 -39 -132t-62 -85t-70 -42t-71 -13z" />
    <glyph glyph-name="fl" unicode="fl" horiz-adv-x="577" 
d="M385 65l104 660q-4 3 -17 20t-27.5 26t-36.5 9q-62 0 -107 -57.5t-68 -201.5l-7 -42h182l-3 -20h-182l-73 -458q-12 -76 -39 -132t-62 -85t-70 -42t-71 -13q-45 0 -76 14.5t-31 36.5q0 32 29 32q16 0 26 -10t14.5 -22t18 -22t34.5 -10q62 0 107 57.5t68 201.5l72 452h-97
l3 20h97l8 48q12 76 39 132t62 85t70 42t71 13q45 0 80 -13t42 -32l-107 -686q-8 -52 5 -52q21 0 86 83l9 -6q-4 -6 -19.5 -28t-23 -30.5t-21 -23t-26 -20t-26.5 -5.5q-26 0 -35 18t-2 61z" />
    <glyph glyph-name="f_b" unicode="fb" horiz-adv-x="848" 
d="M545 754l-95 -615q-20 -128 88 -128q63 0 115.5 49.5t80 121.5t27.5 145q0 72 -27.5 106t-71.5 34q-50 0 -93 -32.5t-90 -126.5q64 196 202 196q73 0 105 -48.5t32 -115.5q0 -81 -38 -162.5t-105.5 -136.5t-142.5 -55q-159 0 -134 160l91 579q-4 3 -17 20t-27.5 26
t-36.5 9q-62 0 -107 -57.5t-68 -201.5l-7 -42h182l-3 -20h-182l-73 -458q-12 -76 -39 -132t-62 -85t-70 -42t-71 -13q-45 0 -76 14.5t-31 36.5q0 32 29 32q16 0 26 -10t14.5 -22t18 -22t34.5 -10q62 0 107 57.5t68 201.5l72 452h-97l3 20h97l8 48q12 76 39 132t62 85t70 42
t71 13q45 0 80 -13t42 -32z" />
    <glyph glyph-name="f_f" unicode="ff" horiz-adv-x="643" 
d="M195 -271q-46 0 -76.5 15.5t-30.5 39.5q0 11 7 19.5t21 8.5q17 0 27 -10t14.5 -22t18 -22t34.5 -10q62 0 107 57.5t68 201.5l72 452h-234l-73 -458q-12 -76 -39 -132t-62 -85t-70 -42t-71 -13q-46 0 -76.5 15.5t-30.5 39.5q0 11 7 19.5t21 8.5q17 0 27 -10t14.5 -22
t18 -22t34.5 -10q62 0 107 57.5t68 201.5l72 452h-97l3 20h97l2 10q12 76 39 132t62 85t70 42t71 13q45 0 76 -15t31 -38q0 -30 -29 -30q-16 0 -26 10t-14.5 22t-18 22t-34.5 10q-61 0 -103.5 -56.5t-71.5 -201.5l-1 -5h234l8 48q12 76 39 132t62 85t70 42t71 13
q45 0 76 -15t31 -38q0 -30 -29 -30q-16 0 -26 10t-14.5 22t-18 22t-34.5 10q-62 0 -107 -57.5t-68 -201.5l-7 -42h169l-3 -20h-169l-73 -458q-12 -76 -39 -132t-62 -85t-70 -42t-71 -13z" />
    <glyph glyph-name="f_f_i" unicode="ffi" horiz-adv-x="860" 
d="M195 -271q-45 0 -76 14.5t-31 36.5q0 32 29 32q16 0 26 -10t14.5 -22t18 -22t34.5 -10q62 0 107 57.5t68 201.5l72 452h-234l-73 -458q-12 -76 -39 -132t-62 -85t-70 -42t-71 -13q-46 0 -76.5 15.5t-30.5 39.5q0 11 7 19.5t21 8.5q17 0 27 -10t14.5 -22t18 -22t34.5 -10
q62 0 107 57.5t68 201.5l72 452h-97l3 20h97l2 10q12 76 39 132t62 85t70 42t71 13q45 0 76 -15t31 -38q0 -30 -29 -30q-16 0 -26 10t-14.5 22t-18 22t-34.5 10q-61 0 -103.5 -56.5t-71.5 -201.5l-1 -5h234l8 48q12 76 39 132t62 85t70 42t71 13q45 0 76 -14.5t31 -36.5
q0 -32 -29 -32q-16 0 -26 10t-14.5 22t-18 22t-34.5 10q-62 0 -107 -57.5t-68 -201.5l-7 -42h261l-74 -411q-10 -52 6 -52q20 0 85 83l9 -6q-5 -6 -20 -27.5t-22.5 -31t-20.5 -23.5t-25.5 -19.5t-25.5 -5.5q-28 0 -37 18.5t-2 60.5l70 394h-207l-73 -458q-12 -76 -39 -132
t-62 -85t-70 -42t-71 -13z" />
    <glyph glyph-name="f_f_l" unicode="ffl" horiz-adv-x="831" 
d="M672 65l104 660q-4 3 -17 20t-27.5 26t-36.5 9q-62 0 -107 -57.5t-68 -201.5l-7 -42h182l-3 -20h-182l-73 -458q-12 -76 -39 -132t-62 -85t-70 -42t-71 -13q-45 0 -76 14.5t-31 36.5q0 32 29 32q16 0 26 -10t14.5 -22t18 -22t34.5 -10q62 0 107 57.5t68 201.5l72 452
h-234l-73 -458q-12 -76 -39 -132t-62 -85t-70 -42t-71 -13q-46 0 -76.5 15.5t-30.5 39.5q0 11 7 19.5t21 8.5q17 0 27 -10t14.5 -22t18 -22t34.5 -10q62 0 107 57.5t68 201.5l72 452h-97l3 20h97l2 10q12 76 39 132t62 85t70 42t71 13q45 0 76 -15t31 -38q0 -30 -29 -30
q-16 0 -26 10t-14.5 22t-18 22t-34.5 10q-61 0 -103.5 -56.5t-71.5 -201.5l-1 -5h234l8 48q12 76 39 132t62 85t70 42t71 13q45 0 80 -13t42 -32l-107 -686q-8 -52 5 -52q21 0 86 83l9 -6q-4 -6 -19.5 -28t-23 -30.5t-21 -23t-26 -20t-26.5 -5.5q-26 0 -35 18t-2 61z" />
    <glyph glyph-name="f_h" unicode="fh" horiz-adv-x="864" 
d="M773 332l-54 -260q-6 -28 -4 -39.5t16 -11.5q22 0 59 46t63 102l10 -5q-29 -71 -70 -124.5t-87 -53.5q-56 0 -42 71l58 284q26 126 -59 126q-48 0 -101 -51.5t-88 -120.5q36 98 94 153.5t120 55.5q120 0 85 -172zM427 0h-53l115 725q-4 3 -17 20t-27.5 26t-36.5 9
q-62 0 -107 -57.5t-68 -201.5l-7 -42h182l-3 -20h-182l-73 -458q-12 -76 -39 -132t-62 -85t-70 -42t-71 -13q-45 0 -76 14.5t-31 36.5q0 32 29 32q16 0 26 -10t14.5 -22t18 -22t34.5 -10q62 0 107 57.5t68 201.5l72 452h-97l3 20h97l8 48q12 76 39 132t62 85t70 42t71 13
q45 0 80 -13t42 -32z" />
    <glyph glyph-name="f_k" unicode="fk" horiz-adv-x="810" 
d="M-92 -271q-45 0 -76 14.5t-31 36.5q0 32 29 32q16 0 26 -10t14.5 -22t18 -22t34.5 -10q62 0 107 57.5t68 201.5l72 452h-97l3 20h97l8 48q12 76 39 132t62 85t70 42t71 13q45 0 80 -13t42 -32l-75 -482q98 1 161 49.5t67 120.5q2 32 9 47t29 15q14 0 21.5 -10.5
t5.5 -26.5q-3 -64 -73 -129.5t-164 -70.5q59 -6 86.5 -39t38.5 -99q12 -68 32 -96.5t64 -28.5q26 0 59 12l1 -2q-40 -28 -84 -28q-52 0 -83.5 26.5t-42.5 99.5q-4 29 -7.5 46.5t-13 40.5t-22 35.5t-34.5 21.5t-52 8l-41 -264h-53l115 725q-4 3 -17 20t-27.5 26t-36.5 9
q-62 0 -107 -57.5t-68 -201.5l-7 -42h182l-3 -20h-182l-73 -458q-12 -76 -39 -132t-62 -85t-70 -42t-71 -13z" />
    <glyph glyph-name=".notdef" horiz-adv-x="697" 
d="M100 0v787h497v-787h-497zM112 777v-767h473v767h-473z" />
    <glyph glyph-name=".null" horiz-adv-x="0" 
 />
    <glyph glyph-name="nonmarkingreturn" horiz-adv-x="333" 
 />
    <glyph glyph-name="space" unicode=" " horiz-adv-x="216" 
 />
    <glyph glyph-name="exclam" unicode="!" horiz-adv-x="224" 
d="M141 787q18 12 43 12q26 0 42 -12q-25 -91 -50.5 -193t-57 -229.5t-47.5 -192.5h-5q5 40 35.5 267.5t39.5 347.5zM1 36q0 21 14.5 35.5t35.5 14.5t35.5 -14.5t14.5 -35.5t-14.5 -35.5t-35.5 -14.5t-35.5 14.5t-14.5 35.5z" />
    <glyph glyph-name="quotedbl" unicode="&#x22;" horiz-adv-x="321" 
d="M79 567l-3 220h73l-66 -220h-4zM205 567l-3 220h73l-66 -220h-4z" />
    <glyph glyph-name="numbersign" unicode="#" horiz-adv-x="837" 
d="M493 275l95 240h-221l-95 -240h221zM384 0l94 238h-221l-94 -238h-41l94 238h-173l20 37h168l95 240h-191l20 37h185l93 235h41l-93 -235h221l93 235h41l-93 -235h186l-20 -37h-180l-95 -240h203l-20 -37h-198l-94 -238h-41z" />
    <glyph glyph-name="dollar" unicode="$" horiz-adv-x="555" 
d="M149 586q0 -29 10 -53t30.5 -45t37 -33.5t45.5 -30.5l41 291q-72 -3 -118 -35t-46 -94zM296 345l-1 1l-48 -333q86 2 142 40.5t56 110.5q0 54 -35.5 92.5t-113.5 88.5zM232 -96h-34l12 84q-118 11 -192 77l18 143h9q6 -180 169 -194l50 353l-22 15q-68 44 -106 87
t-38 100q0 83 64 126t154 46l13 89h34l-13 -89q111 -6 177 -57l-19 -140h-8q-1 160 -153 170l-44 -310l24 -16q89 -59 130 -103.5t41 -102.5q0 -67 -40 -113.5t-94.5 -64.5t-117.5 -18h-2z" />
    <glyph glyph-name="percent" unicode="%" horiz-adv-x="825" 
d="M699 787l-522 -787h-44l520 787h46zM260 780q67 0 108 -43.5t41 -114.5q0 -79 -50.5 -141.5t-132.5 -62.5q-67 0 -107.5 43.5t-40.5 114.5q0 79 50 141.5t132 62.5zM259 749q-62 0 -99 -53.5t-37 -121.5q0 -55 29 -90t76 -35q62 0 99 53.5t37 121.5q0 55 -29 90t-76 35z
M608 348q67 0 108 -43.5t41 -114.5q0 -79 -50.5 -141.5t-132.5 -62.5q-67 0 -107.5 43.5t-40.5 114.5q0 79 50 141.5t132 62.5zM607 317q-62 0 -99 -53.5t-37 -121.5q0 -55 29 -90t76 -35q62 0 99 53.5t37 121.5q0 55 -29 90t-76 35z" />
    <glyph glyph-name="ampersand" unicode="&#x26;" horiz-adv-x="749" 
d="M344 491l15 -21q64 25 102.5 73t38.5 117q0 54 -29 87t-84 33q-51 0 -80.5 -30t-29.5 -89q0 -78 67 -170zM541 -86l-2 2q63 48 63 90q0 22 -17.5 54.5t-71.5 105.5l-6 8q-89 -188 -268 -188q-103 0 -157 58t-54 142q0 111 74.5 172t203.5 92q-221 -69 -221 -246
q0 -78 43.5 -130t124.5 -52q70 0 137.5 41t107.5 123l-180 248q-95 130 -95 214q0 70 48 110.5t120 40.5q69 0 110.5 -36.5t41.5 -97.5q0 -71 -52.5 -120t-131.5 -75l163 -225v1l15 49q56 183 192 183q23 0 41.5 -9t18.5 -27q0 -15 -10.5 -23t-25.5 -8q-19 0 -35 10t-34 10
q-31 0 -67 -34t-68 -118l-18 -47l24 -33q54 -75 72.5 -110t18.5 -61q0 -30 -28.5 -60.5t-76.5 -53.5z" />
    <glyph glyph-name="quotesingle" unicode="'" horiz-adv-x="196" 
d="M80 567l-3 220h73l-66 -220h-4z" />
    <glyph glyph-name="parenleft" unicode="(" horiz-adv-x="313" 
d="M73 157q0 184 73.5 353t204.5 277h44q-134 -108 -208.5 -276.5t-74.5 -349.5q0 -120 34 -234t102 -190h-44q-64 75 -97.5 187.5t-33.5 232.5z" />
    <glyph glyph-name="parenright" unicode=")" horiz-adv-x="317" 
d="M235 367q0 -184 -73.5 -353t-204.5 -277h-44q134 108 208.5 276.5t74.5 349.5q0 120 -34 234t-102 190h44q64 -75 97.5 -187.5t33.5 -232.5z" />
    <glyph glyph-name="asterisk" unicode="*" horiz-adv-x="369" 
d="M222 787l-17 -121l112 64l16 -35l-112 -63l98 -54l-25 -35l-98 58l-17 -118h-39l17 118l-106 -62l-16 35l110 58l-97 59l26 35l92 -60l17 121h39z" />
    <glyph glyph-name="plus" unicode="+" horiz-adv-x="560" 
d="M508 239h-215l-35 -222h-46l35 222h-213l7 37h212l34 212h46l-34 -212h216z" />
    <glyph glyph-name="comma" unicode="," horiz-adv-x="182" 
d="M62 35q0 22 14 36.5t37 14.5q24 0 36.5 -16t12.5 -42q0 -48 -44.5 -114t-108.5 -109l-2 3q49 45 75.5 96.5t26.5 80.5q-20 1 -33.5 15.5t-13.5 34.5z" />
    <glyph glyph-name="hyphen" unicode="-" horiz-adv-x="420" 
d="M63 235v41h294v-41h-294z" />
    <glyph glyph-name="period" unicode="." horiz-adv-x="160" 
d="M40 36q0 21 14.5 35.5t35.5 14.5t35.5 -14.5t14.5 -35.5t-14.5 -35.5t-35.5 -14.5t-35.5 14.5t-14.5 35.5z" />
    <glyph glyph-name="slash" unicode="/" horiz-adv-x="434" 
d="M526 832l-535 -865h-46l535 865h46z" />
    <glyph glyph-name="zero" unicode="0" horiz-adv-x="641" 
d="M52 261q0 86 19 168t57 153t103.5 114.5t149.5 43.5q104 0 159 -73t55 -201q0 -84 -19.5 -165.5t-57.5 -153.5t-104 -116.5t-150 -44.5q-103 0 -157.5 73t-54.5 202zM378 718q-62 0 -111.5 -34.5t-78.5 -86.5t-48 -118.5t-26 -123.5t-7 -109q0 -119 43 -178.5t117 -59.5
q61 0 110.5 34.5t79 86t49 117t27 123t7.5 108.5q0 121 -43.5 181t-118.5 60z" />
    <glyph glyph-name="one" unicode="1" horiz-adv-x="370" 
d="M292 741l-106 -692q-4 -20 10 -28.5t60 -8.5h5l-1 -12h-245l1 12h43q41 0 56 8t18 29l95 609q-94 -4 -150 3v3q157 10 206 77h8z" />
    <glyph glyph-name="two" unicode="2" horiz-adv-x="578" 
d="M-41 0l-3 6q34 29 106 87t113.5 92t98.5 89t88 98t54 97.5t23 106.5q0 62 -37 96t-101 34q-74 0 -123 -46.5t-64 -134.5h-4q11 102 66 158.5t149 56.5q84 0 128 -45t44 -111q0 -53 -18.5 -104.5t-63 -104.5t-77 -88.5t-104 -89t-97.5 -72t-102 -68.5q-17 -12 -25 -17h264
q59 0 86 2.5t51.5 16.5t36 39t25.5 75h11l-27 -173h-498z" />
    <glyph glyph-name="three" unicode="3" horiz-adv-x="548" 
d="M186 -14q-79 0 -138 36t-59 70q0 14 9 23t23 9q8 0 14 -2.5t10.5 -9t6.5 -10.5t6 -14.5t5 -13.5q28 -68 130 -68q95 0 150 55t55 148q0 72 -51.5 116t-135.5 44q-43 0 -82 -10l2 7q5 2 33.5 14t39.5 17t38 18t40 21.5t35 23.5t33 28.5t23.5 31t18 37t5.5 40.5
q0 49 -31.5 77t-87.5 28q-136 0 -190 -118l-4 1q25 74 81.5 114.5t135.5 40.5q72 0 113.5 -36.5t41.5 -87.5q0 -41 -19 -75.5t-53.5 -59.5t-68 -42t-77.5 -33q90 2 154.5 -45.5t64.5 -138.5q0 -104 -77 -170t-194 -66z" />
    <glyph glyph-name="four" unicode="4" horiz-adv-x="640" 
d="M574 220h-179l-26 -171q-3 -21 9.5 -29t54.5 -8l-2 -12h-211l2 12h19q41 0 56.5 8.5t18.5 28.5l26 171h-335l-3 7l465 533h8l-77 -500h15q34 0 52 1t38 5t29.5 11.5t20.5 22.5t18 35t16 52h11zM62 260h285l61 393z" />
    <glyph glyph-name="five" unicode="5" horiz-adv-x="587" 
d="M88 92q12 -38 48 -61.5t93 -23.5q101 0 158 69t57 165q0 81 -45.5 127t-118.5 46q-115 0 -193 -97l-4 2l134 401h240q46 0 70 9t38 40h7l-29 -96h-310l-90 -264q70 54 164 54q87 0 141.5 -56t54.5 -145q0 -123 -76.5 -199.5t-199.5 -76.5q-92 0 -155 45.5t-58 81.5
q5 29 35 29q12 0 20.5 -9.5t10.5 -15.5t8 -25z" />
    <glyph glyph-name="six" unicode="6" horiz-adv-x="593" 
d="M551 764l1 -4q-372 -109 -441 -444q32 76 89 123t136 47q71 0 123 -54t52 -155q0 -114 -74.5 -202.5t-195.5 -88.5q-100 0 -148.5 66t-48.5 172q0 205 141.5 349.5t365.5 190.5zM319 455q-91 0 -156.5 -80.5t-65.5 -183.5q0 -81 39 -131.5t111 -50.5q93 0 149.5 79.5
t56.5 185.5q0 80 -31.5 130.5t-102.5 50.5z" />
    <glyph glyph-name="seven" unicode="7" horiz-adv-x="516" 
d="M-32 -22l562 695h-329q-51 0 -73.5 -14t-35.5 -55h-7l17 116h473l3 -4l-567 -768z" />
    <glyph glyph-name="eight" unicode="8" horiz-adv-x="605" 
d="M39 173q0 148 228 206q-91 -32 -137.5 -83t-46.5 -132q0 -71 48.5 -113t127.5 -42q87 0 140 39t53 110q0 52 -32.5 94.5t-113.5 101.5l-54 39q-109 78 -109 177q0 83 61 126.5t142 43.5q84 0 132.5 -41.5t48.5 -98.5q0 -136 -199 -197q158 70 158 195q0 52 -41 86
t-100 34q-67 0 -109.5 -35t-42.5 -97q0 -49 26.5 -87t82.5 -79l44 -32q79 -57 118.5 -105t39.5 -106q0 -95 -71.5 -143t-174.5 -48q-95 0 -157 51.5t-62 135.5z" />
    <glyph glyph-name="nine" unicode="9" horiz-adv-x="593" 
d="M34 -39l-1 4q372 109 441 444q-32 -76 -89 -123t-136 -47q-71 0 -123 54t-52 155q0 114 74.5 202.5t195.5 88.5q100 0 148.5 -66t48.5 -172q0 -205 -141.5 -349.5t-365.5 -190.5zM266 270q91 0 156.5 80.5t65.5 183.5q0 81 -39 131.5t-111 50.5q-93 0 -149.5 -79.5
t-56.5 -185.5q0 -80 31.5 -130.5t102.5 -50.5z" />
    <glyph glyph-name="colon" unicode=":" horiz-adv-x="250" 
d="M130 454q0 21 14.5 35.5t35.5 14.5t35.5 -14.5t14.5 -35.5t-14.5 -35.5t-35.5 -14.5t-35.5 14.5t-14.5 35.5zM40 36q0 21 14.5 35.5t35.5 14.5t35.5 -14.5t14.5 -35.5t-14.5 -35.5t-35.5 -14.5t-35.5 14.5t-14.5 35.5z" />
    <glyph glyph-name="semicolon" unicode=";" horiz-adv-x="260" 
d="M140 454q0 21 14.5 35.5t35.5 14.5t35.5 -14.5t14.5 -35.5t-14.5 -35.5t-35.5 -14.5t-35.5 14.5t-14.5 35.5zM62 35q0 22 14 36.5t37 14.5q24 0 36.5 -16t12.5 -42q0 -48 -44.5 -114t-108.5 -109l-2 3q49 45 75.5 96.5t26.5 80.5q-20 1 -33.5 15.5t-13.5 34.5z" />
    <glyph glyph-name="less" unicode="&#x3c;" horiz-adv-x="581" 
d="M59 253l434 -205l-7 -44l-473 228l7 43l537 228l-7 -46z" />
    <glyph glyph-name="equal" unicode="=" horiz-adv-x="580" 
d="M73 328l7 37h454l-7 -37h-454zM45 148l7 37h454l-7 -37h-454z" />
    <glyph glyph-name="greater" unicode="&#x3e;" horiz-adv-x="581" 
d="M511 255l-434 205l7 43l473 -228l-7 -43l-537 -228l7 47z" />
    <glyph glyph-name="question" unicode="?" horiz-adv-x="397" 
d="M142 182l-2 -2q-32 24 -32 84q0 50 25.5 95.5t62 81.5l73 72t62 81.5t25.5 95.5q0 46 -27 69t-69 23q-32 0 -55.5 -12t-33.5 -26t-24 -26t-30 -12q-29 0 -29 27t53.5 46.5t117.5 19.5q66 0 108.5 -30t42.5 -88q0 -49 -29 -97.5t-70 -89t-82 -81.5t-70 -91.5t-29 -103.5
q0 -22 12 -36zM63 36q0 21 14.5 35.5t35.5 14.5t35.5 -14.5t14.5 -35.5t-14.5 -35.5t-35.5 -14.5t-35.5 14.5t-14.5 35.5z" />
    <glyph glyph-name="at" unicode="@" horiz-adv-x="913" 
d="M425 -36q-160 0 -259.5 96.5t-99.5 247.5q0 196 137.5 329.5t342.5 133.5q147 0 241 -73t94 -216q0 -56 -15 -115t-44 -112.5t-78.5 -88t-110.5 -34.5q-129 0 -100 142l5 26q-69 -146 -178 -146q-61 0 -94 43t-33 108q0 120 77.5 212.5t180.5 92.5q77 0 119 -38l36 36h7
l-50 -257q-2 -11 -6.5 -33t-6.5 -32.5t-5 -29t-3 -27.5t1 -22.5t6 -20t12 -13.5t18.5 -10t26.5 -3q65 0 112.5 54.5t68 125.5t20.5 140q0 128 -81 196.5t-230 68.5q-183 0 -310 -124.5t-127 -308.5q0 -143 91.5 -233.5t247.5 -90.5q60 0 112 13l4 -23q-56 -14 -129 -14z
M384 198q82 0 154 103l35 173q12 63 -13.5 90.5t-65.5 27.5q-71 0 -136.5 -83.5t-65.5 -198.5q0 -54 24.5 -83t67.5 -29z" />
    <glyph glyph-name="A" unicode="A" horiz-adv-x="717" 
d="M416 696l-198 -366h273zM158 16l-2 -16h-228l2 16q48 0 79.5 31t92.5 143l332 609h11l153 -719q7 -32 26 -48t63 -16l-2 -16h-225l2 16q48 0 67.5 13t12.5 49l-42 204h-308l-40 -73q-35 -65 -50.5 -102.5t-13 -58t18.5 -26.5t51 -6z" />
    <glyph glyph-name="B" unicode="B" horiz-adv-x="699" 
d="M143 787h215q173 0 232 -32q69 -38 69 -125q0 -88 -65 -144.5t-160 -67.5q96 -3 153.5 -52t57.5 -128q0 -65 -26 -112.5t-72 -74t-100.5 -39t-120.5 -12.5h-302l2 16q56 0 77.5 13t26.5 47l97 635q5 34 -12 47t-74 13zM292 760l-51 -338h88q53 0 97 10t83 31.5t61 62.5
t22 97q0 79 -54 111q-42 26 -180 26h-66zM254 27h67q259 0 259 212q0 162 -227 162h-115l-48 -307q-7 -44 5 -55.5t59 -11.5z" />
    <glyph glyph-name="C" unicode="C" horiz-adv-x="804" 
d="M430 -14q-168 0 -269 97.5t-101 257.5q0 123 51.5 226.5t152 167.5t229.5 64q195 0 306 -102l-21 -139h-11q1 49 -14.5 87t-41.5 61t-62.5 38t-74 20.5t-80.5 5.5q-111 0 -196.5 -60t-130 -157t-44.5 -212q0 -147 80.5 -236.5t225.5 -89.5q55 0 99 9t86.5 30.5t74.5 63.5
t50 103h9l-25 -146q-125 -89 -293 -89z" />
    <glyph glyph-name="D" unicode="D" horiz-adv-x="837" 
d="M142 787h211q197 0 295 -42q174 -75 174 -283q0 -209 -135.5 -335.5t-369.5 -126.5h-293l1 16q58 0 78 10.5t25 44.5l97 640q5 35 -12 47t-74 12zM291 760l-102 -666q-7 -44 5 -55.5t57 -11.5h66q205 0 322.5 115.5t117.5 317.5q0 188 -137 257q-86 43 -274 43h-55z" />
    <glyph glyph-name="E" unicode="E" 
d="M617 186l-27 -186h-566l2 16q57 0 77 11t25 44l100 645q5 33 -12 44t-76 11l2 16h532l-21 -179h-10q8 96 -24.5 124t-140.5 28h-187l-49 -323h164q55 0 76 16.5t41 85.5h10l-36 -240h-10q0 70 -17 90.5t-68 20.5h-165l-48 -316q-7 -44 5 -55.5t59 -11.5h163
q94 0 130.5 29.5t62.5 129.5h8z" />
    <glyph glyph-name="F" unicode="F" horiz-adv-x="634" 
d="M301 16l-2 -16h-275l2 16q56 0 77 11t26 44l98 645q5 33 -12 44t-74 11l2 16h551l-25 -170h-10q5 92 -25.5 117.5t-136.5 25.5h-205l-50 -323h174q55 0 76 16.5t41 85.5h10l-36 -240h-10q0 70 -17 90.5t-68 20.5h-174l-53 -339q-5 -33 17 -44t99 -11z" />
    <glyph glyph-name="G" unicode="G" horiz-adv-x="841" 
d="M429 -14q-169 0 -269 97t-100 258q0 123 51.5 226.5t152 167.5t229.5 64q195 0 306 -102l-21 -139h-11q1 49 -14.5 87t-41.5 61t-62.5 38t-74 20.5t-80.5 5.5q-111 0 -196.5 -60t-130 -157t-44.5 -212q0 -147 80.5 -236.5t225.5 -89.5q79 0 141.5 23t97.5 61l27 171
q4 24 -11.5 32t-62.5 8l2 16h218l-2 -16q-47 0 -64.5 -8t-21.5 -33l-27 -174q-44 -50 -121 -79.5t-176 -29.5z" />
    <glyph glyph-name="H" unicode="H" horiz-adv-x="915" 
d="M653 76l50 333h-465l-51 -333q-5 -34 12 -47t74 -13l-2 -16h-247l2 16q55 0 77 13.5t27 46.5l97 640q5 33 -12 44t-74 11l2 16h248l-2 -16q-58 0 -78.5 -11t-25.5 -44l-43 -276h466l42 276q5 33 -11.5 44t-74.5 11l2 16h248l-2 -16q-57 0 -78 -11t-26 -44l-97 -640
q-5 -33 12 -46.5t73 -13.5l-2 -16h-248l2 16q57 0 78.5 13t26.5 47z" />
    <glyph glyph-name="I" unicode="I" horiz-adv-x="390" 
d="M128 76l99 640q5 33 -12 44t-75 11l1 16h248l-2 -16q-57 0 -77.5 -11t-25.5 -44l-98 -640q-5 -33 12 -46.5t74 -13.5l-1 -16h-247l2 16q55 0 76 13t26 47z" />
    <glyph glyph-name="J" unicode="J" horiz-adv-x="445" 
d="M236 282l65 434q5 35 -13.5 45t-82.5 10l1 16h258l-2 -16q-59 0 -79 -10t-25 -45l-64 -434q-8 -54 -15 -90t-21.5 -78.5t-33.5 -68t-49.5 -42.5t-69.5 -17q-55 0 -87.5 21t-32.5 50q0 16 9 28t26 12q30 0 40 -46q6 -28 18 -38.5t34 -10.5q51 0 75 57t49 223z" />
    <glyph glyph-name="K" unicode="K" horiz-adv-x="756" 
d="M130 76l97 640q5 33 -12 44t-74 11l2 16h248l-2 -16q-58 0 -78.5 -11t-25.5 -44l-98 -640q-5 -34 12 -47t74 -13l-2 -16h-247l2 16q55 0 77 13.5t27 46.5zM239 407l289 249q84 72 89 92q4 15 -18 20q-16 3 -47 3l2 16h242l-2 -16q-49 0 -98 -27.5t-130 -96.5l-266 -226
l314 -368q13 -17 42 -27t60 -10l-1 -16h-245l2 16q76 0 76 22q-1 7 -9 17z" />
    <glyph glyph-name="L" unicode="L" horiz-adv-x="628" 
d="M391 787l-2 -16q-58 0 -78.5 -11t-25.5 -44l-97 -636q-5 -31 8.5 -42t44.5 -11h165q95 0 131 29.5t61 129.5h10l-28 -186h-556l2 16q56 0 77 11t26 44l98 645q5 33 -12 44t-74 11l2 16h248z" />
    <glyph glyph-name="M" unicode="M" horiz-adv-x="997" 
d="M885 687l-69 -616q-4 -33 12.5 -44t73.5 -11l-2 -16h-247l2 16q59 0 79.5 11t24.5 44l72 629l-392 -700h-4l-184 702l-113 -584q-12 -61 3.5 -81.5t83.5 -20.5l-2 -16h-248l2 16q62 0 86 20.5t36 82.5l112 568q9 46 -11 64.5t-71 18.5l3 17h154l173 -679l377 679h156
l-3 -17q-50 0 -74.5 -18.5t-29.5 -64.5z" />
    <glyph glyph-name="N" unicode="N" horiz-adv-x="911" 
d="M696 96l87 570q9 58 -7.5 81.5t-82.5 23.5l4 16h249l-3 -16q-61 0 -86.5 -24.5t-34.5 -80.5l-106 -691h-9l-442 733l-89 -587q-9 -58 7 -81.5t82 -23.5l-2 -16h-248l2 16q60 0 85.5 24.5t34.5 80.5l85 561q7 45 -18 66.5t-73 21.5l4 17h150z" />
    <glyph glyph-name="O" unicode="O" horiz-adv-x="917" 
d="M884 425q0 -195 -125 -317t-309 -122q-170 0 -272.5 105.5t-102.5 271.5q0 193 124 314.5t312 121.5q167 0 270 -106t103 -268zM448 15q169 0 270 117t101 306q0 148 -85.5 240t-221.5 92q-88 0 -160 -34t-118 -91.5t-71 -131t-25 -155.5q0 -92 28.5 -160t65.5 -101.5
t86 -53.5t77.5 -24t52.5 -4z" />
    <glyph glyph-name="P" unicode="P" horiz-adv-x="646" 
d="M291 760l-59 -387q54 -13 118 -13q118 0 190 60t72 172q0 87 -63 131q-55 37 -192 37h-66zM142 787h220q156 0 226 -39q88 -51 88 -159q0 -112 -80 -183.5t-197 -71.5q-103 0 -167 39l-44 -289q-7 -41 14.5 -54.5t90.5 -13.5l-2 -16h-267l2 16q57 0 77.5 12t25.5 48
l98 634q6 39 -10.5 50t-76.5 11z" />
    <glyph glyph-name="Q" unicode="Q" horiz-adv-x="917" 
d="M725 -181l-224 170q-25 -3 -51 -3q-170 0 -272.5 105.5t-102.5 271.5q0 193 124 314.5t312 121.5q167 0 270 -106t103 -268q0 -153 -79.5 -263.5t-209.5 -152.5l136 -185zM448 15q169 0 270 117t101 306q0 148 -85.5 240t-221.5 92q-88 0 -160 -34t-118 -91.5t-71 -131
t-25 -155.5q0 -92 28.5 -160t65.5 -101.5t86 -53.5t77.5 -24t52.5 -4z" />
    <glyph glyph-name="R" unicode="R" horiz-adv-x="742" 
d="M143 787h193q170 0 241 -35q88 -43 88 -142q0 -105 -70.5 -162.5t-186.5 -64.5q96 -3 134.5 -48t47.5 -150q8 -101 39 -146.5t113 -35.5v-2q-37 -15 -70 -15q-77 0 -105 47t-40 172q-4 39 -10 66t-20 45t-27.5 27.5t-41 14.5t-50.5 6t-67 1h-80l-42 -282
q-7 -42 14.5 -54.5t90.5 -12.5l-2 -16h-268l2 16q57 0 78 12.5t26 47.5l97 641q5 34 -11 44.5t-75 10.5zM292 760l-56 -373h68q295 0 295 214q0 94 -75 132q-55 27 -183 27h-49z" />
    <glyph glyph-name="S" unicode="S" horiz-adv-x="607" 
d="M52 225q1 -51 15.5 -89.5t36.5 -61t52.5 -36.5t58 -18.5t57.5 -4.5q92 0 151 36t59 112q0 62 -39 108.5t-119 101.5l-57 39q-71 49 -111.5 99.5t-40.5 114.5q0 58 36 98.5t87 57.5t110 17q67 0 135 -23t94 -49l-23 -151h-9q7 98 -50.5 146.5t-151.5 48.5
q-73 0 -122.5 -35t-49.5 -98q0 -57 35 -99t94 -81l60 -41q87 -59 133 -116t46 -119q0 -94 -78.5 -145t-190.5 -51q-140 0 -250 85l22 154h10z" />
    <glyph glyph-name="T" unicode="T" horiz-adv-x="685" 
d="M385 760h-122q-100 0 -139.5 -46t-59.5 -173h-10l37 246h654l-37 -246h-10q17 128 -7.5 173.5t-123.5 45.5h-124l-103 -674q-7 -44 12.5 -57t91.5 -13l-2 -16h-286l2 16q72 0 94.5 13t29.5 56z" />
    <glyph glyph-name="U" unicode="U" horiz-adv-x="815" 
d="M759 671l-47 -310q-21 -138 -53 -206q-81 -169 -289 -169q-66 0 -115 17t-76 42t-43.5 61.5t-21.5 69t-5 70.5q0 48 14 140l51 330q5 33 -11.5 44t-74.5 11l2 16h248l-2 -16q-57 0 -78 -11t-26 -44l-52 -338q-16 -103 -16 -134q0 -209 206 -209q52 0 93.5 10.5t70 25.5
t51 43.5t35 51t23 62.5t15 64.5t11.5 68.5l47 310q9 57 -6.5 78.5t-82.5 21.5l2 16h254l-2 -16q-61 0 -87.5 -22.5t-34.5 -77.5z" />
    <glyph glyph-name="V" unicode="V" horiz-adv-x="692" 
d="M622 606l-340 -629h-8l-155 730q-7 32 -26 48t-63 16l3 16h227l-3 -16q-48 0 -65.5 -12.5t-10.5 -49.5l123 -619l268 504q42 79 51.5 116t-5.5 49t-61 12l3 16h233l-3 -16q-49 0 -80.5 -30t-87.5 -135z" />
    <glyph glyph-name="W" unicode="W" horiz-adv-x="1021" 
d="M682 98l232 530q19 42 27 64t11.5 40.5t-5.5 25t-23.5 10t-43.5 3.5l3 16h238l-3 -16q-54 0 -87.5 -25t-68.5 -104l-302 -680l-134 591l-310 -591h-5l-91 745q-8 64 -93 64l3 16h234l-3 -16q-49 0 -67 -12t-14 -50l70 -612l303 591h2z" />
    <glyph glyph-name="X" unicode="X" horiz-adv-x="820" 
d="M199 16l-2 -16h-234l2 16q45 0 79 23.5t98 93.5l256 278l-184 290q-16 24 -25.5 36t-31.5 23t-51 11l2 16h228l-2 -16q-49 0 -65 -11.5t1 -40.5l167 -266l187 204q57 65 52 89.5t-62 24.5l2 16h237l-2 -16q-47 0 -84 -24.5t-100 -93.5l-211 -230l215 -343q40 -64 110 -64
l-2 -16h-245l2 16q38 0 59.5 7t25 18.5t-4.5 26.5l-199 313l-232 -253q-58 -66 -53.5 -86.5t67.5 -25.5z" />
    <glyph glyph-name="Y" unicode="Y" horiz-adv-x="689" 
d="M344 332l258 365q28 41 14 57.5t-76 16.5l2 16h233l-2 -16q-48 0 -70.5 -14.5t-56.5 -61.5l-285 -392l-33 -222q-7 -43 10 -54t87 -11v-16h-278l2 16q70 0 92 11.5t28 52.5l33 216l-161 416q-12 31 -29.5 45t-59.5 14l2 16h228l-2 -16q-48 0 -69.5 -12t-12.5 -37z" />
    <glyph glyph-name="Z" unicode="Z" 
d="M-37 0l660 760h-251q-124 0 -167.5 -28t-69.5 -133h-12l30 188h554l-657 -760h339q92 0 139.5 32t69.5 133h10l-28 -192h-617z" />
    <glyph glyph-name="bracketleft" unicode="[" horiz-adv-x="315" 
d="M28 -262l147 1049h192l-4 -32h-153l-139 -985h153l-4 -32h-192z" />
    <glyph glyph-name="backslash" unicode="\" horiz-adv-x="408" 
d="M354 -33l-325 820h40l325 -820h-40z" />
    <glyph glyph-name="bracketright" unicode="]" horiz-adv-x="315" 
d="M286 787l-147 -1049h-191l4 32h152l139 985h-153l4 32h192z" />
    <glyph glyph-name="asciicircum" unicode="^" horiz-adv-x="558" 
d="M276 818h47l144 -415h-53l-123 360l-209 -360h-51z" />
    <glyph glyph-name="underscore" unicode="_" horiz-adv-x="803" 
d="M68 -41l5 41h661l-5 -41h-661z" />
    <glyph glyph-name="grave" unicode="`" horiz-adv-x="231" 
d="M203 593l-160 194h80l85 -194h-5z" />
    <glyph glyph-name="a" unicode="a" horiz-adv-x="528" 
d="M372 -14q-55 0 -42 71l63 357q-4 28 -26 46.5t-54 18.5q-94 0 -160 -99t-66 -220q0 -137 87 -137q41 0 83 33.5t92 124.5q-67 -195 -194 -195q-66 0 -95.5 47t-29.5 114q0 141 90.5 249t199.5 108q60 0 83 -37l5 30h53l-76 -425q-6 -28 -4 -39.5t16 -11.5q22 0 59 46
t63 102l10 -5q-29 -71 -70 -124.5t-87 -53.5z" />
    <glyph glyph-name="b" unicode="b" horiz-adv-x="507" 
d="M340 504q73 0 105 -48.5t32 -115.5q0 -81 -38 -162.5t-105.5 -136.5t-142.5 -55q-159 0 -134 160l93 592q3 20 -9.5 28.5t-52.5 8.5h-13l2 12h132l-100 -648q-20 -128 88 -128q63 0 115.5 49.5t80 121.5t27.5 145q0 72 -27.5 106t-71.5 34q-50 0 -93 -32.5t-90 -126.5
q64 196 202 196z" />
    <glyph glyph-name="c" unicode="c" horiz-adv-x="391" 
d="M309 504q46 0 81.5 -20t35.5 -51q0 -16 -8 -25t-21 -9q-20 0 -28.5 12.5t-10 27.5t-15.5 27.5t-44 12.5q-62 0 -113 -59t-75 -130t-24 -126q0 -81 27.5 -111t74.5 -30q95 0 169 106l2 -1q-44 -80 -91 -111t-102 -31q-64 0 -100.5 39.5t-36.5 119.5q0 143 89 251t190 108z
" />
    <glyph glyph-name="d" unicode="d" horiz-adv-x="550" 
d="M394 -14q-52 0 -42 71l54 357q-23 65 -96 65q-63 0 -115.5 -49.5t-80 -121.5t-27.5 -145q0 -71 27 -105.5t69 -34.5q105 0 186 159q-36 -108 -90.5 -152t-111.5 -44q-73 0 -105 48.5t-32 115.5q0 139 92.5 246.5t193.5 107.5q67 0 98 -38l41 272q3 20 -9 28.5t-51 8.5
h-24l2 12h141l-108 -717q-5 -27 -2.5 -38t15.5 -11q22 0 59 46t63 102l10 -5q-29 -71 -70 -124.5t-87 -53.5z" />
    <glyph glyph-name="e" unicode="e" horiz-adv-x="408" 
d="M167 -14q-64 0 -100.5 39.5t-36.5 119.5q0 143 89 251t190 108q48 0 74.5 -19t26.5 -53q0 -39 -19.5 -69.5t-69 -56t-81.5 -37.5t-108 -37q-8 -3 -13 -4.5t-12.5 -4l-13.5 -4.5q-6 -30 -6 -55q0 -81 27.5 -111t74.5 -30q95 0 169 106l2 -1q-44 -80 -91 -111t-102 -31z
M292 479q-48 0 -90.5 -40.5t-67.5 -93.5t-38 -111q77 27 130 53.5t90 63.5t37 77q0 26 -17.5 38.5t-43.5 12.5z" />
    <glyph glyph-name="f" unicode="f" horiz-adv-x="356" 
d="M-92 -271q-46 0 -76.5 15.5t-30.5 39.5q0 11 7 19.5t21 8.5q17 0 27 -10t14.5 -22t18 -22t34.5 -10q62 0 107 57.5t68 201.5l72 452h-97l3 20h97l8 48q12 76 39 132t62 85t70 42t71 13q45 0 76 -15t31 -38q0 -30 -29 -30q-16 0 -26 10t-14.5 22t-18 22t-34.5 10
q-62 0 -107 -57.5t-68 -201.5l-7 -42h169l-3 -20h-169l-73 -458q-12 -76 -39 -132t-62 -85t-70 -42t-71 -13z" />
    <glyph glyph-name="g" unicode="g" horiz-adv-x="514" 
d="M272 485q-61 0 -102 -47.5t-41 -114.5q0 -66 35.5 -105t88.5 -39q61 0 102 47.5t41 114.5q0 66 -35.5 105t-88.5 39zM452 341q0 -83 -57 -132t-143 -49q-75 0 -127 43.5t-52 119.5q0 83 57 132t143 49q47 0 86 -18l195 3l-5 -42l-186 37q89 -43 89 -143zM184 168
q-92 -21 -92 -75q0 -46 84 -46h81q198 0 198 -114q0 -61 -43 -107.5t-105 -68.5t-128 -22q-98 0 -152 35t-54 89q0 59 52 92.5t122 45.5q-50 0 -79 22t-29 55q0 77 145 94zM147 -3q-124 -45 -124 -138q0 -49 41.5 -78t114.5 -29q50 0 99.5 15t87.5 52t38 88q0 44 -35.5 67
t-119.5 23h-102z" />
    <glyph glyph-name="h" unicode="h" horiz-adv-x="529" 
d="M83 787h132l-120 -787h-53l114 738q3 20 -9.5 28.5t-52.5 8.5h-13zM440 330l-54 -258q-6 -28 -4 -39.5t16 -11.5q22 0 59 46t63 102l10 -5q-29 -71 -70 -124.5t-87 -53.5q-56 0 -42 71l58 282q14 68 -3 97t-51 29q-54 0 -106 -50.5t-88 -121.5q36 98 94 153.5t120 55.5
q120 0 85 -172z" />
    <glyph glyph-name="i" unicode="i" horiz-adv-x="273" 
d="M151 715q0 19 13 32t30 13q19 0 32 -13t13 -32q0 -18 -13 -30.5t-32 -12.5q-17 0 -30 12.5t-13 30.5zM75 58l64 358q6 30 3 42.5t-17 12.5q-38 0 -92 -114l-10 5q27 65 56 103.5t70 38.5q31 0 40.5 -21.5t1.5 -69.5l-61 -339q-6 -30 -4 -41.5t16 -11.5q22 0 59 46t63 102
l10 -5q-29 -71 -70 -124.5t-87 -53.5q-55 0 -42 72z" />
    <glyph glyph-name="j" unicode="j" horiz-adv-x="263" 
d="M151 715q0 19 13 32t30 13q19 0 32 -13t13 -32q0 -18 -13 -30.5t-32 -12.5q-17 0 -30 12.5t-13 30.5zM192 413l-55 -335q-21 -128 -67 -208t-136 -141l-1 2q67 61 98 136.5t54 213.5l55 335q6 30 3 42.5t-17 12.5q-38 0 -92 -114l-10 5q27 65 56 103.5t70 38.5
q31 0 40.5 -21.5t1.5 -69.5z" />
    <glyph glyph-name="k" unicode="k" horiz-adv-x="480" 
d="M393 -14q-52 0 -83.5 26.5t-42.5 99.5q-4 29 -7.5 46.5t-13 40.5t-22 35.5t-35 21.5t-52.5 8l-40 -264h-53l114 738q3 20 -9.5 28.5t-52.5 8.5h-13l2 12h132l-79 -515q98 0 162 49t68 121q2 32 9 47t29 15q14 0 21.5 -10.5t5.5 -26.5q-3 -64 -73 -129.5t-164 -70.5
q59 -6 86.5 -39t38.5 -99q12 -68 32 -96.5t64 -28.5q26 0 59 12l1 -2q-40 -28 -84 -28z" />
    <glyph glyph-name="l" unicode="l" horiz-adv-x="253" 
d="M55 57l107 681q3 20 -9.5 28.5t-52.5 8.5h-13l2 12h132l-112 -717q-5 -27 -3 -38t16 -11q22 0 59 46t63 102l10 -5q-29 -71 -70 -124.5t-87 -53.5q-54 0 -42 71z" />
    <glyph glyph-name="m" unicode="m" horiz-adv-x="838" 
d="M682 -14q-56 0 -42 71l57 282q25 126 -58 126q-48 0 -98 -51t-85 -120l-53 -294h-53l61 339q22 126 -58 126q-48 0 -98 -51t-85 -120l-53 -294h-53l75 416q6 30 3 42.5t-17 12.5q-38 0 -92 -114l-10 5q27 65 56 103.5t70 38.5q31 0 40.5 -21.5t1.5 -69.5l-21 -117l-1 -3
l1 1v2q37 97 92 151.5t116 54.5q116 0 84 -172l-6 -35q37 98 91.5 152.5t116.5 54.5q119 0 84 -172l-53 -258q-6 -28 -4 -39.5t16 -11.5q22 0 59 46t63 102l10 -5q-29 -71 -70 -124.5t-87 -53.5z" />
    <glyph glyph-name="n" unicode="n" horiz-adv-x="558" 
d="M64 0l75 416q6 30 3 42.5t-17 12.5q-38 0 -92 -114l-10 5q27 65 56 103.5t70 38.5q31 0 40.5 -21.5t1.5 -69.5l-74 -413h-53zM469 330l-54 -258q-6 -28 -4 -39.5t16 -11.5q22 0 59 46t63 102l10 -5q-29 -71 -70 -124.5t-87 -53.5q-56 0 -42 71l58 282q14 68 -3 97t-51 29
q-54 0 -106 -50.5t-88 -121.5q36 98 94 153.5t120 55.5q120 0 85 -172z" />
    <glyph glyph-name="o" unicode="o" horiz-adv-x="467" 
d="M167 -14q-65 0 -103.5 39.5t-38.5 119.5q0 146 90.5 252.5t188.5 106.5q65 0 104 -39.5t39 -119.5q0 -73 -26.5 -141.5t-67.5 -115t-90.5 -74.5t-95.5 -28zM182 11q47 0 88 34t66 84.5t39.5 104t14.5 96.5q0 149 -101 149q-62 0 -111.5 -58t-72.5 -129.5t-23 -131.5
q0 -149 100 -149z" />
    <glyph glyph-name="p" unicode="p" horiz-adv-x="558" 
d="M248 11q63 0 115.5 49.5t80 121.5t27.5 145q0 72 -28 106t-76 34q-46 0 -89 -32.5t-89 -126.5l-37 -243q14 -25 40.5 -39.5t55.5 -14.5zM192 -250l-2 -12h-211l2 12q43 0 58.5 8t18.5 29l95 629q5 30 2.5 42.5t-16.5 12.5q-38 0 -92 -114l-10 5q27 65 56 103.5t70 38.5
q30 0 40 -21.5t2 -69.5l-16 -105q64 196 202 196q73 0 105 -48.5t32 -115.5q0 -81 -37.5 -163t-103 -136.5t-137.5 -54.5q-68 0 -105 33l-35 -232q-3 -20 9 -28.5t49 -8.5h24z" />
    <glyph glyph-name="q" unicode="q" horiz-adv-x="510" 
d="M227 -262l2 12h17q40 0 54.5 8.5t17.5 28.5l94 621v-2q-1 30 -30 51.5t-65 21.5q-63 0 -115.5 -49.5t-80 -121.5t-27.5 -145q0 -140 105 -140q95 0 173 127q-78 -164 -195 -164q-51 0 -84 26t-44.5 61t-11.5 77q0 139 92.5 246.5t193.5 107.5q32 0 59.5 -11t38.5 -28
l5 32h53l-109 -710q-3 -20 10.5 -28.5t56.5 -8.5l-2 -12h-208z" />
    <glyph glyph-name="r" unicode="r" horiz-adv-x="357" 
d="M117 0h-53l75 416q6 30 3 42.5t-17 12.5q-38 0 -92 -114l-10 5q27 65 56 103.5t70 38.5q31 0 40.5 -21.5t1.5 -69.5l-20 -110v-1v1q23 64 53 107t57.5 59.5t44.5 22t30 5.5q38 0 38 -25q0 -15 -12 -22.5t-21 -8t-26 -0.5q-100 0 -164 -139z" />
    <glyph glyph-name="s" unicode="s" horiz-adv-x="402" 
d="M176 5q43 0 78.5 23.5t35.5 66.5q0 67 -86 131l-44 34q-27 21 -42 35t-30.5 40t-15.5 54q0 55 47.5 85t108.5 30q56 0 102.5 -24t46.5 -49q0 -30 -28 -30q-16 0 -27 13t-17 28t-27 28t-56 13q-39 0 -70 -20t-31 -58q0 -22 13.5 -43.5t25.5 -32.5t37 -31l47 -36
q28 -22 44.5 -38t33.5 -45t17 -59q0 -65 -47 -99.5t-122 -34.5q-73 0 -116.5 27t-43.5 55q0 13 7.5 21.5t21.5 8.5q16 0 28 -14.5t20.5 -32t31.5 -32t57 -14.5z" />
    <glyph glyph-name="t" unicode="t" horiz-adv-x="328" 
d="M112 -14q-39 0 -47 29t4 80l62 364h-74l3 20h79l56 129h12l-21 -129h143l-3 -20h-144l-60 -363q-4 -27 -5.5 -40t0 -22t6.5 -11t15 -2q19 0 53 15.5t71 50.5l6 -7q-38 -48 -82 -71t-74 -23z" />
    <glyph glyph-name="u" unicode="u" horiz-adv-x="559" 
d="M403 -14q-55 0 -42 73l17 95q-30 -81 -84 -124.5t-111 -43.5q-126 0 -91 171l53 259q6 30 3.5 42.5t-17.5 12.5q-38 0 -92 -114l-10 5q27 65 56 103.5t70 38.5q61 0 41 -95l-50 -246q-29 -141 55 -141q51 0 98 34.5t79 97.5l58 325h53l-73 -405q-6 -30 -4 -41.5t16 -11.5
q22 0 59 46t63 102l10 -5q-29 -71 -70 -124.5t-87 -53.5z" />
    <glyph glyph-name="v" unicode="v" horiz-adv-x="462" 
d="M94 466q-44 0 -74 -116l-9 3q28 151 103 151q28 0 46.5 -20.5t27.5 -60t12 -79.5t3 -95q0 -123 -20 -230q98 51 159.5 135t61.5 193q0 33 -8.5 54.5t-19 29.5t-19 19t-8.5 25q0 29 36 29q27 0 46 -30.5t19 -72.5q0 -161 -103 -285q-88 -105 -212 -143l-2 1q18 87 18 243
q0 54 -2 92.5t-7.5 77.5t-17.5 59t-30 20z" />
    <glyph glyph-name="w" unicode="w" horiz-adv-x="732" 
d="M387 -27l-2 1q18 87 18 243q-20 -57 -61 -107q-83 -99 -207 -137l-2 1q18 87 18 243q0 54 -2 92.5t-7.5 77.5t-17.5 59t-30 20q-44 0 -74 -116l-9 3q28 151 103 151q28 0 46.5 -20.5t27.5 -60t12 -79.5t3 -95q0 -123 -20 -230q86 45 145 116.5t73 163.5q-8 110 -54 180
h73q35 -67 35 -230q0 -123 -20 -230q98 51 159.5 135t61.5 193q0 33 -8.5 54.5t-19 29.5t-19 19t-8.5 25q0 29 36 29q27 0 46 -30.5t19 -72.5q0 -161 -103 -285q-88 -105 -212 -143z" />
    <glyph glyph-name="x" unicode="x" horiz-adv-x="550" 
d="M423 -13q-23 0 -41 14t-36 55l-73 164l-122 -157q-59 -76 -103 -76q-30 0 -39 24.5t1 63t35 84.5l10 -5q-9 -19 -15.5 -41t-10.5 -44t2 -36.5t22 -14.5q20 0 39.5 19t55.5 65l113 145l-39 89q-6 13 -15 35.5t-15 36.5t-14 29t-17.5 22.5t-19.5 7.5q-24 0 -37.5 -35.5
t-12.5 -81.5h-11q-4 71 18 113t59 42q23 0 41 -14t36 -55l63 -143l106 136q59 76 103 76q30 0 39 -24.5t-1 -63t-35 -84.5l-10 5q9 19 15.5 41t10.5 44t-2 36.5t-22 14.5q-20 0 -39.5 -19t-55.5 -65l-97 -125l48 -109q6 -13 14.5 -35.5t15 -36.5t14.5 -29t17.5 -22.5
t20.5 -7.5q24 0 37.5 35.5t12.5 81.5h11q4 -71 -18 -113t-59 -42z" />
    <glyph glyph-name="y" unicode="y" horiz-adv-x="498" 
d="M-78 -273q-49 0 -79 18.5t-30 43.5q0 16 11 27t29 11q17 0 28 -11t16 -24t16 -24t27 -11q36 0 100.5 46.5t129.5 115.5q1 32 -1 147t-2 151q0 54 -2 92.5t-7.5 77.5t-17.5 59t-30 20q-42 0 -71 -101l-9 3q28 136 100 136q28 0 46.5 -20.5t27.5 -60t12 -79.5t3 -95
q0 -34 0.5 -98.5t1 -98t-0.5 -75.5q86 103 146.5 209t60.5 166q0 31 -8.5 51.5t-19 28t-19 18.5t-8.5 25q0 29 36 29q27 0 46 -30.5t19 -72.5q0 -76 -63.5 -197t-158.5 -235q-88 -105 -178.5 -173.5t-150.5 -68.5z" />
    <glyph glyph-name="z" unicode="z" horiz-adv-x="465" 
d="M482 470l-427 -428h233q41 0 63 17.5t45 70.5l13 30h4l-38 -160h-388l-4 9l427 429h-213q-41 0 -63 -18t-45 -71l-13 -30h-4l38 160h368z" />
    <glyph glyph-name="braceleft" unicode="{" horiz-adv-x="314" 
d="M30 263v4q69 9 108 63t39 128q0 22 -6.5 66.5t-6.5 68.5q0 93 52 143.5t149 50.5h19l-5 -32h-23q-73 0 -112 -41t-39 -118q0 -22 5 -67t5 -68q0 -142 -113 -196q64 -39 64 -119q0 -59 -38.5 -146t-38.5 -138q0 -46 23.5 -69.5t82.5 -23.5h27l-5 -32h-19q-81 0 -116 30
t-35 90q0 47 39.5 138.5t39.5 146.5q0 104 -96 121z" />
    <glyph glyph-name="bar" unicode="|" horiz-adv-x="293" 
d="M58 0l129 817h46l-129 -817h-46z" />
    <glyph glyph-name="braceright" unicode="}" horiz-adv-x="263" 
d="M251 261v-4q-69 -9 -108 -63t-39 -128q0 -22 6.5 -66.5t6.5 -68.5q0 -93 -52 -143.5t-149 -50.5h-19l5 32h27q71 0 109 41.5t38 117.5q0 22 -5 67t-5 68q0 142 113 196q-64 39 -64 119q0 59 38.5 146t38.5 138q0 47 -23.5 70t-82.5 23h-27l5 32h19q81 0 116 -30t35 -90
q0 -47 -39.5 -138.5t-39.5 -146.5q0 -104 96 -121z" />
    <glyph glyph-name="asciitilde" unicode="~" horiz-adv-x="685" 
d="M207 319q52 0 143 -49.5t133 -49.5q64 0 111 80l37 -16q-53 -108 -154 -108q-44 0 -95 24.5t-98.5 49t-82.5 24.5q-65 0 -112 -84l-37 18q55 111 155 111z" />
    <glyph glyph-name="uni00A0" unicode="&#xa0;" horiz-adv-x="216" 
 />
    <glyph glyph-name="exclamdown" unicode="&#xa1;" horiz-adv-x="224" 
d="M97 454q0 21 14.5 35.5t35.5 14.5t35.5 -14.5t14.5 -35.5t-14.5 -35.5t-35.5 -14.5t-35.5 14.5t-14.5 35.5zM57 -297q-18 -12 -43 -12q-26 0 -42 12q25 91 50.5 193t57 229.5t47.5 192.5h5q-5 -40 -35.5 -267.5t-39.5 -347.5z" />
    <glyph glyph-name="cent" unicode="&#xa2;" horiz-adv-x="437" 
d="M373 128q-63 -115 -147 -137l-15 -94h-35l14 89h-10q-64 0 -100.5 39.5t-36.5 119.5q0 125 69 224.5t160 126.5l16 103h35l-15 -96q5 1 14 1q46 0 81.5 -20t35.5 -51q0 -16 -8 -25t-21 -9q-20 0 -28.5 12.5t-10 27.5t-15.5 27.5t-44 12.5h-8l-72 -453q77 15 139 103z
M100 164q0 -79 26 -109t70 -32l72 448q-50 -19 -90 -77.5t-59 -120.5t-19 -109z" />
    <glyph glyph-name="sterling" unicode="&#xa3;" horiz-adv-x="606" 
d="M546 81q-51 -95 -117 -95q-30 0 -54 14t-53.5 27.5t-74.5 13.5q-53 0 -125 -26.5t-125 -21.5l2 13h27q50 0 93 77.5t61 204.5q2 11 7 76h-118l3 24h115q5 102 9 136q8 55 27 95.5t42 63t54 36t57 17.5t57 4q56 0 109 -20t53 -48q0 -27 -29 -27q-19 0 -32 12t-20.5 26
t-32 26t-64.5 12q-143 0 -165 -166q-5 -31 -6 -89.5t-2 -77.5h217l-3 -24h-216q0 -6 -2 -18q-18 -129 -60 -207t-108 -130q122 81 194 81q46 0 102.5 -30.5t84.5 -30.5q55 0 91 53z" />
    <glyph glyph-name="yen" unicode="&#xa5;" horiz-adv-x="675" 
d="M418 15l-2 -15h-264l2 15q66 0 86.5 10.5t25.5 47.5l12 86h-142l5 34h142l13 89h-142l4 34h130l-144 335q-12 29 -29 41.5t-57 12.5l2 15h219l-2 -15q-46 0 -66 -10.5t-11 -33.5l137 -336l229 313q26 35 11.5 51t-73.5 16l2 15h221l-2 -15q-45 0 -66 -13.5t-53 -55.5
l-242 -320h134l-4 -34h-142l-13 -89h142l-5 -34h-142l-12 -85q-5 -39 12 -49t84 -10z" />
    <glyph glyph-name="brokenbar" unicode="&#xa6;" horiz-adv-x="289" 
d="M135 369l59 418h39l-59 -418h-39zM47 -262l59 418h39l-59 -418h-39z" />
    <glyph glyph-name="section" unicode="&#xa7;" horiz-adv-x="458" 
d="M217 293l34 -10q47 5 83 41t36 85q0 77 -114 107l-6 2q-57 -5 -96.5 -34.5t-39.5 -84.5q0 -76 103 -106zM187 -14q-73 0 -127 27.5t-54 59.5q0 28 31 28q11 0 19 -5.5t11 -11t7.5 -17.5t6.5 -16q24 -46 110 -46q58 0 102 30.5t44 88.5q0 44 -28.5 69.5t-85.5 43.5l-42 13
q-56 18 -86.5 53t-30.5 78q0 69 55 102.5t130 34.5l-36 10q-55 15 -82.5 49.5t-27.5 79.5q0 69 51 105.5t128 36.5q68 0 112 -25.5t44 -54.5q0 -27 -25 -27q-7 0 -13 2t-10 7.5t-6.5 9t-6.5 12.5t-6 12q-23 45 -96 45q-53 0 -88 -26.5t-35 -80.5q0 -70 104 -103l41 -13
q124 -39 124 -123q0 -68 -47 -107.5t-123 -43.5l7 -2q130 -38 130 -135q0 -75 -59 -117.5t-142 -42.5z" />
    <glyph glyph-name="dieresis" unicode="&#xa8;" horiz-adv-x="458" 
d="M296 691q0 19 13 32t30 13q19 0 32 -13t13 -32q0 -18 -13 -30.5t-32 -12.5q-17 0 -30 12.5t-13 30.5zM83 691q0 19 13 32t30 13q19 0 32 -13t13 -32q0 -18 -13 -30.5t-32 -12.5q-17 0 -30 12.5t-13 30.5z" />
    <glyph glyph-name="copyright" unicode="&#xa9;" horiz-adv-x="917" 
d="M61 383q0 165 116.5 281.5t280.5 116.5q165 0 281.5 -116.5t116.5 -281.5q0 -164 -116.5 -280.5t-281.5 -116.5q-164 0 -280.5 116.5t-116.5 280.5zM97 383q0 -151 105.5 -258.5t255.5 -107.5q151 0 256 107.5t105 258.5q0 152 -105 259.5t-256 107.5
q-150 0 -255.5 -107.5t-105.5 -259.5zM652 281v-86q-70 -53 -186 -53q-127 0 -192.5 72t-65.5 177q0 115 71.5 183.5t186.5 68.5q101 0 182 -46v-87h-7q-25 58 -73.5 85.5t-102.5 27.5q-82 0 -141 -59t-59 -175q0 -109 59 -168t140 -59q135 0 181 119h7z" />
    <glyph glyph-name="ordfeminine" unicode="&#xaa;" horiz-adv-x="287" 
d="M263 592q-41 -122 -122 -122q-41 0 -59.5 29t-18.5 71q0 88 56.5 156t125.5 68q39 0 52 -24l3 20h33l-56 -311h-32l46 259q-2 17 -16.5 28.5t-33.5 11.5q-59 0 -100.5 -62t-41.5 -138q0 -85 54 -85q55 0 110 99z" />
    <glyph glyph-name="guillemotleft" unicode="&#xab;" horiz-adv-x="444" 
d="M204 34l-184 209l1 4l241 208h12l-179 -210l120 -211h-11zM362 34l-184 209l1 4l241 208h12l-179 -210l120 -211h-11z" />
    <glyph glyph-name="logicalnot" unicode="&#xac;" horiz-adv-x="610" 
d="M506 0h-46l35 224h-430l7 37h475z" />
    <glyph glyph-name="uni00AD" unicode="&#xad;" horiz-adv-x="420" 
d="M63 235v41h294v-41h-294z" />
    <glyph glyph-name="registered" unicode="&#xae;" horiz-adv-x="917" 
d="M61 383q0 165 116.5 281.5t280.5 116.5q165 0 281.5 -116.5t116.5 -281.5q0 -164 -116.5 -280.5t-281.5 -116.5q-164 0 -280.5 116.5t-116.5 280.5zM97 383q0 -151 105.5 -258.5t255.5 -107.5q151 0 256 107.5t105 258.5q0 152 -105 259.5t-256 107.5
q-150 0 -255.5 -107.5t-105.5 -259.5zM264 633h149q33 0 57.5 -2t50.5 -9t42 -19.5t26.5 -33.5t10.5 -51q0 -45 -33 -77.5t-89 -40.5q93 -19 119 -108q20 -72 38 -95t67 -21l1 -8q-22 -6 -50 -6q-49 0 -72 29.5t-40 94.5q-27 104 -145 104h-27v-173q0 -21 9 -28.5t33 -7.5
h20v-11h-167v11h20q20 0 28 7t8 25v377q0 18 -8 24.5t-28 6.5h-20v12zM369 615v-210h31q69 0 108 23t39 86q0 109 -145 102z" />
    <glyph glyph-name="macron" unicode="&#xaf;" horiz-adv-x="456" 
d="M59 658l5 32h314l-5 -32h-314z" />
    <glyph glyph-name="degree" unicode="&#xb0;" horiz-adv-x="372" 
d="M43 690q0 59 42 100.5t101 41.5t101 -41.5t42 -100.5t-42 -100.5t-101 -41.5t-101 41.5t-42 100.5zM89 690q0 -40 26.5 -71t70.5 -31q45 0 71 30t26 72q0 43 -27.5 72.5t-69.5 29.5q-39 0 -68 -29.5t-29 -72.5z" />
    <glyph glyph-name="plusminus" unicode="&#xb1;" horiz-adv-x="576" 
d="M528 267h-214l-26 -180h-46l26 180h-215l6 37h214l26 185h46l-26 -185h215zM16 0l6 37h475l-6 -37h-475z" />
    <glyph glyph-name="acute" unicode="&#xb4;" horiz-adv-x="231" 
d="M245 787l-191 -194h-5l116 194h80z" />
    <glyph glyph-name="mu" unicode="&#xb5;" horiz-adv-x="590" 
d="M174 480h46l-52 -321q-8 -55 22 -92.5t88 -37.5q42 0 83.5 29t69.5 78l55 344h46l-76 -480h-44l12 78q-29 -44 -70 -68t-84 -24q-36 0 -69 15t-50 47l-49 -310h-46z" />
    <glyph glyph-name="paragraph" unicode="&#xb6;" horiz-adv-x="582" 
d="M560 755h-85l-123 -872h-40l123 872h-78l-123 -872h-40l71 507q-88 0 -139.5 48.5t-51.5 129.5q0 117 104 176q75 43 215 43h171z" />
    <glyph glyph-name="periodcentered" unicode="&#xb7;" horiz-adv-x="250" 
d="M75 257q0 21 14.5 35.5t35.5 14.5t35.5 -14.5t14.5 -35.5t-14.5 -35.5t-35.5 -14.5t-35.5 14.5t-14.5 35.5z" />
    <glyph glyph-name="cedilla" unicode="&#xb8;" horiz-adv-x="302" 
d="M139 -4h30l-61 -74q30 20 60 20q73 0 73 -61q0 -40 -34.5 -69.5t-75.5 -42t-81 -14.5l-2 6q52 6 97 37.5t45 78.5q0 38 -46 38q-22 0 -43 -14l-22 19z" />
    <glyph glyph-name="ordmasculine" unicode="&#xba;" horiz-adv-x="270" 
d="M149 473q-39 0 -62.5 24t-23.5 72q0 88 55 153t114 65q40 0 63.5 -24t23.5 -72q0 -89 -55 -153.5t-115 -64.5zM158 488q55 0 90.5 66.5t35.5 126.5q0 91 -61 91q-55 0 -90 -66.5t-35 -127.5q0 -90 60 -90z" />
    <glyph glyph-name="guillemotright" unicode="&#xbb;" horiz-adv-x="444" 
d="M264 243l-242 -209h-10l179 211l-121 210h12l183 -208zM422 243l-242 -209h-10l179 211l-121 210h12l183 -208z" />
    <glyph glyph-name="questiondown" unicode="&#xbf;" horiz-adv-x="397" 
d="M206 454q0 21 14.5 35.5t35.5 14.5t35.5 -14.5t14.5 -35.5t-14.5 -35.5t-35.5 -14.5t-35.5 14.5t-14.5 35.5zM227 308l2 2q32 -24 32 -84q0 -50 -25.5 -95.5t-62 -81.5l-73 -72t-62 -81.5t-25.5 -95.5q0 -46 27 -69t69 -23q32 0 55.5 12t33.5 26t24 26t30 12q29 0 29 -27
q0 -31 -52.5 -48.5t-118.5 -17.5t-108.5 30t-42.5 88q0 49 29 97.5t70 89t82 81.5t70 91.5t29 103.5q0 22 -12 36z" />
    <glyph glyph-name="Agrave" unicode="&#xc0;" horiz-adv-x="717" 
d="M486 836l-169 109h93l81 -109h-5zM416 696l-198 -366h273zM158 16l-2 -16h-228l2 16q48 0 79.5 31t92.5 143l332 609h11l153 -719q7 -32 26 -48t63 -16l-2 -16h-225l2 16q48 0 67.5 13t12.5 49l-42 204h-308l-40 -73q-35 -65 -50.5 -102.5t-13 -58t18.5 -26.5t51 -6z" />
    <glyph glyph-name="Aacute" unicode="&#xc1;" horiz-adv-x="717" 
d="M541 945l-169 -109h-5l81 109h93zM416 696l-198 -366h273zM158 16l-2 -16h-228l2 16q48 0 79.5 31t92.5 143l332 609h11l153 -719q7 -32 26 -48t63 -16l-2 -16h-225l2 16q48 0 67.5 13t12.5 49l-42 204h-308l-40 -73q-35 -65 -50.5 -102.5t-13 -58t18.5 -26.5t51 -6z" />
    <glyph glyph-name="Acircumflex" unicode="&#xc2;" horiz-adv-x="717" 
d="M445 949l130 -112h-6l-134 57l-151 -57h-5l163 112h3zM416 696l-198 -366h273zM158 16l-2 -16h-228l2 16q48 0 79.5 31t92.5 143l332 609h11l153 -719q7 -32 26 -48t63 -16l-2 -16h-225l2 16q48 0 67.5 13t12.5 49l-42 204h-308l-40 -73q-35 -65 -50.5 -102.5t-13 -58
t18.5 -26.5t51 -6z" />
    <glyph glyph-name="Atilde" unicode="&#xc3;" horiz-adv-x="717" 
d="M562 929l35 47l5 -3l-35 -88h-248l-37 -46l-5 3l37 87h248zM416 696l-198 -366h273zM158 16l-2 -16h-228l2 16q48 0 79.5 31t92.5 143l332 609h11l153 -719q7 -32 26 -48t63 -16l-2 -16h-225l2 16q48 0 67.5 13t12.5 49l-42 204h-308l-40 -73q-35 -65 -50.5 -102.5
t-13 -58t18.5 -26.5t51 -6z" />
    <glyph glyph-name="Adieresis" unicode="&#xc4;" horiz-adv-x="717" 
d="M532 900q0 19 13 32t30 13q19 0 32 -13t13 -32q0 -18 -13 -30.5t-32 -12.5q-17 0 -30 12.5t-13 30.5zM289 900q0 19 13 32t30 13q19 0 32 -13t13 -32q0 -18 -13 -30.5t-32 -12.5q-17 0 -30 12.5t-13 30.5zM416 696l-198 -366h273zM158 16l-2 -16h-228l2 16q48 0 79.5 31
t92.5 143l332 609h11l153 -719q7 -32 26 -48t63 -16l-2 -16h-225l2 16q48 0 67.5 13t12.5 49l-42 204h-308l-40 -73q-35 -65 -50.5 -102.5t-13 -58t18.5 -26.5t51 -6z" />
    <glyph glyph-name="Aring" unicode="&#xc5;" horiz-adv-x="717" 
d="M520 894q0 31 -21 51.5t-50 20.5q-30 0 -50 -21t-20 -51t20 -51t50 -21q32 0 51.5 21t19.5 51zM416 696l-198 -366h273zM158 16l-2 -16h-228l2 16q48 0 79.5 31t92.5 143l331 607q-37 5 -61.5 32.5t-24.5 64.5q0 41 30 69.5t72 28.5t72 -28.5t30 -69.5t-30 -69.5
t-72 -28.5h-3l152 -716q7 -32 26 -48t63 -16l-2 -16h-225l2 16q48 0 67.5 13t12.5 49l-42 204h-308l-40 -73q-35 -65 -50.5 -102.5t-13 -58t18.5 -26.5t51 -6z" />
    <glyph glyph-name="AE" unicode="&#xc6;" horiz-adv-x="1156" 
d="M687 690l-340 -360h289zM165 16l-3 -16h-244l3 16q51 0 96.5 31t151.5 143l564 597h423l-20 -179h-10q6 96 -28.5 124t-146.5 28h-194l-46 -323h171q58 0 79.5 16.5t41.5 85.5h10l-34 -240h-10q-1 70 -19.5 90.5t-71.5 20.5h-170l-45 -316q-6 -44 6.5 -55.5t60.5 -11.5
h170q98 0 135 29.5t62 129.5h10l-26 -186h-589l2 16q59 0 80 11t26 44l30 211h-328l-69 -73q-127 -133 -130 -168q-1 -17 22 -22q14 -3 40 -3z" />
    <glyph glyph-name="Ccedilla" unicode="&#xc7;" horiz-adv-x="804" 
d="M513 -119q0 -40 -34.5 -69.5t-75.5 -42t-81 -14.5l-2 6q52 6 97 37.5t45 78.5q0 38 -46 38q-22 0 -43 -14l-22 19l53 67q-157 7 -250.5 103.5t-93.5 250.5q0 123 51.5 226.5t152 167.5t229.5 64q195 0 306 -102l-21 -139h-11q1 49 -14.5 87t-41.5 61t-62.5 38t-74 20.5
t-80.5 5.5q-111 0 -196.5 -60t-130 -157t-44.5 -212q0 -147 80.5 -236.5t225.5 -89.5q55 0 99 9t86.5 30.5t74.5 63.5t50 103h9l-25 -146q-125 -89 -290 -89l-53 -64q30 20 60 20q73 0 73 -61zM430 -14h3l8 10h-30l-7 -9q8 -1 26 -1z" />
    <glyph glyph-name="Egrave" unicode="&#xc8;" 
d="M486 836l-169 109h93l81 -109h-5zM617 186l-27 -186h-566l2 16q57 0 77 11t25 44l100 645q5 33 -12 44t-76 11l2 16h532l-21 -179h-10q8 96 -24.5 124t-140.5 28h-187l-49 -323h164q55 0 76 16.5t41 85.5h10l-36 -240h-10q0 70 -17 90.5t-68 20.5h-165l-48 -316
q-7 -44 5 -55.5t59 -11.5h163q94 0 130.5 29.5t62.5 129.5h8z" />
    <glyph glyph-name="Eacute" unicode="&#xc9;" 
d="M551 945l-169 -109h-5l81 109h93zM617 186l-27 -186h-566l2 16q57 0 77 11t25 44l100 645q5 33 -12 44t-76 11l2 16h532l-21 -179h-10q8 96 -24.5 124t-140.5 28h-187l-49 -323h164q55 0 76 16.5t41 85.5h10l-36 -240h-10q0 70 -17 90.5t-68 20.5h-165l-48 -316
q-7 -44 5 -55.5t59 -11.5h163q94 0 130.5 29.5t62.5 129.5h8z" />
    <glyph glyph-name="Ecircumflex" unicode="&#xca;" 
d="M449 949l130 -112h-6l-134 57l-151 -57h-5l163 112h3zM617 186l-27 -186h-566l2 16q57 0 77 11t25 44l100 645q5 33 -12 44t-76 11l2 16h532l-21 -179h-10q8 96 -24.5 124t-140.5 28h-187l-49 -323h164q55 0 76 16.5t41 85.5h10l-36 -240h-10q0 70 -17 90.5t-68 20.5
h-165l-48 -316q-7 -44 5 -55.5t59 -11.5h163q94 0 130.5 29.5t62.5 129.5h8z" />
    <glyph glyph-name="Edieresis" unicode="&#xcb;" 
d="M521 900q0 19 13 32t30 13q19 0 32 -13t13 -32q0 -18 -13 -30.5t-32 -12.5q-17 0 -30 12.5t-13 30.5zM278 900q0 19 13 32t30 13q19 0 32 -13t13 -32q0 -18 -13 -30.5t-32 -12.5q-17 0 -30 12.5t-13 30.5zM617 186l-27 -186h-566l2 16q57 0 77 11t25 44l100 645
q5 33 -12 44t-76 11l2 16h532l-21 -179h-10q8 96 -24.5 124t-140.5 28h-187l-49 -323h164q55 0 76 16.5t41 85.5h10l-36 -240h-10q0 70 -17 90.5t-68 20.5h-165l-48 -316q-7 -44 5 -55.5t59 -11.5h163q94 0 130.5 29.5t62.5 129.5h8z" />
    <glyph glyph-name="Igrave" unicode="&#xcc;" horiz-adv-x="390" 
d="M327 836l-169 109h93l81 -109h-5zM128 76l99 640q5 33 -12 44t-75 11l1 16h248l-2 -16q-57 0 -77.5 -11t-25.5 -44l-98 -640q-5 -33 12 -46.5t74 -13.5l-1 -16h-247l2 16q55 0 76 13t26 47z" />
    <glyph glyph-name="Iacute" unicode="&#xcd;" horiz-adv-x="390" 
d="M364 945l-169 -109h-5l81 109h93zM128 76l99 640q5 33 -12 44t-75 11l1 16h248l-2 -16q-57 0 -77.5 -11t-25.5 -44l-98 -640q-5 -33 12 -46.5t74 -13.5l-1 -16h-247l2 16q55 0 76 13t26 47z" />
    <glyph glyph-name="Icircumflex" unicode="&#xce;" horiz-adv-x="390" 
d="M272 949l130 -112h-6l-134 57l-151 -57h-5l163 112h3zM128 76l99 640q5 33 -12 44t-75 11l1 16h248l-2 -16q-57 0 -77.5 -11t-25.5 -44l-98 -640q-5 -33 12 -46.5t74 -13.5l-1 -16h-247l2 16q55 0 76 13t26 47z" />
    <glyph glyph-name="Idieresis" unicode="&#xcf;" horiz-adv-x="390" 
d="M124 900q0 19 13 32t30 13q19 0 32 -13t13 -32q0 -18 -13 -30.5t-32 -12.5q-17 0 -30 12.5t-13 30.5zM326 900q0 19 13 32t30 13q19 0 32 -13t13 -32q0 -18 -13 -30.5t-32 -12.5q-17 0 -30 12.5t-13 30.5zM128 76l99 640q5 33 -12 44t-75 11l1 16h248l-2 -16
q-57 0 -77.5 -11t-25.5 -44l-98 -640q-5 -33 12 -46.5t74 -13.5l-1 -16h-247l2 16q55 0 76 13t26 47z" />
    <glyph glyph-name="Eth" unicode="&#xd0;" horiz-adv-x="837" 
d="M317 0h-293l1 16q58 0 78 10.5t25 44.5l51 338h-90l4 31h91l41 271q5 35 -12 47t-74 12l3 17h211q197 0 295 -42q174 -75 174 -283q0 -209 -135.5 -335.5t-369.5 -126.5zM251 27h66q205 0 322.5 115.5t117.5 317.5q0 188 -137 257q-86 43 -274 43h-55l-49 -320h200
l-4 -31h-201l-48 -315q-7 -44 5 -55.5t57 -11.5z" />
    <glyph glyph-name="Ntilde" unicode="&#xd1;" horiz-adv-x="901" 
d="M665 929l35 47l5 -3l-35 -88h-248l-37 -46l-5 3l37 87h248zM691 96l87 570q9 58 -7.5 81.5t-82.5 23.5l4 16h249l-3 -16q-61 0 -86.5 -24.5t-34.5 -80.5l-106 -691h-9l-442 733l-89 -587q-9 -58 7 -81.5t82 -23.5l-2 -16h-248l2 16q60 0 85.5 24.5t34.5 80.5l85 561
q7 45 -18 66.5t-73 21.5l4 17h150z" />
    <glyph glyph-name="Ograve" unicode="&#xd2;" horiz-adv-x="917" 
d="M533 836l-169 109h93l81 -109h-5zM884 425q0 -195 -125 -317t-309 -122q-170 0 -272.5 105.5t-102.5 271.5q0 193 124 314.5t312 121.5q167 0 270 -106t103 -268zM448 15q169 0 270 117t101 306q0 148 -85.5 240t-221.5 92q-88 0 -160 -34t-118 -91.5t-71 -131
t-25 -155.5q0 -92 28.5 -160t65.5 -101.5t86 -53.5t77.5 -24t52.5 -4z" />
    <glyph glyph-name="Oacute" unicode="&#xd3;" horiz-adv-x="917" 
d="M629 945l-169 -109h-5l81 109h93zM884 425q0 -195 -125 -317t-309 -122q-170 0 -272.5 105.5t-102.5 271.5q0 193 124 314.5t312 121.5q167 0 270 -106t103 -268zM448 15q169 0 270 117t101 306q0 148 -85.5 240t-221.5 92q-88 0 -160 -34t-118 -91.5t-71 -131
t-25 -155.5q0 -92 28.5 -160t65.5 -101.5t86 -53.5t77.5 -24t52.5 -4z" />
    <glyph glyph-name="Ocircumflex" unicode="&#xd4;" horiz-adv-x="917" 
d="M524 949l130 -112h-6l-134 57l-151 -57h-5l163 112h3zM884 425q0 -195 -125 -317t-309 -122q-170 0 -272.5 105.5t-102.5 271.5q0 193 124 314.5t312 121.5q167 0 270 -106t103 -268zM448 15q169 0 270 117t101 306q0 148 -85.5 240t-221.5 92q-88 0 -160 -34t-118 -91.5
t-71 -131t-25 -155.5q0 -92 28.5 -160t65.5 -101.5t86 -53.5t77.5 -24t52.5 -4z" />
    <glyph glyph-name="Otilde" unicode="&#xd5;" horiz-adv-x="917" 
d="M643 929l35 47l5 -3l-35 -88h-248l-37 -46l-5 3l37 87h248zM884 425q0 -195 -125 -317t-309 -122q-170 0 -272.5 105.5t-102.5 271.5q0 193 124 314.5t312 121.5q167 0 270 -106t103 -268zM448 15q169 0 270 117t101 306q0 148 -85.5 240t-221.5 92q-88 0 -160 -34
t-118 -91.5t-71 -131t-25 -155.5q0 -92 28.5 -160t65.5 -101.5t86 -53.5t77.5 -24t52.5 -4z" />
    <glyph glyph-name="Odieresis" unicode="&#xd6;" horiz-adv-x="917" 
d="M601 900q0 19 13 32t30 13q19 0 32 -13t13 -32q0 -18 -13 -30.5t-32 -12.5q-17 0 -30 12.5t-13 30.5zM358 900q0 19 13 32t30 13q19 0 32 -13t13 -32q0 -18 -13 -30.5t-32 -12.5q-17 0 -30 12.5t-13 30.5zM884 425q0 -195 -125 -317t-309 -122q-170 0 -272.5 105.5
t-102.5 271.5q0 193 124 314.5t312 121.5q167 0 270 -106t103 -268zM448 15q169 0 270 117t101 306q0 148 -85.5 240t-221.5 92q-88 0 -160 -34t-118 -91.5t-71 -131t-25 -155.5q0 -92 28.5 -160t65.5 -101.5t86 -53.5t77.5 -24t52.5 -4z" />
    <glyph glyph-name="multiply" unicode="&#xd7;" horiz-adv-x="558" 
d="M426 39l-151 180l-210 -181l-26 32l209 181l-157 187l33 29l158 -187l216 187l27 -31l-217 -188l153 -181z" />
    <glyph glyph-name="Oslash" unicode="&#xd8;" horiz-adv-x="916" 
d="M138 358q0 -154 77 -243l482 596q-78 59 -185 59q-88 0 -160 -34t-118 -91.5t-71 -131t-25 -155.5zM448 15q169 0 270 117t101 306q0 152 -90 245l-485 -597q85 -71 204 -71zM450 -14q-136 0 -231 70l-65 -81l-32 25l66 82q-113 105 -113 281q0 193 124 314.5t312 121.5
q120 0 211 -58l59 73l32 -27l-57 -71q61 -51 94.5 -126.5t33.5 -164.5q0 -195 -125 -317t-309 -122z" />
    <glyph glyph-name="Ugrave" unicode="&#xd9;" horiz-adv-x="815" 
d="M518 836l-169 109h93l81 -109h-5zM759 671l-47 -310q-21 -138 -53 -206q-81 -169 -289 -169q-66 0 -115 17t-76 42t-43.5 61.5t-21.5 69t-5 70.5q0 48 14 140l51 330q5 33 -11.5 44t-74.5 11l2 16h248l-2 -16q-57 0 -78 -11t-26 -44l-52 -338q-16 -103 -16 -134
q0 -209 206 -209q52 0 93.5 10.5t70 25.5t51 43.5t35 51t23 62.5t15 64.5t11.5 68.5l47 310q9 57 -6.5 78.5t-82.5 21.5l2 16h254l-2 -16q-61 0 -87.5 -22.5t-34.5 -77.5z" />
    <glyph glyph-name="Uacute" unicode="&#xda;" horiz-adv-x="815" 
d="M601 945l-169 -109h-5l81 109h93zM759 671l-47 -310q-21 -138 -53 -206q-81 -169 -289 -169q-66 0 -115 17t-76 42t-43.5 61.5t-21.5 69t-5 70.5q0 48 14 140l51 330q5 33 -11.5 44t-74.5 11l2 16h248l-2 -16q-57 0 -78 -11t-26 -44l-52 -338q-16 -103 -16 -134
q0 -209 206 -209q52 0 93.5 10.5t70 25.5t51 43.5t35 51t23 62.5t15 64.5t11.5 68.5l47 310q9 57 -6.5 78.5t-82.5 21.5l2 16h254l-2 -16q-61 0 -87.5 -22.5t-34.5 -77.5z" />
    <glyph glyph-name="Ucircumflex" unicode="&#xdb;" horiz-adv-x="815" 
d="M488 949l130 -112h-6l-134 57l-151 -57h-5l163 112h3zM759 671l-47 -310q-21 -138 -53 -206q-81 -169 -289 -169q-66 0 -115 17t-76 42t-43.5 61.5t-21.5 69t-5 70.5q0 48 14 140l51 330q5 33 -11.5 44t-74.5 11l2 16h248l-2 -16q-57 0 -78 -11t-26 -44l-52 -338
q-16 -103 -16 -134q0 -209 206 -209q52 0 93.5 10.5t70 25.5t51 43.5t35 51t23 62.5t15 64.5t11.5 68.5l47 310q9 57 -6.5 78.5t-82.5 21.5l2 16h254l-2 -16q-61 0 -87.5 -22.5t-34.5 -77.5z" />
    <glyph glyph-name="Udieresis" unicode="&#xdc;" horiz-adv-x="815" 
d="M582 900q0 19 13 32t30 13q19 0 32 -13t13 -32q0 -18 -13 -30.5t-32 -12.5q-17 0 -30 12.5t-13 30.5zM339 900q0 19 13 32t30 13q19 0 32 -13t13 -32q0 -18 -13 -30.5t-32 -12.5q-17 0 -30 12.5t-13 30.5zM759 671l-47 -310q-21 -138 -53 -206q-81 -169 -289 -169
q-66 0 -115 17t-76 42t-43.5 61.5t-21.5 69t-5 70.5q0 48 14 140l51 330q5 33 -11.5 44t-74.5 11l2 16h248l-2 -16q-57 0 -78 -11t-26 -44l-52 -338q-16 -103 -16 -134q0 -209 206 -209q52 0 93.5 10.5t70 25.5t51 43.5t35 51t23 62.5t15 64.5t11.5 68.5l47 310
q9 57 -6.5 78.5t-82.5 21.5l2 16h254l-2 -16q-61 0 -87.5 -22.5t-34.5 -77.5z" />
    <glyph glyph-name="Yacute" unicode="&#xdd;" horiz-adv-x="689" 
d="M532 945l-169 -109h-5l81 109h93zM344 332l258 365q28 41 14 57.5t-76 16.5l2 16h233l-2 -16q-48 0 -70.5 -14.5t-56.5 -61.5l-285 -392l-33 -222q-7 -43 10 -54t87 -11v-16h-278l2 16q70 0 92 11.5t28 52.5l33 216l-161 416q-12 31 -29.5 45t-59.5 14l2 16h228l-2 -16
q-48 0 -69.5 -12t-12.5 -37z" />
    <glyph glyph-name="Thorn" unicode="&#xde;" horiz-adv-x="652" 
d="M252 612l-54 -387q54 -13 122 -13q116 0 188 58.5t72 169.5q0 91 -67 135q-59 37 -201 37h-60zM118 787h157l-19 -148h61q164 0 236 -39q94 -50 94 -162q0 -109 -79.5 -180.5t-203.5 -71.5q-99 0 -166 39l-20 -141q-6 -42 16 -55t94 -13l-2 -16h-278l2 16q59 0 80.5 12
t26.5 48l90 640q4 35 -13 45t-78 10z" />
    <glyph glyph-name="germandbls" unicode="&#xdf;" horiz-adv-x="567" 
d="M58 7l61 434l-70 18l2 10h72l13 98q15 110 66 171t157 61q66 0 109 -27t43 -76q0 -35 -21.5 -61.5t-52.5 -43t-62 -32t-52.5 -37.5t-21.5 -51q0 -54 100 -124l37 -26q109 -74 109 -159q0 -82 -58 -129t-145 -47q-72 0 -121.5 26.5t-49.5 58.5q0 12 8.5 21t23.5 9
q10 0 18 -5.5t11 -10.5t8.5 -18t6.5 -16q24 -46 99 -46q67 0 106.5 35t39.5 104q0 80 -80 132l-51 34q-105 69 -105 137q0 66 99 117q52 27 77 56t25 76q0 40 -30.5 62t-76.5 22q-73 0 -109.5 -45t-51.5 -153l-82 -582q-11 -77 -37.5 -132.5t-62 -84t-70.5 -41.5t-71 -13
q-46 0 -76.5 15.5t-30.5 39.5q0 11 7 19.5t21 8.5q17 0 27 -10t14.5 -22t18 -22t34.5 -10q139 0 175 259z" />
    <glyph glyph-name="agrave" unicode="&#xe0;" horiz-adv-x="528" 
d="M341 593l-160 194h80l85 -194h-5zM372 -14q-55 0 -42 71l63 357q-4 28 -26 46.5t-54 18.5q-94 0 -160 -99t-66 -220q0 -137 87 -137q41 0 83 33.5t92 124.5q-67 -195 -194 -195q-66 0 -95.5 47t-29.5 114q0 141 90.5 249t199.5 108q60 0 83 -37l5 30h53l-76 -425
q-6 -28 -4 -39.5t16 -11.5q22 0 59 46t63 102l10 -5q-29 -71 -70 -124.5t-87 -53.5z" />
    <glyph glyph-name="aacute" unicode="&#xe1;" horiz-adv-x="528" 
d="M475 787l-191 -194h-5l116 194h80zM372 -14q-55 0 -42 71l63 357q-4 28 -26 46.5t-54 18.5q-94 0 -160 -99t-66 -220q0 -137 87 -137q41 0 83 33.5t92 124.5q-67 -195 -194 -195q-66 0 -95.5 47t-29.5 114q0 141 90.5 249t199.5 108q60 0 83 -37l5 30h53l-76 -425
q-6 -28 -4 -39.5t16 -11.5q22 0 59 46t63 102l10 -5q-29 -71 -70 -124.5t-87 -53.5z" />
    <glyph glyph-name="acircumflex" unicode="&#xe2;" horiz-adv-x="528" 
d="M349 800l126 -204h-6l-130 131l-185 -131h-5l197 204h3zM372 -14q-55 0 -42 71l63 357q-4 28 -26 46.5t-54 18.5q-94 0 -160 -99t-66 -220q0 -137 87 -137q41 0 83 33.5t92 124.5q-67 -195 -194 -195q-66 0 -95.5 47t-29.5 114q0 141 90.5 249t199.5 108q60 0 83 -37
l5 30h53l-76 -425q-6 -28 -4 -39.5t16 -11.5q22 0 59 46t63 102l10 -5q-29 -71 -70 -124.5t-87 -53.5z" />
    <glyph glyph-name="atilde" unicode="&#xe3;" horiz-adv-x="528" 
d="M466 708l35 47l5 -3l-35 -88h-248l-37 -46l-5 3l37 87h248zM372 -14q-55 0 -42 71l63 357q-4 28 -26 46.5t-54 18.5q-94 0 -160 -99t-66 -220q0 -137 87 -137q41 0 83 33.5t92 124.5q-67 -195 -194 -195q-66 0 -95.5 47t-29.5 114q0 141 90.5 249t199.5 108q60 0 83 -37
l5 30h53l-76 -425q-6 -28 -4 -39.5t16 -11.5q22 0 59 46t63 102l10 -5q-29 -71 -70 -124.5t-87 -53.5z" />
    <glyph glyph-name="adieresis" unicode="&#xe4;" horiz-adv-x="528" 
d="M408 691q0 19 13 32t30 13q19 0 32 -13t13 -32q0 -18 -13 -30.5t-32 -12.5q-17 0 -30 12.5t-13 30.5zM195 691q0 19 13 32t30 13q19 0 32 -13t13 -32q0 -18 -13 -30.5t-32 -12.5q-17 0 -30 12.5t-13 30.5zM372 -14q-55 0 -42 71l63 357q-4 28 -26 46.5t-54 18.5
q-94 0 -160 -99t-66 -220q0 -137 87 -137q41 0 83 33.5t92 124.5q-67 -195 -194 -195q-66 0 -95.5 47t-29.5 114q0 141 90.5 249t199.5 108q60 0 83 -37l5 30h53l-76 -425q-6 -28 -4 -39.5t16 -11.5q22 0 59 46t63 102l10 -5q-29 -71 -70 -124.5t-87 -53.5z" />
    <glyph glyph-name="aring" unicode="&#xe5;" horiz-adv-x="528" 
d="M456 673q0 -41 -30 -69.5t-72 -28.5t-72 28.5t-30 69.5t30 69.5t72 28.5t72 -28.5t30 -69.5zM425 673q0 31 -21 51.5t-50 20.5q-30 0 -50 -21t-20 -51t20 -51t50 -21q32 0 51.5 21t19.5 51zM372 -14q-55 0 -42 71l63 357q-4 28 -26 46.5t-54 18.5q-94 0 -160 -99
t-66 -220q0 -137 87 -137q41 0 83 33.5t92 124.5q-67 -195 -194 -195q-66 0 -95.5 47t-29.5 114q0 141 90.5 249t199.5 108q60 0 83 -37l5 30h53l-76 -425q-6 -28 -4 -39.5t16 -11.5q22 0 59 46t63 102l10 -5q-29 -71 -70 -124.5t-87 -53.5z" />
    <glyph glyph-name="ae" unicode="&#xe6;" horiz-adv-x="729" 
d="M488 -14q-64 0 -100.5 39.5t-36.5 119.5q0 42 10 90l32 179q-4 28 -26 46.5t-54 18.5q-94 0 -160 -98t-66 -218q0 -72 24 -106t63 -34q41 0 83 33.5t92 124.5q-67 -195 -194 -195q-66 0 -95.5 48t-29.5 116q0 140 90.5 247t199.5 107q60 0 83 -37l5 30h53l-17 -96
q40 48 89 75.5t97 27.5t74.5 -19t26.5 -53q0 -39 -19.5 -69.5t-69 -56t-81.5 -37.5t-108 -37q-8 -3 -13 -4.5t-12.5 -4l-13.5 -4.5q-6 -30 -6 -55q0 -81 27.5 -111t74.5 -30q95 0 169 106l2 -1q-44 -80 -91 -111t-102 -31zM613 479q-48 0 -90.5 -40.5t-67.5 -93.5t-38 -111
q77 27 130 53.5t90 63.5t37 77q0 26 -17.5 38.5t-43.5 12.5z" />
    <glyph glyph-name="ccedilla" unicode="&#xe7;" horiz-adv-x="391" 
d="M235 -119q0 -40 -34.5 -69.5t-75.5 -42t-81 -14.5l-2 6q52 6 97 37.5t45 78.5q0 38 -46 38q-22 0 -43 -14l-22 19l55 70q-98 23 -98 155q0 143 89 251t190 108q46 0 81.5 -20t35.5 -51q0 -16 -8 -25t-21 -9q-20 0 -28.5 12.5t-10 27.5t-15.5 27.5t-44 12.5
q-62 0 -113 -59t-75 -130t-24 -126q0 -81 27.5 -111t74.5 -30q95 0 169 106l2 -1q-44 -80 -91 -111t-102 -31h-12l-53 -64q30 20 60 20q73 0 73 -61z" />
    <glyph glyph-name="egrave" unicode="&#xe8;" horiz-adv-x="408" 
d="M327 593l-160 194h80l85 -194h-5zM167 -14q-64 0 -100.5 39.5t-36.5 119.5q0 143 89 251t190 108q48 0 74.5 -19t26.5 -53q0 -39 -19.5 -69.5t-69 -56t-81.5 -37.5t-108 -37q-8 -3 -13 -4.5t-12.5 -4l-13.5 -4.5q-6 -30 -6 -55q0 -81 27.5 -111t74.5 -30q95 0 169 106
l2 -1q-44 -80 -91 -111t-102 -31zM292 479q-48 0 -90.5 -40.5t-67.5 -93.5t-38 -111q77 27 130 53.5t90 63.5t37 77q0 26 -17.5 38.5t-43.5 12.5z" />
    <glyph glyph-name="eacute" unicode="&#xe9;" horiz-adv-x="408" 
d="M443 787l-191 -194h-5l116 194h80zM167 -14q-64 0 -100.5 39.5t-36.5 119.5q0 143 89 251t190 108q48 0 74.5 -19t26.5 -53q0 -39 -19.5 -69.5t-69 -56t-81.5 -37.5t-108 -37q-8 -3 -13 -4.5t-12.5 -4l-13.5 -4.5q-6 -30 -6 -55q0 -81 27.5 -111t74.5 -30q95 0 169 106
l2 -1q-44 -80 -91 -111t-102 -31zM292 479q-48 0 -90.5 -40.5t-67.5 -93.5t-38 -111q77 27 130 53.5t90 63.5t37 77q0 26 -17.5 38.5t-43.5 12.5z" />
    <glyph glyph-name="ecircumflex" unicode="&#xea;" horiz-adv-x="408" 
d="M336 800l126 -204h-6l-130 131l-185 -131h-5l197 204h3zM167 -14q-64 0 -100.5 39.5t-36.5 119.5q0 143 89 251t190 108q48 0 74.5 -19t26.5 -53q0 -39 -19.5 -69.5t-69 -56t-81.5 -37.5t-108 -37q-8 -3 -13 -4.5t-12.5 -4l-13.5 -4.5q-6 -30 -6 -55q0 -81 27.5 -111
t74.5 -30q95 0 169 106l2 -1q-44 -80 -91 -111t-102 -31zM292 479q-48 0 -90.5 -40.5t-67.5 -93.5t-38 -111q77 27 130 53.5t90 63.5t37 77q0 26 -17.5 38.5t-43.5 12.5z" />
    <glyph glyph-name="edieresis" unicode="&#xeb;" horiz-adv-x="408" 
d="M373 691q0 19 13 32t30 13q19 0 32 -13t13 -32q0 -18 -13 -30.5t-32 -12.5q-17 0 -30 12.5t-13 30.5zM160 691q0 19 13 32t30 13q19 0 32 -13t13 -32q0 -18 -13 -30.5t-32 -12.5q-17 0 -30 12.5t-13 30.5zM167 -14q-64 0 -100.5 39.5t-36.5 119.5q0 143 89 251t190 108
q48 0 74.5 -19t26.5 -53q0 -39 -19.5 -69.5t-69 -56t-81.5 -37.5t-108 -37q-8 -3 -13 -4.5t-12.5 -4l-13.5 -4.5q-6 -30 -6 -55q0 -81 27.5 -111t74.5 -30q95 0 169 106l2 -1q-44 -80 -91 -111t-102 -31zM292 479q-48 0 -90.5 -40.5t-67.5 -93.5t-38 -111q77 27 130 53.5
t90 63.5t37 77q0 26 -17.5 38.5t-43.5 12.5z" />
    <glyph glyph-name="igrave" unicode="&#xec;" horiz-adv-x="273" 
d="M213 593l-160 194h80l85 -194h-5zM75 58l64 358q6 30 3 42.5t-17 12.5q-38 0 -92 -114l-10 5q27 65 56 103.5t70 38.5q31 0 40.5 -21.5t1.5 -69.5l-61 -339q-6 -30 -4 -41.5t16 -11.5q22 0 59 46t63 102l10 -5q-29 -71 -70 -124.5t-87 -53.5q-55 0 -42 72z" />
    <glyph glyph-name="iacute" unicode="&#xed;" horiz-adv-x="273" 
d="M275 787l-191 -194h-5l116 194h80zM75 58l64 358q6 30 3 42.5t-17 12.5q-38 0 -92 -114l-10 5q27 65 56 103.5t70 38.5q31 0 40.5 -21.5t1.5 -69.5l-61 -339q-6 -30 -4 -41.5t16 -11.5q22 0 59 46t63 102l10 -5q-29 -71 -70 -124.5t-87 -53.5q-55 0 -42 72z" />
    <glyph glyph-name="icircumflex" unicode="&#xee;" horiz-adv-x="273" 
d="M184 800l102 -214h-6l-106 131l-149 -131h-5l161 214h3zM75 58l64 358q6 30 3 42.5t-17 12.5q-38 0 -92 -114l-10 5q27 65 56 103.5t70 38.5q31 0 40.5 -21.5t1.5 -69.5l-61 -339q-6 -30 -4 -41.5t16 -11.5q22 0 59 46t63 102l10 -5q-29 -71 -70 -124.5t-87 -53.5
q-55 0 -42 72z" />
    <glyph glyph-name="idieresis" unicode="&#xef;" horiz-adv-x="273" 
d="M53 691q0 19 13 32t30 13q19 0 32 -13t13 -32q0 -18 -13 -30.5t-32 -12.5q-17 0 -30 12.5t-13 30.5zM216 691q0 19 13 32t30 13q19 0 32 -13t13 -32q0 -18 -13 -30.5t-32 -12.5q-17 0 -30 12.5t-13 30.5zM75 58l64 358q6 30 3 42.5t-17 12.5q-38 0 -92 -114l-10 5
q27 65 56 103.5t70 38.5q31 0 40.5 -21.5t1.5 -69.5l-61 -339q-6 -30 -4 -41.5t16 -11.5q22 0 59 46t63 102l10 -5q-29 -71 -70 -124.5t-87 -53.5q-55 0 -42 72z" />
    <glyph glyph-name="eth" unicode="&#xf0;" horiz-adv-x="587" 
d="M421 808l21 -20l-97 -103q86 -56 132 -145.5t46 -202.5q0 -62 -14 -121t-43.5 -112t-83.5 -85.5t-125 -32.5q-98 0 -156.5 65.5t-58.5 165.5q0 109 64 189t174 80q80 0 127 -47.5t58 -122.5q14 220 -143 346l-113 -120l-21 21l111 117q-64 47 -166 80l1 4
q101 -18 184 -64zM291 455q-94 0 -143 -72.5t-49 -174.5q0 -86 39.5 -142.5t115.5 -56.5q91 0 146.5 77.5t55.5 175.5q0 82 -43 137.5t-122 55.5z" />
    <glyph glyph-name="ntilde" unicode="&#xf1;" horiz-adv-x="558" 
d="M470 708l35 47l5 -3l-35 -88h-248l-37 -46l-5 3l37 87h248zM64 0l75 416q6 30 3 42.5t-17 12.5q-38 0 -92 -114l-10 5q27 65 56 103.5t70 38.5q31 0 40.5 -21.5t1.5 -69.5l-74 -413h-53zM469 330l-54 -258q-6 -28 -4 -39.5t16 -11.5q22 0 59 46t63 102l10 -5
q-29 -71 -70 -124.5t-87 -53.5q-56 0 -42 71l58 282q14 68 -3 97t-51 29q-54 0 -106 -50.5t-88 -121.5q36 98 94 153.5t120 55.5q120 0 85 -172z" />
    <glyph glyph-name="ograve" unicode="&#xf2;" horiz-adv-x="467" 
d="M335 593l-160 194h80l85 -194h-5zM167 -14q-65 0 -103.5 39.5t-38.5 119.5q0 146 90.5 252.5t188.5 106.5q65 0 104 -39.5t39 -119.5q0 -73 -26.5 -141.5t-67.5 -115t-90.5 -74.5t-95.5 -28zM182 11q47 0 88 34t66 84.5t39.5 104t14.5 96.5q0 149 -101 149
q-62 0 -111.5 -58t-72.5 -129.5t-23 -131.5q0 -149 100 -149z" />
    <glyph glyph-name="oacute" unicode="&#xf3;" horiz-adv-x="467" 
d="M437 787l-191 -194h-5l116 194h80zM167 -14q-65 0 -103.5 39.5t-38.5 119.5q0 146 90.5 252.5t188.5 106.5q65 0 104 -39.5t39 -119.5q0 -73 -26.5 -141.5t-67.5 -115t-90.5 -74.5t-95.5 -28zM182 11q47 0 88 34t66 84.5t39.5 104t14.5 96.5q0 149 -101 149
q-62 0 -111.5 -58t-72.5 -129.5t-23 -131.5q0 -149 100 -149z" />
    <glyph glyph-name="ocircumflex" unicode="&#xf4;" horiz-adv-x="467" 
d="M336 800l126 -204h-6l-130 131l-185 -131h-5l197 204h3zM167 -14q-65 0 -103.5 39.5t-38.5 119.5q0 146 90.5 252.5t188.5 106.5q65 0 104 -39.5t39 -119.5q0 -73 -26.5 -141.5t-67.5 -115t-90.5 -74.5t-95.5 -28zM182 11q47 0 88 34t66 84.5t39.5 104t14.5 96.5
q0 149 -101 149q-62 0 -111.5 -58t-72.5 -129.5t-23 -131.5q0 -149 100 -149z" />
    <glyph glyph-name="otilde" unicode="&#xf5;" horiz-adv-x="467" 
d="M460 708l35 47l5 -3l-35 -88h-248l-37 -46l-5 3l37 87h248zM167 -14q-65 0 -103.5 39.5t-38.5 119.5q0 146 90.5 252.5t188.5 106.5q65 0 104 -39.5t39 -119.5q0 -73 -26.5 -141.5t-67.5 -115t-90.5 -74.5t-95.5 -28zM182 11q47 0 88 34t66 84.5t39.5 104t14.5 96.5
q0 149 -101 149q-62 0 -111.5 -58t-72.5 -129.5t-23 -131.5q0 -149 100 -149z" />
    <glyph glyph-name="odieresis" unicode="&#xf6;" horiz-adv-x="467" 
d="M379 691q0 19 13 32t30 13q19 0 32 -13t13 -32q0 -18 -13 -30.5t-32 -12.5q-17 0 -30 12.5t-13 30.5zM166 691q0 19 13 32t30 13q19 0 32 -13t13 -32q0 -18 -13 -30.5t-32 -12.5q-17 0 -30 12.5t-13 30.5zM167 -14q-65 0 -103.5 39.5t-38.5 119.5q0 146 90.5 252.5
t188.5 106.5q65 0 104 -39.5t39 -119.5q0 -73 -26.5 -141.5t-67.5 -115t-90.5 -74.5t-95.5 -28zM182 11q47 0 88 34t66 84.5t39.5 104t14.5 96.5q0 149 -101 149q-62 0 -111.5 -58t-72.5 -129.5t-23 -131.5q0 -149 100 -149z" />
    <glyph glyph-name="divide" unicode="&#xf7;" horiz-adv-x="576" 
d="M269 412q0 21 14.5 35.5t35.5 14.5t35.5 -14.5t14.5 -35.5t-14.5 -35.5t-35.5 -14.5t-35.5 14.5t-14.5 35.5zM57 236l7 37h454l-7 -37h-454zM198 100q0 21 14.5 35.5t35.5 14.5t35.5 -14.5t14.5 -35.5t-14.5 -35.5t-35.5 -14.5t-35.5 14.5t-14.5 35.5z" />
    <glyph glyph-name="oslash" unicode="&#xf8;" horiz-adv-x="467" 
d="M82 160q0 -60 18 -98l246 399q-24 18 -57 18q-62 0 -111.5 -58t-72.5 -129.5t-23 -131.5zM182 11q47 0 88 34t66 84.5t39.5 104t14.5 96.5q0 67 -21 104l-247 -402q24 -21 60 -21zM167 -14q-37 0 -66 13l-36 -59l-29 19l36 58q-47 42 -47 128q0 146 90.5 252.5
t188.5 106.5q33 0 61 -11l39 63l29 -18l-38 -62q52 -41 52 -131q0 -73 -26.5 -141.5t-67.5 -115t-90.5 -74.5t-95.5 -28z" />
    <glyph glyph-name="ugrave" unicode="&#xf9;" horiz-adv-x="559" 
d="M346 593l-160 194h80l85 -194h-5zM403 -14q-55 0 -42 73l17 95q-30 -81 -84 -124.5t-111 -43.5q-126 0 -91 171l53 259q6 30 3.5 42.5t-17.5 12.5q-38 0 -92 -114l-10 5q27 65 56 103.5t70 38.5q61 0 41 -95l-50 -246q-29 -141 55 -141q51 0 98 34.5t79 97.5l58 325h53
l-73 -405q-6 -30 -4 -41.5t16 -11.5q22 0 59 46t63 102l10 -5q-29 -71 -70 -124.5t-87 -53.5z" />
    <glyph glyph-name="uacute" unicode="&#xfa;" horiz-adv-x="559" 
d="M499 787l-191 -194h-5l116 194h80zM403 -14q-55 0 -42 73l17 95q-30 -81 -84 -124.5t-111 -43.5q-126 0 -91 171l53 259q6 30 3.5 42.5t-17.5 12.5q-38 0 -92 -114l-10 5q27 65 56 103.5t70 38.5q61 0 41 -95l-50 -246q-29 -141 55 -141q51 0 98 34.5t79 97.5l58 325h53
l-73 -405q-6 -30 -4 -41.5t16 -11.5q22 0 59 46t63 102l10 -5q-29 -71 -70 -124.5t-87 -53.5z" />
    <glyph glyph-name="ucircumflex" unicode="&#xfb;" horiz-adv-x="559" 
d="M364 800l126 -204h-6l-130 131l-185 -131h-5l197 204h3zM403 -14q-55 0 -42 73l17 95q-30 -81 -84 -124.5t-111 -43.5q-126 0 -91 171l53 259q6 30 3.5 42.5t-17.5 12.5q-38 0 -92 -114l-10 5q27 65 56 103.5t70 38.5q61 0 41 -95l-50 -246q-29 -141 55 -141
q51 0 98 34.5t79 97.5l58 325h53l-73 -405q-6 -30 -4 -41.5t16 -11.5q22 0 59 46t63 102l10 -5q-29 -71 -70 -124.5t-87 -53.5z" />
    <glyph glyph-name="udieresis" unicode="&#xfc;" horiz-adv-x="559" 
d="M403 691q0 19 13 32t30 13q19 0 32 -13t13 -32q0 -18 -13 -30.5t-32 -12.5q-17 0 -30 12.5t-13 30.5zM190 691q0 19 13 32t30 13q19 0 32 -13t13 -32q0 -18 -13 -30.5t-32 -12.5q-17 0 -30 12.5t-13 30.5zM403 -14q-55 0 -42 73l17 95q-30 -81 -84 -124.5t-111 -43.5
q-126 0 -91 171l53 259q6 30 3.5 42.5t-17.5 12.5q-38 0 -92 -114l-10 5q27 65 56 103.5t70 38.5q61 0 41 -95l-50 -246q-29 -141 55 -141q51 0 98 34.5t79 97.5l58 325h53l-73 -405q-6 -30 -4 -41.5t16 -11.5q22 0 59 46t63 102l10 -5q-29 -71 -70 -124.5t-87 -53.5z" />
    <glyph glyph-name="yacute" unicode="&#xfd;" horiz-adv-x="498" 
d="M442 787l-191 -194h-5l116 194h80zM-78 -273q-49 0 -79 18.5t-30 43.5q0 16 11 27t29 11q17 0 28 -11t16 -24t16 -24t27 -11q36 0 100.5 46.5t129.5 115.5q1 32 -1 147t-2 151q0 54 -2 92.5t-7.5 77.5t-17.5 59t-30 20q-42 0 -71 -101l-9 3q28 136 100 136
q28 0 46.5 -20.5t27.5 -60t12 -79.5t3 -95q0 -34 0.5 -98.5t1 -98t-0.5 -75.5q86 103 146.5 209t60.5 166q0 31 -8.5 51.5t-19 28t-19 18.5t-8.5 25q0 29 36 29q27 0 46 -30.5t19 -72.5q0 -76 -63.5 -197t-158.5 -235q-88 -105 -178.5 -173.5t-150.5 -68.5z" />
    <glyph glyph-name="thorn" unicode="&#xfe;" horiz-adv-x="571" 
d="M248 11q63 0 115.5 49.5t80 121.5t27.5 145q0 72 -27.5 106t-71.5 34q-50 0 -93 -32t-89 -125l-38 -245q14 -26 40.5 -40t55.5 -14zM175 -262h-196l2 12q43 0 58.5 8t18.5 29l146 951q3 20 -10.5 28.5t-56.5 8.5l2 12h124l-73 -475q64 192 201 192q73 0 105 -48.5
t32 -115.5q0 -138 -91 -246t-187 -108q-68 0 -105 33l-35 -232q-3 -20 10.5 -28.5t56.5 -8.5z" />
    <glyph glyph-name="ydieresis" unicode="&#xff;" horiz-adv-x="498" 
d="M360 691q0 19 13 32t30 13q19 0 32 -13t13 -32q0 -18 -13 -30.5t-32 -12.5q-17 0 -30 12.5t-13 30.5zM147 691q0 19 13 32t30 13q19 0 32 -13t13 -32q0 -18 -13 -30.5t-32 -12.5q-17 0 -30 12.5t-13 30.5zM-78 -273q-49 0 -79 18.5t-30 43.5q0 16 11 27t29 11
q17 0 28 -11t16 -24t16 -24t27 -11q36 0 100.5 46.5t129.5 115.5q1 32 -1 147t-2 151q0 54 -2 92.5t-7.5 77.5t-17.5 59t-30 20q-42 0 -71 -101l-9 3q28 136 100 136q28 0 46.5 -20.5t27.5 -60t12 -79.5t3 -95q0 -34 0.5 -98.5t1 -98t-0.5 -75.5q86 103 146.5 209t60.5 166
q0 31 -8.5 51.5t-19 28t-19 18.5t-8.5 25q0 29 36 29q27 0 46 -30.5t19 -72.5q0 -76 -63.5 -197t-158.5 -235q-88 -105 -178.5 -173.5t-150.5 -68.5z" />
    <glyph glyph-name="Amacron" unicode="&#x100;" horiz-adv-x="717" 
d="M288 853l5 32h314l-5 -32h-314zM416 696l-198 -366h273zM158 16l-2 -16h-228l2 16q48 0 79.5 31t92.5 143l332 609h11l153 -719q7 -32 26 -48t63 -16l-2 -16h-225l2 16q48 0 67.5 13t12.5 49l-42 204h-308l-40 -73q-35 -65 -50.5 -102.5t-13 -58t18.5 -26.5t51 -6z" />
    <glyph glyph-name="amacron" unicode="&#x101;" horiz-adv-x="528" 
d="M182 658l5 32h314l-5 -32h-314zM372 -14q-55 0 -42 71l63 357q-4 28 -26 46.5t-54 18.5q-94 0 -160 -99t-66 -220q0 -137 87 -137q41 0 83 33.5t92 124.5q-67 -195 -194 -195q-66 0 -95.5 47t-29.5 114q0 141 90.5 249t199.5 108q60 0 83 -37l5 30h53l-76 -425
q-6 -28 -4 -39.5t16 -11.5q22 0 59 46t63 102l10 -5q-29 -71 -70 -124.5t-87 -53.5z" />
    <glyph glyph-name="Abreve" unicode="&#x102;" horiz-adv-x="717" 
d="M435 813q-52 0 -90 29t-32 93h31q-10 -95 91 -95q102 0 121 95h31q-14 -65 -57.5 -93.5t-94.5 -28.5zM416 696l-198 -366h273zM158 16l-2 -16h-228l2 16q48 0 79.5 31t92.5 143l332 609h11l153 -719q7 -32 26 -48t63 -16l-2 -16h-225l2 16q48 0 67.5 13t12.5 49l-42 204
h-308l-40 -73q-35 -65 -50.5 -102.5t-13 -58t18.5 -26.5t51 -6z" />
    <glyph glyph-name="abreve" unicode="&#x103;" horiz-adv-x="528" 
d="M500 749q-10 -48 -31.5 -81.5t-48.5 -49.5t-50.5 -22.5t-46.5 -6.5q-27 0 -50.5 6.5t-46.5 22.5t-34 49.5t-6 81.5h31q-8 -60 18.5 -96t90.5 -36q57 0 94.5 36.5t48.5 95.5h31zM372 -14q-55 0 -42 71l63 357q-4 28 -26 46.5t-54 18.5q-94 0 -160 -99t-66 -220
q0 -137 87 -137q41 0 83 33.5t92 124.5q-67 -195 -194 -195q-66 0 -95.5 47t-29.5 114q0 141 90.5 249t199.5 108q60 0 83 -37l5 30h53l-76 -425q-6 -28 -4 -39.5t16 -11.5q22 0 59 46t63 102l10 -5q-29 -71 -70 -124.5t-87 -53.5z" />
    <glyph glyph-name="Aogonek" unicode="&#x104;" horiz-adv-x="717" 
d="M416 696l-198 -366h273zM578 0h-118l2 16q48 0 67.5 13t12.5 49l-42 204h-308l-40 -73q-35 -65 -50.5 -102.5t-13 -58t18.5 -26.5t51 -6l-2 -16h-228l2 16q48 0 79.5 31t92.5 143l332 609h11l153 -719q7 -32 26 -48t63 -16l-2 -16h-97q-98 -65 -98 -139q0 -35 24.5 -54.5
t60.5 -19.5q25 0 49 9l1 -2q-37 -30 -89 -30q-40 0 -67.5 22.5t-27.5 61.5q0 44 35 78.5t102 73.5z" />
    <glyph glyph-name="aogonek" unicode="&#x105;" horiz-adv-x="528" 
d="M343 -236q-40 0 -67.5 22.5t-27.5 61.5t29 72t83 67q-42 8 -30 70l63 357q-4 28 -26 46.5t-54 18.5q-94 0 -160 -99t-66 -220q0 -137 87 -137q41 0 83 33.5t92 124.5q-67 -195 -194 -195q-66 0 -95.5 47t-29.5 114q0 141 90.5 249t199.5 108q60 0 83 -37l5 30h53
l-76 -425q-6 -28 -4 -39.5t16 -11.5q22 0 59 46t63 102l10 -5q-29 -71 -70 -124.5t-86 -53.5q-76 -60 -76 -125q0 -35 24.5 -54.5t60.5 -19.5q25 0 49 9l1 -2q-37 -30 -89 -30z" />
    <glyph glyph-name="Cacute" unicode="&#x106;" horiz-adv-x="804" 
d="M640 945l-169 -109h-5l81 109h93zM430 -14q-168 0 -269 97.5t-101 257.5q0 123 51.5 226.5t152 167.5t229.5 64q195 0 306 -102l-21 -139h-11q1 49 -14.5 87t-41.5 61t-62.5 38t-74 20.5t-80.5 5.5q-111 0 -196.5 -60t-130 -157t-44.5 -212q0 -147 80.5 -236.5
t225.5 -89.5q55 0 99 9t86.5 30.5t74.5 63.5t50 103h9l-25 -146q-125 -89 -293 -89z" />
    <glyph glyph-name="cacute" unicode="&#x107;" horiz-adv-x="391" 
d="M462 787l-191 -194h-5l116 194h80zM309 504q46 0 81.5 -20t35.5 -51q0 -16 -8 -25t-21 -9q-20 0 -28.5 12.5t-10 27.5t-15.5 27.5t-44 12.5q-62 0 -113 -59t-75 -130t-24 -126q0 -81 27.5 -111t74.5 -30q95 0 169 106l2 -1q-44 -80 -91 -111t-102 -31q-64 0 -100.5 39.5
t-36.5 119.5q0 143 89 251t190 108z" />
    <glyph glyph-name="Ccircumflex" unicode="&#x108;" horiz-adv-x="804" 
d="M526 949l130 -112h-6l-134 57l-151 -57h-5l163 112h3zM430 -14q-168 0 -269 97.5t-101 257.5q0 123 51.5 226.5t152 167.5t229.5 64q195 0 306 -102l-21 -139h-11q1 49 -14.5 87t-41.5 61t-62.5 38t-74 20.5t-80.5 5.5q-111 0 -196.5 -60t-130 -157t-44.5 -212
q0 -147 80.5 -236.5t225.5 -89.5q55 0 99 9t86.5 30.5t74.5 63.5t50 103h9l-25 -146q-125 -89 -293 -89z" />
    <glyph glyph-name="ccircumflex" unicode="&#x109;" horiz-adv-x="391" 
d="M348 800l126 -204h-6l-130 131l-185 -131h-5l197 204h3zM309 504q46 0 81.5 -20t35.5 -51q0 -16 -8 -25t-21 -9q-20 0 -28.5 12.5t-10 27.5t-15.5 27.5t-44 12.5q-62 0 -113 -59t-75 -130t-24 -126q0 -81 27.5 -111t74.5 -30q95 0 169 106l2 -1q-44 -80 -91 -111
t-102 -31q-64 0 -100.5 39.5t-36.5 119.5q0 143 89 251t190 108z" />
    <glyph glyph-name="Cdotaccent" unicode="&#x10a;" horiz-adv-x="804" 
d="M466 881q0 19 13 32t30 13q19 0 32 -13t13 -32q0 -18 -13 -30.5t-32 -12.5q-17 0 -30 12.5t-13 30.5zM430 -14q-168 0 -269 97.5t-101 257.5q0 123 51.5 226.5t152 167.5t229.5 64q195 0 306 -102l-21 -139h-11q1 49 -14.5 87t-41.5 61t-62.5 38t-74 20.5t-80.5 5.5
q-111 0 -196.5 -60t-130 -157t-44.5 -212q0 -147 80.5 -236.5t225.5 -89.5q55 0 99 9t86.5 30.5t74.5 63.5t50 103h9l-25 -146q-125 -89 -293 -89z" />
    <glyph glyph-name="cdotaccent" unicode="&#x10b;" horiz-adv-x="391" 
d="M316 715q0 19 13 32t30 13q19 0 32 -13t13 -32q0 -18 -13 -30.5t-32 -12.5q-17 0 -30 12.5t-13 30.5zM309 504q46 0 81.5 -20t35.5 -51q0 -16 -8 -25t-21 -9q-20 0 -28.5 12.5t-10 27.5t-15.5 27.5t-44 12.5q-62 0 -113 -59t-75 -130t-24 -126q0 -81 27.5 -111t74.5 -30
q95 0 169 106l2 -1q-44 -80 -91 -111t-102 -31q-64 0 -100.5 39.5t-36.5 119.5q0 143 89 251t190 108z" />
    <glyph glyph-name="Ccaron" unicode="&#x10c;" horiz-adv-x="804" 
d="M526 837l-120 112h6l124 -57l141 57h5l-153 -112h-3zM430 -14q-168 0 -269 97.5t-101 257.5q0 123 51.5 226.5t152 167.5t229.5 64q195 0 306 -102l-21 -139h-11q1 49 -14.5 87t-41.5 61t-62.5 38t-74 20.5t-80.5 5.5q-111 0 -196.5 -60t-130 -157t-44.5 -212
q0 -147 80.5 -236.5t225.5 -89.5q55 0 99 9t86.5 30.5t74.5 63.5t50 103h9l-25 -146q-125 -89 -293 -89z" />
    <glyph glyph-name="ccaron" unicode="&#x10d;" horiz-adv-x="391" 
d="M319 596l-144 204h6l143 -131l172 131h5l-179 -204h-3zM309 504q46 0 81.5 -20t35.5 -51q0 -16 -8 -25t-21 -9q-20 0 -28.5 12.5t-10 27.5t-15.5 27.5t-44 12.5q-62 0 -113 -59t-75 -130t-24 -126q0 -81 27.5 -111t74.5 -30q95 0 169 106l2 -1q-44 -80 -91 -111t-102 -31
q-64 0 -100.5 39.5t-36.5 119.5q0 143 89 251t190 108z" />
    <glyph glyph-name="Dcaron" unicode="&#x10e;" horiz-adv-x="847" 
d="M450 837l-120 112h6l124 -57l141 57h5l-153 -112h-3zM142 787h211q197 0 295 -42q174 -75 174 -283q0 -209 -135.5 -335.5t-369.5 -126.5h-293l1 16q58 0 78 10.5t25 44.5l97 640q5 35 -12 47t-74 12zM291 760l-102 -666q-7 -44 5 -55.5t57 -11.5h66q205 0 322.5 115.5
t117.5 317.5q0 188 -137 257q-86 43 -274 43h-55z" />
    <glyph glyph-name="dcaron" unicode="&#x10f;" horiz-adv-x="571" 
d="M551 744q0 22 13.5 36.5t36.5 14.5q24 0 37 -16.5t13 -41.5q0 -44 -32.5 -80t-74.5 -54l-3 6q22 12 43 38t21 47q-25 1 -39.5 15.5t-14.5 34.5zM394 -14q-52 0 -42 71l54 357q-23 65 -96 65q-63 0 -115.5 -49.5t-80 -121.5t-27.5 -145q0 -71 27 -105.5t69 -34.5
q105 0 186 159q-36 -108 -90.5 -152t-111.5 -44q-73 0 -105 48.5t-32 115.5q0 139 92.5 246.5t193.5 107.5q67 0 98 -38l41 272q3 20 -9 28.5t-51 8.5h-24l2 12h141l-108 -717q-5 -27 -2.5 -38t15.5 -11q22 0 59 46t63 102l10 -5q-29 -71 -70 -124.5t-87 -53.5z" />
    <glyph glyph-name="Dcroat" unicode="&#x110;" horiz-adv-x="837" 
d="M317 0h-293l1 16q58 0 78 10.5t25 44.5l51 338h-90l4 31h91l41 271q5 35 -12 47t-74 12l3 17h211q197 0 295 -42q174 -75 174 -283q0 -209 -135.5 -335.5t-369.5 -126.5zM251 27h66q205 0 322.5 115.5t117.5 317.5q0 188 -137 257q-86 43 -274 43h-55l-49 -320h200
l-4 -31h-201l-48 -315q-7 -44 5 -55.5t57 -11.5z" />
    <glyph glyph-name="dcroat" unicode="&#x111;" horiz-adv-x="550" 
d="M394 -14q-52 0 -42 71l54 357q-23 65 -96 65q-63 0 -115.5 -49.5t-80 -121.5t-27.5 -145q0 -71 27 -105.5t69 -34.5q105 0 186 159q-36 -108 -90.5 -152t-111.5 -44q-73 0 -105 48.5t-32 115.5q0 139 92.5 246.5t193.5 107.5q67 0 98 -38l22 149h-174v20h177l16 103
q3 20 -9 28.5t-51 8.5h-24l2 12h141l-23 -152h89v-20h-92l-82 -545q-5 -27 -2.5 -38t15.5 -11q22 0 59 46t63 102l10 -5q-29 -71 -70 -124.5t-87 -53.5z" />
    <glyph glyph-name="Emacron" unicode="&#x112;" 
d="M298 853l5 32h314l-5 -32h-314zM617 186l-27 -186h-566l2 16q57 0 77 11t25 44l100 645q5 33 -12 44t-76 11l2 16h532l-21 -179h-10q8 96 -24.5 124t-140.5 28h-187l-49 -323h164q55 0 76 16.5t41 85.5h10l-36 -240h-10q0 70 -17 90.5t-68 20.5h-165l-48 -316
q-7 -44 5 -55.5t59 -11.5h163q94 0 130.5 29.5t62.5 129.5h8z" />
    <glyph glyph-name="emacron" unicode="&#x113;" horiz-adv-x="408" 
d="M135 658l5 32h314l-5 -32h-314zM167 -14q-64 0 -100.5 39.5t-36.5 119.5q0 143 89 251t190 108q48 0 74.5 -19t26.5 -53q0 -39 -19.5 -69.5t-69 -56t-81.5 -37.5t-108 -37q-8 -3 -13 -4.5t-12.5 -4l-13.5 -4.5q-6 -30 -6 -55q0 -81 27.5 -111t74.5 -30q95 0 169 106l2 -1
q-44 -80 -91 -111t-102 -31zM292 479q-48 0 -90.5 -40.5t-67.5 -93.5t-38 -111q77 27 130 53.5t90 63.5t37 77q0 26 -17.5 38.5t-43.5 12.5z" />
    <glyph glyph-name="Ebreve" unicode="&#x114;" 
d="M445 813q-52 0 -90 29t-32 93h31q-10 -95 91 -95q102 0 121 95h31q-14 -65 -57.5 -93.5t-94.5 -28.5zM617 186l-27 -186h-566l2 16q57 0 77 11t25 44l100 645q5 33 -12 44t-76 11l2 16h532l-21 -179h-10q8 96 -24.5 124t-140.5 28h-187l-49 -323h164q55 0 76 16.5
t41 85.5h10l-36 -240h-10q0 70 -17 90.5t-68 20.5h-165l-48 -316q-7 -44 5 -55.5t59 -11.5h163q94 0 130.5 29.5t62.5 129.5h8z" />
    <glyph glyph-name="ebreve" unicode="&#x115;" horiz-adv-x="408" 
d="M479 749q-10 -48 -31.5 -81.5t-48.5 -49.5t-50.5 -22.5t-46.5 -6.5q-27 0 -50.5 6.5t-46.5 22.5t-34 49.5t-6 81.5h31q-8 -60 18.5 -96t90.5 -36q57 0 94.5 36.5t48.5 95.5h31zM167 -14q-64 0 -100.5 39.5t-36.5 119.5q0 143 89 251t190 108q48 0 74.5 -19t26.5 -53
q0 -39 -19.5 -69.5t-69 -56t-81.5 -37.5t-108 -37q-8 -3 -13 -4.5t-12.5 -4l-13.5 -4.5q-6 -30 -6 -55q0 -81 27.5 -111t74.5 -30q95 0 169 106l2 -1q-44 -80 -91 -111t-102 -31zM292 479q-48 0 -90.5 -40.5t-67.5 -93.5t-38 -111q77 27 130 53.5t90 63.5t37 77
q0 26 -17.5 38.5t-43.5 12.5z" />
    <glyph glyph-name="Edotaccent" unicode="&#x116;" 
d="M394 881q0 19 13 32t30 13q19 0 32 -13t13 -32q0 -18 -13 -30.5t-32 -12.5q-17 0 -30 12.5t-13 30.5zM617 186l-27 -186h-566l2 16q57 0 77 11t25 44l100 645q5 33 -12 44t-76 11l2 16h532l-21 -179h-10q8 96 -24.5 124t-140.5 28h-187l-49 -323h164q55 0 76 16.5
t41 85.5h10l-36 -240h-10q0 70 -17 90.5t-68 20.5h-165l-48 -316q-7 -44 5 -55.5t59 -11.5h163q94 0 130.5 29.5t62.5 129.5h8z" />
    <glyph glyph-name="edotaccent" unicode="&#x117;" horiz-adv-x="408" 
d="M279 715q0 19 13 32t30 13q19 0 32 -13t13 -32q0 -18 -13 -30.5t-32 -12.5q-17 0 -30 12.5t-13 30.5zM167 -14q-64 0 -100.5 39.5t-36.5 119.5q0 143 89 251t190 108q48 0 74.5 -19t26.5 -53q0 -39 -19.5 -69.5t-69 -56t-81.5 -37.5t-108 -37q-8 -3 -13 -4.5t-12.5 -4
l-13.5 -4.5q-6 -30 -6 -55q0 -81 27.5 -111t74.5 -30q95 0 169 106l2 -1q-44 -80 -91 -111t-102 -31zM292 479q-48 0 -90.5 -40.5t-67.5 -93.5t-38 -111q77 27 130 53.5t90 63.5t37 77q0 26 -17.5 38.5t-43.5 12.5z" />
    <glyph glyph-name="Eogonek" unicode="&#x118;" horiz-adv-x="676" 
d="M580 0h-556l2 16q57 0 77 11t25 44l100 645q5 33 -12 44t-76 11l2 16h532l-21 -179h-10q8 96 -24.5 124t-140.5 28h-187l-49 -323h164q55 0 76 16.5t41 85.5h10l-36 -240h-10q0 70 -17 90.5t-68 20.5h-165l-48 -316q-7 -44 5 -55.5t59 -11.5h163q94 0 130.5 29.5
t62.5 129.5h8l-27 -186q-98 -65 -98 -139q0 -35 24.5 -54.5t60.5 -19.5q25 0 49 9l1 -2q-37 -30 -89 -30q-40 0 -67.5 22.5t-27.5 61.5q0 44 35 78.5t102 73.5z" />
    <glyph glyph-name="eogonek" unicode="&#x119;" horiz-adv-x="408" 
d="M275 -204l1 -2q-37 -30 -89 -30q-40 0 -67.5 22.5t-27.5 61.5q0 41 31.5 74t91.5 70q-24 -6 -48 -6q-64 0 -100.5 39.5t-36.5 119.5q0 143 89 251t190 108q48 0 74.5 -19t26.5 -53q0 -52 -46.5 -92.5t-90.5 -58t-142 -49.5l-13.5 -4.5l-12 -4l-13.5 -4.5q-5 -26 -5 -55
q0 -81 27.5 -111t74.5 -30q95 0 169 106l2 -1q-47 -86 -122 -128q-43 -23 -70 -61t-27 -78q0 -35 24.5 -54.5t60.5 -19.5q25 0 49 9zM353 428q0 26 -17.5 38.5t-43.5 12.5q-48 0 -90.5 -40.5t-67.5 -93.5t-38 -111q257 89 257 194z" />
    <glyph glyph-name="Ecaron" unicode="&#x11a;" 
d="M440 837l-120 112h6l124 -57l141 57h5l-153 -112h-3zM617 186l-27 -186h-566l2 16q57 0 77 11t25 44l100 645q5 33 -12 44t-76 11l2 16h532l-21 -179h-10q8 96 -24.5 124t-140.5 28h-187l-49 -323h164q55 0 76 16.5t41 85.5h10l-36 -240h-10q0 70 -17 90.5t-68 20.5h-165
l-48 -316q-7 -44 5 -55.5t59 -11.5h163q94 0 130.5 29.5t62.5 129.5h8z" />
    <glyph glyph-name="ecaron" unicode="&#x11b;" horiz-adv-x="408" 
d="M304 596l-144 204h6l143 -131l172 131h5l-179 -204h-3zM167 -14q-64 0 -100.5 39.5t-36.5 119.5q0 143 89 251t190 108q48 0 74.5 -19t26.5 -53q0 -39 -19.5 -69.5t-69 -56t-81.5 -37.5t-108 -37q-8 -3 -13 -4.5t-12.5 -4l-13.5 -4.5q-6 -30 -6 -55q0 -81 27.5 -111
t74.5 -30q95 0 169 106l2 -1q-44 -80 -91 -111t-102 -31zM292 479q-48 0 -90.5 -40.5t-67.5 -93.5t-38 -111q77 27 130 53.5t90 63.5t37 77q0 26 -17.5 38.5t-43.5 12.5z" />
    <glyph glyph-name="Gcircumflex" unicode="&#x11c;" horiz-adv-x="841" 
d="M539 949l130 -112h-6l-134 57l-151 -57h-5l163 112h3zM429 -14q-169 0 -269 97t-100 258q0 123 51.5 226.5t152 167.5t229.5 64q195 0 306 -102l-21 -139h-11q1 49 -14.5 87t-41.5 61t-62.5 38t-74 20.5t-80.5 5.5q-111 0 -196.5 -60t-130 -157t-44.5 -212
q0 -147 80.5 -236.5t225.5 -89.5q79 0 141.5 23t97.5 61l27 171q4 24 -11.5 32t-62.5 8l2 16h218l-2 -16q-47 0 -64.5 -8t-21.5 -33l-27 -174q-44 -50 -121 -79.5t-176 -29.5z" />
    <glyph glyph-name="gcircumflex" unicode="&#x11d;" horiz-adv-x="514" 
d="M348 800l126 -204h-6l-130 131l-185 -131h-5l197 204h3zM272 485q-61 0 -102 -47.5t-41 -114.5q0 -66 35.5 -105t88.5 -39q61 0 102 47.5t41 114.5q0 66 -35.5 105t-88.5 39zM452 341q0 -83 -57 -132t-143 -49q-75 0 -127 43.5t-52 119.5q0 83 57 132t143 49q47 0 86 -18
l195 3l-5 -42l-186 37q89 -43 89 -143zM184 168q-92 -21 -92 -75q0 -46 84 -46h81q198 0 198 -114q0 -61 -43 -107.5t-105 -68.5t-128 -22q-98 0 -152 35t-54 89q0 59 52 92.5t122 45.5q-50 0 -79 22t-29 55q0 77 145 94zM147 -3q-124 -45 -124 -138q0 -49 41.5 -78
t114.5 -29q50 0 99.5 15t87.5 52t38 88q0 44 -35.5 67t-119.5 23h-102z" />
    <glyph glyph-name="Gbreve" unicode="&#x11e;" horiz-adv-x="841" 
d="M527 813q-52 0 -90 29t-32 93h31q-10 -95 91 -95q102 0 121 95h31q-14 -65 -57.5 -93.5t-94.5 -28.5zM429 -14q-169 0 -269 97t-100 258q0 123 51.5 226.5t152 167.5t229.5 64q195 0 306 -102l-21 -139h-11q1 49 -14.5 87t-41.5 61t-62.5 38t-74 20.5t-80.5 5.5
q-111 0 -196.5 -60t-130 -157t-44.5 -212q0 -147 80.5 -236.5t225.5 -89.5q79 0 141.5 23t97.5 61l27 171q4 24 -11.5 32t-62.5 8l2 16h218l-2 -16q-47 0 -64.5 -8t-21.5 -33l-27 -174q-44 -50 -121 -79.5t-176 -29.5z" />
    <glyph glyph-name="gbreve" unicode="&#x11f;" horiz-adv-x="514" 
d="M473 749q-10 -48 -31.5 -81.5t-48.5 -49.5t-50.5 -22.5t-46.5 -6.5q-27 0 -50.5 6.5t-46.5 22.5t-34 49.5t-6 81.5h31q-8 -60 18.5 -96t90.5 -36q57 0 94.5 36.5t48.5 95.5h31zM272 485q-61 0 -102 -47.5t-41 -114.5q0 -66 35.5 -105t88.5 -39q61 0 102 47.5t41 114.5
q0 66 -35.5 105t-88.5 39zM452 341q0 -83 -57 -132t-143 -49q-75 0 -127 43.5t-52 119.5q0 83 57 132t143 49q47 0 86 -18l195 3l-5 -42l-186 37q89 -43 89 -143zM184 168q-92 -21 -92 -75q0 -46 84 -46h81q198 0 198 -114q0 -61 -43 -107.5t-105 -68.5t-128 -22
q-98 0 -152 35t-54 89q0 59 52 92.5t122 45.5q-50 0 -79 22t-29 55q0 77 145 94zM147 -3q-124 -45 -124 -138q0 -49 41.5 -78t114.5 -29q50 0 99.5 15t87.5 52t38 88q0 44 -35.5 67t-119.5 23h-102z" />
    <glyph glyph-name="Gdotaccent" unicode="&#x120;" horiz-adv-x="841" 
d="M416 881q0 19 13 32t30 13q19 0 32 -13t13 -32q0 -18 -13 -30.5t-32 -12.5q-17 0 -30 12.5t-13 30.5zM429 -14q-169 0 -269 97t-100 258q0 123 51.5 226.5t152 167.5t229.5 64q195 0 306 -102l-21 -139h-11q1 49 -14.5 87t-41.5 61t-62.5 38t-74 20.5t-80.5 5.5
q-111 0 -196.5 -60t-130 -157t-44.5 -212q0 -147 80.5 -236.5t225.5 -89.5q79 0 141.5 23t97.5 61l27 171q4 24 -11.5 32t-62.5 8l2 16h218l-2 -16q-47 0 -64.5 -8t-21.5 -33l-27 -174q-44 -50 -121 -79.5t-176 -29.5z" />
    <glyph glyph-name="gdotaccent" unicode="&#x121;" horiz-adv-x="514" 
d="M247 715q0 19 13 32t30 13q19 0 32 -13t13 -32q0 -18 -13 -30.5t-32 -12.5q-17 0 -30 12.5t-13 30.5zM272 485q-61 0 -102 -47.5t-41 -114.5q0 -66 35.5 -105t88.5 -39q61 0 102 47.5t41 114.5q0 66 -35.5 105t-88.5 39zM452 341q0 -83 -57 -132t-143 -49
q-75 0 -127 43.5t-52 119.5q0 83 57 132t143 49q47 0 86 -18l195 3l-5 -42l-186 37q89 -43 89 -143zM184 168q-92 -21 -92 -75q0 -46 84 -46h81q198 0 198 -114q0 -61 -43 -107.5t-105 -68.5t-128 -22q-98 0 -152 35t-54 89q0 59 52 92.5t122 45.5q-50 0 -79 22t-29 55
q0 77 145 94zM147 -3q-124 -45 -124 -138q0 -49 41.5 -78t114.5 -29q50 0 99.5 15t87.5 52t38 88q0 44 -35.5 67t-119.5 23h-102z" />
    <glyph glyph-name="Gcommaaccent" unicode="&#x122;" horiz-adv-x="841" 
d="M429 -14q-169 0 -269 97t-100 258q0 123 51.5 226.5t152 167.5t229.5 64q195 0 306 -102l-21 -139h-11q1 49 -14.5 87t-41.5 61t-62.5 38t-74 20.5t-80.5 5.5q-111 0 -196.5 -60t-130 -157t-44.5 -212q0 -147 80.5 -236.5t225.5 -89.5q79 0 141.5 23t97.5 61l27 171
q4 24 -11.5 32t-62.5 8l2 16h218l-2 -16q-47 0 -64.5 -8t-21.5 -33l-27 -174q-44 -50 -121 -79.5t-176 -29.5zM362 -84q0 19 12.5 32t32.5 13q21 0 32.5 -14.5t11.5 -37.5q0 -42 -35 -94.5t-86 -86.5l-2 2q39 36 57.5 75.5t18.5 65.5q-18 1 -30 14t-12 31z" />
    <glyph glyph-name="gcommaaccent" unicode="&#x123;" horiz-adv-x="514" 
d="M372 654q0 -22 -13.5 -36.5t-36.5 -14.5q-24 0 -37 16.5t-13 41.5q0 44 32.5 80t74.5 54l3 -6q-22 -12 -43 -38t-21 -47q25 -1 39.5 -15.5t14.5 -34.5zM272 485q-61 0 -102 -47.5t-41 -114.5q0 -66 35.5 -105t88.5 -39q61 0 102 47.5t41 114.5q0 66 -35.5 105t-88.5 39z
M452 341q0 -83 -57 -132t-143 -49q-75 0 -127 43.5t-52 119.5q0 83 57 132t143 49q47 0 86 -18l195 3l-5 -42l-186 37q89 -43 89 -143zM184 168q-92 -21 -92 -75q0 -46 84 -46h81q198 0 198 -114q0 -61 -43 -107.5t-105 -68.5t-128 -22q-98 0 -152 35t-54 89q0 59 52 92.5
t122 45.5q-50 0 -79 22t-29 55q0 77 145 94zM147 -3q-124 -45 -124 -138q0 -49 41.5 -78t114.5 -29q50 0 99.5 15t87.5 52t38 88q0 44 -35.5 67t-119.5 23h-102z" />
    <glyph glyph-name="Hcircumflex" unicode="&#x124;" horiz-adv-x="915" 
d="M556 949l130 -112h-6l-134 57l-151 -57h-5l163 112h3zM653 76l50 333h-465l-51 -333q-5 -34 12 -47t74 -13l-2 -16h-247l2 16q55 0 77 13.5t27 46.5l97 640q5 33 -12 44t-74 11l2 16h248l-2 -16q-58 0 -78.5 -11t-25.5 -44l-43 -276h466l42 276q5 33 -11.5 44t-74.5 11
l2 16h248l-2 -16q-57 0 -78 -11t-26 -44l-97 -640q-5 -33 12 -46.5t73 -13.5l-2 -16h-248l2 16q57 0 78.5 13t26.5 47z" />
    <glyph glyph-name="hcircumflex" unicode="&#x125;" horiz-adv-x="529" 
d="M83 787h132l-120 -787h-53l114 738q3 20 -9.5 28.5t-52.5 8.5h-13zM399 800l126 -204h-6l-130 131l-185 -131h-5l197 204h3zM440 330l-54 -258q-6 -28 -4 -39.5t16 -11.5q22 0 59 46t63 102l10 -5q-29 -71 -70 -124.5t-87 -53.5q-56 0 -42 71l58 282q14 68 -3 97t-51 29
q-54 0 -106 -50.5t-88 -121.5q36 98 94 153.5t120 55.5q120 0 85 -172z" />
    <glyph glyph-name="Hbar" unicode="&#x126;" horiz-adv-x="915" 
d="M242 440h466l20 131h-466zM273 16l-2 -16h-247l2 16q55 0 77 13.5t27 46.5l97 640q5 33 -12 44t-74 11l2 16h248l-2 -16q-58 0 -78.5 -11t-25.5 -44l-18 -114h466l17 114q5 33 -11.5 44t-74.5 11l2 16h248l-2 -16q-57 0 -78 -11t-26 -44l-97 -640q-5 -33 12 -46.5
t73 -13.5l-2 -16h-248l2 16q57 0 78.5 13t26.5 47l50 333h-465l-51 -333q-5 -34 12 -47t74 -13z" />
    <glyph glyph-name="hbar" unicode="&#x127;" horiz-adv-x="529" 
d="M42 0l95 615h-67l3 20h67l16 103q3 20 -9.5 28.5t-52.5 8.5h-13l2 12h132l-23 -152h169l-3 -20h-169l-94 -615h-53zM440 330l-54 -258q-6 -28 -4 -39.5t16 -11.5q22 0 59 46t63 102l10 -5q-29 -71 -70 -124.5t-87 -53.5q-56 0 -42 71l58 282q14 68 -3 97t-51 29
q-54 0 -106 -50.5t-88 -121.5q36 98 94 153.5t120 55.5q120 0 85 -172z" />
    <glyph glyph-name="Itilde" unicode="&#x128;" horiz-adv-x="390" 
d="M400 929l35 47l5 -3l-35 -88h-248l-37 -46l-5 3l37 87h248zM128 76l99 640q5 33 -12 44t-75 11l1 16h248l-2 -16q-57 0 -77.5 -11t-25.5 -44l-98 -640q-5 -33 12 -46.5t74 -13.5l-1 -16h-247l2 16q55 0 76 13t26 47z" />
    <glyph glyph-name="itilde" unicode="&#x129;" horiz-adv-x="273" 
d="M271 708l35 47l5 -3l-35 -88h-198l-37 -46l-5 3l37 87h198zM75 58l64 358q6 30 3 42.5t-17 12.5q-38 0 -92 -114l-10 5q27 65 56 103.5t70 38.5q31 0 40.5 -21.5t1.5 -69.5l-61 -339q-6 -30 -4 -41.5t16 -11.5q22 0 59 46t63 102l10 -5q-29 -71 -70 -124.5t-87 -53.5
q-55 0 -42 72z" />
    <glyph glyph-name="Imacron" unicode="&#x12a;" horiz-adv-x="390" 
d="M145 853l5 32h254l-5 -32h-254zM128 76l99 640q5 33 -12 44t-75 11l1 16h248l-2 -16q-57 0 -77.5 -11t-25.5 -44l-98 -640q-5 -33 12 -46.5t74 -13.5l-1 -16h-247l2 16q55 0 76 13t26 47z" />
    <glyph glyph-name="imacron" unicode="&#x12b;" horiz-adv-x="273" 
d="M60 658l5 32h234l-5 -32h-234zM75 58l64 358q6 30 3 42.5t-17 12.5q-38 0 -92 -114l-10 5q27 65 56 103.5t70 38.5q31 0 40.5 -21.5t1.5 -69.5l-61 -339q-6 -30 -4 -41.5t16 -11.5q22 0 59 46t63 102l10 -5q-29 -71 -70 -124.5t-87 -53.5q-55 0 -42 72z" />
    <glyph glyph-name="Ibreve" unicode="&#x12c;" horiz-adv-x="390" 
d="M273 813q-52 0 -90 29t-32 93h31q-10 -95 91 -95q102 0 121 95h31q-14 -65 -57.5 -93.5t-94.5 -28.5zM128 76l99 640q5 33 -12 44t-75 11l1 16h248l-2 -16q-57 0 -77.5 -11t-25.5 -44l-98 -640q-5 -33 12 -46.5t74 -13.5l-1 -16h-247l2 16q55 0 76 13t26 47z" />
    <glyph glyph-name="ibreve" unicode="&#x12d;" horiz-adv-x="273" 
d="M110 749q-12 -61 4 -96.5t61 -35.5t72.5 35.5t34.5 96.5h31q-23 -160 -140 -160q-61 0 -83.5 44t-10.5 116h31zM75 58l64 358q6 30 3 42.5t-17 12.5q-38 0 -92 -114l-10 5q27 65 56 103.5t70 38.5q31 0 40.5 -21.5t1.5 -69.5l-61 -339q-6 -30 -4 -41.5t16 -11.5
q22 0 59 46t63 102l10 -5q-29 -71 -70 -124.5t-87 -53.5q-55 0 -42 72z" />
    <glyph glyph-name="Iogonek" unicode="&#x12e;" horiz-adv-x="390" 
d="M261 0h-237l2 16q55 0 76 13t26 47l99 640q5 33 -12 44t-75 11l1 16h248l-2 -16q-57 0 -77.5 -11t-25.5 -44l-98 -640q-5 -33 12 -46.5t74 -13.5l-1 -16q-98 -65 -98 -139q0 -35 24.5 -54.5t60.5 -19.5q25 0 49 9l1 -2q-37 -30 -89 -30q-40 0 -67.5 22.5t-27.5 61.5
q0 44 35 78.5t102 73.5z" />
    <glyph glyph-name="iogonek" unicode="&#x12f;" horiz-adv-x="273" 
d="M151 715q0 19 13 32t30 13q19 0 32 -13t13 -32q0 -18 -13 -30.5t-32 -12.5q-17 0 -30 12.5t-13 30.5zM175 -206q-37 -30 -89 -30q-40 0 -67.5 22.5t-27.5 61.5q0 70 113 139q-41 8 -29 71l64 358q6 30 3 42.5t-17 12.5q-38 0 -92 -114l-10 5q27 65 56 103.5t70 38.5
q31 0 40.5 -21.5t1.5 -69.5l-61 -339q-6 -30 -4 -41.5t16 -11.5q22 0 59 46t63 102l10 -5q-29 -71 -70 -124.5t-87 -53.5h-1q-76 -60 -76 -125q0 -35 24.5 -54.5t60.5 -19.5q25 0 49 9z" />
    <glyph glyph-name="Idotaccent" unicode="&#x130;" horiz-adv-x="390" 
d="M231 881q0 19 13 32t30 13q19 0 32 -13t13 -32q0 -18 -13 -30.5t-32 -12.5q-17 0 -30 12.5t-13 30.5zM128 76l99 640q5 33 -12 44t-75 11l1 16h248l-2 -16q-57 0 -77.5 -11t-25.5 -44l-98 -640q-5 -33 12 -46.5t74 -13.5l-1 -16h-247l2 16q55 0 76 13t26 47z" />
    <glyph glyph-name="dotlessi" unicode="&#x131;" horiz-adv-x="273" 
d="M75 58l64 358q6 30 3 42.5t-17 12.5q-38 0 -92 -114l-10 5q27 65 56 103.5t70 38.5q31 0 40.5 -21.5t1.5 -69.5l-61 -339q-6 -30 -4 -41.5t16 -11.5q22 0 59 46t63 102l10 -5q-29 -71 -70 -124.5t-87 -53.5q-55 0 -42 72z" />
    <glyph glyph-name="Jcircumflex" unicode="&#x134;" horiz-adv-x="445" 
d="M352 949l130 -112h-6l-134 57l-151 -57h-5l163 112h3zM236 282l65 434q5 35 -13.5 45t-82.5 10l1 16h258l-2 -16q-59 0 -79 -10t-25 -45l-64 -434q-8 -54 -15 -90t-21.5 -78.5t-33.5 -68t-49.5 -42.5t-69.5 -17q-55 0 -87.5 21t-32.5 50q0 16 9 28t26 12q30 0 40 -46
q6 -28 18 -38.5t34 -10.5q51 0 75 57t49 223z" />
    <glyph glyph-name="jcircumflex" unicode="&#x135;" horiz-adv-x="263" 
d="M188 800l102 -244h-6l-106 161l-149 -161h-5l161 244h3zM192 413l-55 -335q-21 -128 -67 -208t-136 -141l-1 2q67 61 98 136.5t54 213.5l55 335q6 30 3 42.5t-17 12.5q-38 0 -92 -114l-10 5q27 65 56 103.5t70 38.5q31 0 40.5 -21.5t1.5 -69.5z" />
    <glyph glyph-name="Kcommaaccent" unicode="&#x136;" horiz-adv-x="756" 
d="M130 76l97 640q5 33 -12 44t-74 11l2 16h248l-2 -16q-58 0 -78.5 -11t-25.5 -44l-98 -640q-5 -34 12 -47t74 -13l-2 -16h-247l2 16q55 0 77 13.5t27 46.5zM239 407l289 249q84 72 89 92q4 15 -18 20q-16 3 -47 3l2 16h242l-2 -16q-49 0 -98 -27.5t-130 -96.5l-266 -226
l314 -368q13 -17 42 -27t60 -10l-1 -16h-245l2 16q76 0 76 22q-1 7 -9 17zM310 -84q0 19 12.5 32t32.5 13q21 0 32.5 -14.5t11.5 -37.5q0 -42 -35 -94.5t-86 -86.5l-2 2q39 36 57.5 75.5t18.5 65.5q-18 1 -30 14t-12 31z" />
    <glyph glyph-name="kcommaaccent" unicode="&#x137;" horiz-adv-x="480" 
d="M393 -14q-52 0 -83.5 26.5t-42.5 99.5q-4 29 -7.5 46.5t-13 40.5t-22 35.5t-35 21.5t-52.5 8l-40 -264h-53l114 738q3 20 -9.5 28.5t-52.5 8.5h-13l2 12h132l-79 -515q98 0 162 49t68 121q2 32 9 47t29 15q14 0 21.5 -10.5t5.5 -26.5q-3 -64 -73 -129.5t-164 -70.5
q59 -6 86.5 -39t38.5 -99q12 -68 32 -96.5t64 -28.5q26 0 59 12l1 -2q-40 -28 -84 -28zM157 -84q0 19 12.5 32t32.5 13q21 0 32.5 -14.5t11.5 -37.5q0 -42 -35 -94.5t-86 -86.5l-2 2q39 36 57.5 75.5t18.5 65.5q-18 1 -30 14t-12 31z" />
    <glyph glyph-name="Lacute" unicode="&#x139;" horiz-adv-x="628" 
d="M398 945l-169 -109h-5l81 109h93zM391 787l-2 -16q-58 0 -78.5 -11t-25.5 -44l-97 -636q-5 -31 8.5 -42t44.5 -11h165q95 0 131 29.5t61 129.5h10l-28 -186h-556l2 16q56 0 77 11t26 44l98 645q5 33 -12 44t-74 11l2 16h248z" />
    <glyph glyph-name="lacute" unicode="&#x13a;" horiz-adv-x="253" 
d="M274 945l-169 -109h-5l81 109h93zM55 57l107 681q3 20 -9.5 28.5t-52.5 8.5h-13l2 12h132l-112 -717q-5 -27 -3 -38t16 -11q22 0 59 46t63 102l10 -5q-29 -71 -70 -124.5t-87 -53.5q-54 0 -42 71z" />
    <glyph glyph-name="Lcommaaccent" unicode="&#x13b;" horiz-adv-x="628" 
d="M391 787l-2 -16q-58 0 -78.5 -11t-25.5 -44l-97 -636q-5 -31 8.5 -42t44.5 -11h165q95 0 131 29.5t61 129.5h10l-28 -186h-556l2 16q56 0 77 11t26 44l98 645q5 33 -12 44t-74 11l2 16h248zM280 -84q0 19 12.5 32t32.5 13q21 0 32.5 -14.5t11.5 -37.5q0 -42 -35 -94.5
t-86 -86.5l-2 2q39 36 57.5 75.5t18.5 65.5q-18 1 -30 14t-12 31z" />
    <glyph glyph-name="lcommaaccent" unicode="&#x13c;" horiz-adv-x="253" 
d="M55 57l107 681q3 20 -9.5 28.5t-52.5 8.5h-13l2 12h132l-112 -717q-5 -27 -3 -38t16 -11q22 0 59 46t63 102l10 -5q-29 -71 -70 -124.5t-87 -53.5q-54 0 -42 71zM29 -84q0 19 12.5 32t32.5 13q21 0 32.5 -14.5t11.5 -37.5q0 -42 -35 -94.5t-86 -86.5l-2 2
q39 36 57.5 75.5t18.5 65.5q-18 1 -30 14t-12 31z" />
    <glyph glyph-name="Lcaron" unicode="&#x13d;" horiz-adv-x="628" 
d="M432 744q0 22 13.5 36.5t36.5 14.5q24 0 37 -16.5t13 -41.5q0 -44 -32.5 -80t-74.5 -54l-3 6q22 12 43 38t21 47q-25 1 -39.5 15.5t-14.5 34.5zM391 787l-2 -16q-58 0 -78.5 -11t-25.5 -44l-97 -636q-5 -31 8.5 -42t44.5 -11h165q95 0 131 29.5t61 129.5h10l-28 -186
h-556l2 16q56 0 77 11t26 44l98 645q5 33 -12 44t-74 11l2 16h248z" />
    <glyph glyph-name="lcaron" unicode="&#x13e;" horiz-adv-x="267" 
d="M247 744q0 22 13.5 36.5t36.5 14.5q24 0 37 -16.5t13 -41.5q0 -44 -32.5 -80t-74.5 -54l-3 6q22 12 43 38t21 47q-25 1 -39.5 15.5t-14.5 34.5zM55 57l107 681q3 20 -9.5 28.5t-52.5 8.5h-13l2 12h132l-112 -717q-5 -27 -3 -38t16 -11q22 0 59 46t63 102l10 -5
q-29 -71 -70 -124.5t-87 -53.5q-54 0 -42 71z" />
    <glyph glyph-name="Ldot" unicode="&#x13f;" horiz-adv-x="628" 
d="M391 787l-2 -16q-58 0 -78.5 -11t-25.5 -44l-97 -636q-5 -31 8.5 -42t44.5 -11h165q95 0 131 29.5t61 129.5h10l-28 -186h-556l2 16q56 0 77 11t26 44l98 645q5 33 -12 44t-74 11l2 16h248zM462 407q0 19 13 32t30 13q19 0 32 -13t13 -32q0 -18 -13 -30.5t-32 -12.5
q-17 0 -30 12.5t-13 30.5z" />
    <glyph glyph-name="ldot" unicode="&#x140;" horiz-adv-x="253" 
d="M55 57l107 681q3 20 -9.5 28.5t-52.5 8.5h-13l2 12h132l-112 -717q-5 -27 -3 -38t16 -11q22 0 59 46t63 102l10 -5q-29 -71 -70 -124.5t-87 -53.5q-54 0 -42 71zM218 407q0 19 13 32t30 13q19 0 32 -13t13 -32q0 -18 -13 -30.5t-32 -12.5q-17 0 -30 12.5t-13 30.5z" />
    <glyph glyph-name="Lslash" unicode="&#x141;" horiz-adv-x="628" 
d="M580 0h-556l2 16q56 0 77 11t26 44l44 287l-123 -74l-16 27l145 87l48 318q5 33 -12 44t-74 11l2 16h248l-2 -16q-58 0 -78.5 -11t-25.5 -44l-43 -280l144 86l16 -26l-166 -100l-48 -316q-5 -31 8.5 -42t44.5 -11h165q95 0 131 29.5t61 129.5h10z" />
    <glyph glyph-name="lslash" unicode="&#x142;" horiz-adv-x="253" 
d="M97 -14q-54 0 -42 71l50 316l-68 -41l-16 27l90 54l51 325q3 20 -9.5 28.5t-52.5 8.5h-13l2 12h132l-53 -339l68 41l16 -26l-90 -55l-53 -338q-5 -27 -3 -38t16 -11q22 0 59 46t63 102l10 -5q-29 -71 -70 -124.5t-87 -53.5z" />
    <glyph glyph-name="Nacute" unicode="&#x143;" horiz-adv-x="911" 
d="M663 945l-169 -109h-5l81 109h93zM696 96l87 570q9 58 -7.5 81.5t-82.5 23.5l4 16h249l-3 -16q-61 0 -86.5 -24.5t-34.5 -80.5l-106 -691h-9l-442 733l-89 -587q-9 -58 7 -81.5t82 -23.5l-2 -16h-248l2 16q60 0 85.5 24.5t34.5 80.5l85 561q7 45 -18 66.5t-73 21.5l4 17
h150z" />
    <glyph glyph-name="nacute" unicode="&#x144;" horiz-adv-x="558" 
d="M470 787l-191 -194h-5l116 194h80zM64 0l75 416q6 30 3 42.5t-17 12.5q-38 0 -92 -114l-10 5q27 65 56 103.5t70 38.5q31 0 40.5 -21.5t1.5 -69.5l-74 -413h-53zM469 330l-54 -258q-6 -28 -4 -39.5t16 -11.5q22 0 59 46t63 102l10 -5q-29 -71 -70 -124.5t-87 -53.5
q-56 0 -42 71l58 282q14 68 -3 97t-51 29q-54 0 -106 -50.5t-88 -121.5q36 98 94 153.5t120 55.5q120 0 85 -172z" />
    <glyph glyph-name="Ncommaaccent" unicode="&#x145;" horiz-adv-x="911" 
d="M696 96l87 570q9 58 -7.5 81.5t-82.5 23.5l4 16h249l-3 -16q-61 0 -86.5 -24.5t-34.5 -80.5l-106 -691h-9l-442 733l-89 -587q-9 -58 7 -81.5t82 -23.5l-2 -16h-248l2 16q60 0 85.5 24.5t34.5 80.5l85 561q7 45 -18 66.5t-73 21.5l4 17h150zM405 -84q0 19 12.5 32
t32.5 13q21 0 32.5 -14.5t11.5 -37.5q0 -42 -35 -94.5t-86 -86.5l-2 2q39 36 57.5 75.5t18.5 65.5q-18 1 -30 14t-12 31z" />
    <glyph glyph-name="ncommaaccent" unicode="&#x146;" horiz-adv-x="558" 
d="M64 0l75 416q6 30 3 42.5t-17 12.5q-38 0 -92 -114l-10 5q27 65 56 103.5t70 38.5q31 0 40.5 -21.5t1.5 -69.5l-74 -413h-53zM469 330l-54 -258q-6 -28 -4 -39.5t16 -11.5q22 0 59 46t63 102l10 -5q-29 -71 -70 -124.5t-87 -53.5q-56 0 -42 71l58 282q14 68 -3 97t-51 29
q-54 0 -106 -50.5t-88 -121.5q36 98 94 153.5t120 55.5q120 0 85 -172zM198 -84q0 19 12.5 32t32.5 13q21 0 32.5 -14.5t11.5 -37.5q0 -42 -35 -94.5t-86 -86.5l-2 2q39 36 57.5 75.5t18.5 65.5q-18 1 -30 14t-12 31z" />
    <glyph glyph-name="Ncaron" unicode="&#x147;" horiz-adv-x="911" 
d="M536 837l-120 112h6l124 -57l141 57h5l-153 -112h-3zM696 96l87 570q9 58 -7.5 81.5t-82.5 23.5l4 16h249l-3 -16q-61 0 -86.5 -24.5t-34.5 -80.5l-106 -691h-9l-442 733l-89 -587q-9 -58 7 -81.5t82 -23.5l-2 -16h-248l2 16q60 0 85.5 24.5t34.5 80.5l85 561
q7 45 -18 66.5t-73 21.5l4 17h150z" />
    <glyph glyph-name="ncaron" unicode="&#x148;" horiz-adv-x="558" 
d="M319 596l-144 204h6l143 -131l172 131h5l-179 -204h-3zM64 0l75 416q6 30 3 42.5t-17 12.5q-38 0 -92 -114l-10 5q27 65 56 103.5t70 38.5q31 0 40.5 -21.5t1.5 -69.5l-74 -413h-53zM469 330l-54 -258q-6 -28 -4 -39.5t16 -11.5q22 0 59 46t63 102l10 -5
q-29 -71 -70 -124.5t-87 -53.5q-56 0 -42 71l58 282q14 68 -3 97t-51 29q-54 0 -106 -50.5t-88 -121.5q36 98 94 153.5t120 55.5q120 0 85 -172z" />
    <glyph glyph-name="Eng" unicode="&#x14a;" horiz-adv-x="911" 
d="M696 96l87 570q9 58 -7.5 81.5t-82.5 23.5l4 16h249l-3 -16q-61 0 -86.5 -24.5t-34.5 -80.5l-91 -590q-20 -127 -65.5 -206t-135.5 -141l-1 2q63 58 95 121.5t56 174.5l-415 681l-89 -587q-9 -58 7 -81.5t82 -23.5l-2 -16h-248l2 16q60 0 85.5 24.5t34.5 80.5l85 561
q7 45 -18 66.5t-73 21.5l4 17h149z" />
    <glyph glyph-name="eng" unicode="&#x14b;" horiz-adv-x="558" 
d="M64 0l75 416q6 30 3 42.5t-17 12.5q-38 0 -92 -114l-10 5q27 65 56 103.5t70 38.5q31 0 40.5 -21.5t1.5 -69.5l-74 -413h-53zM469 330l-53 -252q-28 -132 -71 -210.5t-131 -138.5l-1 2q64 59 93 131t59 219l53 258q14 68 -3 97t-51 29q-54 0 -106 -50.5t-88 -121.5
q36 98 94 153.5t120 55.5t82 -45.5t3 -126.5z" />
    <glyph glyph-name="Omacron" unicode="&#x14c;" horiz-adv-x="917" 
d="M367 853l5 32h314l-5 -32h-314zM884 425q0 -195 -125 -317t-309 -122q-170 0 -272.5 105.5t-102.5 271.5q0 193 124 314.5t312 121.5q167 0 270 -106t103 -268zM448 15q169 0 270 117t101 306q0 148 -85.5 240t-221.5 92q-88 0 -160 -34t-118 -91.5t-71 -131t-25 -155.5
q0 -92 28.5 -160t65.5 -101.5t86 -53.5t77.5 -24t52.5 -4z" />
    <glyph glyph-name="omacron" unicode="&#x14d;" horiz-adv-x="467" 
d="M174 658l5 32h314l-5 -32h-314zM167 -14q-65 0 -103.5 39.5t-38.5 119.5q0 146 90.5 252.5t188.5 106.5q65 0 104 -39.5t39 -119.5q0 -73 -26.5 -141.5t-67.5 -115t-90.5 -74.5t-95.5 -28zM182 11q47 0 88 34t66 84.5t39.5 104t14.5 96.5q0 149 -101 149
q-62 0 -111.5 -58t-72.5 -129.5t-23 -131.5q0 -149 100 -149z" />
    <glyph glyph-name="Obreve" unicode="&#x14e;" horiz-adv-x="917" 
d="M495 813q-52 0 -90 29t-32 93h31q-10 -95 91 -95q102 0 121 95h31q-14 -65 -57.5 -93.5t-94.5 -28.5zM884 425q0 -195 -125 -317t-309 -122q-170 0 -272.5 105.5t-102.5 271.5q0 193 124 314.5t312 121.5q167 0 270 -106t103 -268zM448 15q169 0 270 117t101 306
q0 148 -85.5 240t-221.5 92q-88 0 -160 -34t-118 -91.5t-71 -131t-25 -155.5q0 -92 28.5 -160t65.5 -101.5t86 -53.5t77.5 -24t52.5 -4z" />
    <glyph glyph-name="obreve" unicode="&#x14f;" horiz-adv-x="467" 
d="M504 749q-10 -48 -31.5 -81.5t-48.5 -49.5t-50.5 -22.5t-46.5 -6.5q-27 0 -50.5 6.5t-46.5 22.5t-34 49.5t-6 81.5h31q-8 -60 18.5 -96t90.5 -36q57 0 94.5 36.5t48.5 95.5h31zM167 -14q-65 0 -103.5 39.5t-38.5 119.5q0 146 90.5 252.5t188.5 106.5q65 0 104 -39.5
t39 -119.5q0 -73 -26.5 -141.5t-67.5 -115t-90.5 -74.5t-95.5 -28zM182 11q47 0 88 34t66 84.5t39.5 104t14.5 96.5q0 149 -101 149q-62 0 -111.5 -58t-72.5 -129.5t-23 -131.5q0 -149 100 -149z" />
    <glyph glyph-name="Ohungarumlaut" unicode="&#x150;" horiz-adv-x="917" 
d="M738 945l-169 -109h-5l81 109h93zM578 945l-169 -109h-5l81 109h93zM884 425q0 -195 -125 -317t-309 -122q-170 0 -272.5 105.5t-102.5 271.5q0 193 124 314.5t312 121.5q167 0 270 -106t103 -268zM448 15q169 0 270 117t101 306q0 148 -85.5 240t-221.5 92
q-88 0 -160 -34t-118 -91.5t-71 -131t-25 -155.5q0 -92 28.5 -160t65.5 -101.5t86 -53.5t77.5 -24t52.5 -4z" />
    <glyph glyph-name="ohungarumlaut" unicode="&#x151;" horiz-adv-x="467" 
d="M553 787l-191 -194h-5l116 194h80zM392 787l-191 -194h-5l116 194h80zM167 -14q-65 0 -103.5 39.5t-38.5 119.5q0 146 90.5 252.5t188.5 106.5q65 0 104 -39.5t39 -119.5q0 -73 -26.5 -141.5t-67.5 -115t-90.5 -74.5t-95.5 -28zM182 11q47 0 88 34t66 84.5t39.5 104
t14.5 96.5q0 149 -101 149q-62 0 -111.5 -58t-72.5 -129.5t-23 -131.5q0 -149 100 -149z" />
    <glyph glyph-name="OE" unicode="&#x152;" horiz-adv-x="1360" 
d="M468 15q76 0 143 25.5t120.5 74.5t85 130t31.5 184q0 151 -91 246t-234 95q-171 0 -277 -113t-106 -288q0 -69 15.5 -125t39.5 -92t57.5 -63t63.5 -40.5t64 -21.5t53 -10t35 -2zM794 0l24 172q-52 -88 -141.5 -137t-203.5 -49q-179 0 -288.5 108.5t-109.5 277.5
q0 129 60.5 227.5t161 149t224.5 50.5q140 0 230 -69.5t119 -189.5l35 247h455l-20 -179h-10q6 96 -28.5 124t-146.5 28h-194l-46 -323h171q58 0 79.5 16.5t41.5 85.5h10l-34 -240h-10q-1 70 -19.5 90.5t-71.5 20.5h-170l-45 -316q-6 -44 6.5 -55.5t60.5 -11.5h170
q98 0 135 29.5t62 129.5h10l-26 -186h-491z" />
    <glyph glyph-name="oe" unicode="&#x153;" horiz-adv-x="739" 
d="M498 -14q-116 0 -126 136q-40 -63 -95.5 -99.5t-109.5 -36.5q-65 0 -103.5 39.5t-38.5 119.5q0 146 90.5 252.5t188.5 106.5q122 0 132 -135q40 62 94.5 98.5t109.5 36.5q48 0 74.5 -19t26.5 -53q0 -39 -19.5 -69.5t-69 -56t-81.5 -37.5t-108 -37q-8 -3 -13 -4.5
t-12.5 -4l-13.5 -4.5q-6 -30 -6 -55q0 -81 27.5 -111t74.5 -30q95 0 169 106l2 -1q-44 -80 -91 -111t-102 -31zM623 479q-48 0 -90.5 -40.5t-67.5 -93.5t-38 -111q77 27 130 53.5t90 63.5t37 77q0 26 -17.5 38.5t-43.5 12.5zM182 11q47 0 88 34t66 84.5t39.5 104t14.5 96.5
q0 149 -101 149q-62 0 -111.5 -58t-72.5 -129.5t-23 -131.5q0 -149 100 -149z" />
    <glyph glyph-name="Racute" unicode="&#x154;" horiz-adv-x="742" 
d="M529 945l-169 -109h-5l81 109h93zM143 787h193q170 0 241 -35q88 -43 88 -142q0 -105 -70.5 -162.5t-186.5 -64.5q96 -3 134.5 -48t47.5 -150q8 -101 39 -146.5t113 -35.5v-2q-37 -15 -70 -15q-77 0 -105 47t-40 172q-4 39 -10 66t-20 45t-27.5 27.5t-41 14.5t-50.5 6
t-67 1h-80l-42 -282q-7 -42 14.5 -54.5t90.5 -12.5l-2 -16h-268l2 16q57 0 78 12.5t26 47.5l97 641q5 34 -11 44.5t-75 10.5zM292 760l-56 -373h68q295 0 295 214q0 94 -75 132q-55 27 -183 27h-49z" />
    <glyph glyph-name="racute" unicode="&#x155;" horiz-adv-x="357" 
d="M363 787l-191 -194h-5l116 194h80zM117 0h-53l75 416q6 30 3 42.5t-17 12.5q-38 0 -92 -114l-10 5q27 65 56 103.5t70 38.5q31 0 40.5 -21.5t1.5 -69.5l-20 -110v-1v1q23 64 53 107t57.5 59.5t44.5 22t30 5.5q38 0 38 -25q0 -15 -12 -22.5t-21 -8t-26 -0.5
q-100 0 -164 -139z" />
    <glyph glyph-name="Rcommaaccent" unicode="&#x156;" horiz-adv-x="742" 
d="M143 787h193q170 0 241 -35q88 -43 88 -142q0 -105 -70.5 -162.5t-186.5 -64.5q96 -3 134.5 -48t47.5 -150q8 -101 39 -146.5t113 -35.5v-2q-37 -15 -70 -15q-77 0 -105 47t-40 172q-4 39 -10 66t-20 45t-27.5 27.5t-41 14.5t-50.5 6t-67 1h-80l-42 -282
q-7 -42 14.5 -54.5t90.5 -12.5l-2 -16h-268l2 16q57 0 78 12.5t26 47.5l97 641q5 34 -11 44.5t-75 10.5zM292 760l-56 -373h68q295 0 295 214q0 94 -75 132q-55 27 -183 27h-49zM340 -84q0 19 12.5 32t32.5 13q21 0 32.5 -14.5t11.5 -37.5q0 -42 -35 -94.5t-86 -86.5l-2 2
q39 36 57.5 75.5t18.5 65.5q-18 1 -30 14t-12 31z" />
    <glyph glyph-name="rcommaaccent" unicode="&#x157;" horiz-adv-x="357" 
d="M117 0h-53l75 416q6 30 3 42.5t-17 12.5q-38 0 -92 -114l-10 5q27 65 56 103.5t70 38.5q31 0 40.5 -21.5t1.5 -69.5l-20 -110v-1v1q23 64 53 107t57.5 59.5t44.5 22t30 5.5q38 0 38 -25q0 -15 -12 -22.5t-21 -8t-26 -0.5q-100 0 -164 -139zM34 -84q0 19 12.5 32t32.5 13
q21 0 32.5 -14.5t11.5 -37.5q0 -42 -35 -94.5t-86 -86.5l-2 2q39 36 57.5 75.5t18.5 65.5q-18 1 -30 14t-12 31z" />
    <glyph glyph-name="Rcaron" unicode="&#x158;" horiz-adv-x="742" 
d="M422 837l-120 112h6l124 -57l141 57h5l-153 -112h-3zM143 787h193q170 0 241 -35q88 -43 88 -142q0 -105 -70.5 -162.5t-186.5 -64.5q96 -3 134.5 -48t47.5 -150q8 -101 39 -146.5t113 -35.5v-2q-37 -15 -70 -15q-77 0 -105 47t-40 172q-4 39 -10 66t-20 45t-27.5 27.5
t-41 14.5t-50.5 6t-67 1h-80l-42 -282q-7 -42 14.5 -54.5t90.5 -12.5l-2 -16h-268l2 16q57 0 78 12.5t26 47.5l97 641q5 34 -11 44.5t-75 10.5zM292 760l-56 -373h68q295 0 295 214q0 94 -75 132q-55 27 -183 27h-49z" />
    <glyph glyph-name="rcaron" unicode="&#x159;" horiz-adv-x="357" 
d="M255 596l-144 204h6l143 -131l172 131h5l-179 -204h-3zM117 0h-53l75 416q6 30 3 42.5t-17 12.5q-38 0 -92 -114l-10 5q27 65 56 103.5t70 38.5q31 0 40.5 -21.5t1.5 -69.5l-20 -110v-1v1q23 64 53 107t57.5 59.5t44.5 22t30 5.5q38 0 38 -25q0 -15 -12 -22.5t-21 -8
t-26 -0.5q-100 0 -164 -139z" />
    <glyph glyph-name="Sacute" unicode="&#x15a;" horiz-adv-x="607" 
d="M507 945l-169 -109h-5l81 109h93zM52 225q1 -51 15.5 -89.5t36.5 -61t52.5 -36.5t58 -18.5t57.5 -4.5q92 0 151 36t59 112q0 62 -39 108.5t-119 101.5l-57 39q-71 49 -111.5 99.5t-40.5 114.5q0 58 36 98.5t87 57.5t110 17q67 0 135 -23t94 -49l-23 -151h-9
q7 98 -50.5 146.5t-151.5 48.5q-73 0 -122.5 -35t-49.5 -98q0 -57 35 -99t94 -81l60 -41q87 -59 133 -116t46 -119q0 -94 -78.5 -145t-190.5 -51q-140 0 -250 85l22 154h10z" />
    <glyph glyph-name="sacute" unicode="&#x15b;" horiz-adv-x="402" 
d="M400 787l-191 -194h-5l116 194h80zM176 5q43 0 78.5 23.5t35.5 66.5q0 67 -86 131l-44 34q-27 21 -42 35t-30.5 40t-15.5 54q0 55 47.5 85t108.5 30q56 0 102.5 -24t46.5 -49q0 -30 -28 -30q-16 0 -27 13t-17 28t-27 28t-56 13q-39 0 -70 -20t-31 -58q0 -22 13.5 -43.5
t25.5 -32.5t37 -31l47 -36q28 -22 44.5 -38t33.5 -45t17 -59q0 -65 -47 -99.5t-122 -34.5q-73 0 -116.5 27t-43.5 55q0 13 7.5 21.5t21.5 8.5q16 0 28 -14.5t20.5 -32t31.5 -32t57 -14.5z" />
    <glyph glyph-name="Scircumflex" unicode="&#x15c;" horiz-adv-x="607" 
d="M385 949l130 -112h-6l-134 57l-151 -57h-5l163 112h3zM52 225q1 -51 15.5 -89.5t36.5 -61t52.5 -36.5t58 -18.5t57.5 -4.5q92 0 151 36t59 112q0 62 -39 108.5t-119 101.5l-57 39q-71 49 -111.5 99.5t-40.5 114.5q0 58 36 98.5t87 57.5t110 17q67 0 135 -23t94 -49
l-23 -151h-9q7 98 -50.5 146.5t-151.5 48.5q-73 0 -122.5 -35t-49.5 -98q0 -57 35 -99t94 -81l60 -41q87 -59 133 -116t46 -119q0 -94 -78.5 -145t-190.5 -51q-140 0 -250 85l22 154h10z" />
    <glyph glyph-name="scircumflex" unicode="&#x15d;" horiz-adv-x="402" 
d="M297 800l126 -204h-6l-130 131l-185 -131h-5l197 204h3zM176 5q43 0 78.5 23.5t35.5 66.5q0 67 -86 131l-44 34q-27 21 -42 35t-30.5 40t-15.5 54q0 55 47.5 85t108.5 30q56 0 102.5 -24t46.5 -49q0 -30 -28 -30q-16 0 -27 13t-17 28t-27 28t-56 13q-39 0 -70 -20
t-31 -58q0 -22 13.5 -43.5t25.5 -32.5t37 -31l47 -36q28 -22 44.5 -38t33.5 -45t17 -59q0 -65 -47 -99.5t-122 -34.5q-73 0 -116.5 27t-43.5 55q0 13 7.5 21.5t21.5 8.5q16 0 28 -14.5t20.5 -32t31.5 -32t57 -14.5z" />
    <glyph glyph-name="Scedilla" unicode="&#x15e;" horiz-adv-x="607" 
d="M174 -245l-2 6q52 6 97 37.5t45 78.5q0 38 -46 38q-22 0 -43 -14l-22 19l52 66q-133 7 -235 85l22 154h10q1 -51 15.5 -89.5t36.5 -61t52.5 -36.5t58 -18.5t57.5 -4.5q92 0 151 36t59 112q0 62 -39 108.5t-119 101.5l-57 39q-71 49 -111.5 99.5t-40.5 114.5q0 58 36 98.5
t87 57.5t110 17q67 0 135 -23t94 -49l-23 -151h-9q7 98 -50.5 146.5t-151.5 48.5q-73 0 -122.5 -35t-49.5 -98q0 -57 35 -99t94 -81l60 -41q87 -59 133 -116t46 -119q0 -91 -73 -141.5t-181 -54.5l-53 -64q30 20 60 20q73 0 73 -61q0 -40 -34.5 -69.5t-75.5 -42t-81 -14.5z
" />
    <glyph glyph-name="scedilla" unicode="&#x15f;" horiz-adv-x="402" 
d="M67 -249l-2 6q52 6 97 37.5t45 78.5q0 38 -46 38q-22 0 -43 -14l-22 19l56 71q-65 3 -103.5 29t-38.5 52q0 13 7.5 21.5t21.5 8.5q16 0 28 -14.5t20.5 -32t31.5 -32t57 -14.5q43 0 78.5 23.5t35.5 66.5q0 67 -86 131l-44 34q-27 21 -42 35t-30.5 40t-15.5 54
q0 55 47.5 85t108.5 30q56 0 102.5 -24t46.5 -49q0 -30 -28 -30q-16 0 -27 13t-17 28t-27 28t-56 13q-39 0 -70 -20t-31 -58q0 -22 13.5 -43.5t25.5 -32.5t37 -31l47 -36q28 -22 44.5 -38t33.5 -45t17 -59q0 -62 -43.5 -96.5t-114.5 -37.5l-56 -68q30 20 60 20q73 0 73 -61
q0 -40 -34.5 -69.5t-75.5 -42t-81 -14.5z" />
    <glyph glyph-name="Scaron" unicode="&#x160;" horiz-adv-x="607" 
d="M375 837l-120 112h6l124 -57l141 57h5l-153 -112h-3zM52 225q1 -51 15.5 -89.5t36.5 -61t52.5 -36.5t58 -18.5t57.5 -4.5q92 0 151 36t59 112q0 62 -39 108.5t-119 101.5l-57 39q-71 49 -111.5 99.5t-40.5 114.5q0 58 36 98.5t87 57.5t110 17q67 0 135 -23t94 -49
l-23 -151h-9q7 98 -50.5 146.5t-151.5 48.5q-73 0 -122.5 -35t-49.5 -98q0 -57 35 -99t94 -81l60 -41q87 -59 133 -116t46 -119q0 -94 -78.5 -145t-190.5 -51q-140 0 -250 85l22 154h10z" />
    <glyph glyph-name="scaron" unicode="&#x161;" horiz-adv-x="402" 
d="M248 596l-144 204h6l143 -131l172 131h5l-179 -204h-3zM176 5q43 0 78.5 23.5t35.5 66.5q0 67 -86 131l-44 34q-27 21 -42 35t-30.5 40t-15.5 54q0 55 47.5 85t108.5 30q56 0 102.5 -24t46.5 -49q0 -30 -28 -30q-16 0 -27 13t-17 28t-27 28t-56 13q-39 0 -70 -20t-31 -58
q0 -22 13.5 -43.5t25.5 -32.5t37 -31l47 -36q28 -22 44.5 -38t33.5 -45t17 -59q0 -65 -47 -99.5t-122 -34.5q-73 0 -116.5 27t-43.5 55q0 13 7.5 21.5t21.5 8.5q16 0 28 -14.5t20.5 -32t31.5 -32t57 -14.5z" />
    <glyph glyph-name="Tcommaaccent" unicode="&#x162;" horiz-adv-x="685" 
d="M385 760h-122q-100 0 -139.5 -46t-59.5 -173h-10l37 246h654l-37 -246h-10q17 128 -7.5 173.5t-123.5 45.5h-124l-103 -674q-7 -44 12.5 -57t91.5 -13l-2 -16h-286l2 16q72 0 94.5 13t29.5 56zM241 -84q0 19 12.5 32t32.5 13q21 0 32.5 -14.5t11.5 -37.5q0 -42 -35 -94.5
t-86 -86.5l-2 2q39 36 57.5 75.5t18.5 65.5q-18 1 -30 14t-12 31z" />
    <glyph glyph-name="tcommaaccent" unicode="&#x163;" horiz-adv-x="328" 
d="M112 -14q-39 0 -47 29t4 80l62 364h-74l3 20h79l56 129h12l-21 -129h143l-3 -20h-144l-60 -363q-4 -27 -5.5 -40t0 -22t6.5 -11t15 -2q19 0 53 15.5t71 50.5l6 -7q-38 -48 -82 -71t-74 -23zM44 -84q0 19 12.5 32t32.5 13q21 0 32.5 -14.5t11.5 -37.5q0 -42 -35 -94.5
t-86 -86.5l-2 2q39 36 57.5 75.5t18.5 65.5q-18 1 -30 14t-12 31z" />
    <glyph glyph-name="Tcaron" unicode="&#x164;" horiz-adv-x="685" 
d="M422 837l-120 112h6l124 -57l141 57h5l-153 -112h-3zM385 760h-122q-100 0 -139.5 -46t-59.5 -173h-10l37 246h654l-37 -246h-10q17 128 -7.5 173.5t-123.5 45.5h-124l-103 -674q-7 -44 12.5 -57t91.5 -13l-2 -16h-286l2 16q72 0 94.5 13t29.5 56z" />
    <glyph glyph-name="tcaron" unicode="&#x165;" horiz-adv-x="328" 
d="M261 744q0 22 13.5 36.5t36.5 14.5q24 0 37 -16.5t13 -41.5q0 -44 -32.5 -80t-74.5 -54l-3 6q22 12 43 38t21 47q-25 1 -39.5 15.5t-14.5 34.5zM112 -14q-39 0 -47 29t4 80l62 364h-74l3 20h79l56 129h12l-21 -129h143l-3 -20h-144l-60 -363q-4 -27 -5.5 -40t0 -22
t6.5 -11t15 -2q19 0 53 15.5t71 50.5l6 -7q-38 -48 -82 -71t-74 -23z" />
    <glyph glyph-name="Tbar" unicode="&#x166;" horiz-adv-x="685" 
d="M156 0l2 16q72 0 94.5 13t29.5 56l49 324h-149l5 31h149l49 320h-122q-100 0 -139.5 -46t-59.5 -173h-10l37 246h654l-37 -246h-10q17 128 -7.5 173.5t-123.5 45.5h-124l-49 -320h153l-5 -31h-153l-49 -323q-7 -44 12.5 -57t91.5 -13l-2 -16h-286z" />
    <glyph glyph-name="tbar" unicode="&#x167;" horiz-adv-x="328" 
d="M112 -14q-39 0 -47 29t4 80l39 232h-67l3 20h68l19 112h-74l3 20h79l56 129h12l-21 -129h143l-3 -20h-144l-18 -112h158l-3 -20h-159l-38 -231q-4 -27 -5.5 -40t0 -22t6.5 -11t15 -2q19 0 53 15.5t71 50.5l6 -7q-38 -48 -82 -71t-74 -23z" />
    <glyph glyph-name="Utilde" unicode="&#x168;" horiz-adv-x="815" 
d="M643 929l35 47l5 -3l-35 -88h-248l-37 -46l-5 3l37 87h248zM759 671l-47 -310q-21 -138 -53 -206q-81 -169 -289 -169q-66 0 -115 17t-76 42t-43.5 61.5t-21.5 69t-5 70.5q0 48 14 140l51 330q5 33 -11.5 44t-74.5 11l2 16h248l-2 -16q-57 0 -78 -11t-26 -44l-52 -338
q-16 -103 -16 -134q0 -209 206 -209q52 0 93.5 10.5t70 25.5t51 43.5t35 51t23 62.5t15 64.5t11.5 68.5l47 310q9 57 -6.5 78.5t-82.5 21.5l2 16h254l-2 -16q-61 0 -87.5 -22.5t-34.5 -77.5z" />
    <glyph glyph-name="utilde" unicode="&#x169;" horiz-adv-x="559" 
d="M475 708l35 47l5 -3l-35 -88h-248l-37 -46l-5 3l37 87h248zM403 -14q-55 0 -42 73l17 95q-30 -81 -84 -124.5t-111 -43.5q-126 0 -91 171l53 259q6 30 3.5 42.5t-17.5 12.5q-38 0 -92 -114l-10 5q27 65 56 103.5t70 38.5q61 0 41 -95l-50 -246q-29 -141 55 -141
q51 0 98 34.5t79 97.5l58 325h53l-73 -405q-6 -30 -4 -41.5t16 -11.5q22 0 59 46t63 102l10 -5q-29 -71 -70 -124.5t-87 -53.5z" />
    <glyph glyph-name="Umacron" unicode="&#x16a;" horiz-adv-x="815" 
d="M334 853l5 32h314l-5 -32h-314zM759 671l-47 -310q-21 -138 -53 -206q-81 -169 -289 -169q-66 0 -115 17t-76 42t-43.5 61.5t-21.5 69t-5 70.5q0 48 14 140l51 330q5 33 -11.5 44t-74.5 11l2 16h248l-2 -16q-57 0 -78 -11t-26 -44l-52 -338q-16 -103 -16 -134
q0 -209 206 -209q52 0 93.5 10.5t70 25.5t51 43.5t35 51t23 62.5t15 64.5t11.5 68.5l47 310q9 57 -6.5 78.5t-82.5 21.5l2 16h254l-2 -16q-61 0 -87.5 -22.5t-34.5 -77.5z" />
    <glyph glyph-name="umacron" unicode="&#x16b;" horiz-adv-x="559" 
d="M181 658l5 32h314l-5 -32h-314zM403 -14q-55 0 -42 73l17 95q-30 -81 -84 -124.5t-111 -43.5q-126 0 -91 171l53 259q6 30 3.5 42.5t-17.5 12.5q-38 0 -92 -114l-10 5q27 65 56 103.5t70 38.5q61 0 41 -95l-50 -246q-29 -141 55 -141q51 0 98 34.5t79 97.5l58 325h53
l-73 -405q-6 -30 -4 -41.5t16 -11.5q22 0 59 46t63 102l10 -5q-29 -71 -70 -124.5t-87 -53.5z" />
    <glyph glyph-name="Ubreve" unicode="&#x16c;" horiz-adv-x="815" 
d="M488 813q-52 0 -90 29t-32 93h31q-10 -95 91 -95q102 0 121 95h31q-14 -65 -57.5 -93.5t-94.5 -28.5zM759 671l-47 -310q-21 -138 -53 -206q-81 -169 -289 -169q-66 0 -115 17t-76 42t-43.5 61.5t-21.5 69t-5 70.5q0 48 14 140l51 330q5 33 -11.5 44t-74.5 11l2 16h248
l-2 -16q-57 0 -78 -11t-26 -44l-52 -338q-16 -103 -16 -134q0 -209 206 -209q52 0 93.5 10.5t70 25.5t51 43.5t35 51t23 62.5t15 64.5t11.5 68.5l47 310q9 57 -6.5 78.5t-82.5 21.5l2 16h254l-2 -16q-61 0 -87.5 -22.5t-34.5 -77.5z" />
    <glyph glyph-name="ubreve" unicode="&#x16d;" horiz-adv-x="559" 
d="M507 749q-10 -48 -31.5 -81.5t-48.5 -49.5t-50.5 -22.5t-46.5 -6.5q-27 0 -50.5 6.5t-46.5 22.5t-34 49.5t-6 81.5h31q-8 -60 18.5 -96t90.5 -36q57 0 94.5 36.5t48.5 95.5h31zM403 -14q-55 0 -42 73l17 95q-30 -81 -84 -124.5t-111 -43.5q-126 0 -91 171l53 259
q6 30 3.5 42.5t-17.5 12.5q-38 0 -92 -114l-10 5q27 65 56 103.5t70 38.5q61 0 41 -95l-50 -246q-29 -141 55 -141q51 0 98 34.5t79 97.5l58 325h53l-73 -405q-6 -30 -4 -41.5t16 -11.5q22 0 59 46t63 102l10 -5q-29 -71 -70 -124.5t-87 -53.5z" />
    <glyph glyph-name="Uring" unicode="&#x16e;" horiz-adv-x="815" 
d="M584 889q0 -41 -30 -69.5t-72 -28.5t-72 28.5t-30 69.5t30 69.5t72 28.5t72 -28.5t30 -69.5zM553 889q0 31 -21 51.5t-50 20.5q-30 0 -50 -21t-20 -51t20 -51t50 -21q32 0 51.5 21t19.5 51zM759 671l-47 -310q-21 -138 -53 -206q-81 -169 -289 -169q-66 0 -115 17t-76 42
t-43.5 61.5t-21.5 69t-5 70.5q0 48 14 140l51 330q5 33 -11.5 44t-74.5 11l2 16h248l-2 -16q-57 0 -78 -11t-26 -44l-52 -338q-16 -103 -16 -134q0 -209 206 -209q52 0 93.5 10.5t70 25.5t51 43.5t35 51t23 62.5t15 64.5t11.5 68.5l47 310q9 57 -6.5 78.5t-82.5 21.5l2 16
h254l-2 -16q-61 0 -87.5 -22.5t-34.5 -77.5z" />
    <glyph glyph-name="uring" unicode="&#x16f;" horiz-adv-x="559" 
d="M431 673q0 -41 -30 -69.5t-72 -28.5t-72 28.5t-30 69.5t30 69.5t72 28.5t72 -28.5t30 -69.5zM400 673q0 31 -21 51.5t-50 20.5q-30 0 -50 -21t-20 -51t20 -51t50 -21q32 0 51.5 21t19.5 51zM403 -14q-55 0 -42 73l17 95q-30 -81 -84 -124.5t-111 -43.5q-126 0 -91 171
l53 259q6 30 3.5 42.5t-17.5 12.5q-38 0 -92 -114l-10 5q27 65 56 103.5t70 38.5q61 0 41 -95l-50 -246q-29 -141 55 -141q51 0 98 34.5t79 97.5l58 325h53l-73 -405q-6 -30 -4 -41.5t16 -11.5q22 0 59 46t63 102l10 -5q-29 -71 -70 -124.5t-87 -53.5z" />
    <glyph glyph-name="Uhungarumlaut" unicode="&#x170;" horiz-adv-x="815" 
d="M707 945l-169 -109h-5l81 109h93zM547 945l-169 -109h-5l81 109h93zM759 671l-47 -310q-21 -138 -53 -206q-81 -169 -289 -169q-66 0 -115 17t-76 42t-43.5 61.5t-21.5 69t-5 70.5q0 48 14 140l51 330q5 33 -11.5 44t-74.5 11l2 16h248l-2 -16q-57 0 -78 -11t-26 -44
l-52 -338q-16 -103 -16 -134q0 -209 206 -209q52 0 93.5 10.5t70 25.5t51 43.5t35 51t23 62.5t15 64.5t11.5 68.5l47 310q9 57 -6.5 78.5t-82.5 21.5l2 16h254l-2 -16q-61 0 -87.5 -22.5t-34.5 -77.5z" />
    <glyph glyph-name="uhungarumlaut" unicode="&#x171;" horiz-adv-x="559" 
d="M575 787l-191 -194h-5l116 194h80zM414 787l-191 -194h-5l116 194h80zM403 -14q-55 0 -42 73l17 95q-30 -81 -84 -124.5t-111 -43.5q-126 0 -91 171l53 259q6 30 3.5 42.5t-17.5 12.5q-38 0 -92 -114l-10 5q27 65 56 103.5t70 38.5q61 0 41 -95l-50 -246
q-29 -141 55 -141q51 0 98 34.5t79 97.5l58 325h53l-73 -405q-6 -30 -4 -41.5t16 -11.5q22 0 59 46t63 102l10 -5q-29 -71 -70 -124.5t-87 -53.5z" />
    <glyph glyph-name="Uogonek" unicode="&#x172;" horiz-adv-x="815" 
d="M349 -236q-40 0 -67.5 22.5t-27.5 61.5t29.5 71t84.5 67q-259 1 -259 260q0 48 14 140l51 330q5 33 -11.5 44t-74.5 11l2 16h248l-2 -16q-57 0 -78 -11t-26 -44l-52 -338q-16 -103 -16 -134q0 -209 206 -209q52 0 93.5 10.5t70 25.5t51 43.5t35 51t23 62.5t15 64.5
t11.5 68.5l47 310q9 57 -6.5 78.5t-82.5 21.5l2 16h254l-2 -16q-61 0 -87.5 -22.5t-34.5 -77.5l-47 -310q-5 -34 -7.5 -48t-10.5 -50.5t-15 -56t-21.5 -53t-30.5 -52.5t-40.5 -43.5t-53.5 -37.5t-68 -23t-84 -11q-78 -59 -78 -125q0 -35 24.5 -54.5t60.5 -19.5q25 0 49 9
l1 -2q-37 -30 -89 -30z" />
    <glyph glyph-name="uogonek" unicode="&#x173;" horiz-adv-x="559" 
d="M461 -206q-37 -30 -89 -30q-40 0 -67.5 22.5t-27.5 61.5q0 70 113 139q-41 8 -29 72l17 95q-30 -81 -84 -124.5t-111 -43.5q-126 0 -91 171l53 259q6 30 3.5 42.5t-17.5 12.5q-38 0 -92 -114l-10 5q27 65 56 103.5t70 38.5q61 0 41 -95l-50 -246q-29 -141 55 -141
q51 0 98 34.5t79 97.5l58 325h53l-73 -405q-6 -30 -4 -41.5t16 -11.5q22 0 59 46t63 102l10 -5q-29 -71 -70 -124.5t-87 -53.5h-1q-76 -60 -76 -125q0 -35 24.5 -54.5t60.5 -19.5q25 0 49 9z" />
    <glyph glyph-name="Wcircumflex" unicode="&#x174;" horiz-adv-x="1021" 
d="M590 949l130 -112h-6l-134 57l-151 -57h-5l163 112h3zM682 98l232 530q19 42 27 64t11.5 40.5t-5.5 25t-23.5 10t-43.5 3.5l3 16h238l-3 -16q-54 0 -87.5 -25t-68.5 -104l-302 -680l-134 591l-310 -591h-5l-91 745q-8 64 -93 64l3 16h234l-3 -16q-49 0 -67 -12t-14 -50
l70 -612l303 591h2z" />
    <glyph glyph-name="wcircumflex" unicode="&#x175;" horiz-adv-x="732" 
d="M437 800l126 -204h-6l-130 131l-185 -131h-5l197 204h3zM387 -27l-2 1q18 87 18 243q-20 -57 -61 -107q-83 -99 -207 -137l-2 1q18 87 18 243q0 54 -2 92.5t-7.5 77.5t-17.5 59t-30 20q-44 0 -74 -116l-9 3q28 151 103 151q28 0 46.5 -20.5t27.5 -60t12 -79.5t3 -95
q0 -123 -20 -230q86 45 145 116.5t73 163.5q-8 110 -54 180h73q35 -67 35 -230q0 -123 -20 -230q98 51 159.5 135t61.5 193q0 33 -8.5 54.5t-19 29.5t-19 19t-8.5 25q0 29 36 29q27 0 46 -30.5t19 -72.5q0 -161 -103 -285q-88 -105 -212 -143z" />
    <glyph glyph-name="Ycircumflex" unicode="&#x176;" horiz-adv-x="689" 
d="M437 949l130 -112h-6l-134 57l-151 -57h-5l163 112h3zM344 332l258 365q28 41 14 57.5t-76 16.5l2 16h233l-2 -16q-48 0 -70.5 -14.5t-56.5 -61.5l-285 -392l-33 -222q-7 -43 10 -54t87 -11v-16h-278l2 16q70 0 92 11.5t28 52.5l33 216l-161 416q-12 31 -29.5 45
t-59.5 14l2 16h228l-2 -16q-48 0 -69.5 -12t-12.5 -37z" />
    <glyph glyph-name="ycircumflex" unicode="&#x177;" horiz-adv-x="498" 
d="M326 800l126 -204h-6l-130 131l-185 -131h-5l197 204h3zM-78 -273q-49 0 -79 18.5t-30 43.5q0 16 11 27t29 11q17 0 28 -11t16 -24t16 -24t27 -11q36 0 100.5 46.5t129.5 115.5q1 32 -1 147t-2 151q0 54 -2 92.5t-7.5 77.5t-17.5 59t-30 20q-42 0 -71 -101l-9 3
q28 136 100 136q28 0 46.5 -20.5t27.5 -60t12 -79.5t3 -95q0 -34 0.5 -98.5t1 -98t-0.5 -75.5q86 103 146.5 209t60.5 166q0 31 -8.5 51.5t-19 28t-19 18.5t-8.5 25q0 29 36 29q27 0 46 -30.5t19 -72.5q0 -76 -63.5 -197t-158.5 -235q-88 -105 -178.5 -173.5t-150.5 -68.5z
" />
    <glyph glyph-name="Ydieresis" unicode="&#x178;" horiz-adv-x="689" 
d="M516 900q0 19 13 32t30 13q19 0 32 -13t13 -32q0 -18 -13 -30.5t-32 -12.5q-17 0 -30 12.5t-13 30.5zM273 900q0 19 13 32t30 13q19 0 32 -13t13 -32q0 -18 -13 -30.5t-32 -12.5q-17 0 -30 12.5t-13 30.5zM344 332l258 365q28 41 14 57.5t-76 16.5l2 16h233l-2 -16
q-48 0 -70.5 -14.5t-56.5 -61.5l-285 -392l-33 -222q-7 -43 10 -54t87 -11v-16h-278l2 16q70 0 92 11.5t28 52.5l33 216l-161 416q-12 31 -29.5 45t-59.5 14l2 16h228l-2 -16q-48 0 -69.5 -12t-12.5 -37z" />
    <glyph glyph-name="Zacute" unicode="&#x179;" 
d="M557 945l-169 -109h-5l81 109h93zM-37 0l660 760h-251q-124 0 -167.5 -28t-69.5 -133h-12l30 188h554l-657 -760h339q92 0 139.5 32t69.5 133h10l-28 -192h-617z" />
    <glyph glyph-name="zacute" unicode="&#x17a;" horiz-adv-x="465" 
d="M447 787l-191 -194h-5l116 194h80zM482 470l-427 -428h233q41 0 63 17.5t45 70.5l13 30h4l-38 -160h-388l-4 9l427 429h-213q-41 0 -63 -18t-45 -71l-13 -30h-4l38 160h368z" />
    <glyph glyph-name="Zdotaccent" unicode="&#x17b;" 
d="M385 881q0 19 13 32t30 13q19 0 32 -13t13 -32q0 -18 -13 -30.5t-32 -12.5q-17 0 -30 12.5t-13 30.5zM-37 0l660 760h-251q-124 0 -167.5 -28t-69.5 -133h-12l30 188h554l-657 -760h339q92 0 139.5 32t69.5 133h10l-28 -192h-617z" />
    <glyph glyph-name="zdotaccent" unicode="&#x17c;" horiz-adv-x="465" 
d="M265 715q0 19 13 32t30 13q19 0 32 -13t13 -32q0 -18 -13 -30.5t-32 -12.5q-17 0 -30 12.5t-13 30.5zM482 470l-427 -428h233q41 0 63 17.5t45 70.5l13 30h4l-38 -160h-388l-4 9l427 429h-213q-41 0 -63 -18t-45 -71l-13 -30h-4l38 160h368z" />
    <glyph glyph-name="Zcaron" unicode="&#x17d;" 
d="M413 837l-120 112h6l124 -57l141 57h5l-153 -112h-3zM-37 0l660 760h-251q-124 0 -167.5 -28t-69.5 -133h-12l30 188h554l-657 -760h339q92 0 139.5 32t69.5 133h10l-28 -192h-617z" />
    <glyph glyph-name="zcaron" unicode="&#x17e;" horiz-adv-x="465" 
d="M295 596l-144 204h6l143 -131l172 131h5l-179 -204h-3zM482 470l-427 -428h233q41 0 63 17.5t45 70.5l13 30h4l-38 -160h-388l-4 9l427 429h-213q-41 0 -63 -18t-45 -71l-13 -30h-4l38 160h368z" />
    <glyph glyph-name="uni018F" unicode="&#x18f;" horiz-adv-x="753" 
d="M279 -14q-136 0 -209.5 81t-62.5 221h628v-1q29 81 29 167q0 145 -74 229.5t-215 84.5q-173 0 -305 -118l-3 3q129 152 330 152q149 0 240 -90.5t91 -252.5q0 -120 -54.5 -228t-159 -178t-235.5 -70zM280 15q116 0 206 67t137 175h-550q-17 -116 46.5 -179t160.5 -63z
" />
    <glyph glyph-name="Scommaaccent" unicode="&#x218;" horiz-adv-x="607" 
d="M52 225q1 -51 15.5 -89.5t36.5 -61t52.5 -36.5t58 -18.5t57.5 -4.5q92 0 151 36t59 112q0 62 -39 108.5t-119 101.5l-57 39q-71 49 -111.5 99.5t-40.5 114.5q0 58 36 98.5t87 57.5t110 17q67 0 135 -23t94 -49l-23 -151h-9q7 98 -50.5 146.5t-151.5 48.5
q-73 0 -122.5 -35t-49.5 -98q0 -57 35 -99t94 -81l60 -41q87 -59 133 -116t46 -119q0 -94 -78.5 -145t-190.5 -51q-140 0 -250 85l22 154h10zM209 -84q0 19 12.5 32t32.5 13q21 0 32.5 -14.5t11.5 -37.5q0 -42 -35 -94.5t-86 -86.5l-2 2q39 36 57.5 75.5t18.5 65.5
q-18 1 -30 14t-12 31z" />
    <glyph glyph-name="scommaaccent" unicode="&#x219;" horiz-adv-x="402" 
d="M176 5q43 0 78.5 23.5t35.5 66.5q0 67 -86 131l-44 34q-27 21 -42 35t-30.5 40t-15.5 54q0 55 47.5 85t108.5 30q56 0 102.5 -24t46.5 -49q0 -30 -28 -30q-16 0 -27 13t-17 28t-27 28t-56 13q-39 0 -70 -20t-31 -58q0 -22 13.5 -43.5t25.5 -32.5t37 -31l47 -36
q28 -22 44.5 -38t33.5 -45t17 -59q0 -65 -47 -99.5t-122 -34.5q-73 0 -116.5 27t-43.5 55q0 13 7.5 21.5t21.5 8.5q16 0 28 -14.5t20.5 -32t31.5 -32t57 -14.5zM108 -84q0 19 12.5 32t32.5 13q21 0 32.5 -14.5t11.5 -37.5q0 -42 -35 -94.5t-86 -86.5l-2 2q39 36 57.5 75.5
t18.5 65.5q-18 1 -30 14t-12 31z" />
    <glyph glyph-name="uni021A" unicode="&#x21a;" horiz-adv-x="685" 
d="M385 760h-122q-100 0 -139.5 -46t-59.5 -173h-10l37 246h654l-37 -246h-10q17 128 -7.5 173.5t-123.5 45.5h-124l-103 -674q-7 -44 12.5 -57t91.5 -13l-2 -16h-286l2 16q72 0 94.5 13t29.5 56zM241 -84q0 19 12.5 32t32.5 13q21 0 32.5 -14.5t11.5 -37.5q0 -42 -35 -94.5
t-86 -86.5l-2 2q39 36 57.5 75.5t18.5 65.5q-18 1 -30 14t-12 31z" />
    <glyph glyph-name="uni021B" unicode="&#x21b;" horiz-adv-x="328" 
d="M112 -14q-39 0 -47 29t4 80l62 364h-74l3 20h79l56 129h12l-21 -129h143l-3 -20h-144l-60 -363q-4 -27 -5.5 -40t0 -22t6.5 -11t15 -2q19 0 53 15.5t71 50.5l6 -7q-38 -48 -82 -71t-74 -23zM44 -84q0 19 12.5 32t32.5 13q21 0 32.5 -14.5t11.5 -37.5q0 -42 -35 -94.5
t-86 -86.5l-2 2q39 36 57.5 75.5t18.5 65.5q-18 1 -30 14t-12 31z" />
    <glyph glyph-name="uni0232" unicode="&#x232;" horiz-adv-x="689" 
d="M268 853l5 32h314l-5 -32h-314zM344 332l258 365q28 41 14 57.5t-76 16.5l2 16h233l-2 -16q-48 0 -70.5 -14.5t-56.5 -61.5l-285 -392l-33 -222q-7 -43 10 -54t87 -11v-16h-278l2 16q70 0 92 11.5t28 52.5l33 216l-161 416q-12 31 -29.5 45t-59.5 14l2 16h228l-2 -16
q-48 0 -69.5 -12t-12.5 -37z" />
    <glyph glyph-name="uni0233" unicode="&#x233;" horiz-adv-x="498" 
d="M160 658l5 32h314l-5 -32h-314zM-78 -273q-49 0 -79 18.5t-30 43.5q0 16 11 27t29 11q17 0 28 -11t16 -24t16 -24t27 -11q36 0 100.5 46.5t129.5 115.5q1 32 -1 147t-2 151q0 54 -2 92.5t-7.5 77.5t-17.5 59t-30 20q-42 0 -71 -101l-9 3q28 136 100 136q28 0 46.5 -20.5
t27.5 -60t12 -79.5t3 -95q0 -34 0.5 -98.5t1 -98t-0.5 -75.5q86 103 146.5 209t60.5 166q0 31 -8.5 51.5t-19 28t-19 18.5t-8.5 25q0 29 36 29q27 0 46 -30.5t19 -72.5q0 -76 -63.5 -197t-158.5 -235q-88 -105 -178.5 -173.5t-150.5 -68.5z" />
    <glyph glyph-name="dotlessj" unicode="&#x237;" horiz-adv-x="263" 
d="M192 413l-55 -335q-21 -128 -67 -208t-136 -141l-1 2q67 61 98 136.5t54 213.5l55 335q6 30 3 42.5t-17 12.5q-38 0 -92 -114l-10 5q27 65 56 103.5t70 38.5q31 0 40.5 -21.5t1.5 -69.5z" />
    <glyph glyph-name="uni0259" unicode="&#x259;" horiz-adv-x="422" 
d="M138 -14q-48 0 -74.5 19t-26.5 53q0 39 19.5 69.5t69 56t81.5 37.5t108 37q8 3 13 4.5t12.5 4l13.5 4.5q6 30 6 55q0 81 -27.5 111t-74.5 30q-95 0 -169 -106l-2 1q44 80 91 111t102 31q64 0 100.5 -39.5t36.5 -119.5q0 -143 -89 -251t-190 -108zM155 11q48 0 90.5 40.5
t67.5 93.5t38 111q-77 -27 -130 -53.5t-90 -63.5t-37 -77q0 -26 17.5 -38.5t43.5 -12.5z" />
    <glyph glyph-name="circumflex" unicode="&#x2c6;" horiz-adv-x="408" 
d="M233 800l126 -204h-6l-130 131l-185 -131h-5l197 204h3z" />
    <glyph glyph-name="caron" unicode="&#x2c7;" horiz-adv-x="364" 
d="M169 596l-144 204h6l143 -131l172 131h5l-179 -204h-3z" />
    <glyph glyph-name="breve" unicode="&#x2d8;" horiz-adv-x="412" 
d="M377 749q-10 -48 -31.5 -81.5t-48.5 -49.5t-50.5 -22.5t-46.5 -6.5q-27 0 -50.5 6.5t-46.5 22.5t-34 49.5t-6 81.5h31q-8 -60 18.5 -96t90.5 -36q57 0 94.5 36.5t48.5 95.5h31z" />
    <glyph glyph-name="dotaccent" unicode="&#x2d9;" horiz-adv-x="211" 
d="M62 715q0 19 13 32t30 13q19 0 32 -13t13 -32q0 -18 -13 -30.5t-32 -12.5q-17 0 -30 12.5t-13 30.5z" />
    <glyph glyph-name="ring" unicode="&#x2da;" horiz-adv-x="286" 
d="M245 673q0 -41 -30 -69.5t-72 -28.5t-72 28.5t-30 69.5t30 69.5t72 28.5t72 -28.5t30 -69.5zM214 673q0 31 -21 51.5t-50 20.5q-30 0 -50 -21t-20 -51t20 -51t50 -21q32 0 51.5 21t19.5 51z" />
    <glyph glyph-name="ogonek" unicode="&#x2db;" horiz-adv-x="284" 
d="M233 -204l1 -2q-37 -30 -89 -30q-40 0 -67.5 22.5t-27.5 61.5q0 44 35.5 79.5t101.5 74.5h10q-98 -65 -98 -141q0 -35 24.5 -54.5t60.5 -19.5q25 0 49 9z" />
    <glyph glyph-name="tilde" unicode="&#x2dc;" horiz-adv-x="439" 
d="M336 708l35 47l5 -3l-35 -88h-248l-37 -46l-5 3l37 87h248z" />
    <glyph glyph-name="hungarumlaut" unicode="&#x2dd;" horiz-adv-x="419" 
d="M385 787l-191 -194h-5l116 194h80zM224 787l-191 -194h-5l116 194h80z" />
    <glyph glyph-name="Delta" unicode="&#x394;" horiz-adv-x="630" 
d="M360 588l210 -588h-603zM348 498l-307 -461h471z" />
    <glyph glyph-name="Omega" unicode="&#x3a9;" horiz-adv-x="926" 
d="M493 0l6 36q142 49 227.5 159.5t85.5 251.5q0 76 -29.5 137.5t-77.5 99t-106.5 57.5t-119.5 20q-54 0 -107 -15t-102.5 -47t-87 -77.5t-60 -111.5t-22.5 -144q0 -119 65.5 -210t151.5 -119l-6 -37h-326l6 37h255q-90 44 -140.5 136t-50.5 196q0 185 124 307.5t301 122.5
q164 0 271 -100t107 -254q0 -131 -80.5 -245.5t-198.5 -162.5h249l-6 -37h-329z" />
    <glyph glyph-name="pi" unicode="&#x3c0;" horiz-adv-x="659" 
d="M48 442l5 37h578l-5 -37h-89l-62 -442h-45l62 442h-305l-62 -442h-49l62 442h-90z" />
    <glyph glyph-name="Wgrave" unicode="&#x1e80;" horiz-adv-x="1021" 
d="M612 836l-169 109h93l81 -109h-5zM682 98l232 530q19 42 27 64t11.5 40.5t-5.5 25t-23.5 10t-43.5 3.5l3 16h238l-3 -16q-54 0 -87.5 -25t-68.5 -104l-302 -680l-134 591l-310 -591h-5l-91 745q-8 64 -93 64l3 16h234l-3 -16q-49 0 -67 -12t-14 -50l70 -612l303 591h2z
" />
    <glyph glyph-name="wgrave" unicode="&#x1e81;" horiz-adv-x="732" 
d="M446 593l-160 194h80l85 -194h-5zM387 -27l-2 1q18 87 18 243q-20 -57 -61 -107q-83 -99 -207 -137l-2 1q18 87 18 243q0 54 -2 92.5t-7.5 77.5t-17.5 59t-30 20q-44 0 -74 -116l-9 3q28 151 103 151q28 0 46.5 -20.5t27.5 -60t12 -79.5t3 -95q0 -123 -20 -230
q86 45 145 116.5t73 163.5q-8 110 -54 180h73q35 -67 35 -230q0 -123 -20 -230q98 51 159.5 135t61.5 193q0 33 -8.5 54.5t-19 29.5t-19 19t-8.5 25q0 29 36 29q27 0 46 -30.5t19 -72.5q0 -161 -103 -285q-88 -105 -212 -143z" />
    <glyph glyph-name="Wacute" unicode="&#x1e82;" horiz-adv-x="1021" 
d="M702 945l-169 -109h-5l81 109h93zM682 98l232 530q19 42 27 64t11.5 40.5t-5.5 25t-23.5 10t-43.5 3.5l3 16h238l-3 -16q-54 0 -87.5 -25t-68.5 -104l-302 -680l-134 591l-310 -591h-5l-91 745q-8 64 -93 64l3 16h234l-3 -16q-49 0 -67 -12t-14 -50l70 -612l303 591h2z
" />
    <glyph glyph-name="wacute" unicode="&#x1e83;" horiz-adv-x="732" 
d="M534 787l-191 -194h-5l116 194h80zM387 -27l-2 1q18 87 18 243q-20 -57 -61 -107q-83 -99 -207 -137l-2 1q18 87 18 243q0 54 -2 92.5t-7.5 77.5t-17.5 59t-30 20q-44 0 -74 -116l-9 3q28 151 103 151q28 0 46.5 -20.5t27.5 -60t12 -79.5t3 -95q0 -123 -20 -230
q86 45 145 116.5t73 163.5q-8 110 -54 180h73q35 -67 35 -230q0 -123 -20 -230q98 51 159.5 135t61.5 193q0 33 -8.5 54.5t-19 29.5t-19 19t-8.5 25q0 29 36 29q27 0 46 -30.5t19 -72.5q0 -161 -103 -285q-88 -105 -212 -143z" />
    <glyph glyph-name="Wdieresis" unicode="&#x1e84;" horiz-adv-x="1021" 
d="M633 900q0 19 13 32t30 13q19 0 32 -13t13 -32q0 -18 -13 -30.5t-32 -12.5q-17 0 -30 12.5t-13 30.5zM390 900q0 19 13 32t30 13q19 0 32 -13t13 -32q0 -18 -13 -30.5t-32 -12.5q-17 0 -30 12.5t-13 30.5zM682 98l232 530q19 42 27 64t11.5 40.5t-5.5 25t-23.5 10
t-43.5 3.5l3 16h238l-3 -16q-54 0 -87.5 -25t-68.5 -104l-302 -680l-134 591l-310 -591h-5l-91 745q-8 64 -93 64l3 16h234l-3 -16q-49 0 -67 -12t-14 -50l70 -612l303 591h2z" />
    <glyph glyph-name="wdieresis" unicode="&#x1e85;" horiz-adv-x="732" 
d="M480 691q0 19 13 32t30 13q19 0 32 -13t13 -32q0 -18 -13 -30.5t-32 -12.5q-17 0 -30 12.5t-13 30.5zM267 691q0 19 13 32t30 13q19 0 32 -13t13 -32q0 -18 -13 -30.5t-32 -12.5q-17 0 -30 12.5t-13 30.5zM387 -27l-2 1q18 87 18 243q-20 -57 -61 -107q-83 -99 -207 -137
l-2 1q18 87 18 243q0 54 -2 92.5t-7.5 77.5t-17.5 59t-30 20q-44 0 -74 -116l-9 3q28 151 103 151q28 0 46.5 -20.5t27.5 -60t12 -79.5t3 -95q0 -123 -20 -230q86 45 145 116.5t73 163.5q-8 110 -54 180h73q35 -67 35 -230q0 -123 -20 -230q98 51 159.5 135t61.5 193
q0 33 -8.5 54.5t-19 29.5t-19 19t-8.5 25q0 29 36 29q27 0 46 -30.5t19 -72.5q0 -161 -103 -285q-88 -105 -212 -143z" />
    <glyph glyph-name="uni1ECA" unicode="&#x1eca;" horiz-adv-x="390" 
d="M128 76l99 640q5 33 -12 44t-75 11l1 16h248l-2 -16q-57 0 -77.5 -11t-25.5 -44l-98 -640q-5 -33 12 -46.5t74 -13.5l-1 -16h-247l2 16q55 0 76 13t26 47zM76 -154q0 19 13 32t30 13q19 0 32 -13t13 -32q0 -18 -13 -30.5t-32 -12.5q-17 0 -30 12.5t-13 30.5z" />
    <glyph glyph-name="uni1ECB" unicode="&#x1ecb;" horiz-adv-x="273" 
d="M151 715q0 19 13 32t30 13q19 0 32 -13t13 -32q0 -18 -13 -30.5t-32 -12.5q-17 0 -30 12.5t-13 30.5zM75 58l64 358q6 30 3 42.5t-17 12.5q-38 0 -92 -114l-10 5q27 65 56 103.5t70 38.5q31 0 40.5 -21.5t1.5 -69.5l-61 -339q-6 -30 -4 -41.5t16 -11.5q22 0 59 46t63 102
l10 -5q-29 -71 -70 -124.5t-87 -53.5q-55 0 -42 72zM42 -154q0 19 13 32t30 13q19 0 32 -13t13 -32q0 -18 -13 -30.5t-32 -12.5q-17 0 -30 12.5t-13 30.5z" />
    <glyph glyph-name="uni1ECC" unicode="&#x1ecc;" horiz-adv-x="917" 
d="M884 425q0 -195 -125 -317t-309 -122q-170 0 -272.5 105.5t-102.5 271.5q0 193 124 314.5t312 121.5q167 0 270 -106t103 -268zM448 15q169 0 270 117t101 306q0 148 -85.5 240t-221.5 92q-88 0 -160 -34t-118 -91.5t-71 -131t-25 -155.5q0 -92 28.5 -160t65.5 -101.5
t86 -53.5t77.5 -24t52.5 -4zM369 -154q0 19 13 32t30 13q19 0 32 -13t13 -32q0 -18 -13 -30.5t-32 -12.5q-17 0 -30 12.5t-13 30.5z" />
    <glyph glyph-name="uni1ECD" unicode="&#x1ecd;" horiz-adv-x="467" 
d="M167 -14q-65 0 -103.5 39.5t-38.5 119.5q0 146 90.5 252.5t188.5 106.5q65 0 104 -39.5t39 -119.5q0 -73 -26.5 -141.5t-67.5 -115t-90.5 -74.5t-95.5 -28zM182 11q47 0 88 34t66 84.5t39.5 104t14.5 96.5q0 149 -101 149q-62 0 -111.5 -58t-72.5 -129.5t-23 -131.5
q0 -149 100 -149zM99 -154q0 19 13 32t30 13q19 0 32 -13t13 -32q0 -18 -13 -30.5t-32 -12.5q-17 0 -30 12.5t-13 30.5z" />
    <glyph glyph-name="uni1EE4" unicode="&#x1ee4;" horiz-adv-x="815" 
d="M759 671l-47 -310q-21 -138 -53 -206q-81 -169 -289 -169q-66 0 -115 17t-76 42t-43.5 61.5t-21.5 69t-5 70.5q0 48 14 140l51 330q5 33 -11.5 44t-74.5 11l2 16h248l-2 -16q-57 0 -78 -11t-26 -44l-52 -338q-16 -103 -16 -134q0 -209 206 -209q52 0 93.5 10.5t70 25.5
t51 43.5t35 51t23 62.5t15 64.5t11.5 68.5l47 310q9 57 -6.5 78.5t-82.5 21.5l2 16h254l-2 -16q-61 0 -87.5 -22.5t-34.5 -77.5zM299 -154q0 19 13 32t30 13q19 0 32 -13t13 -32q0 -18 -13 -30.5t-32 -12.5q-17 0 -30 12.5t-13 30.5z" />
    <glyph glyph-name="uni1EE5" unicode="&#x1ee5;" horiz-adv-x="559" 
d="M403 -14q-55 0 -42 73l17 95q-30 -81 -84 -124.5t-111 -43.5q-126 0 -91 171l53 259q6 30 3.5 42.5t-17.5 12.5q-38 0 -92 -114l-10 5q27 65 56 103.5t70 38.5q61 0 41 -95l-50 -246q-29 -141 55 -141q51 0 98 34.5t79 97.5l58 325h53l-73 -405q-6 -30 -4 -41.5t16 -11.5
q22 0 59 46t63 102l10 -5q-29 -71 -70 -124.5t-87 -53.5zM167 -154q0 19 13 32t30 13q19 0 32 -13t13 -32q0 -18 -13 -30.5t-32 -12.5q-17 0 -30 12.5t-13 30.5z" />
    <glyph glyph-name="Ygrave" unicode="&#x1ef2;" horiz-adv-x="689" 
d="M461 836l-169 109h93l81 -109h-5zM344 332l258 365q28 41 14 57.5t-76 16.5l2 16h233l-2 -16q-48 0 -70.5 -14.5t-56.5 -61.5l-285 -392l-33 -222q-7 -43 10 -54t87 -11v-16h-278l2 16q70 0 92 11.5t28 52.5l33 216l-161 416q-12 31 -29.5 45t-59.5 14l2 16h228l-2 -16
q-48 0 -69.5 -12t-12.5 -37z" />
    <glyph glyph-name="ygrave" unicode="&#x1ef3;" horiz-adv-x="498" 
d="M327 593l-160 194h80l85 -194h-5zM-78 -273q-49 0 -79 18.5t-30 43.5q0 16 11 27t29 11q17 0 28 -11t16 -24t16 -24t27 -11q36 0 100.5 46.5t129.5 115.5q1 32 -1 147t-2 151q0 54 -2 92.5t-7.5 77.5t-17.5 59t-30 20q-42 0 -71 -101l-9 3q28 136 100 136
q28 0 46.5 -20.5t27.5 -60t12 -79.5t3 -95q0 -34 0.5 -98.5t1 -98t-0.5 -75.5q86 103 146.5 209t60.5 166q0 31 -8.5 51.5t-19 28t-19 18.5t-8.5 25q0 29 36 29q27 0 46 -30.5t19 -72.5q0 -76 -63.5 -197t-158.5 -235q-88 -105 -178.5 -173.5t-150.5 -68.5z" />
    <glyph glyph-name="endash" unicode="&#x2013;" horiz-adv-x="536" 
d="M58 236l5 40h414l-5 -40h-414z" />
    <glyph glyph-name="emdash" unicode="&#x2014;" horiz-adv-x="783" 
d="M58 236l5 40h661l-5 -40h-661z" />
    <glyph glyph-name="quoteleft" unicode="&#x2018;" horiz-adv-x="120" 
d="M110 654q0 -22 -13.5 -36.5t-36.5 -14.5q-24 0 -37 16.5t-13 41.5q0 44 32.5 80t74.5 54l3 -6q-22 -12 -43 -38t-21 -47q25 -1 39.5 -15.5t14.5 -34.5z" />
    <glyph glyph-name="quoteright" unicode="&#x2019;" horiz-adv-x="180" 
d="M50 744q0 22 13.5 36.5t36.5 14.5q24 0 37 -16.5t13 -41.5q0 -44 -32.5 -80t-74.5 -54l-3 6q22 12 43 38t21 47q-25 1 -39.5 15.5t-14.5 34.5z" />
    <glyph glyph-name="quotesinglbase" unicode="&#x201a;" horiz-adv-x="182" 
d="M62 35q0 22 14 36.5t37 14.5q24 0 36.5 -16t12.5 -42q0 -48 -44.5 -114t-108.5 -109l-2 3q49 45 75.5 96.5t26.5 80.5q-20 1 -33.5 15.5t-13.5 34.5z" />
    <glyph glyph-name="quotedblleft" unicode="&#x201c;" horiz-adv-x="273" 
d="M110 654q0 -22 -13.5 -36.5t-36.5 -14.5q-24 0 -37 16.5t-13 41.5q0 44 32.5 80t74.5 54l3 -6q-22 -12 -43 -38t-21 -47q25 -1 39.5 -15.5t14.5 -34.5zM263 654q0 -22 -13.5 -36.5t-36.5 -14.5q-24 0 -37 16.5t-13 41.5q0 44 32.5 80t74.5 54l3 -6q-22 -12 -43 -38
t-21 -47q25 -1 39.5 -15.5t14.5 -34.5z" />
    <glyph glyph-name="quotedblright" unicode="&#x201d;" horiz-adv-x="333" 
d="M50 744q0 22 13.5 36.5t36.5 14.5q24 0 37 -16.5t13 -41.5q0 -44 -32.5 -80t-74.5 -54l-3 6q22 12 43 38t21 47q-25 1 -39.5 15.5t-14.5 34.5zM203 744q0 22 13.5 36.5t36.5 14.5q24 0 37 -16.5t13 -41.5q0 -44 -32.5 -80t-74.5 -54l-3 6q22 12 43 38t21 47
q-25 1 -39.5 15.5t-14.5 34.5z" />
    <glyph glyph-name="quotedblbase" unicode="&#x201e;" horiz-adv-x="340" 
d="M62 35q0 22 14 36.5t37 14.5q24 0 36.5 -16t12.5 -42q0 -48 -44.5 -114t-108.5 -109l-2 3q49 45 75.5 96.5t26.5 80.5q-20 1 -33.5 15.5t-13.5 34.5zM221 35q0 22 14 36.5t37 14.5q24 0 36.5 -16t12.5 -42q0 -48 -44.5 -114t-108.5 -109l-2 3q49 45 75.5 96.5t26.5 80.5
q-20 1 -33.5 15.5t-13.5 34.5z" />
    <glyph glyph-name="dagger" unicode="&#x2020;" horiz-adv-x="639" 
d="M635 462h-276l-101 -634h-46l101 634h-275l6 37h274l51 319h46l-51 -319h277z" />
    <glyph glyph-name="daggerdbl" unicode="&#x2021;" horiz-adv-x="689" 
d="M609 114h-277l-45 -286h-46l45 286h-273l5 37h274l53 331h-275l7 37h274l47 299h46l-47 -299h277l-7 -37h-276l-53 -331h277z" />
    <glyph glyph-name="bullet" unicode="&#x2022;" horiz-adv-x="448" 
d="M61 259q0 66 47 113t113 47q70 0 118 -47t48 -113q0 -71 -47.5 -118.5t-118.5 -47.5q-66 0 -113 48t-47 118z" />
    <glyph glyph-name="ellipsis" unicode="&#x2026;" horiz-adv-x="559" 
d="M40 36q0 21 14.5 35.5t35.5 14.5t35.5 -14.5t14.5 -35.5t-14.5 -35.5t-35.5 -14.5t-35.5 14.5t-14.5 35.5zM240 36q0 21 14.5 35.5t35.5 14.5t35.5 -14.5t14.5 -35.5t-14.5 -35.5t-35.5 -14.5t-35.5 14.5t-14.5 35.5zM439 36q0 21 14.5 35.5t35.5 14.5t35.5 -14.5
t14.5 -35.5t-14.5 -35.5t-35.5 -14.5t-35.5 14.5t-14.5 35.5z" />
    <glyph glyph-name="perthousand" unicode="&#x2030;" horiz-adv-x="1203" 
d="M699 787l-522 -787h-44l520 787h46zM260 780q67 0 108 -43.5t41 -114.5q0 -79 -50.5 -141.5t-132.5 -62.5q-67 0 -107.5 43.5t-40.5 114.5q0 79 50 141.5t132 62.5zM259 749q-62 0 -99 -53.5t-37 -121.5q0 -55 29 -90t76 -35q62 0 99 53.5t37 121.5q0 55 -29 90t-76 35z
M608 348q67 0 108 -43.5t41 -114.5q0 -79 -50.5 -141.5t-132.5 -62.5q-67 0 -107.5 43.5t-40.5 114.5q0 79 50 141.5t132 62.5zM986 348q67 0 108 -43.5t41 -114.5q0 -79 -50.5 -141.5t-132.5 -62.5q-67 0 -107.5 43.5t-40.5 114.5q0 79 50 141.5t132 62.5zM607 317
q-62 0 -99 -53.5t-37 -121.5q0 -55 29 -90t76 -35q62 0 99 53.5t37 121.5q0 55 -29 90t-76 35zM985 317q-62 0 -99 -53.5t-37 -121.5q0 -55 29 -90t76 -35q62 0 99 53.5t37 121.5q0 55 -29 90t-76 35z" />
    <glyph glyph-name="guilsinglleft" unicode="&#x2039;" horiz-adv-x="297" 
d="M210 34l-184 209l1 4l241 208h12l-179 -210l120 -211h-11z" />
    <glyph glyph-name="guilsinglright" unicode="&#x203a;" horiz-adv-x="297" 
d="M250 243l-242 -209h-10l179 211l-121 210h12l183 -208z" />
    <glyph glyph-name="fraction" unicode="&#x2044;" horiz-adv-x="638" 
d="M675 817l-672 -817h-50l670 817h52z" />
    <glyph glyph-name="Euro" unicode="&#x20ac;" horiz-adv-x="738" 
d="M652 68q-100 -82 -258 -82q-76 0 -133 23.5t-90 66t-50.5 92.5t-21.5 111h-90l4 34h84v12q0 53 10 97h-78l5 34h81q35 126 133.5 205t243.5 79q146 0 236 -75l-17 -135h-10q-6 98 -59.5 141t-154.5 43q-121 0 -201 -71.5t-111 -186.5h252l-5 -34h-255q-10 -47 -10 -101
v-8h249l-4 -34h-244q8 -126 67 -196t166 -70q44 0 80 7t74.5 25.5t69 58t49.5 98.5h10z" />
    <glyph glyph-name="trademark" unicode="&#x2122;" horiz-adv-x="957" 
d="M234 767v-377q0 -21 8 -28.5t31 -7.5h26v-11h-176v11h23q24 0 33 7t9 28v378h-74q-77 0 -90 -75h-5v95h383v-95h-5q-6 39 -27 57t-62 18h-74zM877 732l12 -348q1 -17 8.5 -23.5t26.5 -6.5h20v-11h-155v11h19q19 0 27.5 6.5t7.5 23.5l-12 354l-154 -395h-6l-157 377
l-12 -310q-2 -31 6 -43.5t32 -12.5h21v-11h-141v11h20q20 0 28.5 13t10.5 44l13 321q1 24 -14.5 33.5t-36.5 9.5v12h96l150 -365l138 365h104v-12q-22 0 -37.5 -9.5t-14.5 -33.5z" />
    <glyph glyph-name="partialdiff" unicode="&#x2202;" horiz-adv-x="587" 
d="M302 503q75 0 123 -45t60 -138q9 150 -65 260q-71 104 -218 151l20 39q99 -33 170 -93t104 -137q48 -110 28 -252q-18 -125 -93.5 -213.5t-195.5 -88.5q-109 0 -163 76.5t-39 181.5q16 116 96 187.5t173 71.5zM300 460q-76 0 -139 -58.5t-77 -155.5t33.5 -157t122.5 -60
q92 0 151 61t70 145q12 88 -29 156.5t-132 68.5z" />
    <glyph glyph-name="product" unicode="&#x220f;" horiz-adv-x="870" 
d="M136 750l5 37h709l-5 -37h-88l-118 -843h92l-6 -38h-224l6 38h88l118 843h-436l-118 -843h87l-6 -38h-224l6 38h93l118 843h-97z" />
    <glyph glyph-name="summation" unicode="&#x2211;" horiz-adv-x="692" 
d="M308 396l-214 391h590l-32 -229h-42l26 192h-471l193 -359l-307 -354h496l26 192h42l-32 -229h-616z" />
    <glyph glyph-name="minus" unicode="&#x2212;" horiz-adv-x="580" 
d="M59 239l7 37h454l-7 -37h-454z" />
    <glyph glyph-name="radical" unicode="&#x221a;" horiz-adv-x="717" 
d="M23 355l6 37h152l71 -336l383 817h182l-6 -37h-147l-427 -892l-90 411h-124z" />
    <glyph glyph-name="infinity" unicode="&#x221e;" horiz-adv-x="809" 
d="M587 89q-95 0 -180 116q-111 -116 -210 -116q-63 0 -100 38.5t-37 96.5q0 69 51.5 110t124.5 41q95 0 179 -116q110 116 207 116q64 0 102 -38.5t38 -96.5q0 -70 -50.5 -110.5t-124.5 -40.5zM715 234q0 44 -26.5 73.5t-72.5 29.5q-79 0 -176 -108q66 -102 148 -102
q56 0 91.5 28t35.5 79zM106 230q0 -44 26.5 -73.5t72.5 -29.5q81 0 176 108q-67 102 -153 102q-51 0 -86.5 -28.5t-35.5 -78.5z" />
    <glyph glyph-name="integral" unicode="&#x222b;" horiz-adv-x="289" 
d="M63 -174l118 837q9 62 38 93t105 31h9l-5 -41q-50 -1 -72.5 -17.5t-29.5 -60.5l-119 -842q-8 -58 -37 -88.5t-104 -30.5h-9l5 40q48 1 71 18t30 61z" />
    <glyph glyph-name="approxequal" unicode="&#x2248;" horiz-adv-x="685" 
d="M221 409q52 0 143 -50t133 -50q63 0 111 81l35 -16q-53 -107 -151 -107q-35 0 -75 15.5t-70.5 34t-67 34t-64.5 15.5q-64 0 -111 -86l-36 17q55 112 153 112zM192 229q52 0 143.5 -50t133.5 -50q64 0 110 81l36 -16q-53 -107 -152 -107q-44 0 -95 24.5t-98.5 49.5
t-82.5 25q-63 0 -112 -86l-35 17q55 112 152 112z" />
    <glyph glyph-name="notequal" unicode="&#x2260;" horiz-adv-x="580" 
d="M500 148h-247l-82 -148h-49l82 148h-158l7 37h172l80 143h-231l7 37h244l70 125h49l-70 -125h161l-7 -37h-174l-80 -143h233z" />
    <glyph glyph-name="lessequal" unicode="&#x2264;" horiz-adv-x="627" 
d="M65 282l6 43l530 178l-7 -47l-472 -153l428 -169l-8 -47zM36 0l6 37h494l-6 -37h-494z" />
    <glyph glyph-name="greaterequal" unicode="&#x2265;" horiz-adv-x="628" 
d="M577 325l-6 -43l-533 -195l8 48l474 169l-430 154l7 45zM526 37l-6 -37h-494l6 37h494z" />
    <glyph glyph-name="lozenge" unicode="&#x25ca;" horiz-adv-x="589" 
d="M42 375l316 434l187 -434l-316 -434zM90 374l150 -352l258 358l-152 346z" />
    <glyph glyph-name="commaaccent" unicode="&#xf6c3;" horiz-adv-x="287" 
d="M116 -84q0 19 12.5 32t32.5 13q21 0 32.5 -14.5t11.5 -37.5q0 -42 -35 -94.5t-86 -86.5l-2 2q39 36 57.5 75.5t18.5 65.5q-18 1 -30 14t-12 31z" />
    <glyph glyph-name="CR" horiz-adv-x="216" 
 />
    <glyph glyph-name="dotaccent.low" horiz-adv-x="287" 
d="M99 -154q0 19 13 32t30 13q19 0 32 -13t13 -32q0 -18 -13 -30.5t-32 -12.5q-17 0 -30 12.5t-13 30.5z" />
    <glyph glyph-name="one.case" horiz-adv-x="394" 
d="M316 801l-115 -748q-4 -22 11.5 -31t64.5 -9h5l-1 -13h-265l1 13h47q44 0 60 9t20 31l102 658q-102 -5 -162 3v4q170 10 223 83h9z" />
    <glyph glyph-name="two.case" horiz-adv-x="622" 
d="M-40 0l-4 6q38 32 115 94t122.5 99.5t107 97t95 106t58.5 105t25 115.5q0 67 -40.5 103.5t-109.5 36.5q-80 0 -133 -50.5t-69 -145.5h-4q12 110 71.5 171.5t160.5 61.5q91 0 138.5 -48.5t47.5 -120.5q0 -68 -36.5 -140t-78 -123t-127 -120t-126.5 -97.5t-133 -90.5
q-17 -11 -25 -17h285q51 0 77 2t51.5 9t38.5 23.5t24.5 41.5t23.5 68h12l-29 -187h-538z" />
    <glyph glyph-name="three.case" horiz-adv-x="585" 
d="M201 -15q-86 0 -149.5 39t-63.5 75q0 15 9.5 25t25.5 10q9 0 15 -3t11 -9.5t7.5 -11.5t6 -15.5t5.5 -14.5q13 -32 48.5 -53t92.5 -21q102 0 161.5 60t59.5 160q0 78 -56 125.5t-146 47.5q-48 0 -89 -11l3 8q5 2 36 15t42.5 18.5t41 19t43.5 23t37.5 25.5t35.5 31t26 33.5
t19.5 39.5t5.5 44q0 54 -34.5 84t-94.5 30q-146 0 -205 -128l-4 1q26 80 87.5 124t146.5 44q79 0 123.5 -39.5t44.5 -94.5q0 -36 -14.5 -67.5t-37 -54.5t-55.5 -44t-62.5 -34t-66.5 -27q98 2 167.5 -49.5t69.5 -149.5q0 -112 -83 -183.5t-210 -71.5z" />
    <glyph glyph-name="four.case" horiz-adv-x="689" 
d="M620 238h-193l-28 -185q-3 -22 10.5 -31t58.5 -9l-2 -13h-228l2 13h20q45 0 61.5 9t20.5 31l28 185h-362l-4 7l503 576h9l-84 -540h17q44 0 66 2t44 8t33.5 22t22 39.5t22.5 65.5h12zM67 281h308l66 425z" />
    <glyph glyph-name="five.case" horiz-adv-x="633" 
d="M95 99q13 -41 52 -66t101 -25q109 0 170.5 74t61.5 178q0 88 -49.5 137.5t-127.5 49.5q-125 0 -209 -104l-4 2l145 433h259q49 0 75.5 10t41.5 43h7l-31 -104h-335l-97 -285q75 58 177 58q94 0 153 -60.5t59 -156.5q0 -133 -83 -215.5t-216 -82.5q-99 0 -167 49t-63 88
q4 31 38 31q13 0 22 -9.5t12 -18t8 -26.5z" />
    <glyph glyph-name="six.case" horiz-adv-x="634" 
d="M592 826l1 -5q-402 -118 -477 -479q34 82 96 132.5t147 50.5q77 0 133 -58t56 -168q0 -79 -34 -149.5t-102 -117.5t-156 -47q-108 0 -160 71.5t-52 185.5q0 221 152.5 377.5t395.5 206.5zM341 492q-98 0 -169 -87.5t-71 -198.5q0 -87 42 -141.5t120 -54.5q100 0 161.5 86
t61.5 200q0 86 -34.5 141t-110.5 55z" />
    <glyph glyph-name="seven.case" horiz-adv-x="548" 
d="M-32 -24l608 751h-356q-54 0 -78.5 -15t-39.5 -59h-7l18 125h512l3 -4l-613 -830z" />
    <glyph glyph-name="eight.case" horiz-adv-x="644" 
d="M38 187q0 159 247 223q-99 -36 -149 -90.5t-50 -142.5q0 -76 52.5 -121.5t137.5 -45.5q92 0 151.5 46t59.5 128q0 49 -30 87.5t-99 88.5l-90 65q-117 85 -117 191q0 61 34 104t82.5 61.5t103.5 18.5q90 0 142.5 -45t52.5 -106q0 -148 -215 -213q170 75 170 210
q0 56 -43.5 93t-107.5 37q-73 0 -120.5 -38.5t-47.5 -104.5q0 -53 29.5 -95t90.5 -86l75 -54q36 -25 55.5 -41t43 -41.5t34.5 -53t11 -60.5q0 -72 -41.5 -123t-100 -72.5t-124.5 -21.5q-102 0 -169.5 55.5t-67.5 146.5z" />
    <glyph glyph-name="nine.case" horiz-adv-x="637" 
d="M37 -42l-1 4q402 118 476 480q-34 -82 -96 -133t-147 -51q-77 0 -133 58.5t-56 167.5q0 79 34 150t102 118t156 47q108 0 160.5 -71.5t52.5 -185.5q0 -221 -153 -377.5t-395 -206.5zM288 292q97 0 168 87t71 198q0 88 -42 142.5t-120 54.5q-100 0 -161 -86t-61 -201
q0 -86 34 -140.5t111 -54.5z" />
    <glyph glyph-name="zero.case" horiz-adv-x="685" 
d="M52 283q0 93 20.5 182t61.5 165.5t112 123.5t162 47q112 0 171.5 -79t59.5 -217q0 -90 -21 -178.5t-62.5 -166.5t-112.5 -126t-162 -48q-111 0 -170 79t-59 218zM404 777q-67 0 -120.5 -37.5t-84.5 -93.5t-52 -127.5t-28.5 -133.5t-7.5 -118q0 -128 47 -192.5t126 -64.5
q66 0 119.5 37t85.5 92.5t53 126.5t29 133t8 118q0 130 -47 195t-128 65z" />
    <glyph glyph-name="acute.case" horiz-adv-x="500" 
d="M337 945l-169 -109h-5l81 109h93z" />
    <glyph glyph-name="breve.case" horiz-adv-x="500" 
d="M235 813q-52 0 -90 29t-32 93h31q-10 -95 91 -95q102 0 121 95h31q-14 -65 -57.5 -93.5t-94.5 -28.5z" />
    <glyph glyph-name="caron.case" horiz-adv-x="500" 
d="M232 837l-120 112h6l124 -57l141 57h5l-153 -112h-3z" />
    <glyph glyph-name="cedilla.case" horiz-adv-x="500" 
d="M184 -80l60 76h30l-61 -74q30 20 60 20q73 0 73 -61q0 -40 -34.5 -69.5t-75.5 -42t-81 -14.5l-2 6q52 6 97 37.5t45 78.5q0 38 -46 38q-22 0 -43 -14z" />
    <glyph glyph-name="circumflex.case" horiz-adv-x="500" 
d="M270 949l130 -112h-6l-134 57l-151 -57h-5l163 112h3z" />
    <glyph glyph-name="dieresis.case" horiz-adv-x="500" 
d="M327 900q0 19 13 32t30 13q19 0 32 -13t13 -32q0 -18 -13 -30.5t-32 -12.5q-17 0 -30 12.5t-13 30.5zM84 900q0 19 13 32t30 13q19 0 32 -13t13 -32q0 -18 -13 -30.5t-32 -12.5q-17 0 -30 12.5t-13 30.5z" />
    <glyph glyph-name="dotaccent.case" horiz-adv-x="500" 
d="M206 881q0 19 13 32t30 13q19 0 32 -13t13 -32q0 -18 -13 -30.5t-32 -12.5q-17 0 -30 12.5t-13 30.5z" />
    <glyph glyph-name="grave.case" horiz-adv-x="500" 
d="M332 836l-169 109h93l81 -109h-5z" />
    <glyph glyph-name="hungarumlaut.case" horiz-adv-x="500" 
d="M417 945l-169 -109h-5l81 109h93zM257 945l-169 -109h-5l81 109h93z" />
    <glyph glyph-name="macron.case" horiz-adv-x="500" 
d="M90 853l5 32h314l-5 -32h-314z" />
    <glyph glyph-name="ogonek.case" horiz-adv-x="500" 
d="M341 -204l1 -2q-37 -30 -89 -30q-40 0 -67.5 22.5t-27.5 61.5q0 44 35 78.5t102 73.5h10q-98 -65 -98 -139q0 -35 24.5 -54.5t60.5 -19.5q25 0 49 9z" />
    <glyph glyph-name="ring.case" horiz-adv-x="500" 
d="M352 894q0 -41 -30 -69.5t-72 -28.5t-72 28.5t-30 69.5t30 69.5t72 28.5t72 -28.5t30 -69.5zM321 894q0 31 -21 51.5t-50 20.5q-30 0 -50 -21t-20 -51t20 -51t50 -21q32 0 51.5 21t19.5 51z" />
    <glyph glyph-name="tilde.case" horiz-adv-x="500" 
d="M373 929l35 47l5 -3l-35 -88h-248l-37 -46l-5 3l37 87h248z" />
    <glyph glyph-name="dot" horiz-adv-x="273" 
d="M151 715q0 19 13 32t30 13q19 0 32 -13t13 -32q0 -18 -13 -30.5t-32 -12.5q-17 0 -30 12.5t-13 30.5z" />
    </font>
</defs>
</svg>
