<?xml version="1.0" standalone="no"?>
<!DOCTYPE svg PUBLIC "-//W3C//DTD SVG 20010904//EN"
 "http://www.w3.org/TR/2001/REC-SVG-20010904/DTD/svg10.dtd">
<svg version="1.0" xmlns="http://www.w3.org/2000/svg"
 width="96.000000pt" height="96.000000pt" viewBox="0 0 96.000000 96.000000"
 preserveAspectRatio="xMidYMid meet">
<metadata>
Created by potrace 1.14, written by Peter Selinger 2001-2017
</metadata>
<g transform="translate(0.000000,96.000000) scale(0.100000,-0.100000)"
fill="#000000" stroke="none">
<path d="M136 740 c-68 -21 -108 -97 -87 -162 15 -46 42 -70 126 -111 106 -53
137 -96 115 -162 -6 -19 -21 -42 -33 -50 -27 -19 -100 -19 -136 0 -28 14 -61
68 -61 98 0 9 -5 19 -10 22 -7 5 -10 -17 -8 -66 l3 -73 60 -13 c83 -17 123
-16 172 6 50 23 74 57 80 114 9 77 -32 127 -150 182 -70 33 -97 65 -97 115 0
51 32 80 91 80 57 0 86 -20 115 -84 l25 -51 -5 68 c-2 38 -8 73 -12 77 -13 13
-155 21 -188 10z"/>
<path d="M460 712 l35 -17 0 -224 c0 -239 3 -227 -50 -248 -24 -9 56 -16 138
-11 38 3 47 6 32 11 -50 21 -50 20 -53 131 -3 106 -2 107 19 104 25 -3 179
-179 179 -203 0 -9 -11 -20 -25 -25 -14 -5 -25 -12 -25 -15 0 -3 50 -5 110 -5
61 0 110 4 110 8 0 4 -15 14 -34 20 -24 9 -65 48 -131 124 -53 61 -99 117
-102 124 -2 7 28 54 69 105 58 72 84 97 123 115 l50 23 -100 0 c-94 0 -98 -1
-72 -15 15 -8 27 -21 27 -28 0 -15 -72 -115 -119 -165 -18 -20 -39 -31 -55
-31 l-27 0 3 103 3 102 35 17 35 18 -105 0 -105 0 35 -18z"/>
</g>
</svg>
