<svg width="20" height="20" xmlns="http://www.w3.org/2000/svg"><path d="M0 0v20h20V0H0zm18.8 9.6h-4.84c.48-.4.84-.88 1-1.4.2-.64.12-1.28-.24-1.88-.44-.68-1.12-1.12-1.88-1.12h-.04c-.92 0-1.84.56-2.4 1.4v.04V1.2h8.4v8.4zM7.24 9.04c-.56-.24-1.08-.72-1.2-1.2-.08-.32-.04-.6.12-.88.2-.36.52-.56.88-.56.52 0 1.08.36 1.4.84.36.56.6 1.36.68 2.36H9c-.6-.12-1.44-.4-1.76-.56zm6.56-1.2c-.16.48-.64.96-1.2 1.2-.32.16-1.2.44-1.8.56h-.08c.08-1 .28-1.8.68-2.36.32-.48.88-.84 1.4-.84.36 0 .68.2.88.56.2.28.24.6.12.88zM9.2 1.2v5.08C8.64 5.64 7.84 5.2 7.04 5.2H7c-.8 0-1.44.44-1.88 1.12a2.24 2.24 0 00-.24 1.88c.16.52.52 1 1 1.4H1.2V1.2h8zm-8 9.6h7.28l-2.84 3.52.92.76s1.56-1.96 2.64-3.28v7h-8v-8zm9.2 8v-7.32c1.04 1.32 2.88 3.56 2.88 3.56l.92-.76-2.8-3.48h7.4v8h-8.4z" fill="#131313" fill-rule="nonzero"/></svg>