<?xml version="1.0" encoding="UTF-8"?>
<svg viewBox="0 0 20 20" version="1.1" xmlns="http://www.w3.org/2000/svg" xmlns:xlink="http://www.w3.org/1999/xlink">
    <!-- Generator: Sketch 59.1 (86144) - https://sketch.com -->
    <title>cart</title>
    <desc>Created with Sketch.</desc>
    <g id="Symbols" stroke="none" stroke-width="1" fill="none" fill-rule="evenodd">
        <g id="desktop-header-01" transform="translate(-1333.000000, -19.000000)" fill="#131313" fill-rule="nonzero">
            <g id="cart" transform="translate(1333.000000, 19.000000)">
                <path d="M0,0 L0,20 L20,20 L20,0 L0,0 Z M18.8,9.6 L13.96,9.6 C14.44,9.2 14.8,8.72 14.96,8.2 C15.16,7.56 15.08,6.92 14.72,6.32 C14.28,5.64 13.6,5.2 12.84,5.2 L12.8,5.2 C11.88,5.2 10.96,5.76 10.4,6.6 L10.4,6.64 L10.4,1.2 L18.8,1.2 L18.8,9.6 Z M7.24,9.04 C6.68,8.8 6.16,8.32 6.04,7.84 C5.96,7.52 6,7.24 6.16,6.96 C6.36,6.6 6.68,6.4 7.04,6.4 C7.56,6.4 8.12,6.76 8.44,7.24 C8.8,7.8 9.04,8.6 9.12,9.6 L9,9.6 C8.4,9.48 7.56,9.2 7.24,9.04 L7.24,9.04 Z M13.8,7.84 C13.64,8.32 13.16,8.8 12.6,9.04 C12.28,9.2 11.4,9.48 10.8,9.6 L10.72,9.6 C10.8,8.6 11,7.8 11.4,7.24 C11.72,6.76 12.28,6.4 12.8,6.4 C13.16,6.4 13.48,6.6 13.68,6.96 C13.88,7.24 13.92,7.56 13.8,7.84 L13.8,7.84 Z M9.2,1.2 L9.2,6.28 C8.64,5.64 7.84,5.2 7.04,5.2 L7,5.2 C6.2,5.2 5.56,5.64 5.12,6.32 C4.76,6.88 4.68,7.6 4.88,8.2 C5.04,8.72 5.4,9.2 5.88,9.6 L1.2,9.6 L1.2,1.2 L9.2,1.2 Z M1.2,10.8 L8.48,10.8 L5.64,14.32 L6.56,15.08 C6.56,15.08 8.12,13.12 9.2,11.8 L9.2,18.8 L1.2,18.8 L1.2,10.8 Z M10.4,18.8 L10.4,11.48 C11.44,12.8 13.28,15.04 13.28,15.04 L14.2,14.28 L11.4,10.8 L18.8,10.8 L18.8,18.8 L10.4,18.8 Z" id="Shape"></path>
            </g>
        </g>
    </g>
</svg>
