<?xml version="1.0" encoding="UTF-8"?>
<svg width="182px" height="216px" viewBox="0 0 182 216" version="1.1" xmlns="http://www.w3.org/2000/svg" xmlns:xlink="http://www.w3.org/1999/xlink">
    <!-- Generator: Sketch 59.1 (86144) - https://sketch.com -->
    <title>Group 14</title>
    <desc>Created with Sketch.</desc>
    <g id="v4-(October)" stroke="none" stroke-width="1" fill="none" fill-rule="evenodd">
        <g id="72" transform="translate(-933.000000, -366.000000)">
            <g id="Group-14" transform="translate(934.000000, 367.000000)">
                <polygon id="Stroke-1" stroke="#231F20" points="0 214 180 214 180 0 0 0"></polygon>
                <path d="M21,113 C14.3720893,113 9,107.627268 9,101 C9,94.3727317 14.3720893,89 21,89 C27.6272683,89 33,94.3727317 33,101 C33,107.627268 27.6272683,113 21,113 Z" id="Fill-3" fill="#FEFEFE"></path>
                <path d="M33,101 C33,107.627268 27.6272683,113 21,113 C14.3720893,113 9,107.627268 9,101 C9,94.3727317 14.3720893,89 21,89 C27.6272683,89 33,94.3727317 33,101 Z" id="Stroke-4" stroke="#231F20"></path>
                <path d="M170,192.000321 C170,198.627412 164.627767,204 157.999679,204 C151.372233,204 146,198.627412 146,192.000321 C146,185.37323 151.372233,180 157.999679,180 C164.627767,180 170,185.37323 170,192.000321" id="Fill-5" fill="#FEFEFE"></path>
                <path d="M170,192.000321 C170,198.627412 164.627767,204 157.999679,204 C151.372233,204 146,198.627412 146,192.000321 C146,185.37323 151.372233,180 157.999679,180 C164.627767,180 170,185.37323 170,192.000321 Z" id="Stroke-6" stroke="#231F20"></path>
                <line x1="0" y1="31.5" x2="180" y2="31.5" id="Stroke-7" stroke="#231F20"></line>
                <path d="M58.4788048,93.424943 C57.1381381,104.252092 45.1277754,106 45.1277754,106 C50.4904423,101.601471 50.0440002,93.3687772 50.0440002,93.3687772 L42,93.3687772 L42,46 L164,46 L164,93.3687772 L58.4788048,93.3687772 L58.4788048,93.424943 Z" id="Fill-8" fill="#FEFEFE"></path>
                <path d="M58.4788048,93.424943 C57.1381381,104.252092 45.1277754,106 45.1277754,106 C50.4904423,101.601471 50.0440002,93.3687772 50.0440002,93.3687772 L42,93.3687772 L42,46 L164,46 L164,93.3687772 L58.4788048,93.3687772 L58.4788048,93.424943 Z" id="Stroke-9" stroke="#231F20"></path>
                <path d="M121.520615,179.425085 C122.861275,190.252112 134.872242,192 134.872242,192 C129.509604,187.60152 129.956044,179.368243 129.956044,179.368243 L138,179.368243 L138,132 L16,132 L16,179.368243 L121.520615,179.368243 L121.520615,179.425085 Z" id="Fill-10" fill="#FEFEFE"></path>
                <path d="M121.520615,179.425085 C122.861275,190.252112 134.872242,192 134.872242,192 C129.509604,187.60152 129.956044,179.368243 129.956044,179.368243 L138,179.368243 L138,132 L16,132 L16,179.368243 L121.520615,179.368243 L121.520615,179.425085 Z" id="Stroke-11" stroke="#231F20"></path>
                <path d="M25.3220891,98.2498182 C25.6595113,97.8501818 25.8493531,97.2997273 24.9430762,97.1998182 L24.9430762,97 L27.5780546,97 L27.5780546,97.1998182 C26.8508864,97.2997273 26.3766172,97.56 26.0069957,97.9997273 L24.1092477,100.249909 L26.4289411,102.799818 C26.8086248,103.220455 27.3244849,103.700273 28,103.800182 L28,104 L24.9430762,104 L24.9430762,103.800182 C25.7856253,103.700273 25.7118352,103.280273 25.3220891,102.850091 L23.6879732,101.049818 C23.3190225,100.649545 23.2137039,100.599909 22.7917585,100.599909 L22.7917585,103.000273 C22.7917585,103.550091 22.8970771,103.700273 23.7409679,103.800182 L23.7409679,104 L21,104 L21,103.800182 C21.8432199,103.700273 21.9485386,103.550091 21.9485386,103.000273 L21.9485386,97.9997273 C21.9485386,97.4499091 21.8432199,97.2997273 21,97.1998182 L21,97 L23.7409679,97 L23.7409679,97.1998182 C22.8970771,97.2997273 22.7917585,97.4499091 22.7917585,97.9997273 L22.7917585,100.300182 C23.4243412,100.300182 23.6665069,100.190091 24.0045999,99.8 L25.3220891,98.2498182 Z" id="Fill-12" fill="#231F20"></path>
                <path d="M16.0922401,98.4580754 C16.0922401,97.7293472 16.5980966,97.3405272 17.5636896,97.3405272 C18.5519766,97.3405272 19.2986823,97.8748452 19.4831625,99.0413055 L19.7701318,99.0413055 L19.5439239,97.2947108 L19.3477306,97.1337343 C19.3477306,97.1337343 19.0995608,97.2185565 18.8008785,97.1473554 C18.3887262,97.0495312 17.9582723,97 17.5519766,97 C15.977306,97 15.1149341,97.7776402 15.1149341,98.7304971 C15.1149341,99.7217407 16,100.27649 17.1610542,100.693791 C18.0234261,101.005218 19.022694,101.394039 19.022694,102.288696 C19.022694,103.08553 18.4948755,103.658854 17.4480234,103.658854 C16.5863836,103.658854 15.4597365,103.416151 15.2877013,101.811958 L15,101.811958 L15.1010249,103.605608 L15.3089312,103.764108 C15.4114202,103.742438 15.61347,103.710242 15.7869693,103.760393 C16.3016105,103.909606 16.885798,104 17.4480234,104 C18.988287,104 20,103.221741 20,102.05528 C20,100.985406 18.8850659,100.353883 17.7357247,99.9650628 C16.9084919,99.6827348 16.0922401,99.2846276 16.0922401,98.4580754 Z" id="Fill-13" fill="#231F20"></path>
            </g>
        </g>
    </g>
</svg>
