<?xml version="1.0" encoding="UTF-8"?>
<svg width="100%" viewBox="0 0 34 28" version="1.1" xmlns="http://www.w3.org/2000/svg" xmlns:xlink="http://www.w3.org/1999/xlink">
    <title>filter-icon</title>
    <g id="Filter" stroke="none" stroke-width="1" fill="none" fill-rule="evenodd">
        <g id="filter-icon" stroke="#000000" stroke-width="2">
            <path d="M25.9081541,1.00006947 C26.7916711,1.01813186 27.5674927,1.35484054 28.121857,1.90213084 C28.6739236,2.44715275 29.0023756,3.19811662 29.0000041,4.02645718 C28.9976277,4.85207268 28.6685734,5.59923605 28.1359303,6.13894635 C27.611608,6.67022557 26.8894875,6.99997728 26.0916809,7.00001326 C25.207847,6.98190634 24.4321406,6.64538643 23.8779476,6.09826158 C23.3258394,5.55319487 22.9976241,4.80207674 22.9999967,3.9732825 C23.0021098,3.14768215 23.3310499,2.40040289 23.8637175,1.86067143 C24.3879974,1.32943891 25.1101654,0.999791791 25.9081541,1.00006947 Z" id="Stroke-1-Copy-19"></path>
            <path d="M7.90815415,11.0000695 C8.79167108,11.0181319 9.56749269,11.3548405 10.121857,11.9021308 C10.6739236,12.4471527 11.0023756,13.1981166 11.0000041,14.0264572 C10.9976277,14.8520727 10.6685734,15.599236 10.1359303,16.1389464 C9.61160797,16.6702256 8.88948754,16.9999773 8.0916809,17.0000133 C7.20784701,16.9819063 6.43214059,16.6453864 5.87794764,16.0982616 C5.32583942,15.5531949 4.99762406,14.8020767 4.99999672,13.9732825 C5.00210979,13.1476821 5.33104991,12.4004029 5.8637175,11.8606714 C6.38799739,11.3294389 7.11016536,10.9997918 7.90815415,11.0000695 Z" id="Stroke-1-Copy-22"></path>
            <path d="M18.9081541,21.0000695 C19.7916711,21.0181319 20.5674927,21.3548405 21.121857,21.9021308 C21.6739236,22.4471527 22.0023756,23.1981166 22.0000041,24.0264572 C21.9976277,24.8520727 21.6685734,25.599236 21.1359303,26.1389464 C20.611608,26.6702256 19.8894875,26.9999773 19.0916809,27.0000133 C18.207847,26.9819063 17.4321406,26.6453864 16.8779476,26.0982616 C16.3258394,25.5531949 15.9976241,24.8020767 15.9999967,23.9732825 C16.0021098,23.1476821 16.3310499,22.4004029 16.8637175,21.8606714 C17.3879974,21.3294389 18.1101654,20.9997918 18.9081541,21.0000695 Z" id="Stroke-1-Copy-23"></path>
            <line x1="34" y1="14" x2="10" y2="14" id="Line-6"></line>
            <line x1="34" y1="24" x2="21" y2="24" id="Line-6-Copy-4"></line>
            <line x1="34" y1="4" x2="29" y2="4" id="Line-6-Copy-2"></line>
            <line x1="24" y1="4" x2="6.01185768e-14" y2="4" id="Line-6-Copy-3"></line>
            <line x1="6" y1="14" x2="6.01185768e-14" y2="14" id="Line-6-Copy"></line>
            <line x1="17" y1="24" x2="6.01185768e-14" y2="24" id="Line-6-Copy-5"></line>
        </g>
    </g>
</svg>