<?xml version="1.0" encoding="UTF-8"?>
<svg id="InternationalIcon" xmlns="http://www.w3.org/2000/svg" viewBox="0 0 22.96 21.64">
    <defs>
        <style>.cls-1{fill:#231f20;}.cls-2{fill:none;stroke:#231f20;stroke-miterlimit:10;stroke-width:.12px;}</style>
    </defs>
    <path class="cls-2" d="M11.52,.14C5.24,.14,.14,4.95,.14,10.86s5.1,10.72,11.38,10.72,11.38-4.81,11.38-10.72S17.79,.14,11.52,.14Zm8.95,15.99c-.83,.23-1.64,.42-2.43,.57,.68-.91,1.23-1.99,1.49-3.25,.74-.13,1.5-.28,2.27-.46-.24,1.14-.7,2.19-1.34,3.14ZM1.21,13.01c.39,.1,1.05,.27,1.96,.43,.25,1.27,.7,2.33,1.26,3.19-.99-.21-1.64-.42-1.88-.5-.64-.94-1.1-2-1.34-3.13Zm2.84,.59c1.02,.17,2.28,.34,3.73,.44,.16,1.26,.43,2.31,.76,3.19-1.19-.09-2.23-.24-3.08-.4-.69-.94-1.16-2.02-1.42-3.24Zm-.28-2.74c0-.72,.07-1.4,.21-2.05,.99,.18,2.24,.36,3.71,.48-.06,.65-.09,1.34-.09,2.08,0,.62,.03,1.2,.08,1.74-1.49-.11-2.76-.28-3.77-.46-.09-.57-.13-1.17-.13-1.79Zm15.1,.51c0,.45-.04,.88-.11,1.29-1.43,.24-2.8,.39-4.1,.47,.04-.55,.07-1.14,.07-1.76,0-.73-.03-1.41-.07-2.05,1.23-.09,2.53-.23,3.88-.46,.21,.77,.33,1.6,.33,2.52Zm-7.4,9.29c-.27-.27-.79-.85-1.31-1.8-.11-.21-.23-.44-.34-.69,.48,.02,.98,.04,1.5,.04,.47,0,.95-.01,1.44-.03-.48,1.35-1.02,2.15-1.29,2.49Zm-1.87-3.36c-.33-.84-.63-1.9-.81-3.2,.78,.05,1.6,.07,2.48,.07,.73,0,1.49-.02,2.28-.06-.13,1.27-.37,2.33-.64,3.19-1.19,.06-2.3,.05-3.31,0Zm-.86-4.12c-.06-.55-.09-1.15-.09-1.78,0-.73,.03-1.41,.09-2.04,.8,.05,1.66,.08,2.57,.08,.73,0,1.49-.02,2.28-.07,.05,.63,.07,1.3,.07,2.02,0,.64-.03,1.23-.07,1.79-1.78,.1-3.41,.08-4.86-.01Zm1.43-10.08c.51-1.04,1.03-1.68,1.3-1.98,.29,.41,.9,1.41,1.4,3.12-1.16,.06-2.22,.05-3.19,0,.16-.43,.32-.81,.48-1.13Zm-1.31,1.1c-.91-.07-1.71-.18-2.38-.3,.37-.38,.79-.74,1.25-1.08,.95-.7,1.9-1.17,2.61-1.46-.43,.59-.99,1.51-1.47,2.84Zm2.47,.97c.53,0,1.09-.01,1.66-.05,.24,.92,.45,2.02,.56,3.33-1.75,.1-3.35,.07-4.77-.02,.15-1.32,.42-2.42,.71-3.32,.57,.04,1.18,.06,1.83,.06Zm3.24,3.22c-.12-1.3-.31-2.4-.55-3.33,.8-.06,1.65-.16,2.52-.31,.74,.87,1.39,1.93,1.81,3.19-1.31,.22-2.58,.36-3.78,.45Zm-.87-4.18c-.38-1.34-.83-2.27-1.17-2.85,.85,.45,2.22,1.28,3.44,2.59-.78,.12-1.54,.21-2.26,.26Zm-.52-3.19c2.06,.25,3.93,1.12,5.37,2.4-.62,.15-1.23,.29-1.83,.39-1.21-1.36-2.59-2.27-3.54-2.79ZM5.77,3.75c-.58-.12-1.03-.23-1.32-.32,1.39-1.24,3.16-2.09,5.13-2.38-1.1,.5-2.58,1.35-3.82,2.7Zm-.73,.77c-.72,.88-1.32,1.94-1.68,3.22-.84-.17-1.43-.33-1.73-.41,.45-1.19,1.15-2.26,2.05-3.16,.23,.07,.69,.2,1.36,.35Zm.84,.17c.71,.14,1.59,.27,2.61,.35-.3,.93-.55,2.03-.69,3.33-1.44-.11-2.67-.29-3.64-.47,.33-1.19,.9-2.26,1.72-3.21Zm3.05,13.41c.47,1.1,1,1.88,1.41,2.38-.71-.23-1.68-.63-2.65-1.3-.6-.42-1.12-.88-1.58-1.4,.82,.13,1.76,.25,2.82,.32Zm4.7,0c.83-.05,1.69-.14,2.58-.27-1.27,1.3-2.74,2.13-3.65,2.56,.32-.5,.71-1.25,1.07-2.29Zm.34-.86c.26-.88,.48-1.93,.61-3.19,1.28-.08,2.63-.23,4.03-.45-.31,1.3-.94,2.39-1.69,3.29-1.02,.17-2.01,.28-2.95,.35Zm8-5.21c-.77,.18-1.53,.34-2.27,.47,.06-.38,.08-.78,.08-1.19,0-.94-.12-1.81-.34-2.61,.73-.13,1.47-.29,2.22-.47,.26,.82,.4,1.68,.4,2.57,0,.41-.03,.82-.09,1.22Zm-.6-4.69c-.75,.18-1.48,.33-2.2,.46-.4-1.25-1.03-2.32-1.75-3.21,.62-.12,1.25-.26,1.89-.42,.9,.9,1.61,1.98,2.06,3.17ZM1.35,8.23c.3,.09,.91,.25,1.77,.42-.15,.66-.23,1.37-.23,2.15,0,.6,.04,1.16,.12,1.69-1.02-.2-1.7-.38-1.97-.45-.06-.4-.09-.81-.09-1.23,0-.9,.14-1.76,.4-2.58Zm2.03,8.97c.43,.12,1.04,.27,1.79,.42,.64,.84,1.37,1.47,2.04,1.94,.59,.4,1.17,.71,1.7,.95-2.23-.47-4.17-1.66-5.53-3.31Zm9.99,3.44c1.07-.55,2.61-1.51,3.87-2.96,.79-.14,1.6-.31,2.43-.52-1.5,1.85-3.74,3.14-6.3,3.48Z"/>
    <g>
        <path class="cls-1" d="M13.42,8.31c-1.68,.1-3.23,.07-4.61,0,0,.04-.01,.08-.02,.13,1.42,.09,3.02,.12,4.77,.02-.12-1.3-.32-2.41-.56-3.33-.04,0-.07,0-.11,0,.23,.89,.42,1.95,.53,3.19Z"/>
        <path class="cls-1" d="M13.65,4.06c.02,.05,.03,.09,.05,.15,.73-.05,1.48-.14,2.26-.26-.05-.05-.1-.09-.14-.14-.75,.12-1.47,.2-2.17,.25Z"/>
        <path class="cls-1" d="M16.51,4.76c.69,.85,1.3,1.86,1.7,3.05-1.27,.21-2.49,.35-3.65,.43,0,.05,.01,.1,.02,.15,1.2-.08,2.46-.23,3.78-.45-.42-1.26-1.07-2.32-1.81-3.19-.01,0-.02,0-.03,0Z"/>
        <path class="cls-1" d="M8.9,20.51c-.13-.06-.28-.14-.42-.21-1.79-.43-3.37-1.32-4.61-2.54,1.31,1.36,3.06,2.34,5.03,2.75Z"/>
        <path class="cls-1" d="M18.62,13.6c-.07,.01-.13,.02-.19,.03-.32,1.22-.92,2.27-1.64,3.13-.96,.16-1.88,.27-2.77,.33-.01,.05-.03,.11-.04,.16,.94-.07,1.92-.18,2.95-.35,.75-.9,1.38-1.99,1.69-3.29Z"/>
        <path class="cls-1" d="M7.66,8.23c-1.36-.11-2.52-.27-3.46-.44-.01,.04-.03,.07-.04,.11,.97,.18,2.2,.36,3.64,.47,.15-1.3,.4-2.4,.69-3.33-.06,0-.12-.01-.18-.02-.28,.9-.52,1.96-.66,3.21Z"/>
        <path class="cls-1" d="M7.68,13.11c-.05-.55-.08-1.13-.08-1.74,0-.74,.03-1.43,.09-2.08-.05,0-.1,0-.15-.01-.05,.61-.08,1.26-.08,1.95,0,.62,.03,1.2,.08,1.74-1.43-.1-2.66-.27-3.65-.44,0,.04,0,.08,.01,.12,1.01,.18,2.28,.35,3.77,.46Z"/>
        <path class="cls-1" d="M13.3,1.04s-.08-.02-.13-.02c.7,.39,1.65,.99,2.59,1.84-.88-.81-1.75-1.41-2.46-1.82Z"/>
        <path class="cls-1" d="M5.04,4.52c-.07-.02-.14-.03-.21-.05-.69,.86-1.27,1.89-1.61,3.13-.71-.14-1.22-.27-1.55-.36-.01,.03-.03,.06-.04,.09,.3,.08,.89,.24,1.73,.41,.36-1.28,.96-2.35,1.68-3.22Z"/>
        <path class="cls-1" d="M13.55,14.12c-.06,0-.1,0-.16,0-.14,1.2-.36,2.22-.62,3.05-1.16,.06-2.23,.05-3.22,0,.02,.04,.03,.09,.05,.14,1.01,.06,2.12,.07,3.31,0,.27-.87,.5-1.92,.64-3.19Z"/>
        <path class="cls-1" d="M5.13,17.61c.3,.37,.61,.71,.92,1-.31-.3-.61-.62-.89-.99-.01,0-.02,0-.03,0Z"/>
        <path class="cls-1" d="M18.87,11.37c0-.91-.12-1.75-.33-2.52-.04,0-.07,0-.11,.02,.18,.73,.3,1.51,.3,2.36,0,.45-.04,.88-.11,1.29-1.38,.23-2.69,.37-3.95,.46,0,.05,0,.1,0,.15,1.3-.09,2.67-.24,4.1-.47,.07-.41,.11-.84,.11-1.29Z"/>
        <path class="cls-1" d="M13.6,13.19c.04-.56,.07-1.15,.07-1.79,0-.72-.03-1.39-.07-2.02-.05,0-.09,0-.13,0,.04,.59,.06,1.21,.06,1.88s-.03,1.23-.07,1.79c-1.73,.09-3.31,.07-4.73,0,0,.04,0,.09,.01,.13,1.45,.09,3.08,.11,4.86,.01Z"/>
        <path class="cls-1" d="M7.67,14.03c.16,1.2,.43,2.22,.74,3.07-1.16-.09-2.18-.23-3.02-.39,.03,.04,.05,.09,.08,.13,.85,.16,1.89,.31,3.08,.4-.33-.88-.61-1.94-.76-3.19-.04,0-.08,0-.12-.01Z"/>
        <path class="cls-1" d="M8.72,4.06c-.81-.07-1.51-.16-2.14-.27-.03,.03-.07,.07-.11,.1,.67,.12,1.47,.23,2.38,.3,.48-1.33,1.04-2.25,1.47-2.84-.1,.04-.22,.1-.34,.15-.4,.59-.87,1.41-1.28,2.55Z"/>
        <path class="cls-1" d="M8.94,18.1s-.05,0-.08,0c.45,1.03,.95,1.77,1.35,2.25-.71-.23-1.68-.63-2.65-1.3-.29-.2-.57-.42-.83-.65,.3,.28,.62,.55,.97,.79,.97,.67,1.94,1.07,2.65,1.3-.41-.5-.94-1.28-1.41-2.38Z"/>
        <path class="cls-1" d="M5.63,3.61c-.44-.09-.8-.18-1.08-.25-.03,.03-.07,.05-.1,.07,.29,.08,.73,.2,1.32,.32,1.24-1.35,2.72-2.2,3.82-2.7-.26,.04-.5,.11-.75,.17-1,.52-2.18,1.28-3.21,2.39Z"/>
        <path class="cls-1" d="M3.01,12.49c-.08-.53-.12-1.09-.12-1.69,0-.77,.08-1.49,.23-2.15-.06-.01-.1-.02-.16-.03-.13,.63-.21,1.31-.21,2.04,0,.6,.04,1.16,.12,1.69-.9-.17-1.51-.33-1.84-.42,0,.03,0,.07,0,.1,.27,.08,.95,.26,1.97,.45Z"/>
        <path class="cls-1" d="M.14,10.86C.14,4.95,5.24,.14,11.52,.14c3.12,0,5.94,1.19,8,3.11C17.45,1.25,14.57,0,11.38,0,5.1,0,0,4.81,0,10.72c0,2.98,1.29,5.67,3.38,7.61C1.38,16.4,.14,13.76,.14,10.86Z"/>
        <path class="cls-1" d="M16.58,3.68s.09,.09,.14,.14c.6-.11,1.21-.24,1.83-.39-.05-.05-.11-.09-.16-.13-.61,.15-1.22,.28-1.81,.39Z"/>
        <path class="cls-1" d="M2.55,16.14c.24,.08,.89,.28,1.88,.5-.55-.87-1.01-1.92-1.26-3.19-.04,0-.07-.01-.11-.02,.25,1.22,.69,2.24,1.23,3.08-.92-.2-1.54-.39-1.81-.48,.02,.04,.05,.08,.07,.12Z"/>
        <path class="cls-1" d="M11.44,1.14c.32,.48,.84,1.44,1.29,2.95-1.08,.06-2.08,.05-2.99,0-.02,.05-.04,.08-.05,.13,.96,.06,2.03,.07,3.19,0-.5-1.72-1.11-2.71-1.4-3.12,0,0-.02,.02-.03,.03Z"/>
        <path class="cls-1" d="M15.87,17.88c-1.09,1.06-2.27,1.78-3.13,2.22-.06,.11-.12,.21-.18,.3,.91-.43,2.38-1.27,3.65-2.56-.12,.02-.23,.03-.34,.04Z"/>
        <path class="cls-1" d="M12.76,18.17c-.07,0-.13,0-.2,0-.46,1.25-.97,2.01-1.23,2.34,.05,.05,.1,.11,.14,.14,.27-.34,.81-1.15,1.29-2.49Z"/>
        <path class="cls-1" d="M19.3,4.17c.84,.88,1.5,1.9,1.93,3.03-.72,.17-1.42,.32-2.11,.44,.02,.05,.04,.1,.06,.16,.72-.13,1.45-.28,2.2-.46-.45-1.19-1.16-2.27-2.06-3.17,0,0,0,0-.01,0Z"/>
        <path class="cls-1" d="M19.66,17.16c-.11,.03-.22,.05-.33,.08-1.38,1.59-3.32,2.73-5.53,3.16-.15,.08-.3,.17-.43,.24,2.56-.34,4.8-1.63,6.3-3.48Z"/>
        <path class="cls-1" d="M21.8,12.99c-.06,.01-.12,.02-.19,.04-.25,1.07-.68,2.07-1.29,2.96-.73,.2-1.45,.37-2.16,.51-.05,.06-.09,.13-.13,.2,.79-.15,1.6-.34,2.43-.57,.64-.94,1.1-2,1.34-3.14Z"/>
        <path class="cls-1" d="M22.06,10.81c0-.89-.14-1.76-.4-2.57-.03,0-.07,.01-.1,.02,.23,.77,.36,1.58,.36,2.41,0,.41-.03,.82-.09,1.22-.72,.17-1.43,.31-2.12,.44,0,.05,0,.12-.01,.17,.74-.13,1.5-.29,2.27-.47,.06-.4,.09-.81,.09-1.22Z"/>
    </g>
</svg>