<?xml version="1.0" encoding="UTF-8"?>
<svg id="InternationalIcon" xmlns="http://www.w3.org/2000/svg" viewBox="0 0 23.76 23.76">
    <defs><style>.cls-1{fill:none;stroke:#231f20;stroke-miterlimit:10;stroke-width:.12px;}</style></defs>
    <path class="cls-1" d="M11.88,.06C5.36,.06,.06,5.36,.06,11.88s5.3,11.82,11.82,11.82,11.82-5.3,11.82-11.82S18.39,.06,11.88,.06Zm9.45,17.84c-.96,.28-1.91,.52-2.82,.7,.79-1.12,1.42-2.45,1.73-4.01,.86-.16,1.75-.35,2.64-.57-.27,1.4-.81,2.71-1.55,3.87ZM.88,14.06c.45,.13,1.22,.33,2.28,.53,.29,1.57,.82,2.87,1.46,3.94-1.15-.26-1.91-.52-2.18-.62-.74-1.16-1.28-2.46-1.56-3.86Zm2.91,.65c1.18,.21,2.65,.42,4.34,.55,.18,1.55,.5,2.85,.89,3.94-1.38-.11-2.59-.29-3.58-.49-.8-1.16-1.35-2.49-1.65-4Zm-.26-2.84c0-.88,.08-1.73,.25-2.53,1.15,.22,2.6,.45,4.31,.59-.07,.8-.11,1.65-.11,2.56,0,.76,.03,1.48,.09,2.15-1.73-.13-3.21-.35-4.39-.57-.1-.7-.16-1.44-.16-2.21Zm16.31,.62c0,.55-.04,1.08-.12,1.59-1.66,.29-3.25,.48-4.76,.58,.05-.68,.08-1.4,.08-2.17,0-.9-.03-1.74-.08-2.53,1.43-.11,2.94-.29,4.51-.57,.24,.95,.38,1.98,.38,3.1Zm-7.98,10.45c-.32-.33-.92-1.05-1.52-2.23-.13-.25-.26-.54-.4-.85,.56,.03,1.14,.05,1.74,.05,.54,0,1.1-.01,1.68-.04-.56,1.66-1.19,2.65-1.5,3.08Zm-2.16-3.7c-.38-1.04-.74-2.35-.94-3.95,.9,.06,1.87,.09,2.88,.09,.85,0,1.73-.02,2.65-.07-.15,1.56-.43,2.87-.74,3.94-1.39,.08-2.68,.06-3.85,0Zm-1-4.55c-.07-.68-.1-1.41-.1-2.2,0-.9,.04-1.74,.11-2.52,.93,.06,1.93,.1,2.99,.1,.85,0,1.73-.03,2.65-.08,.05,.78,.08,1.61,.08,2.49,0,.79-.03,1.52-.08,2.21-2.07,.12-3.97,.09-5.65-.02Zm1.65-11.4c.59-1.29,1.19-2.08,1.51-2.45,.34,.51,1.04,1.73,1.63,3.85-1.34,.08-2.59,.06-3.7,0,.19-.53,.38-1,.56-1.4Zm-1.2,1.35c-1.06-.09-1.99-.23-2.77-.37,.43-.47,.92-.91,1.45-1.33,1.1-.87,2.21-1.44,3.03-1.8-.5,.72-1.16,1.86-1.71,3.5Zm2.56,.71c.62,0,1.26-.02,1.93-.06,.28,1.14,.52,2.5,.66,4.11-2.03,.12-3.89,.09-5.54-.02,.18-1.63,.49-2.99,.83-4.1,.67,.05,1.37,.07,2.12,.07Zm3.19,4c-.13-1.6-.37-2.96-.64-4.11,.94-.08,1.91-.2,2.93-.38,.86,1.08,1.62,2.39,2.1,3.94-1.53,.27-3,.45-4.39,.55Zm-.79-4.71c-.44-1.65-.97-2.8-1.37-3.52,.99,.55,2.58,1.58,4,3.2-.91,.15-1.79,.25-2.63,.32Zm-.79-3.89c2.4,.31,4.56,1.38,6.24,2.96-.72,.19-1.43,.35-2.13,.48-1.41-1.68-3.02-2.8-4.11-3.44Zm-7.61,3.37c-.68-.15-1.19-.29-1.53-.39,1.61-1.53,3.68-2.58,5.97-2.94-1.28,.61-3,1.67-4.44,3.33Zm-.43,.52c-.83,1.08-1.54,2.39-1.95,3.98-.98-.21-1.67-.4-2.01-.51,.52-1.46,1.34-2.79,2.38-3.9,.26,.09,.8,.25,1.58,.43Zm.64,.14c.83,.17,1.85,.33,3.03,.44-.35,1.14-.64,2.51-.81,4.1-1.67-.14-3.1-.36-4.23-.58,.38-1.46,1.05-2.79,2-3.96Zm3.33,15.03c.54,1.36,1.16,2.32,1.64,2.93-.82-.28-1.96-.78-3.08-1.61-.7-.51-1.31-1.09-1.83-1.72,.95,.17,2.05,.31,3.28,.4Zm4.76,0c.96-.07,1.96-.17,3-.34-1.47,1.6-3.18,2.63-4.24,3.16,.37-.61,.83-1.54,1.24-2.83Zm.18-.62c.3-1.08,.56-2.39,.7-3.93,1.49-.1,3.06-.28,4.69-.56-.36,1.6-1.09,2.95-1.97,4.06-1.19,.21-2.34,.35-3.43,.43Zm8.79-5.82c-.9,.22-1.78,.42-2.64,.58,.06-.47,.1-.96,.1-1.47,0-1.16-.14-2.23-.39-3.21,.84-.16,1.7-.35,2.58-.58,.3,1.01,.46,2.07,.46,3.18,0,.51-.04,1.01-.1,1.51Zm-.54-5.26c-.87,.22-1.72,.41-2.55,.57-.47-1.55-1.2-2.86-2.03-3.96,.72-.14,1.45-.32,2.2-.52,1.05,1.11,1.87,2.44,2.39,3.91ZM1.13,8.7c.35,.11,1.06,.31,2.06,.52-.17,.82-.27,1.7-.27,2.65,0,.74,.05,1.44,.14,2.09-1.19-.24-1.98-.47-2.29-.56-.07-.5-.11-1-.11-1.52,0-1.1,.16-2.17,.46-3.18Zm1.89,10.04c.5,.15,1.2,.33,2.07,.51,.74,1.04,1.59,1.82,2.38,2.39,.68,.5,1.36,.88,1.97,1.17-2.59-.58-4.85-2.05-6.42-4.08Zm10.43,4.24c1.24-.68,3.04-1.86,4.5-3.65,.92-.17,1.86-.38,2.82-.64-1.75,2.28-4.35,3.87-7.32,4.29Z"/>
</svg>