<?xml version="1.0" encoding="UTF-8"?>
<svg id="InternationalIcon" xmlns="http://www.w3.org/2000/svg" viewBox="0 0 21.29 21.64">
<defs><style>.cls-1{fill:#231f20;}.cls-2{fill:none;stroke:#231f20;stroke-miterlimit:10;stroke-width:.12px;}</style></defs>
<path class="cls-2" d="M10.68,.14C4.86,.14,.13,4.95,.13,10.86s4.73,10.72,10.55,10.72,10.55-4.81,10.55-10.72S16.5,.14,10.68,.14Zm8.3,15.99c-.77,.23-1.52,.42-2.25,.57,.63-.91,1.14-1.99,1.38-3.25,.69-.13,1.39-.28,2.11-.46-.22,1.14-.65,2.19-1.24,3.14ZM1.12,13.01c.36,.1,.98,.27,1.82,.43,.23,1.27,.65,2.33,1.16,3.19-.92-.21-1.52-.42-1.74-.5-.59-.94-1.02-2-1.24-3.13Zm2.64,.59c.94,.17,2.11,.34,3.46,.44,.14,1.26,.4,2.31,.71,3.19-1.1-.09-2.06-.24-2.86-.4-.64-.94-1.08-2.02-1.31-3.24Zm-.26-2.74c0-.72,.07-1.4,.2-2.05,.92,.18,2.08,.36,3.44,.48-.05,.65-.09,1.34-.09,2.08,0,.62,.03,1.2,.07,1.74-1.38-.11-2.56-.28-3.5-.46-.08-.57-.12-1.17-.12-1.79Zm14.01,.51c0,.45-.04,.88-.1,1.29-1.32,.24-2.6,.39-3.8,.47,.04-.55,.06-1.14,.06-1.76,0-.73-.02-1.41-.07-2.05,1.14-.09,2.35-.23,3.6-.46,.19,.77,.31,1.6,.31,2.52Zm-6.87,9.29c-.25-.27-.73-.85-1.21-1.8-.1-.21-.21-.44-.32-.69,.44,.02,.91,.04,1.39,.04,.43,0,.88-.01,1.34-.03-.45,1.35-.95,2.15-1.2,2.49Zm-1.73-3.36c-.31-.84-.59-1.9-.75-3.2,.72,.05,1.49,.07,2.3,.07,.68,0,1.38-.02,2.11-.06-.12,1.27-.34,2.33-.59,3.19-1.11,.06-2.13,.05-3.07,0Zm-.8-4.12c-.05-.55-.08-1.15-.08-1.78,0-.73,.03-1.41,.09-2.04,.74,.05,1.54,.08,2.39,.08,.68,0,1.38-.02,2.12-.07,.04,.63,.07,1.3,.07,2.02,0,.64-.02,1.23-.07,1.79-1.65,.1-3.16,.08-4.51-.01Zm1.33-10.08c.47-1.04,.95-1.68,1.21-1.98,.27,.41,.83,1.41,1.3,3.12-1.07,.06-2.06,.05-2.95,0,.15-.43,.3-.81,.45-1.13Zm-1.21,1.1c-.85-.07-1.59-.18-2.21-.3,.35-.38,.73-.74,1.15-1.08,.88-.7,1.76-1.17,2.42-1.46-.4,.59-.92,1.51-1.37,2.84Zm2.3,.97c.49,0,1.01-.01,1.54-.05,.22,.92,.41,2.02,.52,3.33-1.62,.1-3.11,.07-4.42-.02,.14-1.32,.39-2.42,.66-3.32,.53,.04,1.1,.06,1.69,.06Zm3,3.22c-.11-1.3-.29-2.4-.51-3.33,.75-.06,1.53-.16,2.34-.31,.68,.87,1.29,1.93,1.68,3.19-1.22,.22-2.39,.36-3.5,.45Zm-.81-4.18c-.35-1.34-.77-2.27-1.09-2.85,.79,.45,2.05,1.28,3.19,2.59-.73,.12-1.43,.21-2.1,.26Zm-.49-3.19c1.91,.25,3.64,1.12,4.98,2.4-.58,.15-1.14,.29-1.7,.39-1.12-1.36-2.41-2.27-3.28-2.79ZM5.35,3.75c-.54-.12-.95-.23-1.22-.32,1.29-1.24,2.93-2.09,4.76-2.38-1.02,.5-2.39,1.35-3.54,2.7Zm-.67,.77c-.66,.88-1.23,1.94-1.56,3.22-.78-.17-1.33-.33-1.6-.41,.42-1.19,1.07-2.26,1.9-3.16,.21,.07,.64,.2,1.26,.35Zm.78,.17c.66,.14,1.48,.27,2.42,.35-.28,.93-.51,2.03-.64,3.33-1.34-.11-2.47-.29-3.37-.47,.31-1.19,.84-2.26,1.6-3.21Zm2.83,13.41c.43,1.1,.93,1.88,1.31,2.38-.66-.23-1.56-.63-2.46-1.3-.56-.42-1.04-.88-1.46-1.4,.76,.13,1.63,.25,2.61,.32Zm4.36,0c.77-.05,1.57-.14,2.39-.27-1.18,1.3-2.54,2.13-3.38,2.56,.29-.5,.66-1.25,.99-2.29Zm.32-.86c.24-.88,.45-1.93,.56-3.19,1.19-.08,2.44-.23,3.74-.45-.29,1.3-.87,2.39-1.57,3.29-.95,.17-1.86,.28-2.73,.35Zm7.42-5.21c-.72,.18-1.42,.34-2.11,.47,.05-.38,.08-.78,.08-1.19,0-.94-.11-1.81-.31-2.61,.67-.13,1.36-.29,2.06-.47,.24,.82,.37,1.68,.37,2.57,0,.41-.03,.82-.08,1.22Zm-.56-4.69c-.69,.18-1.37,.33-2.04,.46-.38-1.25-.96-2.32-1.62-3.21,.57-.12,1.16-.26,1.75-.42,.83,.9,1.49,1.98,1.91,3.17ZM1.25,8.23c.28,.09,.84,.25,1.64,.42-.14,.66-.21,1.37-.21,2.15,0,.6,.04,1.16,.11,1.69-.95-.2-1.58-.38-1.83-.45-.05-.4-.08-.81-.08-1.23,0-.9,.13-1.76,.37-2.58Zm1.88,8.97c.4,.12,.96,.27,1.66,.42,.59,.84,1.27,1.47,1.9,1.94,.54,.4,1.08,.71,1.57,.95-2.07-.47-3.87-1.66-5.13-3.31Zm9.26,3.44c.99-.55,2.42-1.51,3.59-2.96,.73-.14,1.48-.31,2.25-.52-1.39,1.85-3.47,3.14-5.84,3.48Z"/><g><path class="cls-1" d="M12.44,8.31c-1.56,.1-3,.07-4.27,0,0,.04-.01,.08-.02,.13,1.31,.09,2.8,.12,4.42,.02-.11-1.3-.3-2.41-.52-3.33-.03,0-.06,0-.1,0,.21,.89,.39,1.95,.49,3.19Z"/><path class="cls-1" d="M12.66,4.06c.01,.05,.03,.09,.04,.15,.67-.05,1.37-.14,2.1-.26-.04-.05-.09-.09-.13-.14-.69,.12-1.36,.2-2.01,.25Z"/><path class="cls-1" d="M15.31,4.76c.64,.85,1.21,1.86,1.57,3.05-1.18,.21-2.31,.35-3.39,.43,0,.05,.01,.1,.01,.15,1.11-.08,2.28-.23,3.5-.45-.39-1.26-.99-2.32-1.68-3.19,0,0-.02,0-.03,0Z"/><path class="cls-1" d="M8.25,20.51c-.12-.06-.26-.14-.39-.21-1.66-.43-3.13-1.32-4.27-2.54,1.22,1.36,2.84,2.34,4.66,2.75Z"/><path class="cls-1" d="M17.27,13.6c-.06,.01-.12,.02-.18,.03-.3,1.22-.85,2.27-1.52,3.13-.89,.16-1.74,.27-2.57,.33-.01,.05-.03,.11-.04,.16,.87-.07,1.78-.18,2.73-.35,.7-.9,1.28-1.99,1.57-3.29Z"/><path class="cls-1" d="M7.1,8.23c-1.26-.11-2.34-.27-3.21-.44,0,.04-.02,.07-.03,.11,.9,.18,2.04,.36,3.37,.47,.14-1.3,.37-2.4,.64-3.33-.06,0-.11-.01-.16-.02-.26,.9-.48,1.96-.61,3.21Z"/><path class="cls-1" d="M7.12,13.11c-.05-.55-.07-1.13-.07-1.74,0-.74,.03-1.43,.09-2.08-.05,0-.09,0-.14-.01-.05,.61-.08,1.26-.08,1.95,0,.62,.03,1.2,.07,1.74-1.33-.1-2.46-.27-3.38-.44,0,.04,0,.08,.01,.12,.94,.18,2.12,.35,3.5,.46Z"/><path class="cls-1" d="M12.34,1.04s-.08-.02-.12-.02c.65,.39,1.53,.99,2.4,1.84-.81-.81-1.63-1.41-2.28-1.82Z"/><path class="cls-1" d="M4.68,4.52c-.07-.02-.13-.03-.19-.05-.64,.86-1.17,1.89-1.5,3.13-.65-.14-1.13-.27-1.44-.36-.01,.03-.03,.06-.04,.09,.27,.08,.82,.24,1.6,.41,.33-1.28,.89-2.35,1.56-3.22Z"/><path class="cls-1" d="M12.57,14.12c-.05,0-.1,0-.15,0-.13,1.2-.33,2.22-.57,3.05-1.07,.06-2.07,.05-2.99,0,.02,.04,.03,.09,.04,.14,.94,.06,1.97,.07,3.07,0,.25-.87,.47-1.92,.59-3.19Z"/><path class="cls-1" d="M4.75,17.61c.28,.37,.56,.71,.86,1-.28-.3-.56-.62-.83-.99,0,0-.02,0-.03,0Z"/><path class="cls-1" d="M17.5,11.37c0-.91-.11-1.75-.3-2.52-.03,0-.07,0-.1,.02,.17,.73,.28,1.51,.28,2.36,0,.45-.04,.88-.1,1.29-1.28,.23-2.5,.37-3.66,.46,0,.05,0,.1,0,.15,1.2-.09,2.47-.24,3.8-.47,.06-.41,.1-.84,.1-1.29Z"/><path class="cls-1" d="M12.61,13.19c.04-.56,.07-1.15,.07-1.79,0-.72-.02-1.39-.07-2.02-.04,0-.08,0-.12,0,.04,.59,.06,1.21,.06,1.88s-.02,1.23-.07,1.79c-1.6,.09-3.07,.07-4.39,0,0,.04,0,.09,0,.13,1.34,.09,2.86,.11,4.51,.01Z"/><path class="cls-1" d="M7.11,14.03c.15,1.2,.4,2.22,.69,3.07-1.08-.09-2.02-.23-2.8-.39,.03,.04,.05,.09,.08,.13,.79,.16,1.75,.31,2.86,.4-.3-.88-.56-1.94-.71-3.19-.04,0-.07,0-.11-.01Z"/><path class="cls-1" d="M8.08,4.06c-.75-.07-1.4-.16-1.98-.27-.03,.03-.07,.07-.1,.1,.62,.12,1.36,.23,2.21,.3,.44-1.33,.96-2.25,1.37-2.84-.1,.04-.21,.1-.31,.15-.37,.59-.8,1.41-1.18,2.55Z"/><path class="cls-1" d="M8.29,18.1s-.05,0-.07,0c.42,1.03,.89,1.77,1.25,2.25-.66-.23-1.56-.63-2.46-1.3-.27-.2-.53-.42-.77-.65,.28,.28,.57,.55,.9,.79,.9,.67,1.8,1.07,2.46,1.3-.38-.5-.87-1.28-1.31-2.38Z"/><path class="cls-1" d="M5.22,3.61c-.41-.09-.75-.18-1-.25-.03,.03-.06,.05-.09,.07,.27,.08,.68,.2,1.22,.32,1.15-1.35,2.52-2.2,3.54-2.7-.24,.04-.46,.11-.7,.17-.93,.52-2.02,1.28-2.97,2.39Z"/><path class="cls-1" d="M2.79,12.49c-.07-.53-.11-1.09-.11-1.69,0-.77,.08-1.49,.21-2.15-.05-.01-.1-.02-.15-.03-.12,.63-.2,1.31-.2,2.04,0,.6,.04,1.16,.11,1.69-.83-.17-1.4-.33-1.7-.42,0,.03,0,.07,0,.1,.25,.08,.88,.26,1.83,.45Z"/><path class="cls-1" d="M.13,10.86C.13,4.95,4.86,.14,10.68,.14c2.89,0,5.51,1.19,7.42,3.11-1.92-2-4.59-3.24-7.55-3.24C4.73,0,0,4.81,0,10.72c0,2.98,1.2,5.67,3.13,7.61C1.28,16.4,.13,13.76,.13,10.86Z"/><path class="cls-1" d="M15.37,3.68s.09,.09,.13,.14c.55-.11,1.12-.24,1.7-.39-.05-.05-.1-.09-.15-.13-.57,.15-1.13,.28-1.67,.39Z"/><path class="cls-1" d="M2.36,16.14c.22,.08,.82,.28,1.74,.5-.51-.87-.93-1.92-1.16-3.19-.04,0-.07-.01-.1-.02,.23,1.22,.64,2.24,1.14,3.08-.86-.2-1.42-.39-1.68-.48,.02,.04,.04,.08,.07,.12Z"/><path class="cls-1" d="M10.61,1.14c.29,.48,.78,1.44,1.19,2.95-1,.06-1.93,.05-2.78,0-.02,.05-.03,.08-.05,.13,.89,.06,1.88,.07,2.95,0-.47-1.72-1.03-2.71-1.3-3.12,0,0-.02,.02-.02,.03Z"/><path class="cls-1" d="M14.72,17.88c-1.01,1.06-2.1,1.78-2.9,2.22-.06,.11-.12,.21-.17,.3,.84-.43,2.21-1.27,3.38-2.56-.11,.02-.21,.03-.32,.04Z"/><path class="cls-1" d="M11.83,18.17c-.06,0-.12,0-.18,0-.43,1.25-.9,2.01-1.14,2.34,.04,.05,.09,.11,.13,.14,.25-.34,.75-1.15,1.2-2.49Z"/><path class="cls-1" d="M17.9,4.17c.78,.88,1.39,1.9,1.79,3.03-.67,.17-1.32,.32-1.96,.44,.02,.05,.04,.1,.05,.16,.67-.13,1.35-.28,2.04-.46-.42-1.19-1.07-2.27-1.91-3.17,0,0,0,0-.01,0Z"/><path class="cls-1" d="M18.23,17.16c-.1,.03-.21,.05-.31,.08-1.28,1.59-3.08,2.73-5.13,3.16-.13,.08-.28,.17-.4,.24,2.37-.34,4.45-1.63,5.84-3.48Z"/><path class="cls-1" d="M20.22,12.99c-.06,.01-.11,.02-.17,.04-.23,1.07-.63,2.07-1.2,2.96-.68,.2-1.35,.37-2,.51-.04,.06-.08,.13-.12,.2,.73-.15,1.49-.34,2.25-.57,.59-.94,1.02-2,1.24-3.14Z"/><path class="cls-1" d="M20.46,10.81c0-.89-.13-1.76-.37-2.57-.03,0-.06,.01-.1,.02,.21,.77,.33,1.58,.33,2.41,0,.41-.03,.82-.08,1.22-.67,.17-1.32,.31-1.97,.44,0,.05,0,.12-.01,.17,.69-.13,1.39-.29,2.11-.47,.05-.4,.08-.81,.08-1.22Z"/></g>
</svg>