<svg width="28" height="29" xmlns="http://www.w3.org/2000/svg"><g stroke-width=".25" fill="none" fill-rule="evenodd" stroke-linecap="round"><path d="M11.701 17.887l.162 5.683c.056 1.33-.976 1.94-2.256 1.79-.846-.098-1.43-.727-1.497-1.582l-.253-5.732c-.002-.026-.82-.247-.875-.267-.748-.27-1.658-.599-2.324-1.027-1.984-1.28-3.467-3.345-3.895-5.592C-.158 6.321 3.054 1.396 8.175.952c3.097-.268 5.9 1.006 7.655 3.135m1.124 1.78c.448.957.713 2.013.759 3.13.063 1.545-.305 3.502-1.131 4.875-.444.739-1.002 1.492-1.717 2.093a8.506 8.506 0 01-1.375.973 6.31 6.31 0 01-.438.21" stroke="#020302" stroke-linejoin="bevel"/><path d="M10.723 23.645a.766.766 0 11-1.532 0 .766.766 0 011.532 0zm-.58-.749a.764.764 0 01-.366 1.438.781.781 0 01-.228-.034l.593-1.404z" stroke="#020302" stroke-linejoin="bevel"/><path d="M10.674 16.317a7.039 7.039 0 113.634-11.69m1.194 1.73a7.04 7.04 0 01-3.295 9.436m1.277-13.691c-1.03-.724-2.3-1.185-3.535-1.393-3.067-.517-6.31.965-8.167 3.411C1.037 5.101.563 6.263.328 7.468c-.294 1.5-.305 2.992.211 4.441.341.96.828 1.906 1.48 2.707.73.898 1.657 1.459 2.63 2.055m9.494-11.95l-.024-.034s-.998-1.18-1.905-1.588m-.218 12.22c1.29-.7 2.796-1.967 3.393-4.19 0 0 .744-2.053-.25-4.593m-9.807 8.797c1.345.786 3.004.986 4.523.786 0 0 .233-.04.606-.155" stroke="#231F20" stroke-linejoin="bevel"/><path d="M7.64 18.858l-.028-.762m.184 5.033l-.156-4.271m.867 6.067c-.398-.261-.656-.75-.695-1.353l-.016-.443" stroke="#020302" stroke-linejoin="bevel"/><path d="M12.112 25.511l2.002-5.373c.008-.024-.659-.549-.7-.589-.584-.543-1.294-1.2-1.739-1.858-1.328-1.957-1.887-4.439-1.405-6.675 1.036-4.812 5.913-8.083 10.798-6.479 4.831 1.586 7.332 6.66 5.641 11.148-.544 1.445-1.645 3.102-2.94 4.04-.697.506-1.503.98-2.396 1.252a8.562 8.562 0 01-1.645.355c-.498.05-1.952.012-1.938-.025l-2.143 5.487c-.467 1.246-1.655 1.402-2.775.761-.739-.423-1.032-1.232-.76-2.044z" stroke="#020302" stroke-linejoin="round"/><path d="M14.533 26.417a.766.766 0 11-1.409-.6.766.766 0 011.41.6zm-.24-.917a.767.767 0 01-1.096 1.06l1.095-1.06z" stroke="#020302" stroke-linejoin="bevel"/><path d="M15.271 6.575A7.038 7.038 0 1122.05 18.91a7.038 7.038 0 01-6.779-12.335m10.228 1.1c-.665-1.07-1.653-1.99-2.707-2.665-2.62-1.676-6.184-1.582-8.85-.057-1.07.611-1.96 1.495-2.649 2.511-.857 1.266-1.45 2.634-1.544 4.171-.06 1.016.017 2.077.303 3.07.32 1.11.955 1.99 1.616 2.92m1.153-.966c.93 1.251 2.378 2.083 3.854 2.494 0 0 4.35 1.012 7.045-2.426 0 0 2.268-2.436 1.352-6.424 0 0-.457-1.476-1.132-2.207" stroke="#231F20" stroke-linejoin="bevel"/><path d="M13.421 20.772l.247-.714m-1.624 4.716l1.377-4.002m-1.292 5.99c-.316-.427-.405-1-.227-1.573l.142-.415" stroke="#020302" stroke-linejoin="bevel"/></g></svg>