<?xml version="1.0" encoding="utf-8"?>
<svg version="1.1" id="Layer_1" xmlns="http://www.w3.org/2000/svg" xmlns:xlink="http://www.w3.org/1999/xlink" x="0px" y="0px"
	 viewBox="0 0 512 512" xml:space="preserve">
<g id="XMLID_2_">
	<path id="XMLID_10_" d="M192.1,203.6v191.7c0,3.4-0.9,6-3.4,7.7c-2.6,1.7-4.3,3.4-7.7,3.4h-21.3c-3.4,0-6-0.9-7.7-3.4
		c-1.7-2.6-3.4-4.3-3.4-7.7V203.6c0-3.4,0.9-6,3.4-7.7c2.6-1.7,4.3-3.4,7.7-3.4H181c3.4,0,6,0.9,7.7,3.4
		C190.4,198.5,192.1,200.2,192.1,203.6z M277.3,203.6v191.7c0,3.4-0.9,6-3.4,7.7c-2.6,1.7-4.3,3.4-7.7,3.4h-21.3
		c-3.4,0-6-0.9-7.7-3.4c-1.7-2.6-3.4-4.3-3.4-7.7V203.6c0-3.4,0.9-6,3.4-7.7c2.6-1.7,4.3-3.4,7.7-3.4h21.3c3.4,0,6,0.9,7.7,3.4
		C275.6,198.5,277.3,200.2,277.3,203.6z M362.5,203.6v191.7c0,3.4-0.9,6-3.4,7.7s-4.3,3.4-7.7,3.4h-21.3c-3.4,0-6-0.9-7.7-3.4
		c-1.7-2.6-3.4-4.3-3.4-7.7V203.6c0-3.4,0.9-6,3.4-7.7c2.6-1.7,4.3-3.4,7.7-3.4h21.3c3.4,0,6,0.9,7.7,3.4
		C360.8,198.5,362.5,200.2,362.5,203.6z M405.1,443.8V128.6H106.9v315.2c0,5.1,0.9,9.4,2.6,13.6c1.7,4.3,3.4,6.8,5.1,9.4
		c1.7,2.6,2.6,2.6,3.4,2.6h276.9c0.9,0,1.7-0.9,3.4-2.6c1.7-1.7,3.4-5.1,5.1-9.4C405.1,453.2,405.1,449,405.1,443.8z M181.9,86H331
		l-16.2-39.2c-1.7-1.7-3.4-3.4-6-3.4H203.2c-2.6,0.9-4.3,1.7-6,3.4L181.9,86z M490.3,97.1v21.3c0,3.4-0.9,6-3.4,7.7
		s-4.3,2.6-6.8,2.6h-32.4v315.2c0,18.7-5.1,34.1-15.3,47.7c-10.2,13.6-23,20.4-37.5,20.4H118c-14.5,0-27.3-6.8-37.5-19.6
		c-10.2-12.8-15.3-29-15.3-46.9V128.6H32.8c-3.4,0-6-0.9-7.7-3.4c-1.7-2.6-3.4-4.3-3.4-7.7V96.3c0-3.4,0.9-6,3.4-7.7
		s4.3-3.4,7.7-3.4h103.1l23-55.4c3.4-8.5,9.4-15.3,17.9-21.3s17-8.5,26.4-8.5h106.5c8.5,0,17.9,2.6,26.4,8.5s14.5,12.8,17.9,21.3
		l23,55.4h103.1c3.4,0,6,0.9,7.7,3.4S490.3,93.7,490.3,97.1z"/>
</g>
</svg>
