<?xml version="1.0" encoding="UTF-8"?>
<svg version="1.1" id="Layer_1" xmlns="http://www.w3.org/2000/svg" xmlns:xlink="http://www.w3.org/1999/xlink" x="0px" y="0px"
	 viewBox="0 0 24.6 25.2" xml:space="preserve">
<path class="st0" d="M8.1,13.9"/>
<path d="M8,13.7c-0.3-5.8,3-9.9,3-9.9c0.9-1.1,1.6-1.6,2.2-1.5c0.5,0.1,0.7,0.6,0.7,0.6L13.7,3c0,0-0.1-0.4-0.5-0.4
	c-0.3-0.1-1,0.1-2,1.4c0,0-3.2,4-2.9,9.7L8,13.7z"/>
<path d="M11.4,16.4c-0.3-5.7,3.1-9.7,3.2-9.7c1.1-1.4,2-2,2.5-1.8c0.4,0.1,0.5,0.6,0.5,0.6l-0.2,0c0,0-0.1-0.3-0.3-0.4
	c-0.3-0.1-0.9,0.1-2.3,1.7c0,0-3.4,4-3.1,9.5L11.4,16.4z"/>
<path d="M6.2,10.7l-0.2,0C6,10,6.1,9.3,6.3,8.5C6.7,6.9,7.9,3,10.6,1c1.2-0.9,2.3-1.2,3.3-0.9c1.3,0.3,1.9,1.5,1.9,1.6l-0.2,0.1
	c0,0-0.6-1.1-1.8-1.4c-0.9-0.2-1.9,0.1-3.1,0.9C8.1,3.2,6.9,7,6.6,8.6C6.4,9.3,6.3,10,6.2,10.7z"/>
<path d="M15.6,19.3c-0.1,0-0.1,0-0.2,0c-0.2-0.1-0.4-0.2-0.4-0.5c-0.1-0.5-0.1-1-0.1-1.5c0-0.1,0-0.2,0-0.3c0-1,0.2-2.1,0.4-3.1
	c0.5-2.1,1.4-4,2.7-5.5c1-1.2,1.8-1.8,2.3-1.5C21,7,20.9,8.2,20.9,8.4l-0.2,0c0-0.3,0-1.3-0.4-1.4c-0.2-0.1-0.8,0-2,1.5
	c-1.2,1.5-2.1,3.4-2.6,5.4c-0.2,1-0.4,2-0.4,3c0,0.1,0,0.2,0,0.3c0,0.5-0.1,1,0.1,1.5c0.1,0.2,0.1,0.3,0.3,0.3
	c0.4,0.1,1.4-0.6,2-1.2c1-1,1.7-2.4,2.3-4.2c0.2-0.7,0.4-1.4,0.6-2.3c0.1-0.4,0.2-0.9,0.2-1.4l0.2,0c-0.1,0.5-0.1,0.9-0.2,1.4
	c-0.2,0.9-0.4,1.6-0.6,2.3c-0.6,1.9-1.4,3.3-2.4,4.3C17.2,18.4,16.3,19.3,15.6,19.3z"/>
<path class="st0" d="M23.3,6.5"/>
<path class="st0" d="M23.4,6.8"/>
<path d="M8.3,13.7l-0.2,0c0-0.1,0-0.3,0.1-0.4c0.2-1.5,0.6-2.9,1.2-4.2c0.8-2,2-3.8,3.5-5.3c0.7-0.7,1.2-1.2,1.8-1.5
	c1.3-0.8,2.5-1,3.6-0.7c1.7,0.6,2.4,2.4,2.5,2.5l-0.2,0.1c0,0-0.7-1.8-2.3-2.3c-1-0.3-2.2-0.1-3.4,0.6c-0.5,0.4-1.1,0.8-1.7,1.5
	c-1.4,1.5-2.6,3.3-3.4,5.2c-0.5,1.3-0.9,2.7-1.1,4.1C8.3,13.5,8.3,13.6,8.3,13.7z"/>
<path d="M8.3,18.3c-0.1-0.3-0.2-0.6-0.2-0.9l0.2,0c0.1,0.3,0.1,0.6,0.2,0.9L8.3,18.3z"/>
<path class="st0" d="M12.6,17.7"/>
<path d="M20.1,8.6c-0.7,0-1.3-0.2-1.7-0.6l0.2-0.2c0.7,0.5,1.6,0.7,2.6,0.4c0.6-0.2,1.1-0.7,1.1-0.7l0,0c0.5-0.6,0.8-1.3,0.8-2
	c0-0.7-0.3-1.4-0.8-1.9C21.6,3,20.7,2.7,19.8,3l-0.1-0.2c1-0.3,2.1-0.1,2.8,0.6c0.6,0.5,0.9,1.3,0.8,2.1c0,0.8-0.3,1.6-0.9,2.2l0,0
	c0,0-0.5,0.6-1.2,0.8C20.8,8.6,20.4,8.6,20.1,8.6z"/>
<path d="M16,6.9c-0.1-0.5-0.1-1.1,0-1.6l0.2,0c-0.1,0.5-0.1,1,0,1.5L16,6.9z"/>
<path class="st0" d="M17.4,6"/>
<path d="M17.3,5.6c0-0.2,0-0.3,0-0.5l0.2,0c0,0.1,0,0.3,0,0.4L17.3,5.6z"/>
<path d="M16.5,18.9l-0.2-0.2c0.8-0.8,2.7-3.4,3.8-8.9l0.2,0C19.3,15.2,17.5,17.8,16.5,18.9z"/>
<path d="M20,10.1c-0.1,0-0.3,0-0.4,0c-0.7-0.1-1.4-0.4-2.1-0.9L17.7,9c0.6,0.5,1.3,0.8,1.9,0.8c3,0.2,4.3-2.4,4.3-2.4
	c0.8-1.6,0.5-3.5-0.7-4.6c-1.1-1.1-2.8-1.3-4.4-0.6l-0.1-0.2c1.6-0.7,3.4-0.5,4.6,0.7c1.3,1.2,1.6,3.2,0.8,4.9
	C24.1,7.6,22.9,10.1,20,10.1z"/>
<path d="M15,22c-0.5,0-0.9-0.1-1.2-0.4c-1-0.7-1.4-2.4-1.3-5.1c0.1-3.2,1.2-7.5,4-10.2c1.4-1.7,2.7-2.4,3.9-2.2
	c1.5,0.2,2.4,1.8,2.6,2.3l-0.2,0.1c-0.2-0.5-1-2-2.4-2.2c-1.1-0.2-2.4,0.6-3.7,2.2c-2.7,2.6-3.8,6.9-3.9,10
	c-0.1,2.7,0.3,4.3,1.2,4.9c0.6,0.4,1.3,0.4,2.3,0.1c1.6-0.6,3.1-2.1,4.5-4.4c1.4-2.4,2.2-5.3,2.4-8.4l0.2,0c-0.2,3.1-1,6.1-2.4,8.5
	c-1.4,2.4-2.9,3.9-4.6,4.5C15.8,21.9,15.4,22,15,22z"/>
<path d="M14.3,10.1L14,10c0.2-1.6,0.3-3,0.3-3.1l0.2,0C14.6,7,14.5,8.4,14.3,10.1z"/>
<path class="st0" d="M16.9,10.4"/>
<path class="st0" d="M17.2,10"/>
<path d="M15.2,16.6L15,16.5c1.1-2,2.7-7.1,2.7-7.1l0.2,0.1C17.9,9.5,16.3,14.6,15.2,16.6z"/>
<path class="st0" d="M13.5,21.1"/>
<path d="M11.9,22.1c-0.3,0-0.6,0-0.9-0.1c-1.2-0.4-2.2-1.7-2.8-3.9L8.5,18c0.6,2.1,1.5,3.3,2.6,3.7c1.3,0.5,2.5-0.5,2.6-0.5l0.2,0.2
	C13.5,21.7,12.7,22.1,11.9,22.1z"/>
<path class="st1" d="M11.1,24.5"/>
<path d="M12.4,18.3c-0.1,0-0.1,0-0.2,0c-0.6-0.3-0.8-1.7-0.8-1.9l0.2,0c0.1,0.6,0.3,1.6,0.6,1.7c0,0,0.1,0.1,0.3-0.1l0.1,0.2
	C12.6,18.3,12.5,18.3,12.4,18.3z"/>
<path d="M5.5,9.4c1.1,4.2,3.5,5.4,5.1,5.8c-2.4,0.9-3.8,3.2-4,6.8c-1.1-4.2-3.4-5.5-5-5.9C4.4,15,5.3,11.8,5.5,9.4 M5.2,6
	c0,0.3,0,0.5,0.1,0.7C5.3,6.3,5.2,6,5.2,6L5.2,6z M5.3,6.7c0.1,2.3,0,8.9-5.1,9.5c0.1,0,0.1,0,0.2,0c1.4,0,5.7,0.7,6.5,9
	c0,0,0,0,0,0c0.2,0-1.8-9.1,5.1-10.2c0,0-0.1,0-0.3,0C10.6,15,6,14.5,5.3,6.7L5.3,6.7z M0.2,16.2c-0.1,0-0.2,0-0.2,0
	C0.1,16.2,0.1,16.2,0.2,16.2L0.2,16.2z"/>
<path class="st0" d="M8.8,4.8"/>
<path d="M9.6,20.9c-0.8-0.1-1.5-0.7-2.2-1.6c-0.1-0.1-0.2-0.3-0.3-0.4l0.2-0.1c0.1,0.1,0.2,0.3,0.3,0.4c0.6,0.9,1.3,1.4,2,1.5
	L9.6,20.9z"/>
</svg>
