<?xml version="1.0" encoding="utf-8"?>
<svg version="1.1" id="Layer_1" xmlns="http://www.w3.org/2000/svg" xmlns:xlink="http://www.w3.org/1999/xlink" x="0px" y="0px"
	 viewBox="0 0 24.3 24.4" xml:space="preserve">
<path d="M17.4,1.4h-0.2V0.7c0-0.4,0.4-0.7,0.9-0.7v0.2c-0.3,0-0.6,0.2-0.6,0.5V1.4z"/>
<path d="M6.2,1.4H5.9V0.7C5.9,0.3,6.3,0,6.9,0v0.2c-0.4,0-0.7,0.2-0.7,0.5V1.4z"/>
<path d="M1.2,22.8C0.4,22.1,0,21.2,0,20.2V4.8c0-1.9,1.6-3.5,3.5-3.5h2.8v0.2H3.5C1.7,1.6,0.2,3,0.2,4.8v15.3c0,0.9,0.4,1.8,1.1,2.4
	L1.2,22.8z"/>
<path d="M23,3.1c-0.6-1-1.6-1.5-2.8-1.5h-1.4V1.3h1.4c1.2,0,2.3,0.6,3,1.6L23,3.1z"/>
<rect x="7.5" y="1.3" width="10" height="0.2"/>
<path d="M1.3,23c-0.5-0.6-0.7-1.4-0.7-2.1V5.5C0.6,3.6,2.2,2,4.1,2h2.2v0.2H4.1c-1.8,0-3.3,1.5-3.3,3.3v15.3c0,0.7,0.2,1.4,0.7,2
	L1.3,23z"/>
<path d="M20.8,24.4H4.1C3,24.4,2,23.9,1.3,23l0.2-0.2c0.6,0.8,1.6,1.3,2.6,1.3h16.7c1.8,0,3.3-1.5,3.3-3.3V5.5c0-0.9-0.3-1.7-1-2.3
	L23.3,3c0.7,0.7,1,1.5,1,2.5v15.3C24.3,22.8,22.7,24.4,20.8,24.4z"/>
<path d="M23.1,3.2c-0.6-0.6-1.4-1-2.3-1h-2V2h2c0.9,0,1.8,0.4,2.5,1L23.1,3.2z"/>
<rect x="7.5" y="2" width="10" height="0.2"/>
<rect x="1.1" y="8.8" width="22.3" height="0.2"/>
<path d="M7,4.3L7,4.3C6.5,4.3,6.2,4,6.2,3.6V0.7C6.2,0.3,6.5,0,6.9,0H7c0.4,0,0.7,0.3,0.7,0.7v2.9C7.6,4,7.3,4.3,7,4.3z M6.9,0.3
	c-0.2,0-0.4,0.2-0.4,0.4v2.9C6.4,3.8,6.6,4,6.9,4H7c0.2,0,0.4-0.2,0.4-0.4V0.7C7.4,0.4,7.2,0.3,6.9,0.3L6.9,0.3z"/>
<path d="M18.2,4.3L18.2,4.3c-0.5,0-0.8-0.3-0.8-0.7V0.7c0-0.4,0.3-0.7,0.7-0.7h0.1c0.4,0,0.7,0.3,0.7,0.7v2.9
	C18.9,4,18.6,4.3,18.2,4.3z M18.1,0.3c-0.2,0-0.4,0.2-0.4,0.4v2.9c0,0.2,0.2,0.4,0.4,0.4h0.1c0.2,0,0.4-0.2,0.4-0.4V0.7
	C18.6,0.4,18.4,0.3,18.1,0.3L18.1,0.3z"/>
<path d="M20.1,13.5c-0.7,0-1.4-0.6-1.4-1.4s0.6-1.4,1.4-1.4s1.4,0.6,1.4,1.4S20.9,13.5,20.1,13.5z M20.1,11.1
	c-0.6,0-1.1,0.5-1.1,1.1s0.5,1.1,1.1,1.1s1.1-0.5,1.1-1.1S20.8,11.1,20.1,11.1z"/>
<path d="M14.9,13.5c-0.7,0-1.4-0.6-1.4-1.4s0.6-1.4,1.4-1.4s1.4,0.6,1.4,1.4S15.7,13.5,14.9,13.5z M14.9,11.1
	c-0.6,0-1.1,0.5-1.1,1.1s0.5,1.1,1.1,1.1s1.1-0.5,1.1-1.1S15.6,11.1,14.9,11.1z"/>
<path d="M9.5,13.5c-0.7,0-1.4-0.6-1.4-1.4s0.6-1.4,1.4-1.4s1.4,0.6,1.4,1.4S10.2,13.5,9.5,13.5z M9.5,11.1c-0.6,0-1.1,0.5-1.1,1.1
	s0.5,1.1,1.1,1.1s1.1-0.5,1.1-1.1S10.1,11.1,9.5,11.1z"/>
<path d="M4.4,17.9c-0.7,0-1.4-0.6-1.4-1.4c0-0.7,0.6-1.4,1.4-1.4s1.4,0.6,1.4,1.4C5.7,17.3,5.1,17.9,4.4,17.9z M4.4,15.4
	c-0.6,0-1.1,0.5-1.1,1.1c0,0.6,0.5,1.1,1.1,1.1s1.1-0.5,1.1-1.1C5.5,15.9,5,15.4,4.4,15.4z"/>
<path d="M20.1,17.9c-0.7,0-1.4-0.6-1.4-1.4c0-0.7,0.6-1.4,1.4-1.4s1.4,0.6,1.4,1.4C21.5,17.3,20.9,17.9,20.1,17.9z M20.1,15.4
	c-0.6,0-1.1,0.5-1.1,1.1c0,0.6,0.5,1.1,1.1,1.1s1.1-0.5,1.1-1.1C21.3,15.9,20.8,15.4,20.1,15.4z"/>
<path d="M20.1,22.3c-0.7,0-1.4-0.6-1.4-1.4s0.6-1.4,1.4-1.4s1.4,0.6,1.4,1.4S20.9,22.3,20.1,22.3z M20.1,19.8
	c-0.6,0-1.1,0.5-1.1,1.1s0.5,1.1,1.1,1.1s1.1-0.5,1.1-1.1S20.8,19.8,20.1,19.8z"/>
<path d="M14.9,17.9c-0.7,0-1.4-0.6-1.4-1.4c0-0.7,0.6-1.4,1.4-1.4s1.4,0.6,1.4,1.4C16.3,17.3,15.7,17.9,14.9,17.9z M14.9,15.4
	c-0.6,0-1.1,0.5-1.1,1.1c0,0.6,0.5,1.1,1.1,1.1s1.1-0.5,1.1-1.1C16,15.9,15.6,15.4,14.9,15.4z"/>
<path d="M9.5,17.9c-0.7,0-1.4-0.6-1.4-1.4c0-0.7,0.6-1.4,1.4-1.4s1.4,0.6,1.4,1.4C10.8,17.3,10.2,17.9,9.5,17.9z M9.5,15.4
	c-0.6,0-1.1,0.5-1.1,1.1c0,0.6,0.5,1.1,1.1,1.1s1.1-0.5,1.1-1.1C10.6,15.9,10.1,15.4,9.5,15.4z"/>
<path d="M4.4,22.3c-0.7,0-1.4-0.6-1.4-1.4s0.6-1.4,1.4-1.4s1.4,0.6,1.4,1.4S5.1,22.3,4.4,22.3z M4.4,19.8c-0.6,0-1.1,0.5-1.1,1.1
	S3.7,22,4.4,22s1.1-0.5,1.1-1.1S5,19.8,4.4,19.8z"/>
<path d="M14.9,22.3c-0.7,0-1.4-0.6-1.4-1.4s0.6-1.4,1.4-1.4s1.4,0.6,1.4,1.4S15.7,22.3,14.9,22.3z M14.9,19.8
	c-0.6,0-1.1,0.5-1.1,1.1s0.5,1.1,1.1,1.1s1.1-0.5,1.1-1.1S15.6,19.8,14.9,19.8z"/>
<path d="M9.5,22.3c-0.7,0-1.4-0.6-1.4-1.4s0.6-1.4,1.4-1.4s1.4,0.6,1.4,1.4S10.2,22.3,9.5,22.3z M9.5,19.8c-0.6,0-1.1,0.5-1.1,1.1
	S8.9,22,9.5,22s1.1-0.5,1.1-1.1S10.1,19.8,9.5,19.8z"/>
</svg>
